<svg width="93" height="93" viewBox="0 0 93 93" fill="none" xmlns="http://www.w3.org/2000/svg">
<g clip-path="url(#clip0_26_2358)">
<path d="M73.8371 54.4624C78.2383 39.3526 69.5573 23.5357 54.4475 19.1345C39.3377 14.7332 23.5208 23.4142 19.1196 38.5241C14.7183 53.6339 23.3993 69.4507 38.5092 73.852C53.619 78.2532 69.4358 69.5722 73.8371 54.4624Z" fill="#3264AE"/>
<g style="mix-blend-mode:multiply">
<path d="M38.4737 32.3113C41.6691 32.7847 44.8305 33.537 48.0766 33.6216C51.3226 33.7061 54.1291 32.7763 57.1638 31.6689C58.6592 31.0447 60.2362 30.6376 61.8469 30.4601C63.7827 30.3248 65.4395 31.0603 67.1724 31.8295C68.5216 32.472 69.9976 32.8041 71.492 32.8016L71.3652 32.5818C70.682 32.6045 69.9989 32.5306 69.3364 32.3621C67.0625 31.7619 65.1098 30.2741 62.7344 30.1811C60.1309 30.0797 57.6625 31.2209 55.2956 32.1C52.2667 33.2163 49.0157 33.5958 45.8111 33.2074C43.0131 32.9115 40.2658 32.1761 37.4678 31.9225C33.6977 31.5844 29.8599 33.3173 26.411 34.4584C24.3367 35.2134 22.1848 35.735 19.995 36.0138L19.8513 36.3604C25.9123 35.9462 32.734 31.4745 38.4737 32.3113Z" fill="#3264AE"/>
</g>
<g style="mix-blend-mode:multiply">
<path d="M25.6754 65.9555C28.1445 65.8763 30.6049 65.622 33.0381 65.1947C34.678 64.9242 36.3264 64.4846 37.9832 64.3494C40.4685 64.0958 42.6748 65.0341 44.9318 65.9048C49.8093 67.7983 54.5685 67.3165 59.5897 66.2683C62.6497 65.6258 65.7351 65.0172 68.7952 64.2818L69.0911 63.9014C66.927 64.4339 64.7377 64.9157 62.5398 65.3722C57.2143 66.4627 51.7366 67.9082 46.3857 66.1499C44.433 65.4906 42.5733 64.5184 40.5277 64.1719C38.8874 63.9823 37.2263 64.0911 35.6248 64.4931C32.2843 65.1934 28.8913 65.6147 25.481 65.7526L25.6754 65.9555Z" fill="#3264AE"/>
</g>
<g style="mix-blend-mode:screen" opacity="0.47">
<path d="M59.8517 56.6736C59.3445 56.775 59.5474 57.5189 60.0039 57.5189C62.6666 57.5189 65.3378 57.1977 67.9752 57.5866C66.6481 58.5164 64.5433 58.3812 63.0301 58.8461C60.6125 59.5984 58.6598 60.8918 56.0224 60.5367C54.5732 60.2199 53.0798 60.1598 51.6098 60.3592C49.0063 60.8326 47.6622 61.2722 45.2192 60.0972C42.0492 58.5671 38.5919 59.2518 35.2191 59.5562C34.6442 59.6069 28.82 59.5562 28.913 60.4015V60.5959C28.9182 60.7086 28.9529 60.8179 29.0138 60.9128C29.0746 61.0078 29.1594 61.0851 29.2596 61.1369C32.4718 62.5063 36.1489 61.7371 39.5302 61.7033C42.9115 61.6695 46.1237 63.6222 49.3697 62.8191C50.2996 62.5909 51.1618 62.1513 52.1001 61.9738C53.6132 61.6441 54.9066 62.0499 56.3859 62.1851C57.949 62.2939 59.5141 62.003 60.9337 61.3398C62.8953 60.5508 64.92 59.9287 66.9862 59.4801C67.5486 59.3701 68.0821 59.1452 68.5534 58.8194C69.0247 58.4935 69.4236 58.0738 69.7251 57.5866C69.7625 57.5047 69.7812 57.4155 69.78 57.3254C69.7788 57.2354 69.7576 57.1467 69.718 57.0659C69.6784 56.985 69.6213 56.914 69.5509 56.8578C69.4805 56.8017 69.3985 56.7619 69.3109 56.7412C66.1948 56.0799 62.977 56.0569 59.8517 56.6736V56.6736Z" fill="#60BFEE"/>
</g>
<g style="mix-blend-mode:screen" opacity="0.47">
<path d="M57.3327 35.3463C54.391 36.1071 51.5169 35.4139 48.5667 35.8535C45.9801 36.2339 44.0781 38.8628 41.4322 38.6008C39.4542 38.4063 37.5015 37.7555 35.515 37.6117C33.3035 37.3847 31.0727 37.4244 28.8708 37.7301C26.0896 38.1697 20.4176 39.4884 20.0879 43.0049C20.0372 43.4614 20.4091 43.9601 20.9332 43.7657C22.3618 43.2162 23.5452 42.2357 24.9738 41.6862C26.773 41.0927 28.6198 40.6543 30.4938 40.3759C32.3958 39.9956 34.2977 39.6321 36.242 39.4292C38.1862 39.2263 40.1811 40.0378 42.1592 39.7842C43.8498 39.5729 44.6952 38.5923 45.9716 37.7216C48.5076 36.031 51.3647 36.6312 54.2135 36.572C59.0994 36.4537 63.7487 32.7934 68.2965 36.1663C68.3604 36.2234 68.4444 36.2529 68.53 36.2481C68.6156 36.2434 68.6958 36.2048 68.753 36.1409C68.8102 36.077 68.8396 35.993 68.8349 35.9074C68.8301 35.8218 68.7916 35.7416 68.7277 35.6844C65.507 32.4806 61.0437 34.3911 57.3327 35.3463Z" fill="#60BFEE"/>
</g>
<g style="mix-blend-mode:screen" opacity="0.47">
<path d="M60.6294 45.5238C58.533 45.9464 57.0706 47.3581 54.8221 47.561C52.5735 47.7639 50.3165 47.375 48.0595 47.4004C43.4779 47.4004 39.209 48.6177 34.788 49.649C29.8895 50.6744 24.9319 51.3943 19.9441 51.8045C18.9974 51.906 18.7522 53.3937 19.792 53.5628C24.7033 54.4081 29.7583 53.3007 34.4329 51.7961C39.7331 50.1054 44.5007 48.4148 50.1813 48.5078C52.3706 48.5078 54.653 48.829 56.7748 48.1274C59.2262 47.2821 60.8746 45.8704 63.681 46.3353C67.0623 46.8932 70.3844 48.1527 73.1655 45.4139C73.4022 45.1857 73.0472 44.7545 72.7767 44.9659C68.6853 48.2711 64.9744 44.6277 60.6294 45.5238Z" fill="#60BFEE"/>
</g>
<g style="mix-blend-mode:screen" opacity="0.47">
<path d="M48.888 25.5321C47.2565 25.7856 46.4027 27.0452 45.1009 27.9243C41.7873 30.156 38.3891 28.4569 34.8303 28.161C32.2445 27.9673 29.6477 28.3423 27.2224 29.2599C27.2224 29.2599 27.2224 29.3191 27.2224 29.3106C31.0771 28.0004 34.5006 28.2371 38.4483 28.9387C40.5785 29.3191 42.6749 29.5642 44.5853 28.4061C45.4982 27.8567 46.1576 26.9945 47.0367 26.4112C48.6006 25.3799 50.2743 25.4982 51.9987 26.0392C54.2811 26.7578 55.8957 27.3833 57.916 25.8025C57.916 25.8025 57.916 25.7265 57.916 25.7518C54.8897 28.3808 52.0579 25.0333 48.888 25.5321Z" fill="#60BFEE"/>
</g>
<g style="mix-blend-mode:screen" opacity="0.47">
<path d="M61.3397 67.6716C60.0633 70.4442 57.7724 69.5651 55.4224 69.9201C53.3514 70.2413 51.9989 71.9658 50.0208 72.5153C47.0368 73.3606 44.6023 71.56 41.7198 71.1036C39.59 70.7883 37.4297 70.7343 35.2869 70.943C35.2869 70.943 35.2869 71.0021 35.2869 71.0021C38.7233 70.7235 42.1798 71.1728 45.4307 72.3208C47.2735 72.921 49.0149 73.2676 50.8408 72.4223C52.0242 71.8728 52.9541 70.9007 54.1798 70.4104C55.5492 69.861 56.7834 70.0807 58.212 69.9793C58.9135 69.9859 59.5987 69.7679 60.1675 69.3573C60.7363 68.9466 61.1589 68.3648 61.3735 67.6969C61.3735 67.6969 61.3566 67.6378 61.3397 67.6716Z" fill="#60BFEE"/>
</g>
<g style="mix-blend-mode:screen" opacity="0.3">
<path d="M25.7853 43.4953C25.4028 43.6315 25.0892 43.9125 24.9121 44.2778C24.7349 44.6431 24.7085 45.0634 24.8385 45.448C24.8569 45.7299 24.9386 46.004 25.0776 46.2499C25.2167 46.4958 25.4094 46.7071 25.6416 46.8682C26.7144 47.5923 27.9822 47.9726 29.2765 47.9586C29.9561 48.1656 30.6822 48.1634 31.3606 47.9524C32.0389 47.7413 32.6382 47.3312 33.0804 46.7752C33.3351 46.4759 33.4663 46.091 33.4474 45.6985C33.4286 45.306 33.2611 44.9354 32.979 44.6619C31.1615 42.8444 28.1184 42.5993 25.7853 43.4953Z" fill="#60BFEE"/>
</g>
<g style="mix-blend-mode:screen" opacity="0.3">
<path d="M37.0958 45.2366C37.1048 45.4204 37.1864 45.5932 37.3227 45.7168C37.4591 45.8405 37.6389 45.9049 37.8228 45.8959C38.0066 45.887 38.1793 45.8053 38.303 45.669C38.4267 45.5327 38.4911 45.3528 38.4821 45.169C38.4731 44.9851 38.3915 44.8124 38.2552 44.6887C38.1189 44.5651 37.939 44.5006 37.7551 44.5096C37.5713 44.5186 37.3986 44.6002 37.2749 44.7365C37.1513 44.8729 37.0868 45.0528 37.0958 45.2366Z" fill="#60BFEE"/>
</g>
<g style="mix-blend-mode:screen" opacity="0.3">
<path d="M60.1308 38.4913C58.0006 37.646 54.6362 37.8996 55.135 40.6722C55.6168 43.3012 59.0319 43.2082 61.3734 42.5319C64.0277 44.6537 69.1842 44.2226 68.4065 39.996C67.6795 35.9554 62.0412 35.5496 60.1308 38.4913Z" fill="#60BFEE"/>
</g>
<g style="mix-blend-mode:screen" opacity="0.3">
<path d="M59.6996 35.9891C59.5754 36.0664 59.4842 36.1869 59.4436 36.3274C59.4031 36.4678 59.416 36.6184 59.4798 36.7499C59.5065 36.8285 59.5571 36.8967 59.6246 36.9451C59.6921 36.9934 59.773 37.0194 59.856 37.0194C59.939 37.0194 60.0199 36.9934 60.0873 36.9451C60.1548 36.8967 60.2055 36.8285 60.2322 36.7499V36.7499L60.2913 36.7077C60.3398 36.6647 60.38 36.6131 60.4097 36.5555C60.4428 36.5038 60.4604 36.4436 60.4604 36.3822C60.4604 36.3208 60.4428 36.2606 60.4097 36.2089C60.3418 36.0885 60.2304 35.9987 60.0983 35.9578C59.9663 35.9169 59.8236 35.9281 59.6996 35.9891Z" fill="#60BFEE"/>
</g>
<g style="mix-blend-mode:screen" opacity="0.3">
<path d="M49.9953 52.2691C49.8277 52.3796 49.6792 52.5166 49.5558 52.6749C48.948 52.9491 48.4018 53.343 47.9496 53.833C47.8036 53.9942 47.6992 54.1886 47.6453 54.3994C47.534 54.4486 47.429 54.5111 47.3326 54.5853C47.2902 54.6145 47.2557 54.6537 47.2321 54.6994C47.2085 54.7451 47.1966 54.7959 47.1973 54.8474C47.434 56.538 49.5051 57.8229 51.1365 58.0596C52.0703 58.1624 53.0083 57.9073 53.7613 57.3456C54.5144 56.784 55.0264 55.9577 55.1941 55.0334C55.3716 53.4441 53.943 52.4974 52.5313 52.2861C52.382 52.278 52.2325 52.278 52.0833 52.2861C51.7662 52.1035 51.4074 52.006 51.0415 52.003C50.6757 52 50.3153 52.0917 49.9953 52.2691Z" fill="#60BFEE"/>
</g>
<g style="mix-blend-mode:screen" opacity="0.3">
<path d="M66.775 50.452C66.797 50.8503 66.9036 51.2393 67.0877 51.5932C67.1363 51.6862 67.1899 51.7765 67.2484 51.8637C67.2761 51.9218 67.3071 51.9782 67.3413 52.0327C67.3413 52.0327 67.4766 52.3032 67.3413 52.0835C67.4342 52.3611 67.6324 52.5912 67.8933 52.7241C68.1543 52.8569 68.457 52.8818 68.7361 52.7935C69.2703 52.581 69.7191 52.1975 70.0125 51.7031C70.1079 51.5171 70.146 51.3069 70.1219 51.0993C70.0978 50.8916 70.0127 50.6958 69.8773 50.5365C69.7914 50.4347 69.6856 50.3514 69.5664 50.2918C69.4472 50.2323 69.3172 50.1976 69.1841 50.1899C69.0575 49.9715 68.8782 49.7883 68.6627 49.6569C68.4471 49.5255 68.2021 49.4501 67.9499 49.4376C67.8039 49.4142 67.6546 49.423 67.5123 49.4633C67.3701 49.5037 67.2383 49.5747 67.1264 49.6713C67.0145 49.768 66.925 49.8879 66.8643 50.0228C66.8036 50.1576 66.7731 50.3041 66.775 50.452V50.452Z" fill="#60BFEE"/>
</g>
<g style="mix-blend-mode:screen" opacity="0.3">
<path d="M23.3171 60.0463C23.3577 60.4733 23.4515 60.8936 23.596 61.2974C23.6974 61.9174 23.9779 62.4942 24.4029 62.9568C24.828 63.4194 25.3791 63.7476 25.9883 63.901H26.0728C26.3294 63.9951 26.6022 64.0368 26.8751 64.0238C27.1481 64.0107 27.4156 63.9431 27.662 63.8249C28.2791 63.5206 28.1608 62.6922 27.7888 62.278C27.6137 62.1008 27.4074 61.9575 27.1802 61.8553C27.073 61.2295 26.8111 60.6404 26.4185 60.1414C26.0258 59.6424 25.5147 59.2495 24.9316 58.9981C24.7577 58.911 24.564 58.8708 24.3697 58.8816C24.1754 58.8924 23.9874 58.9539 23.8242 59.0598C23.661 59.1658 23.5283 59.3125 23.4393 59.4856C23.3504 59.6586 23.3082 59.852 23.3171 60.0463V60.0463Z" fill="#60BFEE"/>
</g>
<g style="mix-blend-mode:screen" opacity="0.3">
<path d="M40.6207 22.0578C40.1668 22.2609 39.743 22.5254 39.3612 22.844C39.2313 22.9324 39.123 23.0489 39.0442 23.1848C38.9654 23.3207 38.9182 23.4726 38.906 23.6293C38.8938 23.7859 38.917 23.9433 38.9739 24.0898C39.0307 24.2362 39.1197 24.368 39.2344 24.4755C39.6069 24.8349 40.1031 25.0376 40.6207 25.0418C41.0141 24.9954 41.3893 24.85 41.7112 24.6192C41.8189 24.5493 41.9117 24.4588 41.9843 24.3529C42.0568 24.247 42.1076 24.1278 42.1339 24.0021C42.3183 24.0014 42.4981 23.9443 42.6492 23.8386C42.8003 23.7328 42.9154 23.5834 42.9792 23.4103C43.0586 23.1981 43.0578 22.9641 42.9768 22.7524C42.8959 22.5407 42.7404 22.3658 42.5396 22.2607C41.9437 21.9698 41.2643 21.898 40.6207 22.0578Z" fill="#60BFEE"/>
</g>
<g style="mix-blend-mode:screen" opacity="0.3">
<path d="M48.2117 41.2295C48.2353 41.3821 48.3146 41.5206 48.4342 41.6183C48.5538 41.7159 48.7053 41.7659 48.8596 41.7586C49.0138 41.7512 49.1599 41.6871 49.2697 41.5785C49.3795 41.4699 49.4453 41.3245 49.4543 41.1704C49.4307 41.0178 49.3514 40.8793 49.2317 40.7816C49.1121 40.684 48.9607 40.634 48.8064 40.6413C48.6521 40.6487 48.506 40.7128 48.3962 40.8214C48.2865 40.93 48.2207 41.0754 48.2117 41.2295V41.2295Z" fill="#60BFEE"/>
</g>
<g style="mix-blend-mode:screen" opacity="0.3">
<path d="M59.539 24.2476L59.6066 24.4167C59.6716 24.5805 59.7862 24.7199 59.9343 24.8155C60.0824 24.911 60.2566 24.9578 60.4327 24.9495C60.6087 24.9411 60.7777 24.8779 60.9161 24.7687C61.0545 24.6595 61.1552 24.5099 61.2043 24.3406L61.255 24.1631C61.2903 24.0282 61.2934 23.8868 61.2638 23.7506C61.2343 23.6143 61.1731 23.4868 61.0852 23.3786C60.9972 23.2704 60.885 23.1844 60.7577 23.1276C60.6303 23.0709 60.4913 23.0449 60.352 23.0519C60.2127 23.0589 60.0771 23.0985 59.956 23.1677C59.8349 23.2369 59.7318 23.3336 59.6551 23.4501C59.5784 23.5666 59.5303 23.6995 59.5145 23.838C59.4987 23.9766 59.5158 24.1169 59.5644 24.2476H59.539Z" fill="#60BFEE"/>
</g>
<g style="mix-blend-mode:screen" opacity="0.3">
<path d="M51.0183 21.99C50.8909 22.0641 50.7908 22.1774 50.733 22.3129C50.6751 22.4484 50.6625 22.599 50.6971 22.7423C50.7488 22.8841 50.85 23.0023 50.982 23.0753C51.1141 23.1483 51.268 23.1712 51.4156 23.1396C51.5035 23.1289 51.5872 23.0958 51.6586 23.0434C51.73 22.991 51.7867 22.921 51.8233 22.8404C51.8598 22.7597 51.8749 22.6709 51.8672 22.5827C51.8594 22.4944 51.8291 22.4097 51.7791 22.3366C51.7731 22.2459 51.7374 22.1598 51.6776 22.0914C51.5986 21.9976 51.4882 21.9357 51.367 21.917C51.2457 21.8984 51.1219 21.9243 51.0183 21.99V21.99Z" fill="#60BFEE"/>
</g>
<g style="mix-blend-mode:screen" opacity="0.3">
<path d="M40.6207 67.1046C43.7399 68.7952 48.871 70.4859 52.3622 69.2263C52.4758 69.1884 52.5739 69.1144 52.6416 69.0155C52.7093 68.9167 52.7428 68.7984 52.737 68.6788C52.7313 68.5591 52.6866 68.4446 52.6098 68.3527C52.533 68.2608 52.4282 68.1966 52.3114 68.1697C50.4686 67.6625 48.4399 67.9668 46.5295 67.6202C44.619 67.2736 42.8101 66.6735 40.9588 66.1832C40.8437 66.1631 40.7252 66.1841 40.624 66.2425C40.5228 66.3009 40.4453 66.393 40.405 66.5027C40.3648 66.6124 40.3643 66.7327 40.4037 66.8427C40.4431 66.9527 40.5199 67.0454 40.6207 67.1046V67.1046Z" fill="#60BFEE"/>
</g>
<g style="mix-blend-mode:screen" opacity="0.26">
<path d="M61.1619 22.0659C56.141 19.0551 50.3146 17.6638 44.475 18.0814C38.6354 18.4989 33.0662 20.7049 28.5247 24.3995C23.9831 28.094 20.6898 33.0977 19.0925 38.7301C17.4953 44.3625 17.6716 50.3501 19.5975 55.8787C25.8106 59.1755 33.7735 59.3699 40.646 57.3581C57.4594 52.4721 66.4959 35.143 61.1619 22.0659Z" fill="#60BFEE"/>
</g>
<g style="mix-blend-mode:multiply" opacity="0.47">
<path d="M68.415 28.2881C68.3559 28.4064 68.2967 28.5248 68.2375 28.66C66.8343 31.9314 67.1132 36.4708 65.6001 40.0719C62.7852 46.7922 58.6769 52.6925 52.075 56.2006C41.3394 61.9403 31.2462 62.8955 21.5166 60.275C23.432 63.7559 26.054 66.7978 29.2143 69.2057C32.3745 71.6136 36.0032 73.3343 39.8676 74.2573C43.7319 75.1803 47.7466 75.2852 51.6539 74.5654C55.5612 73.8455 59.2749 72.3168 62.5566 70.0773C65.8383 67.8378 68.6156 64.937 70.7103 61.561C72.805 58.1849 74.1708 54.4083 74.72 50.4734C75.2693 46.5385 74.9898 42.5322 73.8997 38.7117C72.8095 34.8911 70.9327 31.3406 68.3896 28.2881H68.415Z" fill="#329693"/>
</g>
<g style="mix-blend-mode:multiply" opacity="0.47">
<path d="M75 45.118C74.8392 41.7853 74.0954 38.5065 72.8022 35.4307C71.6526 39.1078 71.2975 43.0386 69.8605 46.6481C67.7721 51.8345 64.2836 56.3385 59.7843 59.6576C54.5771 63.6644 47.2904 66.0651 40.959 67.629C36.8016 68.7048 32.4735 68.9547 28.22 68.3644C29.127 69.123 30.0813 69.8232 31.0772 70.4608C39.1594 72.0865 47.5432 71.2593 55.1519 68.0854C63.0134 64.7041 69.3279 60.4775 72.9712 52.4132C73.7354 50.6307 74.4097 48.8109 74.9916 46.9608C75 46.3522 75 45.7351 75 45.118Z" fill="#329693"/>
</g>
<g style="mix-blend-mode:screen" opacity="0.26">
<path d="M45.921 22.4214C42.0833 19.5135 34.6444 23.5795 31.3477 25.8026C26.1067 29.4206 20.1387 37.9584 23.7398 44.6364C26.9182 50.5536 34.8219 50.317 39.9869 47.8824C45.1518 45.4479 49.2262 42.4217 51.6946 37.1976C54.332 31.6354 53.7994 23.5541 45.921 22.4214Z" fill="#60BFEE"/>
</g>
<g style="mix-blend-mode:screen" opacity="0.26">
<path d="M33.2581 25.0927C27.1972 26.8678 21.1278 40.8748 31.6858 39.9872C42.2439 39.0996 41.0773 21.5761 33.2581 25.0927Z" fill="#60BFEE"/>
</g>
</g>
<defs>
<clipPath id="clip0_26_2358">
<rect width="57" height="57" fill="white" transform="translate(18 18)"/>
</clipPath>
</defs>
</svg>
