<svg width="93" height="93" viewBox="0 0 93 93" fill="none" xmlns="http://www.w3.org/2000/svg">
<path d="M47.4719 74.9775C63.3035 74.9775 76.1374 62.1435 76.1374 46.312C76.1374 30.4805 63.3035 17.6465 47.4719 17.6465C31.6404 17.6465 18.8064 30.4805 18.8064 46.312C18.8064 62.1435 31.6404 74.9775 47.4719 74.9775Z" fill="#00B0CB"/>
<path d="M47.48 74.9852C55.082 74.9831 62.3719 71.9623 67.7473 66.5869C73.1227 61.2115 76.1434 53.9216 76.1456 46.3197C76.1435 44.7971 76.0229 43.2771 75.7847 41.7733C74.8535 41.5983 73.9501 41.2989 73.0986 40.8832C71.3164 39.8261 69.7296 38.4699 68.4079 36.8741C67.0713 35.2847 65.437 33.9718 63.5969 33.0092C61.7126 32.2074 59.3231 32.1433 57.7596 33.4823C56.0276 34.9657 55.8191 37.6358 56.5167 39.8008C56.8214 40.7149 57.2223 41.8294 56.5809 42.551C55.9394 43.2727 54.897 43.0482 53.9909 43.1765C52.4755 43.401 51.3048 44.6278 50.4629 45.9188C49.0837 48.0276 48.2338 50.6496 48.8592 53.0871C49.2521 54.5625 50.1822 56.086 49.6129 57.5052C49.0436 58.9245 47.1272 59.4216 45.6759 60.1593C43.6553 61.1937 42.1639 63.6152 42.9016 65.7721C43.1902 66.6221 43.7836 67.3758 44.0161 68.1776C44.6095 70.3506 42.8294 72.291 41.8752 74.3918C43.7201 74.7692 45.5971 74.9679 47.48 74.9852Z" fill="#0B93C1"/>
<path d="M51.1124 31.5821C51.0081 30.5798 51.2487 29.5615 51.1124 28.5592C50.8286 27.1524 50.1532 25.8544 49.1639 24.8147C48.1741 23.7824 47.3419 22.6098 46.6943 21.3347C46.3492 20.5061 46.2545 19.5946 46.4217 18.7127C46.4858 18.3679 46.6382 18.0151 46.6943 17.6543C41.8369 17.7781 37.0909 19.1357 32.9027 21.5992C28.7146 24.0627 25.222 27.5513 22.7537 31.7366C20.2853 35.9219 18.9223 40.6663 18.7929 45.5236C18.6635 50.3808 19.7719 55.1911 22.0139 59.502C23.2202 59.1582 24.361 58.6163 25.3896 57.8983L29.086 55.6371C30.9543 54.4985 32.991 53.1113 33.3839 50.9544C33.873 48.2843 31.5557 45.4779 32.582 42.9361C33.0384 42.0095 33.7654 41.2434 34.6668 40.7391C35.9919 39.7693 37.6433 39.355 39.2693 39.5844C41.5385 40.0655 42.9818 42.2786 44.9784 43.4653C46.2791 44.2379 47.7975 44.5619 49.3002 44.3874C50.1371 44.2993 50.9403 44.0104 51.6416 43.5455C52.227 43.0995 52.7067 42.5298 53.0463 41.8769C53.3859 41.224 53.577 40.5042 53.6061 39.7688C53.6501 38.293 53.3248 36.8295 52.6599 35.5111C52.0906 34.2923 51.2647 33.0334 51.1124 31.5821Z" fill="#00C3DF"/>
<path d="M76.0092 43.6097C76.0092 43.8182 72.8018 43.6097 72.4731 43.6097C68.3356 42.9442 66.315 39.0553 62.4983 37.8926C62.0688 37.7317 61.6093 37.667 61.1521 37.703C60.6949 37.7391 60.2512 37.875 59.8522 38.1011C57.0779 40.0175 62.9473 43.9625 58.9461 45.1733C57.9198 45.478 56.8774 45.1733 55.8751 45.4138C54.9176 45.6797 54.0341 46.1626 53.2932 46.8251C52.5476 47.4393 51.9431 48.207 51.5211 49.076C51.0991 49.945 50.8694 50.8948 50.8477 51.8606C50.9579 53.9943 51.7412 56.0384 53.0852 57.6993C54.4293 59.3603 56.2649 60.5528 58.3287 61.1057C59.2565 61.2201 60.1701 61.4297 61.055 61.7311C63.0034 62.533 63.2039 65.0347 62.2978 66.7346C61.3356 68.5547 58.8259 68.3382 58.0401 70.3107C57.8316 70.8319 57.6231 72.0186 58.0401 72.5078C58.4571 72.9969 59.5395 72.7884 60.2131 72.4677C64.2644 70.5582 67.796 67.7005 70.5086 64.1366C74.0118 59.4956 76.0374 53.9078 76.3219 48.1C76.5569 46.5988 76.45 45.0639 76.0092 43.6097V43.6097Z" fill="#1EB400"/>
<path d="M51.2485 33.8032C50.7273 31.9189 50.9438 29.8421 50.1339 28.0621C49.3241 26.282 47.5761 25.0392 46.4135 23.4195C45.2591 21.7872 44.7221 19.7981 44.898 17.8066C40.6237 18.1975 36.4918 19.5435 32.8074 21.7452C29.123 23.9469 25.9802 26.9481 23.6111 30.5271C21.242 34.1062 19.7071 38.1717 19.1197 42.4234C18.5323 46.6752 18.9075 51.0046 20.2176 55.0919C21.1028 54.7204 21.8903 54.1497 22.5188 53.4241C23.6815 51.9727 23.7376 49.9601 23.914 48.0999C24.0966 45.3826 24.921 42.7473 26.3195 40.4103C27.0271 39.2493 27.9801 38.2572 29.1118 37.5037C30.2435 36.7501 31.5264 36.2534 32.8705 36.0483C34.219 35.948 35.5748 36.0782 36.8797 36.4332C38.2887 36.7363 39.6416 37.2585 40.8888 37.9807C42.1855 38.8923 43.4008 39.9144 44.5211 41.0357C45.646 42.1749 47.0465 43.0036 48.5864 43.4412C49.3557 43.6425 50.1674 43.6104 50.9185 43.3491C51.6695 43.0878 52.3258 42.6092 52.8041 41.9739C53.1332 41.3346 53.3149 40.6296 53.3357 39.9108C53.3565 39.192 53.216 38.4777 52.9243 37.8204C52.4031 36.4332 51.6334 35.1904 51.2485 33.8032Z" fill="#0B93C1"/>
<path d="M52.1467 40.226C52.4835 38.5101 51.7297 36.714 50.8798 35.1584C50.2119 34.0607 49.6405 32.9071 49.1719 31.7106C48.779 30.5158 49.1719 29.2249 48.8111 28.0221C48.3941 26.5628 47.1673 25.5284 46.4056 24.2776C45.4472 22.7805 44.6922 21.1627 44.1604 19.4666C44.0497 18.9367 43.9668 18.4014 43.9118 17.8629C42.228 17.4299 39.5659 18.1997 37.5694 18.9053C25.1009 23.3314 16.8179 35.84 18.8947 48.4929C19.5098 47.5581 20.013 46.5543 20.3941 45.5021C20.8351 44.2913 21.1077 43.0244 21.5327 41.8056C22.2383 39.769 22.6954 37.6682 24.4113 36.1928C25.4056 35.3348 26.3678 35.3028 27.6186 34.942C28.9885 34.5355 30.2869 33.9188 31.4674 33.1138C32.1272 32.5932 32.8457 32.1519 33.6083 31.7988C35.5247 31.0611 36.3907 32.4643 37.3689 33.7953C39.1009 36.1607 41.3781 37.0989 44.0401 38.1172C45.2071 38.5112 46.2609 39.1826 47.1112 40.0737C47.8729 40.9477 48.346 42.399 49.661 42.5594C50.7755 42.6957 51.7458 41.7014 52.0665 40.6269C52.1001 40.4948 52.1269 40.361 52.1467 40.226V40.226Z" fill="#1EB400"/>
<path d="M51.4892 60.4482H51.2727C49.669 60.5765 46.6381 62.4127 46.173 63.9442C45.9431 64.8943 45.8969 65.8795 46.0367 66.8469C46.1169 67.793 46.2291 69.1321 47.2876 69.4769C47.8771 69.6252 48.4942 69.6252 49.0837 69.4769C50.551 69.1962 52.0505 69.5651 53.5258 69.4769C54.2345 69.4715 54.931 69.2925 55.5545 68.9557C56.3964 68.4345 56.9577 67.6006 57.8236 67.1035C58.6896 66.6063 59.5235 66.5983 59.3471 65.4356C59.2028 64.5135 58.4811 64.4975 57.7435 64.2169C56.1398 63.6075 54.905 62.2925 53.4456 61.3784C52.8666 60.9335 52.1998 60.6165 51.4892 60.4482V60.4482Z" fill="#00BE1B"/>
<path d="M47.0791 66.4293C47.1832 66.8806 47.4357 67.284 47.7962 67.5747C48.1568 67.8655 48.6045 68.0269 49.0676 68.033C49.653 68.033 50.1902 67.6882 50.7755 67.6962C51.1378 67.7424 51.4967 67.8121 51.85 67.9047C52.027 67.949 52.2126 67.9464 52.3883 67.8972C52.5641 67.848 52.724 67.7538 52.8523 67.624C52.9477 67.4466 52.9977 67.2482 52.9977 67.0467C52.9977 66.8452 52.9477 66.6468 52.8523 66.4694C52.7393 66.2301 52.6754 65.9705 52.6644 65.7061C52.6533 65.4417 52.6954 65.1777 52.7881 64.9299C52.9405 64.3846 53.2211 64.128 52.8603 63.5427C52.2003 62.8601 51.3194 62.4339 50.3746 62.3399C48.4823 62.1635 46.6782 64.6492 47.0791 66.4293Z" fill="#00CE1D"/>
<path d="M55.0333 66.8629C55.3059 66.8228 55.5705 66.7025 55.8351 66.6464C56.2361 66.5742 56.7252 66.5983 56.9256 66.2455C57.1261 65.8927 56.8374 65.4437 56.5087 65.2753C55.9073 64.9144 54.8248 63.8079 54.3357 64.4734C53.8466 65.139 53.9669 66.9832 55.0333 66.8629Z" fill="#00CE1D"/>
<path d="M54.7847 49.6477C52.8603 52.6786 58.2887 51.6844 59.5957 51.5721C61.3517 51.4198 63.5327 51.3636 63.4685 49.0624C63.3884 46.2961 60.2612 46.3843 58.2967 46.9776C56.85 47.43 55.6074 48.3747 54.7847 49.6477Z" fill="#00CE1D"/>
<path d="M63.6931 44.5961C63.7887 44.6457 63.8934 44.6756 64.0009 44.6838C64.1083 44.6921 64.2164 44.6786 64.3185 44.6442C64.4368 44.571 64.5315 44.4652 64.5911 44.3395C64.6786 44.181 64.7434 44.0109 64.7835 43.8344C64.9077 43.1962 64.9077 42.5401 64.7835 41.9019C64.7708 41.7469 64.7183 41.5978 64.6312 41.4689C63.6129 40.2341 60.6621 43.3452 63.6931 44.5961Z" fill="#00CE1D"/>
<path d="M65.2244 69.3803C67.1862 67.8315 68.9597 66.058 70.5085 64.0962C74.0118 59.4552 76.0374 53.8674 76.3218 48.0596C76.3699 47.2577 76.4501 46.3196 76.4261 45.4857C75.2153 45.4215 73.6918 45.5498 72.481 45.4857C71.1282 45.3648 69.8271 44.9072 68.6964 44.1546C68.2685 43.8733 67.7727 43.7127 67.2611 43.6896C67.003 43.6858 66.7499 43.7604 66.5351 43.9036C66.3203 44.0467 66.1541 44.2517 66.0584 44.4914C65.9762 44.9026 66.0152 45.3288 66.1706 45.7182C66.7319 47.8591 66.6758 51.1787 64.6391 52.5899C63.0354 53.7205 61.4318 52.5899 59.6437 52.5899C59.1815 52.5769 58.7215 52.6591 58.2925 52.8315C57.8635 53.004 57.4746 53.2629 57.15 53.5922C55.843 55.0516 56.9014 56.3906 58.4089 56.9198C59.8678 57.3274 61.2937 57.8447 62.6746 58.4674C63.7729 59.057 64.7303 59.8777 65.481 60.8729C65.986 61.4824 66.3182 62.2161 66.4432 62.9977C66.4766 63.7183 66.3761 64.4388 66.1465 65.1226C65.8098 66.3815 65.5612 68.1214 65.2244 69.3803Z" fill="#00CE1D"/>
<path d="M44.8099 25.7525C44.2219 24.7494 43.6866 23.7163 43.2063 22.6574C42.583 21.0988 42.3544 19.4104 42.5407 17.7422C40.836 17.8754 39.162 18.2703 37.5774 18.9129C33.3093 20.3689 29.4506 22.8231 26.3223 26.0712C23.1941 29.3194 20.8867 33.2677 19.5923 37.5875C20.1044 37.5267 20.6061 37.3973 21.0837 37.2027C21.645 36.7937 21.8855 36.0801 22.3586 35.5429C23.385 34.3562 25.173 34.276 26.5602 33.5383C27.6186 32.985 28.4285 32.0469 29.4388 31.4215C31.5075 30.1225 35.22 29.6013 37.4571 30.6196C38.383 31.0638 39.1887 31.7237 39.8065 32.544C40.3918 33.3058 40.7126 34.4043 41.6427 34.8212C43.2464 35.5509 45.0986 34.3882 46.0207 33.0572C46.9428 31.7261 46.3414 29.2725 45.7641 27.7571C45.4937 27.0672 45.1749 26.3973 44.8099 25.7525V25.7525Z" fill="#00CE1D"/>
<path d="M47.1592 33.7635C46.5097 34.8299 44.0802 35.8482 45.323 36.7783C46.5659 37.7085 49.3322 40.6191 49.9175 39.8654C50.5029 39.1117 48.9874 30.7806 47.1592 33.7635Z" fill="#00CE1D"/>
<path d="M51.1523 17.8945C51.1523 18.0629 51.1523 18.2393 51.1042 18.3997C50.9052 19.7829 50.822 21.1802 50.8557 22.5772C50.8594 23.2433 51.0014 23.9013 51.2726 24.5097C51.7281 25.3404 52.4558 25.9888 53.3333 26.3459C55.6185 27.3882 58.3528 27.0996 60.614 28.2061C61.7446 28.7594 62.6907 29.6253 63.8213 30.2267C65.6334 31.221 67.8305 31.4615 69.5063 32.6322C71.3345 33.9152 72.3448 36.1362 74.197 37.3871C74.4089 37.5272 74.6314 37.6505 74.8625 37.7559C73.2224 32.5252 70.1173 27.8743 65.915 24.3542C61.7128 20.8341 56.5895 18.5923 51.1523 17.8945V17.8945Z" fill="#00C3DF"/>
<path d="M47.4799 45.55C47.2578 45.4327 47.0085 45.3769 46.7576 45.3881C46.5067 45.3994 46.2633 45.4774 46.0527 45.6142C45.6387 45.8943 45.2014 46.1384 44.7457 46.3438C43.591 46.7287 42.3963 45.9429 41.1855 45.8307C39.4375 45.6543 37.8179 46.9212 36.9358 48.4366C36.1668 50.0174 35.5778 51.6796 35.1798 53.3919C33.6052 58.3064 30.3856 62.5284 26.063 65.3473C29.3214 69.0036 33.4622 71.7642 38.0905 73.3656C38.3952 71.1766 38.2589 68.8433 38.7319 66.6703C39.0805 65.0475 39.7691 63.5171 40.7525 62.18C41.4261 61.274 42.2359 60.4641 42.8614 59.526C43.5569 58.6075 43.8959 57.468 43.8156 56.3186C43.7274 55.5168 43.3505 54.8112 43.2543 54.0254C43.1958 52.971 43.4768 51.9256 44.0561 51.0426C44.6891 49.9862 45.5034 49.0498 46.4616 48.2763C46.9405 47.9498 47.3539 47.5364 47.6804 47.0575C47.82 46.8199 47.8761 46.5424 47.8397 46.2692C47.8034 45.9961 47.6768 45.7429 47.4799 45.55V45.55Z" fill="#00C3DF"/>
<g style="mix-blend-mode:multiply" opacity="0.13">
<path d="M76.3461 48.0757C76.3461 47.4824 76.4343 46.889 76.4423 46.2876C76.4423 46.023 76.4423 45.7584 76.4423 45.4858C76.3879 44.8289 76.2477 44.1819 76.0254 43.5614C76.0254 43.401 75.9853 43.2246 75.9692 43.0562L75.8971 42.4789C75.6857 40.875 75.337 39.2923 74.8547 37.7481C74.7344 37.3632 74.6061 36.9463 74.4618 36.5935C74.4207 36.4626 74.3726 36.3341 74.3174 36.2086C74.2212 35.9279 74.109 35.6553 73.9967 35.4068L73.8444 35.0379C73.684 34.6691 73.5236 34.3002 73.3472 33.9394L73.2269 33.6908C73.0826 33.4102 72.9383 33.1215 72.7859 32.8409L72.6015 32.4961C71.9502 35.0315 71.114 37.5158 70.0998 39.9291C68.2315 44.1387 65.2006 48.0917 60.9028 49.7515C56.9898 51.275 52.5477 50.7137 48.5145 51.8844C43.2865 53.3999 39.1972 57.6817 33.9612 59.1891C30.2407 60.2636 26.2716 59.8306 22.4148 60.1914C23.4325 62.0426 24.6535 63.7746 26.0551 65.3552C26.8476 66.2506 27.6966 67.0942 28.5969 67.881L28.6851 67.9612C29.1261 68.346 29.5832 68.7149 30.0483 69.0677C31.0074 69.8096 32.0146 70.4873 33.0631 71.0963H33.1032C36.6374 73.1748 40.5787 74.4658 44.6577 74.881H44.8501C45.251 74.881 45.6519 74.9451 46.0448 74.9612C46.4377 74.9772 46.991 74.9612 47.4721 74.9612C51.2741 74.9637 55.0385 74.2087 58.5454 72.7401C59.1227 72.8026 59.7053 72.685 60.2132 72.4033C61.5675 71.7583 62.8702 71.0104 64.1101 70.1662C64.487 69.9096 64.8558 69.629 65.2247 69.3644L65.4251 69.212C67.0785 67.9022 68.5914 66.4243 69.9394 64.8019C70.1399 64.5614 70.3243 64.3208 70.5087 64.0883C74.0161 59.4568 76.0499 53.8778 76.3461 48.0757V48.0757Z" fill="#00C3DF"/>
</g>
<g style="mix-blend-mode:multiply" opacity="0.33">
<path d="M76.4182 46.2878C76.4182 46.0232 76.4182 45.7586 76.4182 45.486C76.3637 44.8291 76.2236 44.1821 76.0012 43.5616C76.0012 43.4012 75.9611 43.2248 75.9451 43.0564L75.8729 42.4791C75.6616 40.8752 75.3128 39.2925 74.8305 37.7483C74.7102 37.3634 74.582 36.9465 74.4376 36.5937C74.3966 36.4628 74.3484 36.3343 74.2933 36.2088C74.1971 35.9281 74.0848 35.6555 73.9726 35.407L73.8202 35.0381C73.6599 34.6693 73.4995 34.3004 73.3231 33.9396L73.2028 33.691C73.0585 33.4104 72.9141 33.1217 72.7618 32.8411L72.5694 32.4883C73.3198 35.0069 73.7296 37.6146 73.7881 40.242C73.6679 45.4459 70.7412 50.3371 66.6599 53.5685C65.5272 54.5221 64.2201 55.2465 62.811 55.7013C60.9187 56.2386 58.8981 56.014 56.9256 56.0702C54.0093 56.1446 51.141 56.8302 48.5064 58.0828C45.8122 59.3577 43.3987 61.2099 40.6324 62.3245C34.8752 64.6498 28.244 63.4871 22.6553 60.6727C23.6196 62.3435 24.7506 63.9124 26.031 65.3554C26.8234 66.2508 27.6724 67.0944 28.5728 67.8812L28.661 67.9614C29.102 68.3462 29.5591 68.7151 30.0241 69.0679C30.9833 69.8098 31.9904 70.4875 33.039 71.0965H33.0791C36.6205 73.1783 40.5703 74.4694 44.6576 74.8812H44.85C45.2509 74.8812 45.6518 74.9453 46.0447 74.9614C46.4376 74.9774 46.9909 74.9614 47.472 74.9614C51.274 74.9639 55.0384 74.2089 58.5453 72.7403C59.1227 72.8028 59.7052 72.6852 60.2131 72.4035C61.5674 71.7585 62.8701 71.0106 64.11 70.1664C64.4869 69.9098 64.8557 69.6292 65.2246 69.3646L65.425 69.2122C67.0784 67.9024 68.5913 66.4245 69.9394 64.8021C70.1398 64.5616 70.3242 64.321 70.5086 64.0885C74.0119 59.4475 76.0375 53.8597 76.3219 48.0518C76.346 47.4825 76.4101 46.8892 76.4182 46.2878Z" fill="#00C3DF"/>
</g>
<g style="mix-blend-mode:screen" opacity="0.56">
<path d="M76.4022 45.5021C76.3682 44.8446 76.2357 44.196 76.0093 43.5777C76.0093 43.4174 75.9692 43.241 75.9532 43.0726L75.881 42.4953C75.6696 40.8914 75.3209 39.3086 74.8386 37.7645C74.7183 37.3796 74.59 36.9626 74.4457 36.6098C74.4047 36.479 74.3565 36.3505 74.3014 36.2249C74.2052 35.9443 74.0929 35.6717 73.9806 35.4231L73.8283 35.0543C73.6679 34.6854 73.5076 34.3166 73.3312 33.9558L73.2109 33.7072C73.0666 33.4265 72.9222 33.1379 72.7699 32.8572L72.5534 32.4563L72.1445 31.7427C72.0643 31.6144 72.0001 31.4941 71.92 31.3738C71.7195 31.0451 71.519 30.7244 71.3025 30.4036L71.046 30.0348L70.6049 29.4174C70.4927 29.265 70.3884 29.1207 70.2762 28.9844C70.1639 28.8481 69.9875 28.6075 69.8352 28.4231C69.6828 28.2387 69.6107 28.1264 69.4904 27.9901C69.2739 27.7255 69.0494 27.4689 68.8168 27.1883L68.3999 26.7312L68.007 26.3223L67.5419 25.8492L67.1731 25.5044L66.9005 25.2559C66.9005 25.304 66.9887 25.3441 67.0288 25.3842L67.4217 25.7931L67.8386 26.2501C68.0712 26.5067 68.2957 26.7633 68.5122 27.052L68.865 27.485C69.0093 27.6694 69.1616 27.8538 69.306 28.0462L69.6267 28.4792C69.779 28.6797 69.9234 28.8882 70.0677 29.0966C70.212 29.3051 70.2441 29.3452 70.3243 29.4735C70.5408 29.7862 70.7493 30.107 70.9417 30.4357C71.0219 30.556 71.0941 30.6843 71.1662 30.8045L71.5751 31.5182L71.7997 31.9271L72.2327 32.7771L72.3529 33.0256C72.5293 33.3864 72.6897 33.7473 72.8501 34.1161C72.9062 34.2444 72.9543 34.3647 73.0024 34.493C73.1147 34.7656 73.2269 35.0382 73.3312 35.2948L73.4755 35.6797C73.6118 36.0646 73.7401 36.4815 73.8684 36.8423C74.3459 38.3873 74.6919 39.9699 74.9028 41.5732L74.9749 42.1505C74.9749 42.3189 74.9749 42.4872 75.031 42.6556C75.2645 43.2694 75.3998 43.9161 75.432 44.572C75.4485 44.839 75.4485 45.1068 75.432 45.3738C75.432 45.9672 75.3678 46.5606 75.3277 47.1539C75.0476 52.9613 73.0246 58.5496 69.5225 63.1906C69.338 63.4311 69.1456 63.6636 68.9451 63.9042C67.599 65.5283 66.086 67.0065 64.4308 68.3143L64.2304 68.4746C63.8615 68.7553 63.4927 69.0279 63.1158 69.2765C61.8787 70.1228 60.5755 70.8682 59.2189 71.5056C58.7131 71.793 58.1295 71.9137 57.5511 71.8504C54.05 73.3206 50.2911 74.0784 46.4938 74.0795C46.0127 74.0795 45.5396 74.0795 45.0666 74.0795L43.8799 73.9913H43.6794C39.5988 73.5919 35.6523 72.3174 32.1089 70.2547H32.0689C31.0216 69.6465 30.0145 68.9716 29.054 68.2341C28.5889 67.8733 28.1399 67.5044 27.6989 67.1196L27.6107 67.0474L27.0654 66.5422C27.5545 67.0394 28.0597 67.5205 28.5809 67.9775L28.6691 68.0577C29.1101 68.4426 29.5671 68.8114 30.0322 69.1642C30.9914 69.9061 31.9985 70.5838 33.0471 71.1929H33.0872C36.634 73.2399 40.5805 74.4979 44.6576 74.8813H44.8501C45.251 74.8813 45.6519 74.9454 46.0448 74.9615C46.4377 74.9775 46.991 74.9615 47.4721 74.9615C51.2741 74.964 55.0384 74.209 58.5454 72.7404C59.1227 72.8029 59.7053 72.6853 60.2132 72.4036C61.5674 71.7586 62.8702 71.0107 64.1101 70.1665C64.4869 69.9099 64.8558 69.6293 65.2246 69.3647L65.4251 69.2123C67.0785 67.9025 68.5914 66.4246 69.9394 64.8022C70.1399 64.5617 70.3243 64.3211 70.5087 64.0886C74.012 59.4476 76.0376 53.8598 76.322 48.052C76.322 47.4586 76.4102 46.8653 76.4182 46.2639C76.4182 45.9993 76.4182 45.7347 76.4182 45.462L76.4022 45.5021Z" fill="#00C3DF"/>
</g>
<g style="mix-blend-mode:overlay" opacity="0.41">
<path d="M43.9038 17.8791C43.4529 17.7687 42.9882 17.7255 42.5247 17.7508C40.8198 17.8773 39.1451 18.2696 37.5613 18.9134C37.0882 19.0818 36.6312 19.2662 36.1661 19.4587L35.5888 19.7072L34.9313 20.0039C31.4367 21.5869 28.303 23.8682 25.723 26.7075C23.143 29.5468 21.1712 32.8839 19.929 36.5136C19.8328 36.7863 19.7446 37.0669 19.6564 37.3155C19.6564 37.4037 19.6003 37.4839 19.5762 37.5641C19.1666 38.991 18.8795 40.4502 18.7183 41.926C20.234 44.1939 22.1968 46.1286 24.4863 47.6117C26.7757 49.0947 29.3438 50.0948 32.0333 50.5508C34.7227 51.0069 37.477 50.9092 40.1274 50.2637C42.7777 49.6183 45.2685 48.4387 47.4472 46.7972C49.6258 45.1557 51.4466 43.0868 52.7978 40.7172C54.1491 38.3476 55.0026 35.7271 55.3059 33.0161C55.6092 30.3052 55.3561 27.5609 54.5619 24.9512C53.7678 22.3415 52.4493 19.9214 50.6873 17.839C48.4243 17.5563 46.1348 17.5563 43.8717 17.839L43.9038 17.8791Z" fill="#98F1FF"/>
</g>
<g style="mix-blend-mode:screen" opacity="0.42">
<path d="M69.8351 28.375C69.7229 28.2307 69.6106 28.0783 69.4903 27.942C69.2739 27.6774 69.0493 27.4208 68.8168 27.1402L68.3998 26.6831L68.007 26.2742L67.5419 25.8011L67.173 25.4563C66.8603 25.1597 66.5396 24.871 66.2108 24.5823L65.9222 24.3658L65.3208 23.8767L65.0322 23.6442L64.3827 23.1551C63.8454 22.7622 63.3242 22.4094 62.779 22.0806L62.6507 21.9924L61.8489 21.5274L61.7045 21.4392C57.3746 18.9568 52.471 17.6494 47.48 17.6465C46.287 17.6508 45.0954 17.7284 43.9119 17.879C43.461 17.7687 42.9962 17.7255 42.5327 17.7507C40.8278 17.8773 39.1532 18.2696 37.5694 18.9134C37.0963 19.0818 36.6393 19.2662 36.1742 19.4586L35.5969 19.7072L34.9394 20.0039C34.5224 20.1963 34.1375 20.4048 33.7046 20.6133L33.3036 20.8298L32.5018 21.2788L32.0528 21.5514L31.3311 22.0004L30.8741 22.3051C30.6416 22.4575 30.417 22.6179 30.2005 22.7782C29.9841 22.9386 29.8959 22.9867 29.7515 23.0989L29.086 23.6041L28.677 23.9329L27.9875 24.5182L27.6507 24.8149C27.33 25.1035 27.0173 25.4002 26.7126 25.6969L26.6725 25.737C26.3517 26.0497 26.0471 26.3784 25.7424 26.7072L25.4457 27.044C25.2532 27.2605 25.0528 27.485 24.8603 27.7175L24.5316 28.1264L24.0264 28.7679C23.9142 28.9122 23.8099 29.0646 23.7057 29.2169C23.6015 29.3693 23.393 29.6499 23.2406 29.8664L22.9359 30.3315L22.5029 31.013L22.2303 31.4701C22.086 31.7267 21.9417 31.9752 21.8054 32.2318C21.669 32.4884 21.653 32.5125 21.5808 32.6488C21.3964 33.0096 21.212 33.3784 21.0436 33.7473C20.6245 34.6475 20.2577 35.5711 19.9451 36.5136C19.8489 36.7862 19.7607 37.0669 19.6725 37.3154C19.6725 37.4036 19.6163 37.4838 19.5923 37.564C18.5515 41.1047 18.3159 44.8334 18.9027 48.477C18.9027 48.6293 18.9027 48.7817 18.9428 48.934C18.9829 49.0863 18.9428 49.2868 18.9989 49.4552C19.0551 49.6236 18.9989 49.6557 18.9989 49.7519C18.9989 49.8481 18.9989 49.9122 18.9989 49.9924C18.9989 50.0726 18.9989 50.1608 18.9989 50.241L19.0711 50.7782L19.1673 51.2914C19.1673 51.4197 19.1673 51.548 19.2315 51.6763C19.2956 51.8046 19.2315 51.8206 19.2716 51.9008C19.3197 52.1493 19.3758 52.3899 19.4319 52.6385C19.488 52.887 19.5041 52.9432 19.5362 53.0955C19.5407 53.1408 19.5407 53.1865 19.5362 53.2318C19.5923 53.4483 19.6484 53.6648 19.7126 53.8733C19.7767 54.0818 19.7767 54.1219 19.8168 54.2421C20.1843 55.514 20.637 56.7597 21.1719 57.9707V58.0188C21.3964 58.5239 21.637 59.013 21.8935 59.4941C22.9837 61.5956 24.3304 63.5536 25.9027 65.3235C26.1513 65.6041 26.4159 65.8767 26.7045 66.1253C25.6098 64.731 24.6462 63.2386 23.826 61.6671C23.5774 61.178 23.3368 60.6889 23.1123 60.1837V60.1356C22.5973 58.9347 22.1659 57.6996 21.8214 56.4392C21.8214 56.3189 21.7572 56.1986 21.7171 56.0703L21.5488 55.4289C21.5516 55.3835 21.5516 55.3379 21.5488 55.2925C21.5488 55.1402 21.4766 54.9878 21.4445 54.8355C21.4125 54.6831 21.3323 54.3464 21.2841 54.0978C21.2841 54.0256 21.2842 53.9455 21.2441 53.8733L21.1719 53.4884C21.1719 53.32 21.1077 53.1516 21.0837 52.9752C21.0596 52.7988 21.0356 52.6224 21.0115 52.446C20.9875 52.2696 21.0115 52.2776 20.9714 52.1894C20.9314 52.1012 20.9714 52.0291 20.9714 51.9489C20.9714 51.8687 20.9714 51.7564 20.9714 51.6602L20.9233 51.131C20.9233 50.9787 20.9233 50.8263 20.9233 50.674C20.3313 47.0329 20.5697 43.305 21.6209 39.7691C21.6402 39.6849 21.6643 39.6019 21.6931 39.5205L21.9577 38.7186C22.1983 38.013 22.4709 37.3154 22.7595 36.6339C25.0738 39.6521 28.4536 41.6722 32.2079 42.2809C35.9622 42.8897 39.8073 42.0411 42.9566 39.9087C46.106 37.7764 48.3217 34.5214 49.1506 30.8095C49.9795 27.0976 49.359 23.2093 47.4159 19.9397C48.1055 19.8836 48.795 19.8596 49.4926 19.8596C53.5042 19.8527 57.4719 20.6943 61.1352 22.3292C62.0376 22.7287 62.9182 23.1757 63.7733 23.6683L63.9256 23.7565C64.1902 23.9088 64.4468 24.0612 64.7275 24.2295L64.8558 24.3097C65.385 24.6465 65.9061 24.9913 66.4113 25.3601L67.0849 25.8733L67.3815 26.1058C67.582 26.2662 67.7824 26.4266 67.9749 26.5949L68.2635 26.8435C68.5923 27.1241 68.913 27.4128 69.2257 27.7175L69.5866 28.0623L70.0596 28.5274V28.5675L69.8351 28.375Z" fill="#00DF16"/>
</g>
<path style="mix-blend-mode:multiply" opacity="0.63" d="M76.4262 45.5022C76.3717 44.8452 76.2315 44.1983 76.0092 43.5778C76.0092 43.4174 75.9691 43.241 75.9531 43.0726L75.8809 42.4953C75.6696 40.8914 75.3208 39.3087 74.8385 37.7645C74.7182 37.3796 74.59 36.9626 74.4456 36.6098C74.4046 36.479 74.3564 36.3505 74.3013 36.2249C74.2051 35.9443 74.0928 35.6717 73.9805 35.4231L73.8282 35.0543C73.6678 34.6854 73.5075 34.3166 73.3311 33.9558L73.2108 33.7072C73.0665 33.4266 72.9221 33.1379 72.7698 32.8573L72.5533 32.4563L72.1444 31.7427C72.0642 31.6144 72 31.4941 71.9199 31.3739C71.7194 31.0451 71.5189 30.7244 71.3024 30.4036L71.0459 30.0348L70.6048 29.4174C70.4926 29.265 70.3883 29.1207 70.2761 28.9844C70.1638 28.8481 69.9874 28.6075 69.8351 28.4231C69.6827 28.2387 69.6106 28.1264 69.4903 27.9901C69.2738 27.7255 69.0493 27.4689 68.8167 27.1883L68.3998 26.7313L68.0069 26.3223L67.5418 25.8492L67.173 25.5044C66.8603 25.2078 66.5395 24.9191 66.2108 24.6305L65.9221 24.3658L65.3208 23.8767L65.0321 23.6442L64.3826 23.1551C63.8454 22.7622 63.3242 22.4094 62.7789 22.0806L62.6507 21.9924L61.8488 21.5274L61.7045 21.4392C57.3746 18.9568 52.471 17.6494 47.48 17.6465C46.287 17.6508 45.0953 17.7284 43.9118 17.879C43.4609 17.7687 42.9962 17.7255 42.5327 17.7507C40.8277 17.8773 39.1531 18.2696 37.5693 18.9134C37.0963 19.0818 36.6392 19.2662 36.1741 19.4586L35.5968 19.7072L34.9393 20.0039C31.4447 21.5869 28.311 23.8682 25.731 26.7075C23.151 29.5467 21.1792 32.8839 19.937 36.5136C19.8408 36.7862 19.7526 37.0669 19.6644 37.3154C19.6644 37.4036 19.6083 37.4838 19.5842 37.564C18.5434 41.1047 18.3078 44.8334 18.8947 48.477C18.8947 48.6293 18.8946 48.7817 18.9347 48.934C18.9748 49.0864 18.9347 49.2868 18.9909 49.4552C19.047 49.6236 18.9909 49.6557 18.9909 49.7519C18.9909 49.8481 18.9909 49.9122 18.9909 49.9924C18.9909 50.0726 18.9909 50.1608 18.9909 50.241L19.063 50.7782L19.1592 51.2914C19.1592 51.4197 19.1593 51.548 19.2234 51.6763C19.2876 51.8046 19.2234 51.8206 19.2635 51.9008C19.3116 52.1494 19.3677 52.3899 19.4239 52.6385C19.48 52.887 19.496 52.9432 19.5281 53.0955C19.5327 53.1408 19.5327 53.1865 19.5281 53.2318C19.5842 53.4483 19.6403 53.6648 19.7045 53.8733C19.7686 54.0818 19.7686 54.1219 19.8087 54.2421C20.1762 55.514 20.6289 56.7597 21.1638 57.9707V58.0188C21.3883 58.5239 21.6289 59.013 21.8855 59.4941C22.9757 61.5956 24.3223 63.5536 25.8946 65.3235C26.6871 66.2188 27.5361 67.0625 28.4365 67.8492L28.5246 67.9294C28.9657 68.3143 29.4227 68.6832 29.8878 69.036C30.8469 69.7779 31.8541 70.4556 32.9027 71.0646H32.9428C36.5224 73.1763 40.5209 74.4791 44.6575 74.8813H44.85C45.2509 74.8813 45.6518 74.9455 46.0447 74.9615C46.4376 74.9775 46.9909 74.9615 47.472 74.9615C51.274 74.9641 55.0384 74.209 58.5453 72.7404C59.1226 72.8029 59.7052 72.6853 60.2131 72.4037C61.5673 71.7587 62.8701 71.0108 64.11 70.1665C64.4869 69.9099 64.8557 69.6293 65.2246 69.3647L65.425 69.2123C67.0784 67.9025 68.5913 66.4246 69.9393 64.8023C70.1398 64.5617 70.3242 64.3212 70.5086 64.0886C74.0119 59.4476 76.0375 53.8598 76.3219 48.052C76.3219 47.4586 76.4101 46.8653 76.4181 46.2639C76.4261 46.0153 76.4342 45.7587 76.4262 45.5022Z" fill="url(#paint0_linear_26_1047)"/>
<path style="mix-blend-mode:overlay" opacity="0.37" d="M49.9167 38.9966C54.4258 34.4874 54.4258 27.1767 49.9167 22.6675C45.4075 18.1584 38.0968 18.1584 33.5876 22.6675C29.0785 27.1766 29.0785 34.4874 33.5876 38.9966C38.0968 43.5057 45.4075 43.5057 49.9167 38.9966Z" fill="url(#paint1_radial_26_1047)"/>
<defs>
<linearGradient id="paint0_linear_26_1047" x1="26.7767" y1="25.6167" x2="68.039" y2="66.887" gradientUnits="userSpaceOnUse">
<stop stop-color="white"/>
<stop offset="1" stop-color="#1876E7"/>
</linearGradient>
<radialGradient id="paint1_radial_26_1047" cx="0" cy="0" r="1" gradientUnits="userSpaceOnUse" gradientTransform="translate(41.7477 30.8327) scale(11.5464)">
<stop stop-color="#ECECEC"/>
<stop offset="0.47" stop-color="#F1F1F1"/>
<stop offset="1" stop-color="white"/>
</radialGradient>
</defs>
</svg>
