<svg width="93" height="93" viewBox="0 0 93 93" fill="none" xmlns="http://www.w3.org/2000/svg">
<path style="mix-blend-mode:multiply" opacity="0.68" d="M47.0239 75.3977C62.9837 75.3977 75.9217 62.4583 75.9217 46.4967C75.9217 30.5351 62.9837 17.5957 47.0239 17.5957C31.064 17.5957 18.126 30.5351 18.126 46.4967C18.126 62.4583 31.064 75.3977 47.0239 75.3977Z" fill="url(#paint0_linear_26_927)"/>
<path d="M47.0253 75.3967C62.9852 75.3967 75.9232 62.4573 75.9232 46.4957C75.9232 30.5342 62.9852 17.5947 47.0253 17.5947C31.0655 17.5947 18.1274 30.5342 18.1274 46.4957C18.1274 62.4573 31.0655 75.3967 47.0253 75.3967Z" fill="#DDC3A3"/>
<g opacity="0.89">
<path opacity="0.89" d="M73.3152 44.07C73.2511 43.4813 73.0963 42.906 72.8565 42.3646C72.7996 42.0874 72.6769 41.8279 72.4987 41.6081C72.3205 41.3883 72.092 41.2147 71.8326 41.102C71.5828 40.9837 71.3017 40.9485 71.0305 41.0016C70.7593 41.0548 70.5123 41.1934 70.3254 41.3972C69.9663 41.772 69.6845 42.2141 69.4962 42.698C69.3078 43.182 69.2167 43.6983 69.2278 44.2176C68.9084 45.6278 69.0886 47.8989 70.9316 48.0301C72.9548 48.1694 73.4216 45.5622 73.3152 44.07Z" fill="#D8B58C"/>
<path opacity="0.89" d="M65.9612 34.9202L65.7728 35.0022C65.4232 35.0353 65.0837 35.1379 64.7743 35.304C64.4649 35.4701 64.1917 35.6965 63.9708 35.9697C63.7652 36.2661 63.6773 36.6285 63.7243 36.9862C63.7712 37.344 63.9496 37.6714 64.2247 37.9046C64.5135 38.1847 64.8951 38.3487 65.2969 38.3653C65.6987 38.3819 66.0926 38.2501 66.4035 37.9948L66.4772 37.9374C66.9524 37.5723 67.3017 37.0678 67.4765 36.4944C67.5524 36.2805 67.5671 36.0496 67.5192 35.8277C67.4713 35.6058 67.3625 35.4017 67.2052 35.2382C67.0478 35.0748 66.8481 34.9584 66.6283 34.9023C66.4086 34.8461 66.1776 34.8523 65.9612 34.9202V34.9202Z" fill="#D8B58C"/>
<path opacity="0.89" d="M43.5832 50.3176C42.5435 50.9078 41.7718 51.8771 41.429 53.0232C40.6672 55.7452 44.3777 55.8026 45.9832 54.9827C47.8507 54.0398 49.5626 50.7849 47.0152 49.5059C45.975 48.9811 44.7955 49.4075 43.8207 50.1946L43.5832 50.3176Z" fill="#D8B58C"/>
<path opacity="0.89" d="M50.7757 53.7359C51.0624 53.6148 51.3071 53.4118 51.479 53.1522C51.6509 52.8926 51.7425 52.5879 51.7422 52.2765C51.8277 52.0072 51.8132 51.716 51.7013 51.4566C51.6764 51.3314 51.6351 51.2101 51.5784 51.0958C51.6122 50.9624 51.6119 50.8227 51.5776 50.6894C51.5432 50.5562 51.4759 50.4337 51.3818 50.3333C51.3057 50.2565 51.2151 50.1955 51.1153 50.1539C51.0155 50.1122 50.9084 50.0908 50.8003 50.0908C50.6921 50.0908 50.5851 50.1122 50.4853 50.1539C50.3854 50.1955 50.2948 50.2565 50.2187 50.3333C50.0856 50.5018 49.9651 50.68 49.8583 50.8663C49.6931 51.0125 49.5674 51.1982 49.493 51.406C49.4185 51.6138 49.3977 51.8371 49.4324 52.0551C49.4324 52.1781 49.4324 52.2929 49.3832 52.424C49.3341 53.2275 49.8747 54.0392 50.7757 53.7359Z" fill="#D8B58C"/>
<path opacity="0.89" d="M27.7666 47.5218C29.5604 46.0296 29.7652 42.1597 28.9051 40.1428C28.5366 39.3229 27.7912 38.3062 26.7427 38.421C26.4632 38.467 26.1964 38.571 25.9594 38.7263C25.7224 38.8816 25.5205 39.0848 25.3666 39.3229C23.7284 39.6919 23.0404 43.5207 23.196 44.7506C23.4663 46.8167 25.727 49.2763 27.7666 47.5218Z" fill="#D8B58C"/>
<path opacity="0.89" d="M42.1078 31.5093C42.367 31.5684 42.6367 31.5634 42.8936 31.4949C43.1505 31.4263 43.3868 31.2962 43.5822 31.1158C43.8659 30.906 44.0869 30.6224 44.2211 30.2959C44.6061 29.3612 44.6716 27.6804 43.5249 27.2623C41.2232 26.4424 39.7652 31.0092 42.1078 31.5093Z" fill="#D8B58C"/>
<path opacity="0.89" d="M29.0042 52.949C27.8083 52.0718 26.5469 52.0472 25.8179 53.1786C24.9988 53.5968 24.9988 55.8187 24.9988 56.4992C25.0191 57.3675 25.3531 58.199 25.939 58.8396C26.5248 59.4803 27.3228 59.8867 28.1851 59.9837C28.403 60.0043 28.6224 60.0043 28.8404 59.9837C29.1326 60.0769 29.4463 60.0781 29.7393 59.9872C30.0322 59.8963 30.2903 59.7177 30.4786 59.4754C30.5925 59.3264 30.676 59.1565 30.7243 58.9752C31.0918 58.5084 31.2884 57.9297 31.2813 57.3354C31.2471 56.4817 31.0253 55.6461 30.6318 54.8879C30.2382 54.1297 29.6825 53.4678 29.0042 52.949V52.949Z" fill="#D8B58C"/>
<path opacity="0.89" d="M49.1692 39.1092C49.6225 39.8695 50.3095 40.4625 51.1275 40.7995C51.9454 41.1364 52.8504 41.1993 53.707 40.9786C54.737 40.6768 55.6383 40.0426 56.2708 39.1748C56.8021 38.5382 57.2079 37.8065 57.4667 37.0185C57.669 36.4063 57.7242 35.755 57.6278 35.1174C57.5314 34.4798 57.286 33.874 56.9118 33.3492C56.5375 32.8244 56.0448 32.3954 55.4737 32.097C54.9026 31.7985 54.2693 31.6392 53.6251 31.6318C52.8136 31.6347 52.0161 31.8434 51.3071 32.2386C50.7418 32.5378 50.247 32.9545 49.8557 33.4607C49.4644 33.9669 49.1857 34.551 49.0381 35.1738C48.9814 35.4076 48.9484 35.6466 48.9399 35.8871C48.7395 36.4081 48.6563 36.9669 48.6959 37.5237C48.7355 38.0806 48.8971 38.6219 49.1692 39.1092V39.1092Z" fill="#D8B58C"/>
<path opacity="0.89" d="M60.6282 54.3018C60.3436 54.3018 60.0707 54.4149 59.8695 54.6163C59.6682 54.8178 59.5552 55.091 59.5552 55.3758C59.5552 55.6607 59.6682 55.9338 59.8695 56.1353C60.0707 56.3367 60.3436 56.4499 60.6282 56.4499C60.9128 56.4499 61.1857 56.3367 61.3869 56.1353C61.5882 55.9338 61.7012 55.6607 61.7012 55.3758C61.7012 55.091 61.5882 54.8178 61.3869 54.6163C61.1857 54.4149 60.9128 54.3018 60.6282 54.3018V54.3018Z" fill="#D8B58C"/>
<path opacity="0.89" d="M54.0602 65.0014C53.4347 64.4359 52.6814 64.0308 51.8651 63.8208C51.4605 63.721 51.0448 63.6741 50.6282 63.6814C50.2812 63.6966 49.936 63.7405 49.5961 63.8126C49.0693 63.9893 48.5823 64.2679 48.1627 64.6325C47.7818 65.005 47.506 65.4716 47.3631 65.9852C47.2203 66.4987 47.2156 67.0409 47.3495 67.5569C47.4833 68.0728 47.751 68.5442 48.1254 68.9234C48.4998 69.3025 48.9676 69.5758 49.4815 69.7158H49.6453C49.8658 69.8094 50.0931 69.8861 50.3251 69.9453C51.1195 70.1093 51.9389 70.1093 52.7333 69.9453C53.2326 69.8125 53.688 69.5499 54.0534 69.1842C54.4187 68.8185 54.6811 68.3626 54.8138 67.8628C54.9562 67.3621 54.9613 66.8322 54.8287 66.3288C54.6961 65.8253 54.4307 65.3669 54.0602 65.0014V65.0014Z" fill="#D8B58C"/>
<path opacity="0.89" d="M45.5983 67.1335C45.5755 67.0321 45.5425 66.9332 45.5 66.8384V66.7892L45.4509 66.699C45.4057 66.6077 45.3537 66.52 45.2953 66.4366L45.2052 66.3136C45.1879 66.2853 45.1657 66.2603 45.1396 66.2398C44.8612 65.9075 44.5037 65.6506 44.1 65.493C43.6963 65.3354 43.2595 65.282 42.8298 65.338C42.4784 65.3925 42.1427 65.5215 41.8452 65.7163C41.5476 65.9111 41.295 66.1672 41.1043 66.4676C40.9135 66.7679 40.789 67.1056 40.7391 67.458C40.6892 67.8103 40.715 68.1693 40.8148 68.5109C40.9041 68.8201 41.0577 69.1069 41.2657 69.3523C41.4737 69.5978 41.7312 69.7964 42.0214 69.935C42.3116 70.0736 42.6278 70.1492 42.9492 70.1567C43.2707 70.1642 43.5901 70.1035 43.8864 69.9785C44.0276 69.9223 44.1622 69.8509 44.2878 69.7654C44.6766 69.6138 45.0165 69.3586 45.2707 69.0274C45.4706 68.7743 45.6087 68.478 45.6742 68.162C45.7396 67.846 45.7304 67.5191 45.6475 67.2073L45.5983 67.1335Z" fill="#D8B58C"/>
<path opacity="0.89" d="M45.7621 62.3945C45.4977 62.3945 45.2392 62.4731 45.0195 62.6203C44.7998 62.7676 44.6286 62.9768 44.5278 63.2214C44.427 63.4661 44.4011 63.7352 44.4533 63.9947C44.5054 64.2542 44.6334 64.4923 44.821 64.6788C45.0085 64.8654 45.2472 64.992 45.5067 65.0427C45.7662 65.0933 46.0349 65.0657 46.2787 64.9633C46.5226 64.8609 46.7305 64.6883 46.8762 64.4674C47.0219 64.2466 47.0989 63.9874 47.0972 63.7227C47.0909 63.3711 46.9479 63.0357 46.6987 62.7877C46.4494 62.5398 46.1135 62.3987 45.7621 62.3945Z" fill="#D8B58C"/>
<path opacity="0.89" d="M66.9263 53.1455C64.854 53.1455 64.854 56.3677 66.9263 56.3677C67.3012 56.2965 67.6395 56.0967 67.8828 55.8025C68.1262 55.5084 68.2594 55.1385 68.2594 54.7566C68.2594 54.3747 68.1262 54.0048 67.8828 53.7106C67.6395 53.4165 67.3012 53.2166 66.9263 53.1455Z" fill="#D8B58C"/>
<path opacity="0.89" d="M66.3127 57.4746C65.9247 57.503 65.5619 57.6773 65.2971 57.9624C65.0322 58.2476 64.885 58.6225 64.885 59.0119C64.885 59.4013 65.0322 59.7762 65.2971 60.0614C65.5619 60.3465 65.9247 60.5208 66.3127 60.5492C66.7006 60.5208 67.0635 60.3465 67.3283 60.0614C67.5931 59.7762 67.7403 59.4013 67.7403 59.0119C67.7403 58.6225 67.5931 58.2476 67.3283 57.9624C67.0635 57.6773 66.7006 57.503 66.3127 57.4746V57.4746Z" fill="#D8B58C"/>
<path opacity="0.89" d="M61.2515 60.8525C61.0342 60.8525 60.8259 60.9389 60.6723 61.0927C60.5187 61.2464 60.4324 61.455 60.4324 61.6724C60.4324 61.8899 60.5187 62.0984 60.6723 62.2522C60.8259 62.4059 61.0342 62.4923 61.2515 62.4923C61.4687 62.4923 61.6771 62.4059 61.8307 62.2522C61.9843 62.0984 62.0706 61.8899 62.0706 61.6724C62.0706 61.455 61.9843 61.2464 61.8307 61.0927C61.6771 60.9389 61.4687 60.8525 61.2515 60.8525Z" fill="#D8B58C"/>
<path opacity="0.89" d="M63.9385 52.957C63.6964 52.9793 63.4714 53.0913 63.3076 53.271C63.1438 53.4508 63.053 53.6853 63.053 53.9286C63.053 54.1719 63.1438 54.4064 63.3076 54.5861C63.4714 54.7659 63.6964 54.8779 63.9385 54.9002C64.1805 54.8779 64.4055 54.7659 64.5693 54.5861C64.7331 54.4064 64.8239 54.1719 64.8239 53.9286C64.8239 53.6853 64.7331 53.4508 64.5693 53.271C64.4055 53.0913 64.1805 52.9793 63.9385 52.957Z" fill="#D8B58C"/>
<path opacity="0.89" d="M63.3165 56.7783C63.0832 56.7783 62.8551 56.8476 62.6612 56.9773C62.4672 57.107 62.316 57.2914 62.2267 57.5072C62.1375 57.7229 62.1141 57.9603 62.1596 58.1893C62.2051 58.4183 62.3175 58.6287 62.4824 58.7938C62.6474 58.9589 62.8576 59.0714 63.0864 59.1169C63.3152 59.1625 63.5523 59.1391 63.7678 59.0497C63.9834 58.9604 64.1676 58.809 64.2972 58.6149C64.4268 58.4207 64.496 58.1925 64.496 57.959C64.4917 57.6472 64.3661 57.3493 64.1458 57.1288C63.9255 56.9083 63.628 56.7826 63.3165 56.7783V56.7783Z" fill="#D8B58C"/>
<path opacity="0.89" d="M56.501 57.6641C56.2182 57.6641 55.9417 57.7478 55.7063 57.9048C55.471 58.0617 55.2872 58.2849 55.1783 58.5461C55.0693 58.8073 55.04 59.0949 55.094 59.3728C55.148 59.6507 55.2829 59.9063 55.4817 60.1076C55.6806 60.3089 55.9344 60.4469 56.2114 60.5041C56.4884 60.5613 56.7761 60.5352 57.0383 60.4291C57.3004 60.323 57.5254 60.1417 57.6849 59.9079C57.8443 59.6741 57.9312 59.3983 57.9344 59.1153C57.9344 58.7332 57.7839 58.3665 57.5156 58.0949C57.2472 57.8232 56.8826 57.6684 56.501 57.6641V57.6641Z" fill="#D8B58C"/>
<path opacity="0.89" d="M63.6273 43.2168C62.7075 43.232 61.8284 43.5987 61.17 44.2417C60.5217 44.8958 60.158 45.7799 60.158 46.7013C60.158 47.6227 60.5217 48.5068 61.17 49.161C61.8324 49.7968 62.7097 50.1597 63.6273 50.1776C64.546 50.1655 65.4253 49.8017 66.0846 49.161C66.7328 48.5068 67.0966 47.6227 67.0966 46.7013C67.0966 45.7799 66.7328 44.8958 66.0846 44.2417C65.4261 43.5987 64.547 43.232 63.6273 43.2168V43.2168Z" fill="#D8B58C"/>
<path opacity="0.89" d="M57.9495 45.6112C58.1798 45.6112 58.4007 45.5196 58.5635 45.3567C58.7263 45.1937 58.8178 44.9726 58.8178 44.7421C58.8178 44.5116 58.7263 44.2906 58.5635 44.1276C58.4007 43.9646 58.1798 43.873 57.9495 43.873C57.7193 43.873 57.4984 43.9646 57.3356 44.1276C57.1728 44.2906 57.0813 44.5116 57.0813 44.7421C57.0813 44.9726 57.1728 45.1937 57.3356 45.3567C57.4984 45.5196 57.7193 45.6112 57.9495 45.6112V45.6112Z" fill="#D8B58C"/>
<path opacity="0.89" d="M57.5334 47.0537C54.9287 47.0537 54.9287 51.1039 57.5334 51.1039C60.1381 51.1039 60.1299 47.0537 57.5334 47.0537Z" fill="#D8B58C"/>
<path opacity="0.89" d="M63.6186 32.4928C63.9339 32.6532 64.2926 32.7071 64.641 32.6465C64.9894 32.5859 65.3089 32.4141 65.5517 32.1567C65.7351 31.9801 65.8998 31.785 66.0432 31.5746C66.1003 31.4889 66.1496 31.3984 66.1906 31.304C66.2453 31.1984 66.2919 31.0888 66.3298 30.976C66.3318 30.9542 66.3318 30.9323 66.3298 30.9105C66.4009 30.7635 66.4378 30.6023 66.4378 30.439C66.4378 30.2757 66.4009 30.1146 66.3298 29.9676C66.2459 29.7646 66.104 29.591 65.9218 29.4684C65.7397 29.3459 65.5254 29.28 65.306 29.2789C64.9956 29.2621 64.6865 29.3294 64.4112 29.4737C64.1359 29.618 63.9045 29.8339 63.7415 30.0988C63.6503 30.159 63.5627 30.2248 63.4794 30.2955C63.3059 30.4128 63.1633 30.5701 63.0635 30.7542C62.9637 30.9383 62.9097 31.1438 62.906 31.3532C62.9136 31.5892 62.9835 31.8191 63.1087 32.0192C63.2339 32.2194 63.4098 32.3828 63.6186 32.4928V32.4928Z" fill="#D8B58C"/>
<path opacity="0.89" d="M60.1296 28.2378C60.2124 28.3511 60.3228 28.4412 60.4504 28.4995C60.5779 28.5579 60.7182 28.5824 60.858 28.5709C60.9977 28.5594 61.1322 28.5122 61.2484 28.4338C61.3647 28.3553 61.4589 28.2483 61.5221 28.123C61.7749 27.6465 61.8691 27.1017 61.791 26.5678C61.7129 26.034 61.4666 25.539 61.088 25.155C60.9533 25.0247 60.7872 24.9313 60.606 24.884C60.4247 24.8366 60.2343 24.8369 60.0531 24.8847C59.872 24.9325 59.7062 25.0262 59.5718 25.1569C59.4374 25.2876 59.3389 25.4507 59.2859 25.6306C59.1593 25.9661 59.0927 26.3214 59.0894 26.68C59.091 26.9214 59.1428 27.1598 59.2415 27.38C59.3402 27.6002 59.4837 27.7974 59.6627 27.9591C59.7907 28.0921 59.9519 28.1883 60.1296 28.2378V28.2378Z" fill="#D8B58C"/>
<path opacity="0.89" d="M41.4212 73.3645C41.638 73.3435 41.8392 73.2424 41.9855 73.081C42.1319 72.9195 42.213 72.7093 42.213 72.4913C42.213 72.2733 42.1319 72.0631 41.9855 71.9017C41.8392 71.7403 41.638 71.6392 41.4212 71.6182C41.2044 71.6392 41.0032 71.7403 40.8569 71.9017C40.7105 72.0631 40.6294 72.2733 40.6294 72.4913C40.6294 72.7093 40.7105 72.9195 40.8569 73.081C41.0032 73.2424 41.2044 73.3435 41.4212 73.3645V73.3645Z" fill="#D8B58C"/>
<path opacity="0.89" d="M37.0865 71.7405C37.3033 71.7194 37.5044 71.6184 37.6508 71.4569C37.7972 71.2955 37.8783 71.0853 37.8783 70.8673C37.8783 70.6493 37.7972 70.4391 37.6508 70.2777C37.5044 70.1163 37.3033 70.0152 37.0865 69.9941C36.8697 70.0152 36.6685 70.1163 36.5222 70.2777C36.3758 70.4391 36.2947 70.6493 36.2947 70.8673C36.2947 71.0853 36.3758 71.2955 36.5222 71.4569C36.6685 71.6184 36.8697 71.7194 37.0865 71.7405V71.7405Z" fill="#D8B58C"/>
<path opacity="0.89" d="M33.6799 56.4251C33.9167 56.4251 34.1438 56.3309 34.3113 56.1633C34.4787 55.9957 34.5728 55.7684 34.5728 55.5314C34.5728 55.2944 34.4787 55.0671 34.3113 54.8995C34.1438 54.7319 33.9167 54.6377 33.6799 54.6377C33.4431 54.6377 33.216 54.7319 33.0486 54.8995C32.8812 55.0671 32.7871 55.2944 32.7871 55.5314C32.7871 55.7684 32.8812 55.9957 33.0486 56.1633C33.216 56.3309 33.4431 56.4251 33.6799 56.4251V56.4251Z" fill="#D8B58C"/>
<path opacity="0.89" d="M21.631 47.3658C21.8141 47.3465 21.9837 47.26 22.1069 47.123C22.2301 46.986 22.2983 46.8082 22.2983 46.6238C22.2983 46.4395 22.2301 46.2617 22.1069 46.1246C21.9837 45.9876 21.8141 45.9011 21.631 45.8818C21.4478 45.9011 21.2783 45.9876 21.155 46.1246C21.0318 46.2617 20.9636 46.4395 20.9636 46.6238C20.9636 46.8082 21.0318 46.986 21.155 47.123C21.2783 47.26 21.4478 47.3465 21.631 47.3658V47.3658Z" fill="#D8B58C"/>
<path opacity="0.89" d="M70.6219 34.0919C70.8697 34.0919 71.112 34.0183 71.3181 33.8805C71.5242 33.7426 71.6849 33.5467 71.7797 33.3175C71.8746 33.0883 71.8994 32.836 71.851 32.5927C71.8027 32.3494 71.6833 32.1259 71.5081 31.9504C71.3328 31.775 71.1095 31.6555 70.8664 31.6071C70.6233 31.5587 70.3713 31.5836 70.1423 31.6785C69.9133 31.7734 69.7176 31.9342 69.5799 32.1405C69.4422 32.3468 69.3687 32.5893 69.3687 32.8374C69.3708 33.1695 69.5035 33.4873 69.7381 33.7221C69.9727 33.9569 70.2902 34.0897 70.6219 34.0919V34.0919Z" fill="#D8B58C"/>
<path opacity="0.89" d="M68.5343 36.527C68.7175 36.5077 68.887 36.4212 69.0102 36.2842C69.1335 36.1472 69.2017 35.9693 69.2017 35.785C69.2017 35.6006 69.1335 35.4228 69.0102 35.2858C68.887 35.1488 68.7175 35.0623 68.5343 35.043C68.3511 35.0623 68.1816 35.1488 68.0584 35.2858C67.9351 35.4228 67.8669 35.6006 67.8669 35.785C67.8669 35.9693 67.9351 36.1472 68.0584 36.2842C68.1816 36.4212 68.3511 36.5077 68.5343 36.527V36.527Z" fill="#D8B58C"/>
<path opacity="0.89" d="M68.1488 40.0603C68.3259 40.0159 68.4831 39.9135 68.5954 39.7694C68.7078 39.6253 68.7688 39.4478 68.7688 39.265C68.7688 39.0822 68.7078 38.9047 68.5954 38.7606C68.4831 38.6165 68.3259 38.5142 68.1488 38.4697C67.9717 38.5142 67.8145 38.6165 67.7021 38.7606C67.5898 38.9047 67.5288 39.0822 67.5288 39.265C67.5288 39.4478 67.5898 39.6253 67.7021 39.7694C67.8145 39.9135 67.9717 40.0159 68.1488 40.0603Z" fill="#D8B58C"/>
<path opacity="0.89" d="M61.8738 43.963C62.091 43.963 62.2994 43.8766 62.453 43.7229C62.6066 43.5691 62.6929 43.3606 62.6929 43.1431C62.6929 42.9257 62.6066 42.7171 62.453 42.5634C62.2994 42.4096 62.091 42.3232 61.8738 42.3232C61.6565 42.3232 61.4482 42.4096 61.2946 42.5634C61.141 42.7171 61.0547 42.9257 61.0547 43.1431C61.0547 43.3606 61.141 43.5691 61.2946 43.7229C61.4482 43.8766 61.6565 43.963 61.8738 43.963Z" fill="#D8B58C"/>
<path opacity="0.89" d="M54.396 50.4081C54.7813 50.4038 55.1497 50.2487 55.4222 49.9759C55.6947 49.7031 55.8497 49.3344 55.854 48.9487C55.8456 48.5642 55.6893 48.1978 55.4177 47.9259C55.1461 47.654 54.78 47.4976 54.396 47.4893C54.0093 47.4893 53.6385 47.643 53.365 47.9167C53.0916 48.1904 52.938 48.5616 52.938 48.9487C52.938 49.3357 53.0916 49.7069 53.365 49.9806C53.6385 50.2543 54.0093 50.4081 54.396 50.4081Z" fill="#D8B58C"/>
<path opacity="0.89" d="M52.1921 53.9162C52.5326 53.9162 52.8655 53.815 53.1485 53.6254C53.4316 53.4359 53.6521 53.1665 53.782 52.8514C53.9119 52.5363 53.9455 52.1897 53.8785 51.8555C53.8115 51.5213 53.6468 51.2145 53.4054 50.974C53.1641 50.7336 52.8568 50.5703 52.5226 50.5047C52.1884 50.4392 51.8423 50.4745 51.5281 50.6061C51.2139 50.7377 50.9459 50.9596 50.7578 51.2438C50.5698 51.528 50.4703 51.8617 50.4719 52.2026C50.4783 52.6565 50.6619 53.0899 50.9833 53.4101C51.3047 53.7303 51.7386 53.9119 52.1921 53.9162V53.9162Z" fill="#D8B58C"/>
<path opacity="0.89" d="M48.9414 56.4177C49.363 56.4177 49.7751 56.2925 50.1255 56.0579C50.4759 55.8233 50.7488 55.4898 50.9098 55.0999C51.0707 54.7099 51.1124 54.2808 51.0296 53.8671C50.9467 53.4534 50.7431 53.0736 50.4444 52.7758C50.1458 52.478 49.7655 52.2756 49.3519 52.1943C48.9382 52.1129 48.5098 52.1563 48.1208 52.3189C47.7318 52.4815 47.3997 52.756 47.1667 53.1077C46.9337 53.4593 46.8102 53.8722 46.8118 54.2942C46.8182 54.8568 47.0449 55.3944 47.4431 55.7915C47.8414 56.1886 48.3794 56.4134 48.9414 56.4177V56.4177Z" fill="#D8B58C"/>
<path opacity="0.89" d="M47.6945 73.6101C48.1164 73.6117 48.5293 73.4878 48.8807 73.2542C49.2322 73.0206 49.5064 72.6878 49.6686 72.2979C49.8308 71.9081 49.8737 71.4788 49.7918 71.0645C49.7099 70.6502 49.5069 70.2697 49.2086 69.971C48.9102 69.6724 48.53 69.4692 48.1161 69.3872C47.7023 69.3053 47.2734 69.3482 46.8839 69.5105C46.4944 69.6729 46.1619 69.9474 45.9285 70.2992C45.6951 70.651 45.5714 71.0643 45.573 71.4866C45.5815 72.0471 45.8077 72.5823 46.2037 72.9788C46.5998 73.3752 47.1345 73.6016 47.6945 73.6101V73.6101Z" fill="#D8B58C"/>
<path opacity="0.89" d="M48.0888 66.7478C48.3937 66.7478 48.6917 66.6572 48.9451 66.4875C49.1986 66.3177 49.3959 66.0765 49.5122 65.7944C49.6285 65.5122 49.6585 65.2019 49.5985 64.9027C49.5384 64.6035 49.3909 64.3288 49.1747 64.1136C48.9585 63.8984 48.6834 63.7522 48.3841 63.6937C48.0849 63.6351 47.775 63.6668 47.4938 63.7847C47.2125 63.9027 46.9726 64.1015 46.8044 64.3561C46.6362 64.6106 46.5472 64.9094 46.5488 65.2146C46.5573 65.62 46.7225 66.0063 47.0097 66.2923C47.2969 66.5782 47.6837 66.7415 48.0888 66.7478V66.7478Z" fill="#D8B58C"/>
<path opacity="0.89" d="M41.7324 64.4274C41.9938 64.4372 42.2522 64.3685 42.4743 64.2301C42.6963 64.0917 42.8719 63.8899 42.9785 63.6507C43.085 63.4116 43.1176 63.146 43.0721 62.8881C43.0265 62.6303 42.9049 62.3919 42.7229 62.2038C42.5409 62.0158 42.3068 61.8865 42.0508 61.8327C41.7948 61.7789 41.5285 61.803 41.2863 61.9019C41.0441 62.0009 40.837 62.1701 40.6917 62.3879C40.5464 62.6056 40.4695 62.8619 40.471 63.1238C40.4752 63.4682 40.6138 63.7973 40.8571 64.0409C41.1004 64.2844 41.4292 64.4231 41.7733 64.4274H41.7324Z" fill="#D8B58C"/>
<path opacity="0.89" d="M37.4723 61.5744C37.8872 61.5744 38.2851 61.4094 38.5785 61.1157C38.8719 60.822 39.0368 60.4237 39.0368 60.0084C39.0368 59.593 38.8719 59.1947 38.5785 58.9011C38.2851 58.6074 37.8872 58.4424 37.4723 58.4424C35.4655 58.4424 35.4573 61.5744 37.4723 61.5744Z" fill="#D8B58C"/>
<path opacity="0.89" d="M61.4075 61.271C61.8394 61.2709 62.2616 61.1424 62.6205 60.9016C62.9793 60.6609 63.2585 60.3188 63.4227 59.9189C63.5868 59.5189 63.6285 59.0792 63.5424 58.6555C63.4564 58.2318 63.2464 57.8432 62.9392 57.5392C62.632 57.2352 62.2415 57.0295 61.8173 56.9481C61.393 56.8668 60.9542 56.9135 60.5565 57.0823C60.1588 57.2512 59.8203 57.5345 59.5838 57.8964C59.3474 58.2583 59.2238 58.6823 59.2287 59.1147C59.2372 59.6897 59.4697 60.2386 59.8767 60.6445C60.2837 61.0503 60.833 61.281 61.4075 61.2874V61.271Z" fill="#D8B58C"/>
<path opacity="0.89" d="M56.1389 56.4253C56.4531 56.4253 56.7604 56.332 57.0217 56.1572C57.283 55.9825 57.4867 55.7341 57.607 55.4434C57.7272 55.1528 57.7587 54.833 57.6974 54.5244C57.6361 54.2159 57.4847 53.9325 57.2625 53.71C57.0403 53.4876 56.7571 53.3361 56.4489 53.2747C56.1406 53.2133 55.8211 53.2448 55.5308 53.3652C55.2404 53.4856 54.9922 53.6895 54.8176 53.951C54.643 54.2126 54.5498 54.5201 54.5498 54.8347C54.5622 55.2527 54.7335 55.6501 55.0289 55.9457C55.3243 56.2414 55.7213 56.4129 56.1389 56.4253Z" fill="#D8B58C"/>
<path opacity="0.89" d="M32.4424 42.3323C32.6981 42.3322 32.948 42.2558 33.1602 42.1128C33.3723 41.9699 33.537 41.7669 33.6333 41.5298C33.7296 41.2926 33.7531 41.0322 33.7008 40.7816C33.6484 40.5311 33.5227 40.3018 33.3395 40.1232C33.1564 39.9445 32.9242 39.8246 32.6726 39.7787C32.421 39.7328 32.1615 39.763 31.9272 39.8655C31.6928 39.9679 31.4943 40.138 31.357 40.354C31.2198 40.5699 31.1499 40.8219 31.1564 41.0778C31.1607 41.4171 31.2978 41.7412 31.5383 41.9804C31.7788 42.2196 32.1034 42.3547 32.4424 42.3569V42.3323Z" fill="#D8B58C"/>
<path opacity="0.89" d="M21.058 41.2244C21.2351 41.1799 21.3923 41.0775 21.5046 40.9335C21.6169 40.7894 21.6779 40.6118 21.6779 40.4291C21.6779 40.2463 21.6169 40.0688 21.5046 39.9247C21.3923 39.7806 21.2351 39.6782 21.058 39.6338C20.8808 39.6782 20.7236 39.7806 20.6113 39.9247C20.499 40.0688 20.438 40.2463 20.438 40.4291C20.438 40.6118 20.499 40.7894 20.6113 40.9335C20.7236 41.0775 20.8808 41.1799 21.058 41.2244Z" fill="#D8B58C"/>
<path opacity="0.89" d="M33.2949 50.9161C33.5424 50.9144 33.7839 50.8395 33.9889 50.7007C34.1939 50.5619 34.3532 50.3654 34.4468 50.136C34.5404 49.9067 34.5641 49.6547 34.5148 49.4119C34.4655 49.1691 34.3455 48.9464 34.1699 48.7718C33.9944 48.5971 33.771 48.4785 33.5282 48.4307C33.2853 48.383 33.0337 48.4083 32.8052 48.5035C32.5767 48.5987 32.3814 48.7595 32.2441 48.9656C32.1067 49.1717 32.0335 49.4139 32.0334 49.6616C32.0377 49.9944 32.1723 50.3122 32.4081 50.5468C32.644 50.7814 32.9624 50.9139 33.2949 50.9161V50.9161Z" fill="#D8B58C"/>
<path opacity="0.89" d="M36.982 55.7698C37.306 55.7698 37.6227 55.6736 37.8921 55.4934C38.1615 55.3133 38.3715 55.0572 38.4955 54.7575C38.6194 54.4579 38.6519 54.1282 38.5887 53.8101C38.5255 53.492 38.3694 53.1998 38.1403 52.9705C37.9112 52.7412 37.6193 52.585 37.3015 52.5217C36.9838 52.4585 36.6544 52.4909 36.355 52.615C36.0557 52.7392 35.7998 52.9493 35.6198 53.219C35.4398 53.4887 35.3438 53.8057 35.3438 54.13C35.3561 54.561 35.5327 54.9709 35.8373 55.2758C36.1419 55.5807 36.5514 55.7574 36.982 55.7698V55.7698Z" fill="#D8B58C"/>
</g>
<g style="mix-blend-mode:multiply" opacity="0.44">
<g style="mix-blend-mode:multiply" opacity="0.44">
<path d="M52.6039 41.4288C51.9942 41.5959 51.4751 41.9971 51.1591 42.5451C50.8432 43.0932 50.756 43.7438 50.9166 44.3558C50.9831 44.586 51.0795 44.8065 51.2033 45.0117C51.4664 45.4481 51.8586 45.7919 52.3254 45.9956C52.8038 46.2117 53.3422 46.2552 53.849 46.1186C54.253 45.9877 54.6164 45.7543 54.9035 45.4411C55.1906 45.1278 55.3917 44.7454 55.4872 44.3312V44.4296V44.3804C55.6032 43.9748 55.6082 43.5454 55.5016 43.1372C55.3949 42.7289 55.1806 42.3569 54.881 42.0601C54.585 41.7718 54.2212 41.5629 53.8233 41.4525C53.4253 41.3422 53.0059 41.334 52.6039 41.4288V41.4288Z" fill="#CE9B78"/>
</g>
<g style="mix-blend-mode:multiply" opacity="0.44">
<path d="M39.1622 59.7533C38.7648 59.746 38.3727 59.8456 38.0269 60.0417C37.6811 60.2379 37.3943 60.5234 37.1963 60.8684C37.0363 61.1433 36.9433 61.4521 36.9248 61.7698C36.9063 62.0875 36.9629 62.405 37.0899 62.6967C37.1721 62.9489 37.319 63.175 37.5158 63.3526C37.7637 63.6052 38.0749 63.7864 38.4168 63.8773C38.7147 63.9824 39.0331 64.0157 39.3462 63.9744C39.6594 63.9331 39.9583 63.8184 40.2188 63.6396C40.5792 63.3886 40.8628 63.0423 41.0379 62.6393C41.2297 62.2114 41.2645 61.7294 41.1362 61.2783C41.009 60.8487 40.7499 60.4701 40.3955 60.1964C40.0411 59.9226 39.6096 59.7676 39.1622 59.7533V59.7533Z" fill="#CE9B78"/>
</g>
<g style="mix-blend-mode:multiply" opacity="0.44">
<path d="M34.8305 61.4667C34.8321 61.0545 34.7114 60.651 34.4838 60.3075C34.2562 59.9639 33.9318 59.6957 33.5518 59.5369C33.1718 59.378 32.7532 59.3356 32.3491 59.415C31.945 59.4944 31.5735 59.6921 31.2817 59.983C30.9899 60.2739 30.791 60.645 30.71 61.0492C30.6291 61.4534 30.6698 61.8725 30.827 62.2535C30.9842 62.6345 31.2509 62.9603 31.5932 63.1894C31.9355 63.4186 32.3381 63.541 32.7499 63.541C33.2977 63.5326 33.8208 63.3116 34.2089 62.9246C34.5971 62.5377 34.8199 62.0149 34.8305 61.4667Z" fill="#CE9B78"/>
</g>
<g style="mix-blend-mode:multiply" opacity="0.44">
<path d="M24.6963 54.195C24.9809 54.195 25.2538 54.0818 25.4551 53.8804C25.6563 53.6789 25.7693 53.4058 25.7693 53.1209C25.7693 52.8361 25.6563 52.5629 25.4551 52.3614C25.2538 52.16 24.9809 52.0469 24.6963 52.0469C24.4117 52.0469 24.1388 52.16 23.9376 52.3614C23.7363 52.5629 23.6233 52.8361 23.6233 53.1209C23.6233 53.4058 23.7363 53.6789 23.9376 53.8804C24.1388 54.0818 24.4117 54.195 24.6963 54.195V54.195Z" fill="#CE9B78"/>
</g>
<g style="mix-blend-mode:multiply" opacity="0.44">
<path d="M29.4466 62.877C26.8746 62.877 26.8746 66.878 29.4466 66.878C32.0185 66.878 32.0185 62.877 29.4466 62.877Z" fill="#CE9B78"/>
</g>
<g style="mix-blend-mode:multiply" opacity="0.44">
<path d="M33.9929 65.3691C33.7953 65.3691 33.6057 65.4477 33.4659 65.5877C33.3261 65.7276 33.2476 65.9174 33.2476 66.1152C33.2476 66.3131 33.3261 66.5029 33.4659 66.6428C33.6057 66.7827 33.7953 66.8613 33.9929 66.8613C34.1906 66.8613 34.3802 66.7827 34.52 66.6428C34.6598 66.5029 34.7383 66.3131 34.7383 66.1152C34.7383 65.9174 34.6598 65.7276 34.52 65.5877C34.3802 65.4477 34.1906 65.3691 33.9929 65.3691V65.3691Z" fill="#CE9B78"/>
</g>
<g style="mix-blend-mode:multiply" opacity="0.44">
<path d="M53.5775 56.7029C53.3193 56.515 53.0118 56.4067 52.6929 56.3913C52.4172 56.3617 52.1383 56.3897 51.8738 56.4733C51.8226 56.4903 51.7732 56.5123 51.7264 56.5389C51.4566 56.588 51.1997 56.6919 50.9716 56.8442C50.7434 56.9965 50.5489 57.194 50.4 57.4245C50.2511 57.655 50.151 57.9136 50.1058 58.1843C50.0606 58.4551 50.0713 58.7322 50.1373 58.9986C50.2305 59.3281 50.4079 59.6276 50.6521 59.8674C50.8963 60.1073 51.1989 60.2792 51.5298 60.3661C51.8607 60.4531 52.2086 60.4521 52.539 60.3632C52.8694 60.2744 53.1709 60.1007 53.4137 59.8595C53.7602 59.5438 54.0173 59.1422 54.1591 58.6952C54.2573 58.294 54.2573 57.8749 54.1591 57.4736C54.0666 57.1538 53.8595 56.8794 53.5775 56.7029V56.7029Z" fill="#CE9B78"/>
</g>
<g style="mix-blend-mode:multiply" opacity="0.44">
<path d="M67.3211 42.5938C67.5208 42.1859 67.5617 41.7183 67.4358 41.2819C67.2923 40.786 66.9614 40.3656 66.5133 40.1099C66.0652 39.8543 65.5352 39.7835 65.0358 39.9127C64.6287 40.0386 64.2578 40.2608 63.9546 40.5604C63.7281 40.7977 63.5622 41.0862 63.4708 41.4014C63.3794 41.7165 63.3652 42.0491 63.4295 42.3709C63.4938 42.6927 63.6347 42.9943 63.8401 43.25C64.0456 43.5057 64.3097 43.7081 64.6099 43.84C64.8989 43.965 65.2133 44.0205 65.5276 44.002C65.842 43.9835 66.1477 43.8915 66.4201 43.7334C66.8542 43.4819 67.1763 43.0744 67.3211 42.5938V42.5938Z" fill="#CE9B78"/>
</g>
<g style="mix-blend-mode:multiply" opacity="0.44">
<path d="M61.3577 34.8125C60.971 34.8125 60.6001 34.9663 60.3267 35.2399C60.0533 35.5136 59.8997 35.8848 59.8997 36.2719C59.8997 36.6589 60.0533 37.0302 60.3267 37.3038C60.6001 37.5775 60.971 37.7313 61.3577 37.7313C61.7443 37.7313 62.1152 37.5775 62.3886 37.3038C62.6621 37.0302 62.8157 36.6589 62.8157 36.2719C62.8157 35.8848 62.6621 35.5136 62.3886 35.2399C62.1152 34.9663 61.7443 34.8125 61.3577 34.8125V34.8125Z" fill="#CE9B78"/>
</g>
<g style="mix-blend-mode:multiply" opacity="0.44">
<path d="M56.4271 33.5991C56.8273 33.5974 57.218 33.4771 57.5498 33.2532C57.8816 33.0293 58.1396 32.712 58.2912 32.3413C58.4429 31.9707 58.4813 31.5633 58.4016 31.1708C58.322 30.7783 58.1278 30.4182 57.8437 30.1362C57.5596 29.8541 57.1984 29.6627 56.8056 29.5862C56.4128 29.5096 56.0062 29.5514 55.6371 29.7061C55.2681 29.8609 54.9532 30.1217 54.7322 30.4557C54.5112 30.7896 54.3942 31.1816 54.3958 31.5821C54.4022 32.1179 54.6188 32.6296 54.9988 33.0069C55.3789 33.3843 55.8919 33.5969 56.4271 33.5991V33.5991Z" fill="#CE9B78"/>
</g>
<g style="mix-blend-mode:multiply" opacity="0.44">
<path d="M35.5561 50.915C35.2219 50.5981 34.8134 50.3704 34.3682 50.2529C33.9231 50.1354 33.4555 50.1319 33.0087 50.2427C32.5738 50.362 32.1774 50.5925 31.8585 50.9117C31.5397 51.2308 31.3094 51.6276 31.1903 52.0629C30.877 53.3158 31.0528 54.6411 31.6817 55.7688C32.0209 56.3954 32.5072 56.93 33.0988 57.3266C34.3848 58.5564 36.5226 58.909 37.7349 57.3266C39.4386 55.1703 37.3171 52.3417 35.5561 50.915Z" fill="#CE9B78"/>
</g>
<g style="mix-blend-mode:multiply" opacity="0.44">
<path d="M38.9069 67.8456L38.8332 67.7882C38.5801 67.4556 38.2493 67.1901 37.8699 67.0151C37.4905 66.8401 37.074 66.7608 36.6569 66.7843C36.2398 66.8078 35.8348 66.9332 35.4774 67.1497C35.12 67.3662 34.821 67.667 34.6067 68.026C34.3792 68.4001 34.2462 68.824 34.219 69.2611C34.1919 69.6982 34.2716 70.1354 34.451 70.5348C34.6589 71.0125 35.0029 71.4182 35.44 71.7011C35.8771 71.9841 36.3879 72.1316 36.9083 72.1254C37.0282 72.1376 37.1489 72.1376 37.2687 72.1254C37.5803 72.3045 37.9333 72.3987 38.2926 72.3987C38.6519 72.3987 39.0049 72.3045 39.3165 72.1254C39.5713 71.9634 39.7911 71.7519 39.9629 71.5035C40.1347 71.2551 40.2551 70.9747 40.3169 70.679C40.3787 70.3833 40.3808 70.0781 40.3229 69.7816C40.2651 69.4851 40.1484 69.2031 39.98 68.9524C39.7074 68.5094 39.3412 68.1316 38.9069 67.8456V67.8456Z" fill="#CE9B78"/>
</g>
<g style="mix-blend-mode:multiply" opacity="0.44">
<path d="M27.4145 31.7301C27.652 31.5149 27.8106 31.2262 27.865 30.9102C27.9193 30.745 27.9281 30.5682 27.8904 30.3983C27.8527 30.2285 27.77 30.072 27.6509 29.9453C27.5319 29.8186 27.3809 29.7264 27.2139 29.6783C27.0469 29.6302 26.87 29.6281 26.7019 29.6722C26.3641 29.726 26.0548 29.8938 25.8255 30.1477C25.6226 30.3611 25.5095 30.6444 25.5095 30.9389C25.5095 31.2335 25.6226 31.5167 25.8255 31.7301C25.9208 31.8145 26.0285 31.8836 26.1449 31.9351C26.1876 32.0003 26.2432 32.0561 26.3081 32.099C26.3731 32.142 26.4461 32.1713 26.5228 32.1851C26.5994 32.199 26.6781 32.197 26.7539 32.1794C26.8298 32.1618 26.9013 32.1288 26.964 32.0827C27.0304 32.0353 27.0934 31.9832 27.1524 31.9269C27.2473 31.872 27.3353 31.806 27.4145 31.7301V31.7301Z" fill="#CE9B78"/>
</g>
<g style="mix-blend-mode:multiply" opacity="0.44">
<path d="M20.7308 37.8705C20.7619 38.091 20.8374 38.3028 20.9529 38.4931C21.0684 38.6834 21.2213 38.8482 21.4025 38.9774C21.5322 39.0994 21.6751 39.2066 21.8284 39.2971C22.4153 39.6026 23.0969 39.6709 23.7325 39.4878C24.3681 39.3047 24.9092 38.8842 25.2441 38.3133C25.4076 38.0844 25.5372 37.8331 25.6291 37.5672C26.0267 37.0543 26.2168 36.4103 26.1615 35.7634C26.0948 35.4496 25.9598 35.1544 25.7661 34.8988C25.5723 34.6432 25.3247 34.4336 25.0407 34.2848C24.7567 34.136 24.4435 34.0518 24.1233 34.0381C23.803 34.0244 23.4837 34.0816 23.1881 34.2056C22.2895 34.5614 21.5286 35.1966 21.0175 36.0176C20.8433 36.2878 20.7278 36.5917 20.6784 36.9095C20.629 37.2273 20.6469 37.5519 20.7308 37.8623V37.8705Z" fill="#CE9B78"/>
</g>
<g style="mix-blend-mode:multiply" opacity="0.44">
<path d="M28.4137 37.5751C28.7148 37.5502 28.9956 37.4128 29.2003 37.1903C29.4049 36.9678 29.5185 36.6764 29.5185 36.374C29.5185 36.0715 29.4049 35.7801 29.2003 35.5576C28.9956 35.3351 28.7148 35.1978 28.4137 35.1729C28.1126 35.1978 27.8318 35.3351 27.6271 35.5576C27.4224 35.7801 27.3088 36.0715 27.3088 36.374C27.3088 36.6764 27.4224 36.9678 27.6271 37.1903C27.8318 37.4128 28.1126 37.5502 28.4137 37.5751Z" fill="#CE9B78"/>
</g>
<g style="mix-blend-mode:multiply" opacity="0.44">
<path d="M31.3137 47.3889C31.5079 47.7442 31.7745 48.0548 32.0962 48.3006C32.4179 48.5463 32.7875 48.7217 33.1812 48.8155C33.8807 48.9857 34.6187 48.8831 35.2454 48.5285C35.8378 48.1816 36.2998 47.6494 36.5603 47.0139C36.8208 46.3783 36.8653 45.6746 36.687 45.0112C36.5591 44.5883 36.3382 44.1994 36.0405 43.8731C35.7429 43.5468 35.376 43.2913 34.9669 43.1255C34.5913 42.9653 34.1874 42.8828 33.7792 42.8828C33.371 42.8828 32.967 42.9653 32.5915 43.1255C32.198 43.2922 31.8578 43.5639 31.6079 43.9109C31.358 44.2578 31.2081 44.6668 31.1744 45.0932C31.026 45.4622 30.9616 45.8597 30.9856 46.2567C31.0097 46.6538 31.1218 47.0405 31.3137 47.3889V47.3889Z" fill="#CE9B78"/>
</g>
<g style="mix-blend-mode:multiply" opacity="0.44">
<path d="M36.0401 49.8002C36.0384 50.0912 36.1233 50.3761 36.2837 50.6187C36.4442 50.8613 36.6731 51.0506 36.9414 51.1627C37.2096 51.2748 37.5051 51.3046 37.7903 51.2482C38.0754 51.1919 38.3374 51.0519 38.543 50.8462C38.7485 50.6404 38.8883 50.3782 38.9446 50.0927C39.001 49.8073 38.9712 49.5115 38.8592 49.243C38.7473 48.9745 38.5581 48.7454 38.3157 48.5848C38.0733 48.4241 37.7887 48.3392 37.4981 48.3408C37.1134 48.3472 36.7462 48.503 36.4741 48.7753C36.202 49.0476 36.0464 49.4152 36.0401 49.8002V49.8002Z" fill="#CE9B78"/>
</g>
<g style="mix-blend-mode:multiply" opacity="0.44">
<path d="M39.5699 53.9485C39.848 53.9485 40.1147 53.838 40.3113 53.6411C40.5079 53.4443 40.6184 53.1774 40.6184 52.8991C40.6184 52.6207 40.5079 52.3538 40.3113 52.157C40.1147 51.9602 39.848 51.8496 39.5699 51.8496C39.2919 51.8496 39.0252 51.9602 38.8286 52.157C38.6319 52.3538 38.5215 52.6207 38.5215 52.8991C38.5215 53.1774 38.6319 53.4443 38.8286 53.6411C39.0252 53.838 39.2919 53.9485 39.5699 53.9485V53.9485Z" fill="#CE9B78"/>
</g>
<g style="mix-blend-mode:multiply" opacity="0.44">
<path d="M23.1154 50.4146C23.3624 49.8785 23.4459 49.2815 23.3556 48.6981C23.2653 48.1148 23.0051 47.5711 22.6075 47.135C22.3637 46.8802 22.052 46.7008 21.7094 46.618C21.3667 46.5351 21.0076 46.5524 20.6745 46.6677C20.2682 46.8178 19.9181 47.0896 19.6718 47.4461C19.4256 47.8027 19.2952 48.2266 19.2984 48.66C19.279 49.0304 19.4021 49.3942 19.6424 49.6767C19.6494 49.8202 19.6686 49.9628 19.6997 50.103C19.8132 50.45 20.0257 50.7562 20.311 50.9837C20.5963 51.2112 20.9419 51.3501 21.3052 51.3833C21.6684 51.4164 22.0335 51.3423 22.3552 51.1702C22.6768 50.998 22.9411 50.7353 23.1154 50.4146V50.4146Z" fill="#CE9B78"/>
</g>
<g style="mix-blend-mode:multiply" opacity="0.44">
<path d="M30.0674 50.9151C30.3998 50.9151 30.7186 50.783 30.9536 50.5477C31.1886 50.3125 31.3207 49.9934 31.3207 49.6607C31.3207 49.328 31.1886 49.0089 30.9536 48.7737C30.7186 48.5384 30.3998 48.4062 30.0674 48.4062C29.7351 48.4062 29.4163 48.5384 29.1813 48.7737C28.9462 49.0089 28.8142 49.328 28.8142 49.6607C28.8142 49.9934 28.9462 50.3125 29.1813 50.5477C29.4163 50.783 29.7351 50.9151 30.0674 50.9151Z" fill="#CE9B78"/>
</g>
<g style="mix-blend-mode:multiply" opacity="0.44">
<path d="M25.7291 58.9909C25.3995 58.8068 25.0246 58.7199 24.6477 58.7402C24.2708 58.7605 23.9074 58.8872 23.5994 59.1057C23.2904 59.3409 23.0638 59.6681 22.9523 60.0404C22.7795 60.3835 22.7472 60.7806 22.8622 61.1472C22.9887 61.6643 23.3121 62.1115 23.7632 62.3934C24.0143 62.5496 24.292 62.658 24.5823 62.7132C24.956 62.8015 25.3477 62.7728 25.7045 62.6312C26.0493 62.4956 26.3381 62.2471 26.5236 61.9261C26.7976 61.4247 26.8624 60.8353 26.7038 60.2863C26.5521 59.7477 26.2043 59.2856 25.7291 58.9909V58.9909Z" fill="#CE9B78"/>
</g>
<g style="mix-blend-mode:multiply" opacity="0.44">
<path d="M72.0991 52.5056C72.2686 52.5056 72.4311 52.4382 72.5509 52.3183C72.6707 52.1984 72.738 52.0357 72.738 51.8661C72.738 51.6965 72.6707 51.5338 72.5509 51.4139C72.4311 51.2939 72.2686 51.2266 72.0991 51.2266C71.9297 51.2266 71.7672 51.2939 71.6473 51.4139C71.5275 51.5338 71.4602 51.6965 71.4602 51.8661C71.4602 52.0357 71.5275 52.1984 71.6473 52.3183C71.7672 52.4382 71.9297 52.5056 72.0991 52.5056Z" fill="#CE9B78"/>
</g>
<g style="mix-blend-mode:multiply" opacity="0.44">
<path d="M71.3768 40.2571C74.6532 40.2571 74.6532 35.1328 71.3768 35.1328C68.1004 35.1328 68.0677 40.2571 71.3768 40.2571Z" fill="#CE9B78"/>
</g>
<g style="mix-blend-mode:multiply" opacity="0.44">
<path d="M71.812 42.2893C71.8104 42.5669 71.8912 42.8388 72.0441 43.0705C72.197 43.3021 72.4152 43.4831 72.671 43.5904C72.9268 43.6978 73.2087 43.7267 73.4809 43.6736C73.7531 43.6204 74.0035 43.4875 74.2002 43.2918C74.3969 43.096 74.5311 42.8462 74.5858 42.5741C74.6405 42.3019 74.6133 42.0196 74.5075 41.7629C74.4017 41.5062 74.2222 41.2868 73.9917 41.1324C73.7612 40.9779 73.4901 40.8955 73.2127 40.8955C72.8433 40.8976 72.4895 41.0449 72.2275 41.3056C71.9655 41.5663 71.8163 41.9196 71.812 42.2893V42.2893Z" fill="#CE9B78"/>
</g>
<g style="mix-blend-mode:multiply" opacity="0.44">
<path d="M69.001 35.1485C69.3334 35.1485 69.6522 35.0163 69.8872 34.7811C70.1222 34.5458 70.2543 34.2268 70.2543 33.8941C70.2543 33.5614 70.1222 33.2423 69.8872 33.0071C69.6522 32.7718 69.3334 32.6396 69.001 32.6396C68.6687 32.6396 68.3499 32.7718 68.1149 33.0071C67.8798 33.2423 67.7478 33.5614 67.7478 33.8941C67.7478 34.2268 67.8798 34.5458 68.1149 34.7811C68.3499 35.0163 68.6687 35.1485 69.001 35.1485V35.1485Z" fill="#CE9B78"/>
</g>
<g style="mix-blend-mode:multiply" opacity="0.44">
<path d="M55.9691 36.2794C55.9691 36.2302 55.9691 36.1893 55.9117 36.1401C55.8577 36.0329 55.7856 35.9359 55.6988 35.8531C55.4077 35.5961 55.038 35.4458 54.6503 35.4268C54.3934 35.4264 54.1408 35.4936 53.918 35.6216C53.6952 35.7497 53.5099 35.9341 53.3807 36.1565C53.2586 36.3617 53.1796 36.5897 53.1486 36.8266C53.1176 37.0634 53.1353 37.3041 53.2005 37.5339C53.2628 37.7337 53.3663 37.9183 53.5042 38.0758C53.6421 38.2332 53.8113 38.36 54.0011 38.4481C54.1909 38.5361 54.397 38.5834 54.6061 38.5869C54.8153 38.5905 55.0229 38.5501 55.2155 38.4685C55.4562 38.3663 55.6661 38.2027 55.8241 37.9942C55.9822 37.7856 56.083 37.5393 56.1165 37.2797C56.1992 36.9398 56.1464 36.581 55.9691 36.2794V36.2794Z" fill="#CE9B78"/>
</g>
<g style="mix-blend-mode:multiply" opacity="0.44">
<path d="M56.7056 58.4824C56.5287 58.5014 56.3651 58.5851 56.2462 58.7176C56.1273 58.85 56.0615 59.0218 56.0615 59.1998C56.0615 59.3779 56.1273 59.5497 56.2462 59.6821C56.3651 59.8145 56.5287 59.8983 56.7056 59.9172C56.8825 59.8983 57.0461 59.8145 57.165 59.6821C57.2839 59.5497 57.3497 59.3779 57.3497 59.1998C57.3497 59.0218 57.2839 58.85 57.165 58.7176C57.0461 58.5851 56.8825 58.5014 56.7056 58.4824V58.4824Z" fill="#CE9B78"/>
</g>
<g style="mix-blend-mode:multiply" opacity="0.44">
<path d="M67.0347 54.4814C66.8523 54.4814 66.6772 54.554 66.5482 54.6832C66.4192 54.8123 66.3467 54.9875 66.3467 55.1701C66.3467 55.3528 66.4192 55.528 66.5482 55.6571C66.6772 55.7863 66.8523 55.8588 67.0347 55.8588C67.2172 55.8588 67.3922 55.7863 67.5213 55.6571C67.6503 55.528 67.7228 55.3528 67.7228 55.1701C67.7228 54.9875 67.6503 54.8123 67.5213 54.6832C67.3922 54.554 67.2172 54.4814 67.0347 54.4814Z" fill="#CE9B78"/>
</g>
<g style="mix-blend-mode:multiply" opacity="0.44">
<path d="M63.2187 46.6846C62.8321 46.6846 62.4612 46.8383 62.1878 47.112C61.9144 47.3857 61.7607 47.7569 61.7607 48.144C61.7607 48.531 61.9144 48.9022 62.1878 49.1759C62.4612 49.4496 62.8321 49.6034 63.2187 49.6034C63.6054 49.6034 63.9763 49.4496 64.2497 49.1759C64.5231 48.9022 64.6768 48.531 64.6768 48.144C64.6768 47.7569 64.5231 47.3857 64.2497 47.112C63.9763 46.8383 63.6054 46.6846 63.2187 46.6846V46.6846Z" fill="#CE9B78"/>
</g>
<g style="mix-blend-mode:multiply" opacity="0.44">
<path d="M62.3912 46.6188C62.5744 46.5995 62.7439 46.513 62.8672 46.376C62.9904 46.2389 63.0586 46.0611 63.0586 45.8768C63.0586 45.6924 62.9904 45.5146 62.8672 45.3776C62.7439 45.2406 62.5744 45.1541 62.3912 45.1348C62.2081 45.1541 62.0385 45.2406 61.9153 45.3776C61.7921 45.5146 61.7239 45.6924 61.7239 45.8768C61.7239 46.0611 61.7921 46.2389 61.9153 46.376C62.0385 46.513 62.2081 46.5995 62.3912 46.6188V46.6188Z" fill="#CE9B78"/>
</g>
<g style="mix-blend-mode:multiply" opacity="0.44">
<path d="M57.9521 48.7178C57.7878 48.736 57.636 48.8143 57.5257 48.9376C57.4155 49.0608 57.3545 49.2205 57.3545 49.386C57.3545 49.5514 57.4155 49.7111 57.5257 49.8344C57.636 49.9577 57.7878 50.0359 57.9521 50.0542C58.1164 50.0359 58.2682 49.9577 58.3785 49.8344C58.4887 49.7111 58.5497 49.5514 58.5497 49.386C58.5497 49.2205 58.4887 49.0608 58.3785 48.9376C58.2682 48.8143 58.1164 48.736 57.9521 48.7178V48.7178Z" fill="#CE9B78"/>
</g>
<g style="mix-blend-mode:multiply" opacity="0.44">
<path d="M74.8179 49.0865C74.7776 48.9416 74.711 48.8054 74.6213 48.6848C74.5031 48.5332 74.3543 48.4083 74.1846 48.3181C74.015 48.228 73.8283 48.1746 73.6367 48.1614C73.445 48.1483 73.2528 48.1757 73.0724 48.2418C72.8921 48.308 72.7277 48.4114 72.5899 48.5454V48.5454C72.4069 48.7369 72.2826 48.977 72.2318 49.2372C72.181 49.4973 72.2058 49.7665 72.3032 50.013C72.3442 50.1114 72.3851 50.218 72.4343 50.3163C72.5311 50.4927 72.6633 50.6471 72.8226 50.7698C72.9819 50.8926 73.1648 50.981 73.3599 51.0296C73.54 51.0726 73.727 51.0778 73.9093 51.0449C74.0915 51.0121 74.265 50.9419 74.4188 50.8387C74.5727 50.7355 74.7035 50.6016 74.8032 50.4454C74.9029 50.2892 74.9692 50.1141 74.9981 49.931C75.0261 49.6377 74.9631 49.3428 74.8179 49.0865V49.0865Z" fill="#CE9B78"/>
</g>
<g style="mix-blend-mode:multiply" opacity="0.44">
<path d="M70.4991 52.432C70.7663 52.0857 70.9291 51.6702 70.9683 51.2345C71.0074 50.7987 70.9214 50.3608 70.7203 49.9723C70.5041 49.5598 70.1515 49.2352 69.7226 49.0543C69.2938 48.8733 68.8154 48.8471 68.3694 48.9803C68.1778 49.0381 67.9957 49.1237 67.8288 49.2344C67.5733 49.3357 67.3418 49.4893 67.149 49.6854C66.9371 49.921 66.7799 50.2006 66.6888 50.5042C66.5976 50.8077 66.5747 51.1277 66.6216 51.4412C66.6686 51.7547 66.7843 52.0539 66.9605 52.3173C67.1366 52.5808 67.3688 52.8019 67.6404 52.9649C68.0989 53.244 68.6441 53.344 69.1716 53.2456C69.6991 53.1473 70.1718 52.8576 70.4991 52.432V52.432Z" fill="#CE9B78"/>
</g>
<g style="mix-blend-mode:multiply" opacity="0.44">
<path d="M71.5974 54.8834C71.1568 54.7795 70.6935 54.8407 70.295 55.0556C70.0267 55.1998 69.8008 55.4118 69.6397 55.6705C69.3966 55.9875 69.254 56.3702 69.2302 56.7691C69.2171 57.0462 69.2638 57.3229 69.367 57.5803C69.4701 57.8378 69.6274 58.07 69.8281 58.2613C70.0182 58.4464 70.2476 58.5862 70.4991 58.6701C70.7507 58.7541 71.018 58.7801 71.281 58.7462C71.5441 58.7123 71.7961 58.6194 72.0182 58.4744C72.2403 58.3294 72.4269 58.136 72.5639 57.9088C72.7873 57.5772 72.9044 57.1854 72.8997 56.7855C72.8813 56.3945 72.7808 56.0118 72.6049 55.6623C72.3835 55.2809 72.0219 55.0014 71.5974 54.8834V54.8834Z" fill="#CE9B78"/>
</g>
</g>
<g style="mix-blend-mode:multiply" opacity="0.23">
<g style="mix-blend-mode:multiply" opacity="0.23">
<g style="mix-blend-mode:multiply" opacity="0.23">
<path d="M41.1359 70.7318C41.0657 70.8808 41.0135 71.0377 40.9803 71.1991C40.8909 71.077 40.7923 70.9618 40.6854 70.8548C39.9473 70.1427 38.9664 69.7382 37.9414 69.7233C37.6919 69.7154 37.4423 69.7319 37.196 69.7725C37.1733 69.5428 37.0642 69.3303 36.8908 69.1781C36.7174 69.0258 36.4927 68.9452 36.2622 68.9526C36.0728 68.9533 35.8876 69.0088 35.7289 69.1124C35.5702 69.216 35.4448 69.3632 35.3678 69.5365C35.2908 69.7097 35.2654 69.9015 35.2948 70.0889C35.3241 70.2762 35.4069 70.4511 35.5332 70.5924C35.414 70.6791 35.3017 70.775 35.1974 70.8793C34.7248 71.3553 34.3833 71.9456 34.2063 72.5929C34.0178 73.2659 34.0178 73.9778 34.2063 74.6508V74.6918L34.5995 75.6183C34.8329 76.0573 35.1739 76.4296 35.5906 76.7005C35.8184 76.9302 36.1 77.0993 36.4097 77.1925C36.8682 77.4344 37.3826 77.5504 37.9004 77.5286C38.581 77.5 39.2468 77.3208 39.8499 77.0039C40.2907 76.7698 40.6632 76.4251 40.9311 76.0036C41.2748 75.6367 41.5126 75.1833 41.6191 74.6918V74.6016C41.7623 74.067 41.7902 73.5081 41.7011 72.9619L41.8649 73.052C42.0647 73.1355 42.2791 73.1784 42.4956 73.1784C42.7121 73.1784 42.9265 73.1355 43.1263 73.052C43.3288 73.0034 43.5192 72.9136 43.6855 72.788C43.8518 72.6625 43.9905 72.5039 44.0928 72.3223C44.2701 72.003 44.3357 71.6336 44.2793 71.2726C44.2229 70.9117 44.0478 70.5799 43.7816 70.33C43.5909 70.1596 43.3651 70.0334 43.1201 69.9604C42.8751 69.8874 42.617 69.8694 42.3643 69.9078C42.1116 69.9462 41.8704 70.0399 41.6581 70.1824C41.4457 70.3248 41.2674 70.5124 41.1359 70.7318V70.7318Z" fill="#C87E56"/>
</g>
<g style="mix-blend-mode:multiply" opacity="0.23">
<path d="M26.549 40.8387C26.1653 40.7361 25.7614 40.7361 25.3777 40.8387C24.9663 40.9626 24.6059 41.2163 24.3505 41.5621C24.0951 41.9079 23.9584 42.3272 23.9606 42.7572C23.876 43.0229 23.8264 43.2985 23.8132 43.5771C23.8038 44.0287 23.9369 44.4719 24.1935 44.8434C24.4501 45.215 24.8173 45.4962 25.2427 45.6469C25.6682 45.7976 26.1303 45.8103 26.5633 45.683C26.9963 45.5558 27.3783 45.2951 27.6548 44.9381C27.9971 44.4387 28.1563 43.8362 28.1053 43.2327C28.1335 42.9015 28.0943 42.568 27.9901 42.2523C27.886 41.9367 27.7189 41.6454 27.4992 41.3962C27.3763 41.306 27.2534 41.2158 27.1388 41.1174C27.4582 41.3798 27.491 41.4044 27.2207 41.1912C27.0285 41.0212 26.798 40.9002 26.549 40.8387V40.8387Z" fill="#C87E56"/>
</g>
<g style="mix-blend-mode:multiply" opacity="0.23">
<path d="M37.0891 24.5966C37.2916 24.5966 37.4895 24.5365 37.6579 24.4239C37.8263 24.3113 37.9575 24.1512 38.035 23.9639C38.1125 23.7767 38.1328 23.5706 38.0933 23.3718C38.0538 23.173 37.9562 22.9904 37.813 22.8471C37.6699 22.7037 37.4874 22.6061 37.2888 22.5666C37.0902 22.527 36.8843 22.5473 36.6972 22.6249C36.5102 22.7025 36.3502 22.8338 36.2377 23.0024C36.1252 23.1709 36.0652 23.369 36.0652 23.5717C36.0694 23.8422 36.1786 24.1005 36.3697 24.2917C36.5608 24.483 36.8188 24.5924 37.0891 24.5966V24.5966Z" fill="#C87E56"/>
</g>
<g style="mix-blend-mode:multiply" opacity="0.23">
<path d="M32.6344 28.68C32.7568 28.7395 32.8861 28.7836 33.0194 28.8111C33.3535 28.8791 33.6986 28.8725 34.0299 28.7917C34.3612 28.711 34.6706 28.558 34.9361 28.3438C35.2681 28.1393 35.5467 27.8587 35.749 27.5251C35.9512 27.1915 36.0712 26.8145 36.0992 26.4253C36.0931 25.924 35.8936 25.4444 35.5425 25.0869C35.1914 24.7294 34.7159 24.5215 34.2153 24.5067C33.815 24.4956 33.4191 24.5919 33.0685 24.7855C32.8283 24.9082 32.6075 25.0657 32.4132 25.2528C32.239 25.3639 32.077 25.493 31.93 25.6382C31.6936 25.8755 31.5238 26.1709 31.4375 26.4947C31.3512 26.8185 31.3516 27.1593 31.4385 27.4829C31.5221 27.7665 31.6754 28.0246 31.8843 28.2337C32.0932 28.4428 32.3511 28.5962 32.6344 28.68V28.68Z" fill="#C87E56"/>
</g>
<g style="mix-blend-mode:multiply" opacity="0.23">
<path d="M36.9838 25.6633C36.9137 25.9156 36.9382 26.1849 37.0525 26.4205C37.1669 26.656 37.3634 26.8416 37.6049 26.9424C37.8464 27.0431 38.1164 27.052 38.3641 26.9675C38.6117 26.8829 38.82 26.7107 38.9496 26.4832C39.0868 26.2347 39.1233 25.943 39.0516 25.6683C38.98 25.3936 38.8057 25.157 38.5647 25.0074C38.4213 24.9252 38.2609 24.877 38.096 24.8664C37.9311 24.8559 37.766 24.8834 37.6133 24.9467C37.4606 25.0101 37.3245 25.1076 37.2154 25.2318C37.1063 25.356 37.027 25.5036 36.9838 25.6633Z" fill="#C87E56"/>
</g>
<g style="mix-blend-mode:multiply" opacity="0.23">
<path d="M55.7338 26.9502C56.1245 27.0717 56.5357 27.1125 56.9426 27.0703C57.3495 27.028 57.7436 26.9035 58.101 26.7043C58.4753 26.4815 58.7783 26.1564 58.9742 25.7671C59.1701 25.3778 59.2508 24.9406 59.2068 24.5069C59.1976 24.0995 59.1083 23.6979 58.9438 23.3251C58.7794 22.9522 58.5431 22.6155 58.2484 22.3343C57.6346 21.6599 56.8421 21.1737 55.9632 20.9322C55.6067 20.8338 55.2302 20.8338 54.8738 20.9322C54.4112 20.9381 53.9584 21.0657 53.5606 21.3021C53.1629 21.5385 52.8343 21.8754 52.6077 22.2791C52.3812 22.6828 52.2647 23.139 52.2699 23.602C52.2752 24.065 52.402 24.5185 52.6376 24.9169C53.3702 25.9678 54.479 26.696 55.7338 26.9502V26.9502Z" fill="#C87E56"/>
</g>
<g style="mix-blend-mode:multiply" opacity="0.23">
<path d="M63.0233 28.1314C63.2765 28.2984 63.5524 28.4282 63.8424 28.5167C64.1509 28.6055 64.4771 28.6121 64.7888 28.5359C65.1006 28.4596 65.3871 28.3033 65.6199 28.0822C65.8163 27.8885 65.9572 27.6456 66.0278 27.3788C66.0984 27.1119 66.0962 26.8311 66.0213 26.5654C65.9836 26.4356 65.9285 26.3115 65.8574 26.1965C65.7222 25.9088 65.4943 25.6749 65.2103 25.5324C65.1123 25.4151 65.0055 25.3055 64.8909 25.2044C64.7294 25.0624 64.5569 24.9335 64.3749 24.8191H64.3093L64.2274 24.6797L64.039 24.5485C63.7349 24.3723 63.3747 24.32 63.0331 24.4024C62.6915 24.4848 62.3947 24.6957 62.2042 24.9912C62.0184 25.1795 61.8862 25.4141 61.8213 25.6707C61.7565 25.9273 61.7615 26.1966 61.8356 26.4506C62.0442 27.1224 62.4599 27.7108 63.0233 28.1314V28.1314Z" fill="#C87E56"/>
</g>
<g style="mix-blend-mode:multiply" opacity="0.23">
<path d="M62.0553 30.2056C62.1282 30.2808 62.2175 30.3381 62.3163 30.3731C62.415 30.408 62.5204 30.4197 62.6244 30.4072C62.7283 30.3946 62.828 30.3582 62.9156 30.3008C63.0032 30.2433 63.0763 30.1664 63.1293 30.076C63.1823 29.9856 63.2138 29.8842 63.2212 29.7796C63.2286 29.6751 63.2117 29.5702 63.172 29.4733C63.1323 29.3763 63.0707 29.2898 62.9921 29.2206C62.9134 29.1514 62.8199 29.1013 62.7187 29.0742L62.4321 29.0004C62.307 28.9708 62.1758 28.9824 62.0579 29.0333C61.9399 29.0843 61.8415 29.1719 61.7772 29.2832C61.7128 29.3945 61.686 29.5236 61.7007 29.6513C61.7154 29.7791 61.7708 29.8987 61.8587 29.9924L62.0553 30.2056Z" fill="#C87E56"/>
</g>
<g style="mix-blend-mode:multiply" opacity="0.23">
<path d="M70.0087 51.1537C70.7118 50.7472 71.2333 50.0874 71.4667 49.309C71.6696 48.666 71.6696 47.976 71.4667 47.3331C71.3389 46.8293 71.0508 46.3808 70.6459 46.0554C70.241 45.73 69.7414 45.5454 69.2224 45.5293C68.768 45.5284 68.3224 45.6536 67.9348 45.891C67.5473 46.1283 67.2331 46.4686 67.0272 46.8739C66.8225 47.2964 66.7429 47.7686 66.7978 48.2349C66.6833 48.7755 66.6833 49.3341 66.7978 49.8747C66.8822 50.186 67.0379 50.4733 67.2526 50.7139C67.4673 50.9544 67.7351 51.1415 68.0347 51.2603C68.3503 51.3934 68.692 51.4529 69.0339 51.4344C69.3759 51.416 69.7092 51.32 70.0087 51.1537Z" fill="#C87E56"/>
</g>
<g style="mix-blend-mode:multiply" opacity="0.23">
<path d="M59.3131 40.0439C59.1496 40.5411 59.1576 41.0788 59.3358 41.5709C59.514 42.063 59.8522 42.4809 60.296 42.7577C60.5688 42.9142 60.8744 43.0046 61.1883 43.0218C61.5023 43.0389 61.8159 42.9822 62.104 42.8564C62.3922 42.7305 62.6469 42.5388 62.8478 42.2968C63.0488 42.0547 63.1903 41.7689 63.2612 41.4623C63.3117 41.281 63.3338 41.0929 63.3267 40.9048C63.3611 40.7621 63.383 40.6167 63.3922 40.4702C63.5152 40.2571 63.5799 40.0153 63.5799 39.7692C63.5799 39.5231 63.5152 39.2814 63.3922 39.0682C63.2076 38.7634 62.9401 38.5175 62.621 38.3592C62.3019 38.201 61.9443 38.1369 61.5902 38.1746C61.2698 38.2203 60.9674 38.3505 60.7137 38.5517C60.3824 38.6777 60.0841 38.8775 59.8414 39.1361C59.5988 39.3946 59.4181 39.7051 59.3131 40.0439V40.0439Z" fill="#C87E56"/>
</g>
<g style="mix-blend-mode:multiply" opacity="0.23">
<path d="M63.0059 33.0254C62.6931 33.0254 62.3931 33.1498 62.1719 33.3712C61.9507 33.5926 61.8264 33.8929 61.8264 34.206C61.8264 34.5192 61.9507 34.8195 62.1719 35.0409C62.3931 35.2623 62.6931 35.3867 63.0059 35.3867C63.3187 35.3867 63.6188 35.2623 63.84 35.0409C64.0612 34.8195 64.1854 34.5192 64.1854 34.206C64.1854 33.8929 64.0612 33.5926 63.84 33.3712C63.6188 33.1498 63.3187 33.0254 63.0059 33.0254V33.0254Z" fill="#C87E56"/>
</g>
<g style="mix-blend-mode:multiply" opacity="0.23">
<path d="M32.8301 53.7279C32.2686 53.4153 31.6377 53.2489 30.9953 53.2441C30.5085 53.2555 30.0376 53.42 29.6494 53.7143C29.2613 54.0087 28.9756 54.4179 28.8329 54.8839C28.7412 55.2493 28.76 55.6337 28.8868 55.9884C29.0137 56.3431 29.243 56.6521 29.5455 56.8762C29.6557 57.1126 29.8084 57.3266 29.996 57.5075C31.1182 58.5406 33.1332 58.6964 34.026 57.2534C34.1967 56.9469 34.3013 56.6081 34.3331 56.2586C34.3648 55.9092 34.323 55.557 34.2103 55.2248C34.0976 54.8925 33.9165 54.5876 33.6788 54.3298C33.4411 54.072 33.1519 53.8669 32.8301 53.7279V53.7279Z" fill="#C87E56"/>
</g>
<g style="mix-blend-mode:multiply" opacity="0.23">
<path d="M28.4808 55.5153C28.4064 55.3061 28.2954 55.1117 28.1532 54.9413L28.0958 54.8593L28.0467 54.802C27.8046 54.562 27.4782 54.4266 27.1375 54.4248C26.8513 54.4285 26.5702 54.5016 26.3184 54.638C26.0451 54.8026 25.8322 55.0511 25.7112 55.3465C25.5902 55.6419 25.5676 55.9685 25.6467 56.2777C25.6381 56.321 25.6381 56.3656 25.6467 56.4089C25.7432 56.7412 25.9557 57.0277 26.2455 57.2163C26.5353 57.4048 26.8832 57.4829 27.2257 57.4362C27.5682 57.3895 27.8826 57.2211 28.1114 56.9618C28.3403 56.7025 28.4685 56.3696 28.4726 56.0236C28.4235 56.3433 28.4235 56.3679 28.4726 56.0892C28.5308 55.9027 28.5337 55.7033 28.4808 55.5153V55.5153Z" fill="#C87E56"/>
</g>
<g style="mix-blend-mode:multiply" opacity="0.23">
<path d="M22.9703 57.9744C23.1689 57.8823 23.3449 57.7481 23.4864 57.581C23.6278 57.4139 23.7313 57.218 23.7895 57.0069C23.9041 56.5744 23.9041 56.1194 23.7895 55.6869C23.6791 55.2624 23.4715 54.8695 23.1833 54.5391C23.0456 54.4013 22.8822 54.292 22.7023 54.2174C22.5224 54.1429 22.3296 54.1045 22.1349 54.1045C21.7431 54.1023 21.3663 54.2555 21.087 54.5305C20.8077 54.8055 20.6484 55.18 20.6441 55.5721C20.6412 55.6076 20.6412 55.6432 20.6441 55.6787C20.5422 56.0932 20.5737 56.5294 20.7342 56.9249C20.9122 57.3173 21.1958 57.6523 21.5533 57.8924C21.7611 58.0304 22.0018 58.1107 22.2508 58.1251C22.4997 58.1395 22.748 58.0875 22.9703 57.9744V57.9744Z" fill="#C87E56"/>
</g>
<g style="mix-blend-mode:multiply" opacity="0.23">
<path d="M42.3161 62.0501C42.3969 62.0659 42.4763 62.0879 42.5537 62.1157C42.8178 62.192 43.0961 62.2048 43.3661 62.153C43.636 62.1012 43.8899 61.9863 44.1071 61.8177C44.3243 61.6491 44.4986 61.4315 44.6158 61.1826C44.733 60.9338 44.7898 60.6607 44.7816 60.3857C44.7384 59.5744 44.4305 58.7996 43.9052 58.1802C43.4959 57.6749 43.0466 57.2033 42.5619 56.77C42.3137 56.5429 42.0112 56.3839 41.6835 56.3085C41.3559 56.233 41.0143 56.2437 40.692 56.3394C40.3696 56.4351 40.0775 56.6126 39.844 56.8547C39.6105 57.0968 39.4435 57.3953 39.3592 57.7211C39.1822 58.6402 39.3514 59.5923 39.8343 60.3939C40.293 61.2466 41.2923 62.1812 42.3161 62.0501Z" fill="#C87E56"/>
</g>
<g style="mix-blend-mode:multiply" opacity="0.23">
<path d="M45.3866 58.8763C45.5199 58.9051 45.6582 58.9001 45.789 58.8618C45.9199 58.8235 46.0391 58.7531 46.1359 58.657C46.2327 58.561 46.3041 58.4422 46.3434 58.3116C46.3828 58.1809 46.3889 58.0425 46.3613 57.9089C46.3231 57.7555 46.2521 57.6122 46.1531 57.4891C46.0541 57.3659 45.9295 57.2658 45.788 57.1956C45.6344 57.1194 45.4608 57.0934 45.2916 57.1212C45.1225 57.149 44.9663 57.2292 44.8451 57.3505C44.7239 57.4718 44.6438 57.6281 44.616 57.7974C44.5883 57.9667 44.6143 58.1405 44.6904 58.2942C44.7569 58.4363 44.8537 58.562 44.974 58.6626C45.0943 58.7631 45.2351 58.8361 45.3866 58.8763V58.8763Z" fill="#C87E56"/>
</g>
<g style="mix-blend-mode:multiply" opacity="0.23">
<path d="M46.5918 58.8193C46.316 58.8432 46.0591 58.9697 45.872 59.1738C45.6849 59.378 45.5811 59.645 45.5811 59.9221C45.5811 60.1992 45.6849 60.4662 45.872 60.6703C46.0591 60.8745 46.316 61.001 46.5918 61.0248C46.8675 61.001 47.1244 60.8745 47.3115 60.6703C47.4986 60.4662 47.6025 60.1992 47.6025 59.9221C47.6025 59.645 47.4986 59.378 47.3115 59.1738C47.1244 58.9697 46.8675 58.8432 46.5918 58.8193V58.8193Z" fill="#C87E56"/>
</g>
<g style="mix-blend-mode:multiply" opacity="0.23">
<path d="M68.8243 61.2792C67.3991 60.2544 65.6135 61.8449 64.95 63.0256C64.8212 63.2653 64.751 63.5323 64.7452 63.8045C64.4835 64.1027 64.3439 64.4888 64.3546 64.8857C64.3652 65.2825 64.5252 65.6606 64.8026 65.9444C66.4408 67.5841 68.6032 64.4194 69.324 63.1731C69.496 62.8528 69.5401 62.4791 69.4473 62.1276C69.3545 61.776 69.1319 61.4728 68.8243 61.2792V61.2792Z" fill="#C87E56"/>
</g>
<g style="mix-blend-mode:multiply" opacity="0.23">
<path d="M46.5918 23.3594C46.8212 23.3377 47.0343 23.2312 47.1894 23.0606C47.3445 22.89 47.4304 22.6677 47.4304 22.437C47.4304 22.2064 47.3445 21.984 47.1894 21.8134C47.0343 21.6429 46.8212 21.5363 46.5918 21.5146C46.3624 21.5363 46.1493 21.6429 45.9942 21.8134C45.8391 21.984 45.7532 22.2064 45.7532 22.437C45.7532 22.6677 45.8391 22.89 45.9942 23.0606C46.1493 23.2312 46.3624 23.3377 46.5918 23.3594Z" fill="#C87E56"/>
</g>
<g style="mix-blend-mode:multiply" opacity="0.23">
<path d="M47.2053 24.8022C47.3299 24.7864 47.4445 24.7256 47.5276 24.6313C47.6106 24.5369 47.6565 24.4155 47.6565 24.2898C47.6565 24.164 47.6106 24.0426 47.5276 23.9483C47.4445 23.8539 47.3299 23.7932 47.2053 23.7773C47.0807 23.7932 46.9661 23.8539 46.883 23.9483C46.8 24.0426 46.7542 24.164 46.7542 24.2898C46.7542 24.4155 46.8 24.5369 46.883 24.6313C46.9661 24.7256 47.0807 24.7864 47.2053 24.8022V24.8022Z" fill="#C87E56"/>
</g>
<g style="mix-blend-mode:multiply" opacity="0.23">
<path d="M48.5485 23.8588C48.7527 23.8588 48.9486 23.7776 49.093 23.633C49.2374 23.4885 49.3185 23.2925 49.3185 23.0881C49.3185 22.8837 49.2374 22.6877 49.093 22.5431C48.9486 22.3986 48.7527 22.3174 48.5485 22.3174C48.3443 22.3174 48.1485 22.3986 48.0041 22.5431C47.8597 22.6877 47.7786 22.8837 47.7786 23.0881C47.7786 23.2925 47.8597 23.4885 48.0041 23.633C48.1485 23.7776 48.3443 23.8588 48.5485 23.8588V23.8588Z" fill="#C87E56"/>
</g>
<g style="mix-blend-mode:multiply" opacity="0.23">
<path d="M45.641 71.7484C45.478 71.6981 45.3022 71.7101 45.1476 71.7822C44.993 71.8544 44.8707 71.9814 44.8044 72.1387C44.7381 72.296 44.7325 72.4723 44.7887 72.6335C44.8449 72.7946 44.9589 72.9292 45.1086 73.011C45.193 73.0571 45.2861 73.085 45.382 73.0929C45.4778 73.1008 45.5743 73.0885 45.6651 73.0567C45.7558 73.025 45.839 72.9746 45.9091 72.9087C45.9792 72.8428 46.0348 72.763 46.0722 72.6743C46.1096 72.5856 46.128 72.4901 46.1262 72.3938C46.1244 72.2976 46.1025 72.2028 46.0619 72.1155C46.0213 72.0283 45.9628 71.9505 45.8903 71.8873C45.8179 71.824 45.7329 71.7767 45.641 71.7484V71.7484Z" fill="#C87E56"/>
</g>
<g style="mix-blend-mode:multiply" opacity="0.23">
<path d="M45.3874 69.3223C45.1849 69.3223 44.9869 69.3824 44.8186 69.495C44.6502 69.6076 44.519 69.7677 44.4415 69.9549C44.364 70.1422 44.3437 70.3483 44.3832 70.5471C44.4227 70.7459 44.5202 70.9285 44.6634 71.0718C44.8066 71.2151 44.989 71.3127 45.1876 71.3523C45.3863 71.3918 45.5921 71.3715 45.7792 71.294C45.9663 71.2164 46.1262 71.0851 46.2387 70.9165C46.3512 70.748 46.4113 70.5498 46.4113 70.3471C46.4071 70.0766 46.2978 69.8184 46.1067 69.6271C45.9156 69.4358 45.6576 69.3265 45.3874 69.3223V69.3223Z" fill="#C87E56"/>
</g>
<g style="mix-blend-mode:multiply" opacity="0.23">
<path d="M47.9772 71.8967C47.9764 71.8102 47.9559 71.7251 47.9171 71.6478C47.8784 71.5705 47.8224 71.5032 47.7536 71.451C47.6848 71.3987 47.605 71.3629 47.5202 71.3464C47.4354 71.3299 47.348 71.333 47.2646 71.3555H47.1745C47.0613 71.3876 46.9616 71.4559 46.8906 71.5498C46.8197 71.6438 46.7812 71.7584 46.7812 71.8762C46.7812 71.994 46.8197 72.1085 46.8906 72.2025C46.9616 72.2965 47.0613 72.3647 47.1745 72.3968H47.2646C47.3447 72.4173 47.4282 72.4202 47.5096 72.4053C47.5909 72.3905 47.668 72.3582 47.7357 72.3107C47.8034 72.2632 47.86 72.2016 47.9017 72.1301C47.9434 72.0586 47.9691 71.979 47.9772 71.8967V71.8967Z" fill="#C87E56"/>
</g>
<g style="mix-blend-mode:multiply" opacity="0.23">
<path d="M20.6338 43.5938C20.8453 43.7894 21.1061 43.9236 21.3882 43.9817C21.6703 44.0398 21.9629 44.0196 22.2344 43.9234C22.5059 43.8272 22.746 43.6586 22.9287 43.4358C23.1114 43.2129 23.2299 42.9444 23.2713 42.6591C23.3214 42.4132 23.3516 42.1637 23.3614 41.913C23.3695 41.8066 23.3695 41.6997 23.3614 41.5932C23.3614 41.4867 23.304 41.0767 23.3614 41.3063C23.3599 40.9398 23.2293 40.5857 22.9928 40.306C22.7367 40.0339 22.3832 39.8746 22.0098 39.8633C21.694 39.8671 21.3848 39.954 21.1131 40.1151C20.8414 40.2763 20.6168 40.5061 20.4617 40.7816C20.3096 41.0417 20.2154 41.3318 20.1857 41.6318C20.156 41.9318 20.1915 42.2347 20.2897 42.5197C20.266 42.713 20.2844 42.9091 20.3438 43.0946C20.4032 43.28 20.5021 43.4504 20.6338 43.5938V43.5938Z" fill="#C87E56"/>
</g>
<g style="mix-blend-mode:multiply" opacity="0.23">
<path d="M24.4523 37.6578H24.4032C24.2684 37.684 24.1403 37.7369 24.0264 37.8136C23.8269 37.9077 23.6652 38.0666 23.5677 38.2646C23.4674 38.4431 23.4087 38.642 23.396 38.8464C23.3832 39.0509 23.4167 39.2555 23.4939 39.4452C23.5682 39.6225 23.6799 39.7817 23.8212 39.9119C23.9626 40.042 24.1303 40.1401 24.313 40.1995C24.5069 40.2532 24.7116 40.2542 24.906 40.2023C25.1004 40.1504 25.2774 40.0476 25.4188 39.9043L25.6318 39.7158C25.8221 39.5205 25.9441 39.2688 25.9795 38.9983C26.015 38.7278 25.9619 38.4531 25.8284 38.2154C25.6799 37.9965 25.4699 37.8268 25.2249 37.7275C24.9799 37.6283 24.711 37.604 24.4523 37.6578Z" fill="#C87E56"/>
</g>
<g style="mix-blend-mode:multiply" opacity="0.23">
<path d="M22.8375 36.3545C22.6544 36.3738 22.4848 36.4603 22.3616 36.5973C22.2384 36.7343 22.1702 36.9121 22.1702 37.0965C22.1702 37.2808 22.2384 37.4587 22.3616 37.5957C22.4848 37.7327 22.6544 37.8192 22.8375 37.8385C23.0207 37.8192 23.1902 37.7327 23.3135 37.5957C23.4367 37.4587 23.5049 37.2808 23.5049 37.0965C23.5049 36.9121 23.4367 36.7343 23.3135 36.5973C23.1902 36.4603 23.0207 36.3738 22.8375 36.3545V36.3545Z" fill="#C87E56"/>
</g>
<g style="mix-blend-mode:multiply" opacity="0.23">
<path d="M60.5581 45.6514C60.335 45.6727 60.1279 45.7765 59.9772 45.9425C59.8264 46.1085 59.7429 46.3248 59.7429 46.5491C59.7429 46.7735 59.8264 46.9897 59.9772 47.1557C60.1279 47.3217 60.335 47.4256 60.5581 47.4469C60.7812 47.4256 60.9883 47.3217 61.1391 47.1557C61.2898 46.9897 61.3733 46.7735 61.3733 46.5491C61.3733 46.3248 61.2898 46.1085 61.1391 45.9425C60.9883 45.7765 60.7812 45.6727 60.5581 45.6514V45.6514Z" fill="#C87E56"/>
</g>
<g style="mix-blend-mode:multiply" opacity="0.23">
<path d="M67.0612 36.3291C66.7917 36.3526 66.5409 36.4764 66.3581 36.676C66.1754 36.8756 66.074 37.1365 66.074 37.4072C66.074 37.678 66.1754 37.9389 66.3581 38.1385C66.5409 38.3381 66.7917 38.4619 67.0612 38.4854C67.3306 38.4619 67.5815 38.3381 67.7642 38.1385C67.947 37.9389 68.0484 37.678 68.0484 37.4072C68.0484 37.1365 67.947 36.8756 67.7642 36.676C67.5815 36.4764 67.3306 36.3526 67.0612 36.3291Z" fill="#C87E56"/>
</g>
<g style="mix-blend-mode:multiply" opacity="0.23">
<path d="M67.2177 35.576C70.8463 35.576 70.8545 29.9434 67.2177 29.9434C63.5809 29.9434 63.5891 35.576 67.2177 35.576Z" fill="#C87E56"/>
</g>
<g style="mix-blend-mode:multiply" opacity="0.23">
<path d="M59.3123 31.1889C59.039 31.2845 58.8104 31.4774 58.67 31.7308C58.5296 31.9842 58.4872 32.2804 58.5509 32.5631C58.6145 32.8458 58.7798 33.0951 59.0153 33.2637C59.2508 33.4323 59.5399 33.5083 59.8278 33.4772C60.1156 33.4462 60.382 33.3103 60.5762 33.0954C60.7704 32.8805 60.8789 32.6017 60.8809 32.3119C60.883 32.0222 60.7786 31.7417 60.5875 31.5241C60.3964 31.3064 60.132 31.1667 59.8447 31.1315C60.1708 31.0294 60.4473 30.8095 60.6204 30.5147C60.7935 30.2198 60.8508 29.871 60.7812 29.5362C60.7116 29.2014 60.52 28.9045 60.2437 28.7032C59.9675 28.5019 59.6263 28.4108 59.2866 28.4474C58.9469 28.484 58.6329 28.6458 58.4058 28.9013C58.1787 29.1568 58.0547 29.4878 58.0579 29.8298C58.0611 30.1718 58.1913 30.5003 58.4232 30.7515C58.655 31.0027 58.9719 31.1586 59.3123 31.1889V31.1889Z" fill="#C87E56"/>
</g>
<g style="mix-blend-mode:multiply" opacity="0.23">
<path d="M64.743 57.7204C69.2563 57.7204 69.2645 50.7021 64.743 50.7021C60.2216 50.7021 60.2134 57.7204 64.743 57.7204Z" fill="#C87E56"/>
</g>
<g style="mix-blend-mode:multiply" opacity="0.23">
<path d="M62.7289 59.4419C62.4055 59.4273 62.0867 59.5221 61.8237 59.711C61.5607 59.8999 61.3689 60.1719 61.2791 60.4831C60.9931 60.2356 60.625 60.104 60.247 60.1142C58.1747 60.1142 58.1665 63.3446 60.247 63.3446C60.5786 63.3565 60.9045 63.2562 61.172 63.0598C61.4396 62.8634 61.6331 62.5824 61.7214 62.2623C62.0034 62.4982 62.3615 62.6235 62.7289 62.6149C64.7685 62.6149 64.7766 59.4419 62.7289 59.4419Z" fill="#C87E56"/>
</g>
<g style="mix-blend-mode:multiply" opacity="0.23">
<path d="M69.6991 57.2529C67.1272 57.2529 67.119 61.2458 69.6991 61.2458C72.2793 61.2458 72.2711 57.2529 69.6991 57.2529Z" fill="#C87E56"/>
</g>
<g style="mix-blend-mode:multiply" opacity="0.23">
<path d="M75.6935 48.1934C72.63 48.1934 72.6218 52.9569 75.6935 52.9569C78.7651 52.9569 78.7323 48.1934 75.6935 48.1934Z" fill="#C87E56"/>
</g>
<g style="mix-blend-mode:multiply" opacity="0.23">
<path d="M72.4833 52.8584C69.9441 52.8584 69.9441 56.8103 72.4833 56.8103C75.0225 56.8103 75.0307 52.8584 72.4833 52.8584Z" fill="#C87E56"/>
</g>
<g style="mix-blend-mode:multiply" opacity="0.23">
<path d="M52.1931 70.8464C51.6777 70.8521 51.1674 70.9492 50.6859 71.1334C50.8883 70.9607 51.0426 70.7386 51.1337 70.4886C51.2249 70.2386 51.2498 69.9692 51.2061 69.7067C51.1624 69.4442 51.0515 69.1975 50.8843 68.9906C50.7171 68.7837 50.4992 68.6237 50.2518 68.5261C50.594 68.4406 50.8981 68.2435 51.1161 67.9659C51.3341 67.6883 51.4537 67.346 51.4559 66.9929C51.4559 66.5711 51.2885 66.1665 50.9905 65.8682C50.6925 65.5699 50.2883 65.4023 49.8668 65.4023C49.4454 65.4023 49.0412 65.5699 48.7432 65.8682C48.4452 66.1665 48.2778 66.5711 48.2778 66.9929C48.2876 67.3292 48.4005 67.6544 48.6013 67.9243C48.802 68.1941 49.0809 68.3957 49.3999 68.5015C49.0617 68.6048 48.7712 68.8252 48.5803 69.1231C48.3894 69.4211 48.3105 69.7773 48.3577 70.1281C48.405 70.4789 48.5753 70.8015 48.8382 71.0382C49.1012 71.2749 49.4396 71.4103 49.7931 71.4203C49.8912 71.4288 49.9899 71.4288 50.088 71.4203C49.7052 71.6138 49.3566 71.8686 49.0559 72.1746C48.6319 72.5626 48.3157 73.0542 48.1385 73.6012C47.8612 74.1251 47.731 74.7145 47.7617 75.3066C47.7646 76.4804 48.2296 77.6057 49.0559 78.4385C49.888 79.2682 51.0146 79.7339 52.189 79.7339C53.3634 79.7339 54.49 79.2682 55.322 78.4385C56.1134 77.5822 56.575 76.4721 56.6244 75.3066C56.6237 74.7245 56.5083 74.1482 56.2848 73.6108C56.0613 73.0734 55.7342 72.5853 55.322 72.1746C54.4856 71.35 53.3668 70.8751 52.1931 70.8464V70.8464Z" fill="#C87E56"/>
</g>
<g style="mix-blend-mode:multiply" opacity="0.23">
<path d="M29.1116 64.0333H29.0051C29.2904 63.7531 29.517 63.4189 29.6717 63.05C29.8265 62.6812 29.9061 62.2852 29.9061 61.8852C29.9061 61.4851 29.8265 61.0891 29.6717 60.7203C29.517 60.3514 29.2904 60.0172 29.0051 59.737C28.4307 59.1807 27.6663 58.8641 26.8672 58.8516C26.0674 58.8608 25.3019 59.1779 24.7294 59.737C24.1671 60.3077 23.8497 61.0755 23.8447 61.8769C23.8447 61.9179 23.8447 61.9671 23.8447 62.0163C21.5267 62.0163 21.5267 65.5992 23.8447 65.5992C24.1901 65.6117 24.5306 65.5146 24.8175 65.3217C25.1044 65.1288 25.323 64.85 25.442 64.5252C25.7342 64.6828 26.0493 64.7934 26.3758 64.8531C23.0994 67.1816 24.0168 73.6587 29.1116 73.6587C35.3121 73.6669 35.3203 64.0333 29.1116 64.0333Z" fill="#C87E56"/>
</g>
<g style="mix-blend-mode:multiply" opacity="0.23">
<path d="M21.2734 53.2843C21.3663 53.482 21.5152 53.648 21.7016 53.7617C21.888 53.8754 22.1037 53.9317 22.3218 53.9238C22.6477 53.9238 22.9602 53.7942 23.1906 53.5636C23.421 53.3329 23.5505 53.0201 23.5505 52.694C23.5505 52.3678 23.421 52.055 23.1906 51.8243C22.9602 51.5937 22.6477 51.4641 22.3218 51.4641H22.2727C22.4006 51.0785 22.4589 50.6732 22.4447 50.2671C22.4447 50.1359 22.4447 50.0047 22.4447 49.8818C22.571 50.0366 22.7313 50.1601 22.9132 50.2426C23.0951 50.3251 23.2936 50.3644 23.4931 50.3573C23.8668 50.3573 24.2251 50.2087 24.4893 49.9442C24.7536 49.6798 24.902 49.3211 24.902 48.9471C24.902 48.5731 24.7536 48.2144 24.4893 47.9499C24.2251 47.6855 23.8668 47.5369 23.4931 47.5369C23.1737 47.5252 22.8611 47.6315 22.6149 47.8356C22.3687 48.0398 22.206 48.3274 22.158 48.6437C21.9578 48.0525 21.6145 47.5201 21.1587 47.0941C20.3172 46.254 19.1773 45.7822 17.9888 45.7822C16.8003 45.7822 15.6603 46.254 14.8189 47.0941C14.0204 47.9631 13.556 49.0875 13.5083 50.2671C13.5131 51.4533 13.9838 52.5901 14.8189 53.4319C15.6718 54.2545 16.8045 54.7232 17.9888 54.7437C19.1745 54.7298 20.3094 54.2601 21.1587 53.4319L21.2734 53.2843Z" fill="#C87E56"/>
</g>
<g style="mix-blend-mode:multiply" opacity="0.23">
<path d="M27.9085 51.6613C27.9085 51.3369 27.8124 51.0199 27.6324 50.7503C27.4524 50.4806 27.1965 50.2704 26.8972 50.1463C26.5978 50.0222 26.2685 49.9897 25.9507 50.053C25.6329 50.1163 25.341 50.2724 25.1119 50.5018C24.8828 50.7311 24.7268 51.0233 24.6636 51.3414C24.6003 51.6594 24.6328 51.9891 24.7568 52.2888C24.8808 52.5884 25.0907 52.8445 25.3601 53.0247C25.6295 53.2049 25.9463 53.301 26.2703 53.301C26.7008 53.2887 27.1104 53.1119 27.415 52.807C27.7195 52.5022 27.8961 52.0922 27.9085 51.6613V51.6613Z" fill="#C87E56"/>
</g>
<g style="mix-blend-mode:multiply" opacity="0.23">
<path d="M22.216 59.2295C21.9445 59.2295 21.684 59.3375 21.492 59.5297C21.3 59.7219 21.1921 59.9825 21.1921 60.2543C21.1921 60.5262 21.3 60.7868 21.492 60.979C21.684 61.1712 21.9445 61.2792 22.216 61.2792C22.4876 61.2792 22.748 61.1712 22.94 60.979C23.132 60.7868 23.2399 60.5262 23.2399 60.2543C23.2399 59.9825 23.132 59.7219 22.94 59.5297C22.748 59.3375 22.4876 59.2295 22.216 59.2295V59.2295Z" fill="#C87E56"/>
</g>
<g style="mix-blend-mode:multiply" opacity="0.23">
<path d="M18.2669 43.7743C18.3837 43.7776 18.5001 43.7576 18.6092 43.7156C18.7183 43.6736 18.818 43.6104 18.9026 43.5295C18.9871 43.4487 19.0548 43.3519 19.1017 43.2448C19.1487 43.1376 19.174 43.0222 19.1761 42.9052C19.1698 42.6753 19.0752 42.4567 18.9119 42.2948C18.7487 42.1329 18.5294 42.0403 18.2996 42.0361C18.0694 42.0361 17.8485 42.1277 17.6857 42.2907C17.5229 42.4537 17.4314 42.6747 17.4314 42.9052C17.4314 43.1357 17.5229 43.3568 17.6857 43.5198C17.8485 43.6827 18.0694 43.7743 18.2996 43.7743H18.2669Z" fill="#C87E56"/>
</g>
<g style="mix-blend-mode:multiply" opacity="0.23">
<path d="M28.5294 40.9619C28.9591 41.1977 29.4525 41.2906 29.9384 41.2273C30.4243 41.1639 30.8775 40.9475 31.2324 40.6093H31.2734C31.6776 40.1983 31.9041 39.6447 31.9041 39.068C31.9041 38.4912 31.6776 37.9376 31.2734 37.5266H31.2324C30.9133 37.2166 30.51 37.0078 30.0729 36.9261C29.6359 36.8445 29.1844 36.8936 28.7751 37.0674C28.3717 37.2329 28.0265 37.5144 27.783 37.8764C27.5395 38.2383 27.4087 38.6644 27.4072 39.1007C27.4282 39.4791 27.5415 39.8466 27.7371 40.171C27.9327 40.4954 28.2047 40.767 28.5294 40.9619V40.9619Z" fill="#C87E56"/>
</g>
<g style="mix-blend-mode:multiply" opacity="0.23">
<path d="M23.2153 34.5182C23.7462 34.5139 24.2542 34.3009 24.6296 33.9251C25.005 33.5493 25.2178 33.0409 25.2221 32.5095C25.2237 32.1099 25.1067 31.7188 24.8859 31.3859C24.6651 31.0529 24.3505 30.7931 23.982 30.6395C23.6135 30.4858 23.2077 30.4452 22.816 30.5227C22.4244 30.6003 22.0646 30.7926 21.7823 31.0751C21.5 31.3577 21.3079 31.7178 21.2305 32.1098C21.153 32.5018 21.1936 32.908 21.3471 33.2769C21.5006 33.6458 21.7601 33.9607 22.0928 34.1817C22.4254 34.4027 22.8161 34.5198 23.2153 34.5182Z" fill="#C87E56"/>
</g>
<g style="mix-blend-mode:multiply" opacity="0.23">
<path d="M72.5334 38.5027C71.8986 38.816 71.365 39.3023 70.9941 39.9057C70.6231 40.5091 70.4298 41.205 70.4365 41.9135C70.2393 41.7901 70.0163 41.714 69.7848 41.6913C69.5534 41.6685 69.3198 41.6997 69.1024 41.7823C68.885 41.865 68.6896 41.9969 68.5316 42.1677C68.3736 42.3385 68.2572 42.5436 68.1916 42.7669C68.126 42.9903 68.1129 43.2258 68.1533 43.455C68.1938 43.6843 68.2867 43.901 68.4248 44.0883C68.5629 44.2757 68.7424 44.4284 68.9493 44.5347C69.1562 44.641 69.3849 44.698 69.6174 44.7011C69.8731 44.7114 70.1267 44.6501 70.3495 44.524C70.5723 44.398 70.7556 44.2123 70.8788 43.9878C71.1799 44.5944 71.6488 45.1015 72.2297 45.4489C72.8105 45.7963 73.4789 45.9693 74.1552 45.9473C78.5374 45.9473 79.0698 39.9949 75.7934 38.5027C78.1934 37.0597 77.6446 32.4766 74.1552 32.4766C70.6659 32.4766 70.1334 37.0597 72.5334 38.5027Z" fill="#C87E56"/>
</g>
<g style="mix-blend-mode:multiply" opacity="0.23">
<path d="M71.4756 31.9024C71.705 31.8807 71.918 31.7741 72.0731 31.6036C72.2282 31.433 72.3142 31.2106 72.3142 30.98C72.3142 30.7493 72.2282 30.527 72.0731 30.3564C71.918 30.1858 71.705 30.0793 71.4756 30.0576C71.2462 30.0793 71.0331 30.1858 70.878 30.3564C70.7229 30.527 70.637 30.7493 70.637 30.98C70.637 31.2106 70.7229 31.433 70.878 31.6036C71.0331 31.7741 71.2462 31.8807 71.4756 31.9024V31.9024Z" fill="#C87E56"/>
</g>
<g style="mix-blend-mode:multiply" opacity="0.23">
<path d="M62.5317 46.8573C62.5443 47.3984 62.7652 47.9137 63.1483 48.2956C63.5314 48.6776 64.0471 48.8966 64.5877 48.907C64.9923 48.9054 65.3874 48.7838 65.7231 48.5576C66.0588 48.3314 66.32 48.0107 66.4737 47.6361C66.6274 47.2614 66.6668 46.8495 66.5869 46.4524C66.5069 46.0554 66.3113 45.6909 66.0246 45.4051C65.7379 45.1192 65.373 44.9248 64.976 44.8464C64.579 44.768 64.1677 44.809 63.794 44.9644C63.4203 45.1198 63.1009 45.3825 62.8763 45.7194C62.6516 46.0563 62.5317 46.4523 62.5317 46.8573Z" fill="#C87E56"/>
</g>
<g style="mix-blend-mode:multiply" opacity="0.23">
<path d="M45.2975 69.2646C49.221 69.2646 49.2292 63.1729 45.2975 63.1729C41.3658 63.1729 41.374 69.2646 45.2975 69.2646Z" fill="#C87E56"/>
</g>
<g style="mix-blend-mode:multiply" opacity="0.23">
<path d="M53.8152 69.6657C56.1578 69.6657 56.166 66.0254 53.8152 66.0254C51.4644 66.0254 51.4726 69.6657 53.8152 69.6657Z" fill="#C87E56"/>
</g>
<g style="mix-blend-mode:multiply" opacity="0.23">
<path d="M58.853 68.6826C56.5431 68.6826 56.5431 72.2737 58.853 72.2737C61.1629 72.2737 61.1629 68.6826 58.853 68.6826Z" fill="#C87E56"/>
</g>
<g style="mix-blend-mode:multiply" opacity="0.23">
<path d="M36.7064 61.9268C33.3726 61.9268 33.3726 67.1003 36.7064 67.1003C40.0401 67.1003 40.0401 61.9268 36.7064 61.9268Z" fill="#C87E56"/>
</g>
<g style="mix-blend-mode:multiply" opacity="0.23">
<path d="M56.4369 52.0469C55.6731 52.067 54.9449 52.3743 54.3974 52.9077C53.8663 53.4702 53.5728 54.2163 53.5783 54.9903C53.5706 55.7622 53.8645 56.5065 54.3974 57.0646C54.95 57.6153 55.6981 57.9245 56.4779 57.9245C57.2577 57.9245 58.0058 57.6153 58.5584 57.0646C59.1081 56.5128 59.4168 55.7654 59.4168 54.9862C59.4168 54.2069 59.1081 53.4595 58.5584 52.9077C57.988 52.3586 57.2283 52.0503 56.4369 52.0469Z" fill="#C87E56"/>
</g>
<g style="mix-blend-mode:multiply" opacity="0.23">
<path d="M48.3774 60.8767C48.3846 61.9275 48.802 62.9338 49.5405 63.6807C50.2918 64.4183 51.2978 64.8381 52.35 64.8532C53.3983 64.8382 54.4009 64.4216 55.1514 63.6889C55.8639 62.925 56.2769 61.9293 56.3145 60.8849C56.3138 59.8304 55.8956 58.8191 55.1514 58.0727C54.4056 57.3312 53.3971 56.915 52.3459 56.915C51.2948 56.915 50.2863 57.3312 49.5405 58.0727C49.161 58.4204 48.8786 58.8613 48.7214 59.3517C48.4699 59.8191 48.351 60.3465 48.3774 60.8767V60.8767Z" fill="#C87E56"/>
</g>
<g style="mix-blend-mode:multiply" opacity="0.23">
<path d="M56.8553 63.0576C54.5782 63.0576 54.5782 66.5913 56.8553 66.5913C59.1324 66.5913 59.116 63.0576 56.8553 63.0576Z" fill="#C87E56"/>
</g>
</g>
</g>
<g style="mix-blend-mode:multiply" opacity="0.6">
<path d="M67.6089 26.2207C71.1408 32.3086 72.3327 39.477 70.9611 46.3817C69.5895 53.2864 65.7486 59.4532 60.1587 63.7256C54.5688 67.998 47.6139 70.0825 40.5981 69.5883C33.5823 69.0942 26.9876 66.0552 22.0505 61.0413C24.1097 64.5906 26.9 67.6605 30.2361 70.0469C33.5722 72.4333 37.3776 74.0815 41.3993 74.8819C45.421 75.6823 49.5669 75.6166 53.5613 74.6892C57.5556 73.7618 61.307 71.9939 64.566 69.503C67.825 67.0122 70.5169 63.8554 72.4628 60.2427C74.4087 56.6299 75.5639 52.6439 75.8518 48.5497C76.1396 44.4554 75.5534 40.3467 74.1322 36.4968C72.711 32.6469 70.4873 29.1439 67.6089 26.2207V26.2207Z" fill="#DDC3A3"/>
</g>
<g style="mix-blend-mode:multiply" opacity="0.25">
<path d="M65.725 24.4736C68.16 30.469 68.5154 37.1086 66.7344 43.33C64.9533 49.5515 61.1387 54.9951 55.9011 58.7896C50.6634 62.5842 44.3054 64.5104 37.8447 64.26C31.3839 64.0096 25.1937 61.5971 20.2649 57.4085C21.9141 61.469 24.4639 65.1012 27.7216 68.0303C30.9793 70.9595 34.8597 73.109 39.0693 74.3165C43.279 75.5239 47.7078 75.7577 52.0209 75C56.3341 74.2424 60.4187 72.5132 63.9661 69.9432C67.5135 67.3732 70.4308 64.0296 72.4975 60.1652C74.5641 56.3008 75.7261 52.0167 75.8955 47.6367C76.065 43.2567 75.2374 38.8955 73.4755 34.8827C71.7135 30.8699 69.0632 27.3105 65.725 24.4736V24.4736Z" fill="#DDC3A3"/>
</g>
<g style="mix-blend-mode:screen" opacity="0.27">
<path d="M71.2276 30.7129C68.6165 26.7034 65.0514 23.4058 60.8524 21.1161C56.6535 18.8264 51.9522 17.6164 47.1706 17.5947H47.0232C46.5809 17.5947 46.1386 17.5947 45.7045 17.5947H45.3604C44.9509 17.5947 44.5413 17.6521 44.14 17.6931H44.0499L42.7803 17.8571L42.4362 17.9145L41.3468 18.1031L41.1584 18.144C40.7571 18.226 40.3393 18.3162 39.9626 18.4146L39.5858 18.513C39.2745 18.6032 38.9551 18.6852 38.6438 18.7836L38.3571 18.8656C37.9885 18.9803 37.6199 19.1115 37.2595 19.2427L36.8418 19.3985L36.0227 19.7018L35.6377 19.8658C35.3019 20.0052 34.9742 20.1528 34.6466 20.3085L34.1715 20.5463L33.5572 20.8579L33.0739 21.112L32.1975 21.6122L31.6651 21.9483C31.5094 22.0385 31.362 22.1369 31.2146 22.2353C30.8214 22.4895 30.3955 22.7518 30.0596 23.0552L29.904 23.17L29.3061 23.6209L29.0112 23.8505C28.3641 24.367 27.7334 24.9163 27.1272 25.4902L26.9634 25.646C26.3245 26.2527 25.7266 26.8922 25.145 27.5563L25.0713 27.6383C24.4816 28.3352 23.9164 29.0567 23.384 29.8028C19.8629 34.7896 18.0114 40.7651 18.0953 46.871C18.1791 52.9769 20.1941 58.8992 23.8508 63.7871C20.9768 59.3847 19.36 54.2795 19.1752 49.0237C18.9904 43.768 20.2447 38.5617 22.8024 33.9679C24.4727 36.6976 26.9874 38.807 29.9646 39.9756C32.9418 41.1443 36.2188 41.3083 39.2976 40.4427C42.3764 39.5772 45.0889 37.7294 47.0229 35.1801C48.9569 32.6308 50.0067 29.5193 50.0129 26.3183C50.015 23.8167 49.3717 21.3569 48.1454 19.1771C52.6233 19.1749 57.0403 20.2161 61.0466 22.2183C65.0529 24.2206 68.5386 27.1288 71.2276 30.7129V30.7129Z" fill="#DDC3A3"/>
</g>
<g style="mix-blend-mode:screen" opacity="0.68">
<path d="M70.607 29.7949C74.9518 36.1129 76.6112 43.8996 75.2203 51.4423C73.8293 58.9849 69.5019 65.6655 63.19 70.0145C56.8781 74.3634 49.0988 76.0244 41.5634 74.6322C34.028 73.2399 27.3538 68.9083 23.009 62.5904C25.1604 65.7187 27.9062 68.3923 31.0897 70.4584C34.2733 72.5245 37.8323 73.9428 41.5634 74.6322C45.2946 75.3215 49.1249 75.2686 52.8356 74.4763C56.5462 73.684 60.0647 72.1678 63.19 70.0145C66.3154 67.8611 68.9863 65.1126 71.0505 61.926C73.1146 58.7394 74.5315 55.177 75.2203 51.4423C75.909 47.7075 75.8561 43.8736 75.0645 40.1593C74.273 36.4451 72.7583 32.9232 70.607 29.7949V29.7949Z" fill="#DDC3A3"/>
</g>
<g style="mix-blend-mode:overlay" opacity="0.46">
<path d="M18.1602 45.0286C21.638 50.0032 26.9137 53.4275 32.8699 54.5762C38.8262 55.7249 44.9953 54.5079 50.0707 51.1828C55.1461 47.8578 58.7292 42.6859 60.0612 36.7625C61.3931 30.839 60.3694 24.6292 57.2067 19.4482C52.9513 17.8455 48.3782 17.2702 43.859 17.7691C39.3397 18.2679 35.0017 19.8268 31.1975 22.3191C27.3932 24.8113 24.2299 28.1667 21.9646 32.1127C19.6993 36.0586 18.3959 40.4837 18.1602 45.0286V45.0286Z" fill="#DDC3A3"/>
</g>
<g style="mix-blend-mode:multiply" opacity="0.42">
<g style="mix-blend-mode:multiply" opacity="0.42">
<path style="mix-blend-mode:multiply" opacity="0.42" d="M49.0406 35.1739C50.8263 40.2981 55.7818 39.8472 55.3641 45.1355C54.9463 50.4237 52.5218 56.0236 57.4036 57.4338C62.2855 58.844 67.2328 58.844 72.5652 54.9741C73.6136 54.2116 74.6457 52.5964 75.645 50.4811C75.8288 49.1581 75.9219 47.824 75.9235 46.4883C75.9183 39.9141 73.6752 33.5379 69.5641 28.4108C65.453 23.2838 59.7193 19.712 53.3081 18.2842C50.0727 23.6134 47.6318 31.1318 49.0406 35.1739Z" fill="url(#paint1_linear_26_927)"/>
</g>
<g style="mix-blend-mode:multiply" opacity="0.42">
<path style="mix-blend-mode:multiply" opacity="0.42" d="M48.3028 64.0337C46.2059 55.1543 35.6395 52.8996 29.9631 54.0721C25.3188 55.0149 21.4117 51.7354 18.1926 48.3984C18.5548 53.8209 20.4358 59.0315 23.62 63.4333C26.8042 67.835 31.1629 71.2499 36.1965 73.2865C41.2302 75.3231 46.7352 75.8991 52.0809 74.9485C57.4265 73.9979 62.3965 71.5592 66.4213 67.9117C60.1306 69.1088 49.7526 70.0598 48.3028 64.0337Z" fill="url(#paint2_linear_26_927)"/>
</g>
</g>
<defs>
<linearGradient id="paint0_linear_26_927" x1="26.5955" y1="26.0487" x2="67.4914" y2="66.9055" gradientUnits="userSpaceOnUse">
<stop stop-color="#FF0000"/>
<stop offset="1" stop-color="#957635"/>
</linearGradient>
<linearGradient id="paint1_linear_26_927" x1="2230.8" y1="7925.35" x2="3140.12" y2="7925.35" gradientUnits="userSpaceOnUse">
<stop stop-color="#FF0000"/>
<stop offset="1" stop-color="#957635"/>
</linearGradient>
<linearGradient id="paint2_linear_26_927" x1="2082.38" y1="6160.03" x2="4922.08" y2="6160.03" gradientUnits="userSpaceOnUse">
<stop stop-color="#FF0000"/>
<stop offset="1" stop-color="#957635"/>
</linearGradient>
</defs>
</svg>
