<svg width="93" height="93" viewBox="0 0 93 93" fill="none" xmlns="http://www.w3.org/2000/svg">
  <g clip-path="url(#clip0_26_755)">
    <path
      d="M46.7442 75.0547C62.5148 75.0547 75.2994 62.2701 75.2994 46.4995C75.2994 30.7289 62.5148 17.9443 46.7442 17.9443C30.9736 17.9443 18.189 30.7289 18.189 46.4995C18.189 62.2701 30.9736 75.0547 46.7442 75.0547Z"
      fill="#005DC6"/>
    <path opacity="0.63"
          d="M46.7442 17.9443C45.8315 17.9443 44.9351 17.9932 44.0468 18.0747C43.6068 18.1155 42.4822 21.8886 42.3192 22.3857C41.4424 24.7909 40.9661 27.3237 40.9093 29.8831C40.8767 31.1224 41.1522 32.3504 41.7112 33.457C42.2702 34.5636 43.0951 35.5141 44.112 36.2232C46.0352 37.5108 48.1867 37.3234 50.4603 37.3316C53.5 37.3316 56.556 36.7937 59.555 37.2745C61.8991 37.6444 64.1689 38.3873 66.2781 39.4748C68.8382 40.7855 70.9534 42.8242 72.3575 45.3342C73.1223 46.8997 73.5578 48.6055 73.637 50.346C73.7103 51.2098 73.7348 52.0818 73.7918 52.9538C73.9413 53.5876 74.0286 54.2345 74.0526 54.8852C75.363 50.6138 75.6531 46.0945 74.8996 41.6906C74.1461 37.2867 72.37 33.121 69.7141 29.5282C67.0581 25.9354 63.5964 23.0158 59.6071 21.0039C55.6178 18.9921 51.2121 17.9442 46.7442 17.9443V17.9443Z"
          fill="#247EE2"/>
    <path opacity="0.63"
          d="M18.8166 52.4489C20.0886 58.4476 23.2599 63.8767 27.8604 67.9312C32.4609 71.9856 38.2456 74.4494 44.3566 74.9573C45.8561 75.0795 43.3135 66.4739 42.906 65.6997C40.4123 60.9812 36.0687 57.6318 32.809 53.4757C31.7783 52.321 31.1843 50.8419 31.1303 49.2951C31.3177 42.8897 43.0201 46.0843 42.6126 39.3203C42.467 37.8565 41.7495 36.5093 40.616 35.5716C38.3587 33.6076 35.4005 32.8253 32.6542 31.8311C31.3556 31.4084 30.1195 30.8137 28.9788 30.0627C28.6447 29.8264 25.605 27.2756 25.988 26.8682C22.8068 30.2302 20.4916 34.3159 19.2422 38.7726C17.9928 43.2293 17.8467 47.9231 18.8166 52.4489V52.4489Z"
          fill="#247EE2"/>
    <path opacity="0.47"
          d="M34.4308 49.8649C34.4878 51.7311 36.7208 53.0839 38.3425 53.6299C38.6077 53.7275 38.8912 53.7656 39.1728 53.7417C39.4544 53.7178 39.7273 53.6323 39.9723 53.4914C40.8362 52.9046 40.5672 51.9756 40.6161 51.1199C40.665 50.2642 40.9828 49.0174 40.445 48.2432C39.2796 46.5644 35.1805 46.9801 34.5286 48.9767C34.4417 49.2642 34.4085 49.5654 34.4308 49.8649V49.8649Z"
          fill="#154B86"/>
    <path opacity="0.63"
          d="M27.6665 25.2544C28.5484 26.1657 29.6843 26.7904 30.9262 27.0472C32.0671 27.308 33.4851 27.2835 34.186 26.3219C34.8868 25.3603 34.4956 24.1623 34.9438 23.16C35.2052 22.7132 35.5582 22.3269 35.9795 22.0263C36.4009 21.7257 36.8811 21.5177 37.3886 21.416C38.3969 21.2144 39.3749 20.883 40.2979 20.43C41.0674 19.9564 41.6447 19.2261 41.9278 18.3682C36.6193 19.2713 31.6749 21.6588 27.6665 25.2544V25.2544Z"
          fill="#247EE2"/>
    <path opacity="0.25"
          d="M61.9671 41.4385C61.4192 41.4437 60.8732 41.5038 60.3373 41.6178C58.6585 41.9926 56.1974 43.4432 57.6643 45.5213C58.2935 46.2507 59.1242 46.778 60.052 47.0371C60.9781 47.2856 61.8325 47.7491 62.5457 48.3898C63.7192 49.6367 63.54 51.6496 62.7902 53.2142C62.0405 54.7789 60.8425 56.042 60.0602 57.5741C59.2779 59.1062 58.9926 61.1028 60.0602 62.4637C60.6208 63.0465 61.3503 63.4387 62.1456 63.5849C62.941 63.7311 63.7622 63.624 64.4934 63.2786C65.9457 62.5536 67.155 61.4208 67.9732 60.0189C69.8093 57.3912 70.7885 54.2603 70.7765 51.0547C70.7527 49.469 70.3657 47.9099 69.6452 46.4972C68.9248 45.0844 67.8899 43.8557 66.6204 42.9053C65.2555 41.9526 63.6316 41.4407 61.9671 41.4385Z"
          fill="#154B86"/>
    <path opacity="0.47"
          d="M31.921 56.0102C30.6621 55.0857 29.5039 54.0314 28.4657 52.8645C27.9471 52.2786 27.5636 51.5858 27.3425 50.8352C27.1214 50.0845 27.0681 49.2945 27.1862 48.5209C27.7078 46.1495 30.2015 44.8945 32.2551 43.5906C33.188 43.0639 33.988 42.3308 34.594 41.4473C34.8895 40.9999 35.0611 40.482 35.0911 39.9465C35.1212 39.4111 35.0087 38.8773 34.7651 38.3995C34.0398 37.1934 32.4507 36.9245 31.106 36.5089C29.6574 36.0432 28.3171 35.291 27.165 34.297C26.0128 33.303 25.0722 32.0876 24.3992 30.7228C24.198 30.2913 24.0238 29.8477 23.8776 29.3945C21.115 33.0748 19.2839 37.369 18.5406 41.9103C17.7972 46.4517 18.1638 51.1056 19.6089 55.4746C21.0541 59.8436 23.5349 63.7981 26.8396 67.0005C30.1443 70.203 34.1748 72.5582 38.5871 73.8653C39.096 73.0242 39.4777 72.1125 39.7199 71.1598C39.9866 69.7181 39.9 68.2333 39.4673 66.8325C38.3345 62.5215 35.36 58.8706 31.921 56.0102Z"
          fill="#368BEA"/>
    <path opacity="0.47"
          d="M47.2986 17.9609C46.72 19.1181 46.2718 20.3569 45.9784 21.0659C44.9629 23.5138 44.2698 26.0833 43.9167 28.7099C43.7178 29.7083 43.7795 30.7412 44.0959 31.7089C44.3766 32.2855 44.7829 32.7919 45.2849 33.191C45.787 33.5901 46.372 33.8717 46.9971 34.0151C48.2494 34.2893 49.5398 34.3444 50.811 34.1781C53.6143 33.9499 56.4096 33.5261 59.2211 33.5261C62.0533 33.4321 64.8613 34.0752 67.3704 35.3923C69.4545 36.6846 71.2249 38.4244 72.5533 40.4857C73.6025 42.0009 74.5083 43.6105 75.2589 45.2938C74.9571 38.0334 71.8955 31.162 66.6993 26.0824C61.503 21.0028 54.5639 18.0979 47.2986 17.9609V17.9609Z"
          fill="#368BEA"/>
    <path opacity="0.47"
          d="M62.8882 46.8012C64.787 48.3169 65.2107 51.1284 64.624 53.4917C64.1595 55.4068 63.1327 57.2241 63.149 59.1963C63.1346 59.4134 63.1797 59.6303 63.2793 59.8238C63.5808 60.3127 64.3224 60.2149 64.844 59.9704C67.4436 58.7888 68.7638 55.7573 68.8453 52.8968C68.9519 50.6856 68.315 48.5023 67.0362 46.6952C66.4652 45.8999 65.7362 45.2311 64.8949 44.7305C64.0535 44.2299 63.1179 43.9083 62.1466 43.7859C61.3317 43.737 60.7694 43.9978 60.9731 44.9268C61.1768 45.8558 62.2362 46.2877 62.8882 46.8012Z"
          fill="#368BEA"/>
    <g opacity="0.32">
      <path opacity="0.32"
            d="M58.9358 50.3955C58.8299 52.3513 56.8822 52.8973 56.1813 54.4701C55.839 55.2851 56.1813 56.483 57.2733 56.3771C60.0034 56.1163 62.3096 52.661 61.348 50.0613C61.2558 49.7833 61.0693 49.5462 60.8207 49.3912C60.5721 49.2362 60.2771 49.1731 59.9868 49.2127C59.6965 49.2524 59.4293 49.3924 59.2314 49.6084C59.0335 49.8244 58.9174 50.1028 58.9032 50.3955H58.9358Z"
            fill="#368BEA"/>
    </g>
    <g opacity="0.32">
      <path opacity="0.32"
            d="M55.9855 58.2757C54.1519 59.9056 54.2253 63.0186 55.4558 64.9989C56.5152 66.694 59.0659 68.5928 60.9158 66.9711C61.1215 66.7495 61.2357 66.4584 61.2357 66.1561C61.2357 65.8539 61.1215 65.5628 60.9158 65.3412C60.052 64.347 58.6585 64.3551 57.9984 63.0757C57.3383 61.7962 57.6154 60.1093 57.3301 58.6424C57.2896 58.5091 57.2155 58.3883 57.115 58.2917C57.0144 58.1951 56.8908 58.1259 56.7559 58.0908C56.621 58.0556 56.4793 58.0557 56.3444 58.0909C56.2096 58.1261 56.086 58.1954 55.9855 58.292V58.2757Z"
            fill="#368BEA"/>
    </g>
    <g opacity="0.32">
      <path opacity="0.32"
            d="M51.7317 60.7934C51.4793 61.0002 51.3065 61.2882 51.2427 61.6083C51.0308 62.6432 51.096 64.4605 52.3021 64.868C52.454 64.9138 52.6167 64.9073 52.7645 64.8497C52.9122 64.7921 53.0364 64.6866 53.1171 64.5502C53.6386 63.7352 53.2312 62.847 53.1171 61.9994C53.0356 61.4208 53.0519 60.4429 52.1473 60.6222C51.9971 60.6453 51.8546 60.704 51.7317 60.7934V60.7934Z"
            fill="#368BEA"/>
    </g>
    <g opacity="0.47">
      <path opacity="0.47"
            d="M37.6005 23.9827C37.1189 24.4358 36.7792 25.019 36.6226 25.6614C36.3618 27.6662 36.1255 28.4078 33.9985 28.7011C33.8927 28.7284 33.7934 28.7767 33.7066 28.8431C33.6198 28.9095 33.5473 28.9927 33.4933 29.0878C33.4393 29.1828 33.405 29.2878 33.3924 29.3963C33.3798 29.5049 33.3892 29.6149 33.42 29.7198C34.0393 31.4719 36.6145 30.5347 37.682 29.6709C38.7496 28.8071 39.0022 27.4624 38.9452 26.1015C38.9126 25.4333 38.8637 22.8336 37.6005 23.9827Z"
            fill="#154B86"/>
    </g>
    <path opacity="0.47"
          d="M39.4262 49.8574C39.3146 49.2113 38.9659 48.6301 38.4483 48.2275C38.1004 48.0301 37.6958 47.9564 37.3006 48.0186C36.9054 48.0807 36.543 48.2751 36.2725 48.5698C33.7136 51.1939 40.2901 53.9321 39.4262 49.8574Z"
          fill="#368BEA"/>
    <g opacity="0.47">
      <path opacity="0.47"
            d="M32.7684 40.95C31.3993 40.3143 29.5983 41.007 28.4248 41.8382C27.2513 42.6695 25.8333 44.063 26.306 45.5788C26.385 45.7711 26.5252 45.9321 26.7049 46.0367C26.8847 46.1413 27.0939 46.1837 27.3002 46.1574C28.4248 45.9862 29.1338 44.8127 30.0384 44.2015C31.6112 43.134 31.9535 43.3866 32.9477 42.4657C33.0676 42.3707 33.1612 42.2466 33.2196 42.1052C33.278 41.9637 33.2992 41.8097 33.2812 41.6578C33.2633 41.5058 33.2067 41.361 33.1169 41.2371C33.0272 41.1132 32.9072 41.0144 32.7684 40.95V40.95Z"
            fill="#154B86"/>
    </g>
    <g opacity="0.47">
      <path opacity="0.47"
            d="M23.8856 48.7729C22.5246 51.8289 24.2686 55.1375 26.7297 57.077C28.5307 58.495 30.1931 59.4322 31.4563 61.4206C32.7194 63.409 32.8335 65.7397 34.2189 67.5815C34.3003 67.7111 34.4133 67.818 34.5473 67.8921C34.6813 67.9661 34.8319 68.005 34.9849 68.005C35.138 68.005 35.2886 67.9661 35.4226 67.8921C35.5566 67.818 35.6695 67.7111 35.751 67.5815C37.7475 64.6396 35.5146 60.5405 33.3795 58.2831C32.0125 57.0053 30.4737 55.9246 28.8077 55.0723C26.2896 53.5647 25.7681 51.5355 24.945 48.9114C24.8064 48.4795 24.13 48.2921 23.8856 48.7729V48.7729Z"
            fill="#154B86"/>
    </g>
    <g opacity="0.47">
      <path opacity="0.47"
            d="M27.8297 62.5292C28.1394 63.2138 28.4979 63.882 28.7832 64.5666C29.1417 65.3815 29.2151 66.1964 30.0056 66.7343C30.247 66.8792 30.5302 66.9387 30.8095 66.9032C31.0889 66.8678 31.3482 66.7394 31.5458 66.5387C32.4178 65.5608 32.0673 64.2569 31.3502 63.279C30.7176 62.4526 29.8726 61.8132 28.9054 61.4291C28.7523 61.3504 28.5783 61.3221 28.4082 61.3484C28.2381 61.3747 28.0807 61.4542 27.9586 61.5754C27.8365 61.6967 27.7558 61.8534 27.7283 62.0233C27.7007 62.1932 27.7277 62.3675 27.8052 62.5211L27.8297 62.5292Z"
            fill="#154B86"/>
    </g>
    <g opacity="0.47">
      <path opacity="0.47"
            d="M49.5393 20.8615C48.7817 21.35 48.1371 21.9946 47.6486 22.7522C46.9065 23.6687 46.3852 24.7437 46.1251 25.894C45.8651 27.0443 45.8733 28.2391 46.1492 29.3857C46.3653 30.0786 46.7433 30.71 47.2519 31.2278C47.7604 31.7456 48.3849 32.1348 49.0738 32.3634C49.7626 32.5919 50.496 32.6532 51.2132 32.5421C51.9304 32.431 52.6109 32.1508 53.1983 31.7246C53.3348 31.6092 53.4392 31.4604 53.5011 31.2927C53.5631 31.1251 53.5805 30.9442 53.5518 30.7678C53.5231 30.5913 53.4492 30.4253 53.3372 30.286C53.2253 30.1466 53.0792 30.0386 52.9131 29.9725C52.4016 29.7407 51.8447 29.6265 51.2832 29.6383C50.726 29.6438 50.1774 29.5003 49.6941 29.2227C49.4473 29.0272 49.2464 28.78 49.1056 28.4983C48.9648 28.2167 48.8875 27.9076 48.8792 27.5929C48.7162 25.6615 49.8408 23.7056 50.835 22.141C50.9127 21.9865 50.9477 21.8141 50.9364 21.6416C50.925 21.469 50.8678 21.3027 50.7705 21.1597C50.6733 21.0167 50.5396 20.9024 50.3833 20.8284C50.227 20.7545 50.0538 20.7237 49.8816 20.7393C49.7613 20.7602 49.6455 20.8015 49.5393 20.8615V20.8615Z"
            fill="#005DC6"/>
    </g>
    <g opacity="0.47">
      <path opacity="0.47"
            d="M52.783 23.942C52.4979 24.0025 52.2286 24.1222 51.9927 24.2935C51.7568 24.4648 51.5596 24.6838 51.4139 24.9363C51.2209 25.3159 51.1517 25.7464 51.216 26.1674C51.2803 26.5884 51.4749 26.9786 51.7725 27.2832C52.5222 27.927 54.0136 27.6418 54.0869 26.5172C54.0869 26.6476 54.038 26.778 54.0054 26.9084C54.1929 26.0201 54.201 23.6813 52.783 23.942Z"
            fill="#005DC6"/>
    </g>
    <g style="mix-blend-mode:screen" opacity="0.38">
      <g style="mix-blend-mode:screen" opacity="0.38">
        <path
          d="M56.2628 50.6722C58.4061 50.6722 58.4061 47.3555 56.2628 47.3555C54.1196 47.3555 54.1277 50.6722 56.2628 50.6722Z"
          fill="#59A7FF"/>
      </g>
      <g style="mix-blend-mode:screen" opacity="0.38">
        <path
          d="M52.9136 53.2145C53.1481 53.1927 53.366 53.0841 53.5247 52.91C53.6833 52.7359 53.7712 52.5088 53.7712 52.2733C53.7712 52.0377 53.6833 51.8107 53.5247 51.6366C53.366 51.4625 53.1481 51.3539 52.9136 51.332C52.6791 51.3539 52.4611 51.4625 52.3025 51.6366C52.1438 51.8107 52.0559 52.0377 52.0559 52.2733C52.0559 52.5088 52.1438 52.7359 52.3025 52.91C52.4611 53.0841 52.6791 53.1927 52.9136 53.2145V53.2145Z"
          fill="#59A7FF"/>
      </g>
      <g style="mix-blend-mode:screen" opacity="0.38">
        <path
          d="M51.243 57.4276C51.4628 57.4065 51.6669 57.3042 51.8154 57.1407C51.9639 56.9772 52.0462 56.7642 52.0462 56.5434C52.0462 56.3225 51.9639 56.1096 51.8154 55.9461C51.6669 55.7826 51.4628 55.6803 51.243 55.6592C51.0231 55.6803 50.819 55.7826 50.6705 55.9461C50.522 56.1096 50.4397 56.3225 50.4397 56.5434C50.4397 56.7642 50.522 56.9772 50.6705 57.1407C50.819 57.3042 51.0231 57.4065 51.243 57.4276V57.4276Z"
          fill="#59A7FF"/>
      </g>
      <g style="mix-blend-mode:screen" opacity="0.38">
        <path
          d="M47.641 59.6033C47.734 59.5897 47.8191 59.5432 47.8805 59.4721C47.942 59.401 47.9759 59.3102 47.9759 59.2162C47.9759 59.1222 47.942 59.0313 47.8805 58.9603C47.8191 58.8892 47.734 58.8426 47.641 58.8291C47.548 58.8426 47.463 58.8892 47.4015 58.9603C47.34 59.0313 47.3062 59.1222 47.3062 59.2162C47.3062 59.3102 47.34 59.401 47.4015 59.4721C47.463 59.5432 47.548 59.5897 47.641 59.6033Z"
          fill="#59A7FF"/>
      </g>
      <g style="mix-blend-mode:screen" opacity="0.38">
        <path
          d="M55.9206 71.2251C56.2448 71.2251 56.5558 71.0963 56.785 70.867C57.0142 70.6378 57.143 70.3269 57.143 70.0027C57.143 69.6785 57.0142 69.3675 56.785 69.1383C56.5558 68.9091 56.2448 68.7803 55.9206 68.7803C55.5964 68.7803 55.2855 68.9091 55.0563 69.1383C54.827 69.3675 54.6982 69.6785 54.6982 70.0027C54.6982 70.3269 54.827 70.6378 55.0563 70.867C55.2855 71.0963 55.5964 71.2251 55.9206 71.2251Z"
          fill="#59A7FF"/>
      </g>
      <g style="mix-blend-mode:screen" opacity="0.38">
        <path
          d="M59.1887 71.1758C59.4048 71.1758 59.6121 71.0899 59.765 70.9371C59.9178 70.7842 60.0036 70.577 60.0036 70.3608C60.0036 70.1447 59.9178 69.9374 59.765 69.7846C59.6121 69.6317 59.4048 69.5459 59.1887 69.5459C58.9726 69.5459 58.7653 69.6317 58.6125 69.7846C58.4596 69.9374 58.3738 70.1447 58.3738 70.3608C58.3738 70.577 58.4596 70.7842 58.6125 70.9371C58.7653 71.0899 58.9726 71.1758 59.1887 71.1758Z"
          fill="#59A7FF"/>
      </g>
      <g style="mix-blend-mode:screen" opacity="0.38">
        <path
          d="M52.2452 72.7401C52.3177 72.7282 52.3836 72.691 52.4311 72.635C52.4787 72.579 52.5048 72.508 52.5048 72.4345C52.5048 72.3611 52.4787 72.29 52.4311 72.234C52.3836 72.1781 52.3177 72.1408 52.2452 72.1289C52.1727 72.1408 52.1068 72.1781 52.0593 72.234C52.0117 72.29 51.9856 72.3611 51.9856 72.4345C51.9856 72.508 52.0117 72.579 52.0593 72.635C52.1068 72.691 52.1727 72.7282 52.2452 72.7401Z"
          fill="#59A7FF"/>
      </g>
      <g style="mix-blend-mode:screen" opacity="0.38">
        <path
          d="M59.3515 40.0619C59.4941 40.045 59.6257 39.9763 59.7211 39.8689C59.8165 39.7615 59.8692 39.6228 59.8692 39.4792C59.8692 39.3355 59.8165 39.1968 59.7211 39.0894C59.6257 38.9821 59.4941 38.9134 59.3515 38.8965C59.2088 38.9134 59.0773 38.9821 58.9819 39.0894C58.8865 39.1968 58.8337 39.3355 58.8337 39.4792C58.8337 39.6228 58.8865 39.7615 58.9819 39.8689C59.0773 39.9763 59.2088 40.045 59.3515 40.0619V40.0619Z"
          fill="#59A7FF"/>
      </g>
      <g style="mix-blend-mode:screen" opacity="0.38">
        <path
          d="M62.0327 40.2493C62.2024 40.2308 62.3594 40.1503 62.4734 40.0232C62.5874 39.8961 62.6504 39.7314 62.6504 39.5607C62.6504 39.39 62.5874 39.2253 62.4734 39.0982C62.3594 38.9711 62.2024 38.8906 62.0327 38.8721C61.863 38.8906 61.7061 38.9711 61.5921 39.0982C61.4781 39.2253 61.415 39.39 61.415 39.5607C61.415 39.7314 61.4781 39.8961 61.5921 40.0232C61.7061 40.1503 61.863 40.2308 62.0327 40.2493V40.2493Z"
          fill="#59A7FF"/>
      </g>
      <g style="mix-blend-mode:screen" opacity="0.38">
        <path
          d="M42.6208 28.5711C42.7893 28.5711 42.951 28.5041 43.0702 28.3849C43.1894 28.2657 43.2564 28.104 43.2564 27.9354C43.2564 27.7669 43.1894 27.6052 43.0702 27.486C42.951 27.3668 42.7893 27.2998 42.6208 27.2998C42.4522 27.2998 42.2905 27.3668 42.1713 27.486C42.0521 27.6052 41.9851 27.7669 41.9851 27.9354C41.9851 28.104 42.0521 28.2657 42.1713 28.3849C42.2905 28.5041 42.4522 28.5711 42.6208 28.5711V28.5711Z"
          fill="#59A7FF"/>
      </g>
      <g style="mix-blend-mode:screen" opacity="0.38">
        <path
          d="M42.2053 31.0481C42.375 31.0296 42.5319 30.9491 42.6459 30.822C42.7599 30.6949 42.823 30.5302 42.823 30.3595C42.823 30.1888 42.7599 30.0241 42.6459 29.897C42.5319 29.7699 42.375 29.6894 42.2053 29.6709C42.0356 29.6894 41.8787 29.7699 41.7647 29.897C41.6507 30.0241 41.5876 30.1888 41.5876 30.3595C41.5876 30.5302 41.6507 30.6949 41.7647 30.822C41.8787 30.9491 42.0356 31.0296 42.2053 31.0481Z"
          fill="#59A7FF"/>
      </g>
      <g style="mix-blend-mode:screen" opacity="0.38">
        <path
          d="M43.0448 34.0315C43.2856 34.0273 43.5153 33.9298 43.6856 33.7595C43.8558 33.5893 43.9533 33.3595 43.9575 33.1188C43.9513 32.8787 43.8532 32.6501 43.6834 32.4802C43.5135 32.3104 43.2849 32.2122 43.0448 32.2061C42.8027 32.2061 42.5706 32.3022 42.3994 32.4734C42.2282 32.6445 42.1321 32.8767 42.1321 33.1188C42.1321 33.3608 42.2282 33.593 42.3994 33.7642C42.5706 33.9353 42.8027 34.0315 43.0448 34.0315Z"
          fill="#59A7FF"/>
      </g>
      <g style="mix-blend-mode:screen" opacity="0.38">
        <path
          d="M45.571 33.8517L45.5302 33.811C45.3782 33.6641 45.1752 33.582 44.9638 33.582C44.7525 33.582 44.5494 33.6641 44.3975 33.811L44.3567 33.8517C44.2376 33.9716 44.1567 34.1241 44.1242 34.2899C44.0916 34.4558 44.1089 34.6275 44.1739 34.7835C44.2388 34.9396 44.3485 35.0728 44.4891 35.1666C44.6296 35.2604 44.7949 35.3104 44.9638 35.3104C45.1328 35.3104 45.298 35.2604 45.4386 35.1666C45.5792 35.0728 45.6889 34.9396 45.7538 34.7835C45.8187 34.6275 45.836 34.4558 45.8035 34.2899C45.771 34.1241 45.69 33.9716 45.571 33.8517V33.8517Z"
          fill="#59A7FF"/>
      </g>
    </g>
    <path style="mix-blend-mode:multiply" opacity="0.51"
          d="M46.7442 75.0547C62.5148 75.0547 75.2994 62.2701 75.2994 46.4995C75.2994 30.7289 62.5148 17.9443 46.7442 17.9443C30.9736 17.9443 18.189 30.7289 18.189 46.4995C18.189 62.2701 30.9736 75.0547 46.7442 75.0547Z"
          fill="url(#paint0_linear_26_755)"/>
    <g style="mix-blend-mode:multiply" opacity="0.07">
      <path
        d="M46.7443 75.0544C50.7012 75.0018 54.6039 74.1264 58.2041 72.4838C61.8044 70.8413 65.0235 68.4675 67.6567 65.5135C70.2899 62.5595 72.2796 59.0898 73.4992 55.3252C74.7189 51.5606 75.1418 47.5833 74.7411 43.6464C74.3405 39.7095 73.125 35.899 71.1719 32.4573C69.2188 29.0156 66.5709 26.0179 63.3966 23.6549C60.2223 21.292 56.591 19.6154 52.7336 18.7318C48.8763 17.8482 44.8773 17.777 40.9909 18.5226C46.1645 19.0963 51.1022 20.9967 55.3255 24.0397C57.2202 25.4009 58.9368 26.9943 60.4351 28.7826C62.8799 31.7001 64.7787 35.2124 65.1128 39.0018C65.4469 42.7913 64.0045 46.8578 60.8915 49.05C57.0124 51.78 51.0064 51.4948 48.5208 55.5694C47.0132 58.0142 47.4451 61.2739 46.076 63.8654C44.4462 67.0192 40.5997 68.2823 37.1118 68.8935C34.6792 69.3534 32.2021 69.5338 29.7285 69.4314C34.6449 73.093 40.6142 75.0656 46.7443 75.0544Z"
        fill="#005DC6"/>
    </g>
    <g style="mix-blend-mode:multiply" opacity="0.21">
      <path
        d="M46.7443 75.0544C53.8064 75.1267 60.6442 72.5763 65.9341 67.8969C71.2239 63.2176 74.5896 56.7421 75.3797 49.724C76.1697 42.7058 74.3279 35.6442 70.2108 29.9059C66.0937 24.1676 59.9941 20.1608 53.0926 18.6611C53.3026 18.8277 53.5326 18.9673 53.7772 19.0768C59.4324 21.8119 64.0705 26.2758 67.0198 31.8223C68.6545 34.8771 69.7047 38.2102 70.1166 41.6504C70.4364 43.4827 70.2504 45.3677 69.5787 47.1022C67.9 50.7531 63.3526 51.837 59.9707 53.9966C59.2895 54.378 58.7151 54.9244 58.3001 55.5857C57.5748 56.8814 57.9822 58.4868 57.8355 59.9619C57.5829 62.6022 55.5537 64.7374 53.3371 66.1961C46.3939 70.776 37.0385 70.4663 29.4678 67.011C27.5745 66.1343 25.7635 65.0897 24.0566 63.8898C26.7255 67.3697 30.1608 70.1873 34.0957 72.1236C38.0305 74.0599 42.3589 75.0629 46.7443 75.0544V75.0544Z"
        fill="#005DC6"/>
    </g>
    <g style="mix-blend-mode:overlay" opacity="0.28">
      <path
        d="M46.7444 17.9856C41.5194 17.9857 36.3947 19.4211 31.9298 22.1351C27.4649 24.8491 23.8313 28.7374 21.4256 33.3757C19.0198 38.014 17.9344 43.224 18.2877 48.4371C18.6411 53.6502 20.4196 58.666 23.4292 62.9372C22.4187 58.7403 21.5549 54.4131 22.1335 50.1428C22.7121 45.8726 25.0184 41.6105 28.8974 39.7198C33.7218 37.3728 39.5975 39.1575 44.7723 37.7151C47.706 36.9002 50.4768 35.0177 53.5247 35.4496C54.3302 35.6389 55.1467 35.7776 55.9695 35.8652C56.3883 35.9006 56.808 35.8082 57.1731 35.6001C57.5383 35.3921 57.8318 35.0782 58.0149 34.6999C58.4061 33.5834 57.3304 32.4751 57.2978 31.2934C57.257 29.5739 59.3025 28.6286 61.0139 28.4493C64.36 28.1163 67.7175 28.9607 70.5078 30.8371C68.0033 27.0815 64.6541 23.9645 60.7285 21.7357C56.803 19.5068 52.4101 18.2281 47.9016 18.0019C47.5431 17.9856 47.1438 17.9775 46.7444 17.9856Z"
        fill="#70B2FF"/>
    </g>
    <g style="mix-blend-mode:screen" opacity="0.58">
      <path
        d="M46.7443 17.9444C41.1998 17.9307 35.7714 19.5332 31.1233 22.556C26.4753 25.5788 22.809 29.8909 20.573 34.9646C18.3371 40.0383 17.6284 45.6537 18.5336 51.1239C19.4389 56.594 21.9189 61.6817 25.6702 65.7646C21.7402 60.8402 19.5512 54.7531 19.4451 48.4535C19.3389 42.154 21.3215 35.9966 25.0834 30.9426C26.593 33.2931 28.9626 34.9595 31.6851 35.5852C34.4077 36.2108 37.267 35.7461 39.6513 34.2904C42.0356 32.8347 43.7554 30.5036 44.4429 27.796C45.1304 25.0884 44.7308 22.2193 43.3297 19.8025C44.8736 19.5509 46.4351 19.4228 47.9993 19.4194C51.9662 19.4168 55.8901 20.2416 59.5202 21.8413C63.1503 23.4409 66.4067 25.7802 69.0816 28.7097C66.4086 25.3498 63.0116 22.6367 59.144 20.7727C55.2763 18.9087 51.0377 17.9419 46.7443 17.9444V17.9444Z"
        fill="#005DC6"/>
    </g>
    <path style="mix-blend-mode:overlay" opacity="0.43"
          d="M39.5077 45.057C46.3804 45.057 51.9517 39.4856 51.9517 32.613C51.9517 25.7403 46.3804 20.1689 39.5077 20.1689C32.6351 20.1689 27.0637 25.7403 27.0637 32.613C27.0637 39.4856 32.6351 45.057 39.5077 45.057Z"
          fill="url(#paint1_radial_26_755)"/>
    <path opacity="0.78"
          d="M20.3487 56.6621C20.1939 56.3605 20.0635 56.0508 19.925 55.7412C8.18181 63.0348 3.03959 67.6962 2.47728 69.7743C2.43856 69.8963 2.43856 70.0272 2.47728 70.1492L2.51802 70.2225C2.51802 70.3121 2.75436 70.3855 2.83586 70.4099C4.31903 70.8989 11.9794 71.0211 48.1134 52.0414C69.864 40.6323 84.6957 29.6471 88.7133 25.1486C88.8103 25.0238 88.8688 24.8735 88.8818 24.7159C88.8948 24.5584 88.8617 24.4005 88.7866 24.2615C88.7114 24.1225 88.5975 24.0082 88.4586 23.9328C88.3197 23.8574 88.1619 23.8239 88.0044 23.8366C85.0136 24.3256 79.1297 26.1266 70.63 29.6389C70.7522 29.8589 70.8908 30.0708 71.013 30.299C78.0296 27.4467 82.6258 26.1836 83.1555 27.186C84.2149 29.1988 68.4867 39.5648 47.9831 50.3463C27.4794 61.1279 10.0399 68.2259 8.98045 66.2212C8.33665 65.1373 12.8188 61.4783 20.3487 56.6621Z"
          fill="url(#paint2_linear_26_755)"/>
  </g>
  <defs>
    <linearGradient id="paint0_linear_26_755" x1="26.5502" y1="26.3055" x2="66.9382" y2="66.6936"
                    gradientUnits="userSpaceOnUse">
      <stop stop-color="white"/>
      <stop offset="0.09" stop-color="#EBEBF6"/>
      <stop offset="0.54" stop-color="#8B8FCE"/>
      <stop offset="0.85" stop-color="#4F55B4"/>
      <stop offset="1" stop-color="#383EAA"/>
    </linearGradient>
    <radialGradient id="paint1_radial_26_755" cx="0" cy="0" r="1" gradientUnits="userSpaceOnUse"
                    gradientTransform="translate(39.5077 32.613) scale(12.444)">
      <stop stop-color="#ECECEC"/>
      <stop offset="0.47" stop-color="#F1F1F1"/>
      <stop offset="1" stop-color="white"/>
    </radialGradient>
    <linearGradient id="paint2_linear_26_755" x1="1.80224" y1="68.9488" x2="89.6981" y2="26.231"
                    gradientUnits="userSpaceOnUse">
      <stop stop-color="#77EDF6"/>
      <stop offset="0.16" stop-color="#6BE1F0"/>
      <stop offset="0.44" stop-color="#4CC0E1"/>
      <stop offset="0.82" stop-color="#1A8CC8"/>
      <stop offset="0.99" stop-color="#0071BB"/>
    </linearGradient>
    <clipPath id="clip0_26_755">
      <rect width="93" height="93" fill="white"/>
    </clipPath>
  </defs>
</svg>
