<svg width="93" height="93" viewBox="0 0 93 93" fill="none" xmlns="http://www.w3.org/2000/svg">
  <g clip-path="url(#clip0_26_3508)">
    <path
      d="M83.1142 45.9098C83.1142 44.6323 83.0479 43.3695 82.9155 42.1216C82.0423 32.918 77.6825 24.404 70.7382 18.3406C64.4519 12.7056 56.4228 9.42446 48.0076 9.05179C39.7533 8.60796 31.5977 11.0275 24.9064 15.9053L24.8578 15.9408L24.8225 15.963C19.0382 20.1192 14.5892 25.8843 12.0228 32.5489C-0.101637 32.7884 -8.16104 35.0285 -8.93785 39.114C-9.77204 43.4612 -2.14959 48.9484 10.3809 53.9433L10.4339 54.1784C10.4356 54.1946 10.4356 54.211 10.4339 54.2272C10.5089 54.551 10.5839 54.8704 10.6678 55.1853L10.6943 55.3007C10.7781 55.6156 10.862 55.9306 10.9503 56.2411L10.9767 56.3209C11.1621 56.973 11.3696 57.6162 11.5902 58.2506V58.2994C11.6873 58.5744 11.7844 58.845 11.8904 59.12C14.3441 65.6768 18.6216 71.3864 24.2134 75.5684L24.6548 75.91L24.9593 76.1318L25.7935 76.7129C32.4858 81.2778 40.508 83.4551 48.577 82.8965C49.9833 82.8134 51.3835 82.646 52.77 82.3953C56.2732 81.772 59.6666 80.6362 62.8421 79.024C63.1687 78.8554 63.4953 78.6824 63.8131 78.5094L63.9764 78.4207C64.2942 78.2433 64.612 78.0658 64.9253 77.8795L65.0004 77.8351C65.3093 77.6488 65.6183 77.4625 65.9184 77.2718L65.9934 77.223C66.3112 77.0189 66.6202 76.8149 66.9291 76.602L66.9689 76.5798L67.0439 76.5266C67.2381 76.389 67.4367 76.256 67.6309 76.114L67.7722 76.012L68.3503 75.5684L68.4695 75.4797C68.9109 75.1337 69.3523 74.7788 69.7936 74.4151L69.9878 74.2509L70.4292 73.8783L70.6808 73.6565L71.0515 73.3194L71.3075 73.0887L71.334 73.0621L71.4708 72.9335C73.3785 71.1618 75.092 69.1898 76.5819 67.0514C91.0985 67.2998 101.025 65.0375 101.894 60.4863C102.733 56.2411 95.3357 50.8514 83.1142 45.9098ZM10.9767 35.6407L11.0959 35.2548C11.0341 35.3745 11.0341 35.5032 10.9767 35.6407ZM9.93069 40.3738V40.4537C9.88214 40.7686 9.84242 41.088 9.80269 41.4074C9.80269 41.4562 9.8027 41.5094 9.78063 41.5626C9.74532 41.8776 9.71001 42.2014 9.67911 42.5208V42.5607C9.65263 42.8712 9.63056 43.1773 9.60849 43.4878V43.6608C9.60849 43.9713 9.57318 44.2819 9.56435 44.5924C9.56435 44.6545 9.56435 44.7166 9.56435 44.7831C9.56435 44.9206 9.56435 45.0581 9.56435 45.1957C3.88834 42.7603 0.679588 40.4581 1.01503 38.697C1.35047 36.936 5.01825 36.0355 10.9591 35.8536C10.521 37.3368 10.1775 38.8466 9.93069 40.3738ZM82.9773 49.392C89.4831 52.0536 93.2303 54.5554 92.8684 56.4496C92.5065 58.3437 87.9516 59.3241 80.7308 59.3285C81.9367 56.1378 82.6929 52.7932 82.9773 49.392V49.392ZM-4.57712 39.1894C-3.83121 35.2681 4.39592 34.1458 11.5329 33.924C11.4358 34.2123 11.3387 34.5095 11.246 34.8112C2.20231 35.1306 -3.23536 36.7763 -3.72969 39.3624C-4.24609 42.0683 0.613383 45.8167 9.60408 49.6449L9.69235 49.6848C9.69235 49.8046 9.69235 49.9243 9.72325 50.0441C9.72325 50.2526 9.7718 50.4611 9.79828 50.674L9.26864 50.4079C2.50686 47.5334 -5.37159 43.2483 -4.59036 39.1584L-4.57712 39.1894ZM99.308 59.2043C98.5268 63.2898 89.6288 64.3366 82.302 64.4963C81.5826 64.4963 80.8455 64.5229 80.0952 64.5229C79.4949 64.5229 78.8858 64.5229 78.2723 64.5229C78.4356 64.239 78.5945 63.9507 78.7534 63.658C79.9687 63.6757 81.1456 63.6757 82.2844 63.658C92.0475 63.445 97.9398 61.7727 98.4562 59.0712C98.9726 56.3697 94.1131 52.6214 85.1224 48.7888C84.4603 48.5093 83.7983 48.2254 83.0788 47.9459C83.0788 47.9016 83.0788 47.8572 83.0788 47.8084C83.0788 47.5467 83.1009 47.285 83.1053 47.0233C83.9086 47.3426 84.6942 47.662 85.4534 47.9858C92.1931 50.8293 100.072 55.1144 99.308 59.2043Z"
      fill="url(#paint0_radial_26_3508)"/>
    <path
      d="M75.6684 46.0167C75.6684 69.7754 49.2215 83.4647 30.0131 70.5029C13.0645 59.076 12.6055 34.1284 29.2098 22.0893H29.2363L29.276 22.0583C48.3917 8.27142 75.6684 21.8276 75.6684 46.0167Z"
      fill="url(#paint1_radial_26_3508)"/>
    <path
      d="M33.9191 46.0165C34.0912 47.7465 28.0533 46.0165 24.2575 46.0165C21.7241 46.0165 19.0317 46.4601 17.0146 45.8036C17.0293 43.0738 17.423 40.3595 18.1843 37.7391C19.2127 37.606 20.9561 37.9032 23.569 39.957C28.2475 43.5856 33.747 44.2821 33.9191 46.0165Z"
      fill="url(#paint2_linear_26_3508)"/>
    <path
      d="M54.1029 49.6538C49.7907 49.3078 44.9621 48.0968 44.097 48.9618C43.2319 49.8268 51.0574 52.0536 58.2606 53.2957C66.2052 54.6841 71.2015 55.2031 69.4758 52.9497C67.75 50.6962 64.9915 47.9238 60.6793 49.3078C56.3671 50.6918 56.4951 49.8356 54.1029 49.6538Z"
      fill="url(#paint3_linear_26_3508)"/>
    <path
      d="M53.7587 61.8126C53.7587 63.689 36.6777 58.7074 30.9884 60.9254C26.7336 62.611 25.3698 63.8087 22.7922 63.5869C19.6728 59.3806 17.7353 54.409 17.1824 49.1924C19.9501 50.2978 22.658 51.549 25.2947 52.9407C32.7097 56.7645 53.7587 59.1909 53.7587 61.8126Z"
      fill="url(#paint4_linear_26_3508)"/>
    <path
      d="M67.2292 66.6916C64.9877 68.9798 62.389 70.8843 59.5361 72.3297C58.7681 71.6377 58.0134 70.857 56.8879 70.4489C53.9528 69.4109 46.1891 67.5034 47.7427 66.4565C49.2963 65.4097 54.297 66.1105 60.1628 65.7645C63.6894 65.5693 65.9801 66.1859 67.2292 66.6916Z"
      fill="url(#paint5_linear_26_3508)"/>
    <path
      d="M64.8017 61.9675C62.7361 59.7495 56.857 60.233 57.7398 62.3135C58.1944 63.4446 67.5602 64.9173 64.8017 61.9675Z"
      fill="url(#paint6_linear_26_3508)"/>
    <path
      d="M39.785 65.0863C37.2207 64.5141 35.4729 65.6098 35.1286 66.4748C34.7843 67.3398 42.1905 68.5552 42.3715 67.6902C42.5524 66.8252 41.3387 65.4323 39.785 65.0863Z"
      fill="url(#paint7_linear_26_3508)"/>
    <path
      d="M38.7478 50.1769C37.0441 49.7333 33.9192 50.5229 33.9192 51.5609C33.9192 52.5989 38.0592 53.8188 39.785 53.2954C41.5107 52.7719 42.1993 51.0419 38.7478 50.1769Z"
      fill="url(#paint8_linear_26_3508)"/>
    <path
      d="M41.6829 53.4688C41.1709 53.3845 40.4735 53.9923 40.8222 54.5113C41.1709 55.0303 43.7529 53.8281 41.6829 53.4688Z"
      fill="url(#paint9_linear_26_3508)"/>
    <path
      d="M59.1082 58.3262C58.0003 57.9935 57.2103 58.4991 57.7267 59.5371C58.2431 60.5751 62.5597 59.3642 59.1082 58.3262Z"
      fill="url(#paint10_linear_26_3508)"/>
    <path
      d="M67.2159 63.7027C66.6068 63.0861 66.1831 64.2217 66.5274 64.5677C66.8716 64.9137 68.5974 65.0867 67.2159 63.7027Z"
      fill="url(#paint11_linear_26_3508)"/>
    <path
      d="M51.5076 75.0313C44.0295 76.3769 36.3236 74.7533 30.0129 70.5023C33.4689 69.4997 39.2155 70.3204 44.9621 73.0618C47.0146 74.0928 49.2291 74.7591 51.5076 75.0313V75.0313Z"
      fill="url(#paint12_linear_26_3508)"/>
    <path
      d="M52.7258 71.8516C51.843 71.8516 51.843 72.3706 51.843 72.8896C51.843 73.4086 52.7258 73.586 53.2245 72.8896C53.7233 72.1931 53.4055 71.8516 52.7258 71.8516Z"
      fill="url(#paint13_linear_26_3508)"/>
    <path
      d="M50.4792 72.3698C50.1394 72.3121 49.9628 73.2348 50.4792 73.4122C50.9956 73.5897 51.5164 72.5428 50.4792 72.3698Z"
      fill="url(#paint14_linear_26_3508)"/>
    <path
      d="M30.8119 62.8327C29.6158 63.0722 27.8812 63.8751 29.4348 64.9131C30.9884 65.9511 34.2634 62.1407 30.8119 62.8327Z"
      fill="url(#paint15_linear_26_3508)"/>
    <path
      d="M25.1226 48.4427C24.5003 47.8172 24.0854 49.4807 24.4297 49.6537C24.7739 49.8267 25.8111 49.1347 25.1226 48.4427Z"
      fill="url(#paint16_linear_26_3508)"/>
    <path
      d="M30.1234 38.5598C28.5963 37.7923 26.4998 37.1713 26.1511 37.8633C25.8024 38.5553 32.3612 43.2397 33.9148 42.2017C35.4684 41.1637 31.5049 39.2518 30.1234 38.5598Z"
      fill="url(#paint17_linear_26_3508)"/>
    <path
      d="M55.4845 46.0161C54.3943 45.466 54.4517 47.9235 56.0009 48.6155C57.5501 49.3075 56.1731 46.3621 55.4845 46.0161Z"
      fill="url(#paint18_linear_26_3508)"/>
    <path
      d="M72.3844 48.9484C70.3011 48.8508 71.0029 52.2442 72.3844 52.5902C73.7659 52.9362 76.0168 49.1347 72.3844 48.9484Z"
      fill="url(#paint19_linear_26_3508)"/>
    <path style="mix-blend-mode:multiply" opacity="0.45"
          d="M62.8244 70.3964C61.773 71.1189 60.6744 71.7694 59.5362 72.3438C54.894 74.6927 49.7142 75.76 44.5269 75.4366C39.3395 75.1131 34.3307 73.4105 30.013 70.5029C27.2327 68.6267 24.7908 66.288 22.7922 63.5873C22.3508 63.0018 21.9448 62.3985 21.5564 61.7775C19.1549 57.9764 17.6581 53.6699 17.1824 49.1927C17.067 48.138 17.0095 47.0777 17.0103 46.0166C17.0103 45.9457 17.0103 45.8747 17.0103 45.8037C17.0236 43.5473 17.2946 41.2998 17.818 39.1055C21.4857 48.8246 28.4859 59.9543 41.8373 65.9649C43.5533 66.7339 45.3148 67.3961 47.1117 67.9478C52.2006 69.5377 57.4954 70.3629 62.8244 70.3964V70.3964Z"
          fill="url(#paint20_linear_26_3508)"/>
    <path style="mix-blend-mode:multiply" opacity="0.55"
          d="M73.9999 55.8379C71.9105 61.762 67.9957 66.862 62.8244 70.3966C61.773 71.119 60.6745 71.7696 59.5362 72.3439C54.894 74.6928 49.7143 75.7602 44.5269 75.4367C39.3395 75.1133 34.3308 73.4106 30.013 70.503C27.2327 68.6268 24.7908 66.2881 22.7922 63.5874C22.3509 63.0019 21.9448 62.3986 21.5564 61.7776C29.0597 64.417 35.8082 65.6856 41.8594 65.9651C56.5835 66.6438 67.0881 61.4138 73.9999 55.8379Z"
          fill="url(#paint21_linear_26_3508)"/>
    <path d="M29.2846 22.0312C29.2711 22.0463 29.2545 22.0584 29.2361 22.0667L29.2846 22.0312Z"
          fill="url(#paint22_linear_26_3508)"/>
    <path
      d="M77.2616 48.2031C76.732 47.9769 76.1891 47.7595 75.633 47.5289C75.6109 47.9192 75.5844 48.3052 75.5491 48.6866C80.7396 50.7937 83.7277 52.8032 83.4408 54.3114C83.1539 55.8196 79.4994 56.6048 73.7307 56.6048C66.7703 56.6048 56.7115 55.518 45.664 53.3843C33.8044 51.0998 23.4454 48.1188 17.0323 45.3641C12.5127 43.4212 9.97043 41.5892 10.222 40.183C10.4736 38.7768 13.4131 38.0626 18.1667 37.9207L18.2196 37.7388C18.2858 37.5126 18.3565 37.2952 18.4271 37.0557C11.2195 37.3085 6.88526 38.6171 6.51009 40.6842C6.09962 42.8357 9.97043 45.8255 17.1339 48.8774L17.2045 48.9084C24.6107 52.0535 34.6915 54.9457 45.6022 57.0484C55.2858 58.9159 64.5811 59.9672 72.1814 60.0603C73.1701 60.0603 74.1264 60.0603 75.0503 60.0603C82.8317 59.8918 87.5279 58.5566 87.9428 56.4051C88.3576 54.2537 84.425 51.255 77.2616 48.2031Z"
      fill="url(#paint23_linear_26_3508)"/>
    <path
      d="M75.6682 45.9317V46.016C75.6682 46.2733 75.6682 46.535 75.6682 46.7923C76.3082 47.0496 76.9349 47.3024 77.5396 47.5641C82.9199 49.8531 89.1962 53.2687 88.5738 56.5247C87.9515 59.7807 80.8631 60.619 75.0238 60.7433C74.45 60.7433 73.8586 60.7433 73.2583 60.7433C72.764 60.7433 72.2608 60.7433 71.7532 60.7433C64.1837 60.6146 54.9812 59.5633 45.4211 57.718C34.6385 55.6419 24.6768 52.7941 17.2441 49.6845L16.8027 49.5071C11.4268 47.2137 5.14616 43.8025 5.76849 40.5421C6.36875 37.4369 12.9275 36.5231 18.6168 36.3457C18.7359 35.9908 18.8639 35.6448 19.0007 35.2988C9.33476 35.4896 2.90842 37.2728 2.2905 40.5288C1.62403 43.9977 7.69727 48.367 17.6855 52.3461C24.9019 55.225 34.1662 57.8954 44.4016 59.8871C52.9846 61.5983 61.6955 62.5821 70.4424 62.8281C82.0371 63.0322 89.9686 61.2268 90.6615 57.5937C91.3103 54.1648 85.4136 49.8664 75.6682 45.9317Z"
      fill="url(#paint24_linear_26_3508)"/>
  </g>
  <defs>
    <radialGradient id="paint0_radial_26_3508" cx="0" cy="0" r="1" gradientUnits="userSpaceOnUse"
                    gradientTransform="translate(46.4761 46.0163) scale(34.1973 34.3695)">
      <stop stop-color="#F963BA"/>
      <stop offset="1" stop-color="#FF9CF6" stop-opacity="0"/>
    </radialGradient>
    <radialGradient id="paint1_radial_26_3508" cx="0" cy="0" r="1" gradientUnits="userSpaceOnUse"
                    gradientTransform="translate(48.4182 33.2678) scale(34.9741 35.1502)">
      <stop stop-color="#FBB6B6"/>
      <stop offset="1" stop-color="#ED3558"/>
    </radialGradient>
    <linearGradient id="paint2_linear_26_3508" x1="20.1263" y1="82.5862" x2="31.1003" y2="6.13973"
                    gradientUnits="userSpaceOnUse">
      <stop stop-color="#BD2B3B"/>
      <stop offset="1" stop-color="#E22B57" stop-opacity="0"/>
    </linearGradient>
    <linearGradient id="paint3_linear_26_3508" x1="4954.83" y1="2744.03" x2="4987.95" y2="1719.18"
                    gradientUnits="userSpaceOnUse">
      <stop stop-color="#BD2B3B"/>
      <stop offset="1" stop-color="#E22B57" stop-opacity="0"/>
    </linearGradient>
    <linearGradient id="paint4_linear_26_3508" x1="5288.56" y1="6617.68" x2="5431" y2="4089.2"
                    gradientUnits="userSpaceOnUse">
      <stop stop-color="#BD2B3B"/>
      <stop offset="1" stop-color="#E22B57" stop-opacity="0"/>
    </linearGradient>
    <linearGradient id="paint5_linear_26_3508" x1="3912.66" y1="3122.06" x2="3968.15" y2="1963.49"
                    gradientUnits="userSpaceOnUse">
      <stop stop-color="#BD2B3B"/>
      <stop offset="1" stop-color="#E22B57" stop-opacity="0"/>
    </linearGradient>
    <linearGradient id="paint6_linear_26_3508" x1="1620.39" y1="1538.45" x2="1653.55" y2="980.233"
                    gradientUnits="userSpaceOnUse">
      <stop stop-color="#BD2B3B"/>
      <stop offset="1" stop-color="#E22B57" stop-opacity="0"/>
    </linearGradient>
    <linearGradient id="paint7_linear_26_3508" x1="1162.71" y1="1463.2" x2="1194.94" y2="927.017"
                    gradientUnits="userSpaceOnUse">
      <stop stop-color="#BD2B3B"/>
      <stop offset="1" stop-color="#E22B57" stop-opacity="0"/>
    </linearGradient>
    <linearGradient id="paint8_linear_26_3508" x1="1109.98" y1="1586.64" x2="1148.94" y2="996.488"
                    gradientUnits="userSpaceOnUse">
      <stop stop-color="#BD2B3B"/>
      <stop offset="1" stop-color="#E22B57" stop-opacity="0"/>
    </linearGradient>
    <linearGradient id="paint9_linear_26_3508" x1="316.032" y1="592.429" x2="335.781" y2="387.057"
                    gradientUnits="userSpaceOnUse">
      <stop stop-color="#BD2B3B"/>
      <stop offset="1" stop-color="#E22B57" stop-opacity="0"/>
    </linearGradient>
    <linearGradient id="paint10_linear_26_3508" x1="624.214" y1="849.726" x2="649.616" y2="551.269"
                    gradientUnits="userSpaceOnUse">
      <stop stop-color="#BD2B3B"/>
      <stop offset="1" stop-color="#E22B57" stop-opacity="0"/>
    </linearGradient>
    <linearGradient id="paint11_linear_26_3508" x1="357.3" y1="664.063" x2="387.884" y2="441.547"
                    gradientUnits="userSpaceOnUse">
      <stop stop-color="#BD2B3B"/>
      <stop offset="1" stop-color="#E22B57" stop-opacity="0"/>
    </linearGradient>
    <linearGradient id="paint12_linear_26_3508" x1="3497.54" y1="2543.79" x2="3531.6" y2="1594.89"
                    gradientUnits="userSpaceOnUse">
      <stop stop-color="#BD2B3B"/>
      <stop offset="1" stop-color="#E22B57" stop-opacity="0"/>
    </linearGradient>
    <linearGradient id="paint13_linear_26_3508" x1="356.809" y1="762.646" x2="390.83" y2="503.959"
                    gradientUnits="userSpaceOnUse">
      <stop stop-color="#BD2B3B"/>
      <stop offset="1" stop-color="#E22B57" stop-opacity="0"/>
    </linearGradient>
    <linearGradient id="paint14_linear_26_3508" x1="219.212" y1="563.499" x2="249.29" y2="381.094"
                    gradientUnits="userSpaceOnUse">
      <stop stop-color="#BD2B3B"/>
      <stop offset="1" stop-color="#E22B57" stop-opacity="0"/>
    </linearGradient>
    <linearGradient id="paint15_linear_26_3508" x1="506.529" y1="1128.27" x2="545.474" y2="719.444"
                    gradientUnits="userSpaceOnUse">
      <stop stop-color="#BD2B3B"/>
      <stop offset="1" stop-color="#E22B57" stop-opacity="0"/>
    </linearGradient>
    <linearGradient id="paint16_linear_26_3508" x1="148.509" y1="670.829" x2="192.453" y2="436.733"
                    gradientUnits="userSpaceOnUse">
      <stop stop-color="#BD2B3B"/>
      <stop offset="1" stop-color="#E22B57" stop-opacity="0"/>
    </linearGradient>
    <linearGradient id="paint17_linear_26_3508" x1="1062.84" y1="2206.84" x2="1133.18" y2="1370.67"
                    gradientUnits="userSpaceOnUse">
      <stop stop-color="#BD2B3B"/>
      <stop offset="1" stop-color="#E22B57" stop-opacity="0"/>
    </linearGradient>
    <linearGradient id="paint18_linear_26_3508" x1="421.776" y1="1330.82" x2="516.857" y2="860.384"
                    gradientUnits="userSpaceOnUse">
      <stop stop-color="#BD2B3B"/>
      <stop offset="1" stop-color="#E22B57" stop-opacity="0"/>
    </linearGradient>
    <linearGradient id="paint19_linear_26_3508" x1="809.606" y1="1761.28" x2="910.051" y2="1132.48"
                    gradientUnits="userSpaceOnUse">
      <stop stop-color="#BD2B3B"/>
      <stop offset="1" stop-color="#E22B57" stop-opacity="0"/>
    </linearGradient>
    <linearGradient id="paint20_linear_26_3508" x1="7201.59" y1="15776.4" x2="7498.37" y2="13605.8"
                    gradientUnits="userSpaceOnUse">
      <stop stop-color="#BD2B3B"/>
      <stop offset="1" stop-color="#E22B57" stop-opacity="0"/>
    </linearGradient>
    <linearGradient id="paint21_linear_26_3508" x1="52.289" y1="76.8375" x2="46.9735" y2="55.8062"
                    gradientUnits="userSpaceOnUse">
      <stop stop-color="#A62B56"/>
      <stop offset="1" stop-color="#AE2B57" stop-opacity="0"/>
    </linearGradient>
    <linearGradient id="paint22_linear_26_3508" x1="29.289" y1="22.0135" x2="29.2357" y2="22.0842"
                    gradientUnits="userSpaceOnUse">
      <stop stop-color="#FAD1E2"/>
      <stop offset="1" stop-color="#F9DDF9" stop-opacity="0"/>
    </linearGradient>
    <linearGradient id="paint23_linear_26_3508" x1="42.8039" y1="64.0571" x2="49.9451" y2="38.9375"
                    gradientUnits="userSpaceOnUse">
      <stop stop-color="#FAB0B2"/>
      <stop offset="1" stop-color="#F2687D"/>
    </linearGradient>
    <linearGradient id="paint24_linear_26_3508" x1="14939.4" y1="11321.5" x2="15086.6" y2="9648.53"
                    gradientUnits="userSpaceOnUse">
      <stop stop-color="#FAB0B2"/>
      <stop offset="1" stop-color="#F2687D"/>
    </linearGradient>
    <clipPath id="clip0_26_3508">
      <rect width="93" height="93" fill="white"/>
    </clipPath>
  </defs>
</svg>
