<svg width="93" height="93" viewBox="0 0 93 93" fill="none" xmlns="http://www.w3.org/2000/svg">
  <g clip-path="url(#clip0_26_2766)">
    <path
      d="M42.7418 7.19245C12.1358 10.0995 -4.33613 46.5532 15.9395 71.4375C19.6188 75.9564 24.2525 79.6037 29.5078 82.1174C34.7631 84.6312 40.5094 85.949 46.3341 85.9761C52.1587 86.0032 57.9171 84.739 63.1955 82.2743C68.4739 79.8097 73.1414 76.2057 76.8626 71.7213V71.7213C99.0748 45.006 78.1466 3.81423 42.7418 7.19245Z"
      fill="url(#paint0_radial_26_2766)"/>
    <path
      d="M46.46 75.0944C41.3559 75.0949 36.3452 73.7245 31.9508 71.1264C27.5563 68.5282 23.9391 64.7975 21.4766 60.3234C10.7771 40.9053 25.5371 17.3327 47.0913 18.0287C54.5739 18.2307 61.6772 21.3685 66.8686 26.7652C72.0599 32.1618 74.9231 39.3847 74.8402 46.8751C74.7574 54.3656 71.7352 61.5232 66.4257 66.8035C61.1163 72.0839 53.9453 75.0636 46.46 75.0998V75.0944Z"
      fill="url(#paint1_radial_26_2766)"/>
    <g opacity="0.75">
      <path opacity="0.75"
            d="M57.7855 51.1676C56.5979 50.8731 56.2769 52.3454 56.9456 52.6774C57.6143 53.0093 59.2941 54.0211 59.6205 53.3519C59.9468 52.6827 59.1283 51.5049 57.7855 51.1676Z"
            fill="#168E19"/>
      <path opacity="0.75"
            d="M69.5281 38.7476C68.3833 39.0099 67.0084 39.5881 68.1853 40.4233C69.3623 41.2585 71.2026 40.9265 71.3952 39.92C71.5878 38.9135 71.7055 38.2443 69.5281 38.7476Z"
            fill="#168E19"/>
      <path opacity="0.75"
            d="M46.5456 65.7732C44.0847 64.2956 40.5057 63.7602 40.1687 65.27C39.8317 66.7797 42.1855 69.13 45.037 68.7981C47.8884 68.4662 48.2254 66.7797 46.5456 65.7732Z"
            fill="#168E19"/>
      <path opacity="0.75"
            d="M54.5702 73.9211C52.3089 74.5924 49.9724 74.9773 47.6155 75.0668C48.1505 71.5708 51.4887 72.6791 53.2648 73.1609C53.7548 73.3054 54.2026 73.5663 54.5702 73.9211V73.9211Z"
            fill="#168E19"/>
      <path opacity="0.75"
            d="M30.9456 65.6227C32.0156 66.0938 32.7913 63.7757 31.2773 61.7627C29.7634 59.7496 29.1 57.228 27.2543 56.7248C25.4086 56.2215 24.4029 62.7531 30.9456 65.6227Z"
            fill="#168E19"/>
      <path opacity="0.75"
            d="M23.563 57.3786C22.9692 57.4911 22.7231 58.7224 24.0659 58.8937C25.4087 59.0651 25.4087 57.0574 23.563 57.3786Z"
            fill="#168E19"/>
      <path opacity="0.75"
            d="M38.4942 50.4983C37.3119 50.3912 36.1456 51.0016 36.3115 52.3453C36.4773 53.6891 38.323 52.3453 39.1629 52.3453C40.0028 52.3453 40.3238 50.6643 38.4942 50.4983Z"
            fill="#168E19"/>
      <path opacity="0.75"
            d="M50.0658 34.8872C49.0493 34.4054 48.8942 36.5629 49.7341 36.9002C50.574 37.2375 52.9226 36.2257 50.0658 34.8872Z"
            fill="#168E19"/>
    </g>
    <path
      d="M39.3339 45.8145C33.6257 46.821 32.7911 46.987 27.5912 51.3556C24.1513 54.2413 20.5616 53.3098 18.5286 52.3461C17.5568 47.6051 17.8029 42.6949 19.2437 38.0751C20.6846 33.4552 23.2732 29.2767 26.7673 25.9307C27.9946 26.6335 29.0724 27.5702 29.9397 28.6878C32.4541 32.0446 31.9512 33.3884 39.3339 37.2539C46.7166 41.1193 45.0368 44.7919 39.3339 45.8145Z"
      fill="url(#paint2_linear_26_2766)"/>
    <path
      d="M72.235 34.3252C66.9708 33.2223 63.3865 39.1757 59.7968 38.7474C55.6026 38.2441 56.7795 32.0284 53.254 25.4861C51.494 22.2043 51.3656 19.9397 51.6812 18.4941C56.1131 19.3209 60.2862 21.1865 63.8588 23.9382C67.4314 26.6899 70.3019 30.2494 72.235 34.3252V34.3252Z"
      fill="url(#paint3_linear_26_2766)"/>
    <path
      d="M74.9795 46.5534C74.9812 51.8067 73.5335 56.9585 70.796 61.4409C68.0585 65.9234 64.1375 69.5624 59.4651 71.9569C57.3627 68.6322 60.7705 66.1695 64.8149 63.5944C69.849 60.3821 65.1519 59.0597 65.9865 53.8559C66.821 48.652 63.6379 48.3148 65.1519 43.9514C66.2219 40.8356 71.8284 43.7908 74.9527 45.7342C74.9741 46.0073 74.9795 46.2803 74.9795 46.5534Z"
      fill="url(#paint4_linear_26_2766)"/>
    <path
      d="M48.2252 55.2001C45.1759 56.1477 43.5282 52.5232 39.6656 53.353C35.8031 54.1829 32.62 61.0732 37.8199 60.9072C43.0199 60.7412 44.3627 60.0667 48.2252 62.7542C52.0878 65.4418 56.6083 63.5948 57.9511 59.3974C59.2939 55.2001 58.454 52.0092 48.2252 55.2001Z"
      fill="url(#paint5_linear_26_2766)"/>
    <path
      d="M54.5969 42.6027C52.992 43.1381 52.5854 43.9465 53.0883 44.953C53.5912 45.9595 55.6027 45.7935 56.6085 47.3033C57.6142 48.813 60.134 50.6601 60.8027 47.3033C61.4714 43.9465 58.2883 41.4302 54.5969 42.6027Z"
      fill="url(#paint6_linear_26_2766)"/>
    <path opacity="0.5"
          d="M48.7282 33.8754C48.4286 36.1186 46.3797 33.8754 43.02 33.2061C39.6604 32.5369 38.3229 30.5293 39.8369 29.1748C41.3509 27.8203 43.357 26.8245 45.3686 28.0023C47.3801 29.1801 49.0599 31.3591 48.7282 33.8754Z"
          fill="#168E19"/>
    <path
      d="M45.2027 20.6146C41.0085 20.6146 38.997 22.9649 35.1398 24.3087C34.2574 24.611 33.3112 24.6772 32.3953 24.5006C31.4794 24.3241 30.6256 23.911 29.9185 23.3022C34.7454 19.8544 40.5296 18.0048 46.4599 18.0127H47.0912C47.3908 19.2334 47.2785 20.6146 45.2027 20.6146Z"
      fill="url(#paint7_linear_26_2766)"/>
    <path style="mix-blend-mode:multiply" opacity="0.45"
          d="M73.6206 55.2852C71.2948 62.4993 66.2039 68.4952 59.4651 71.9568C55.7865 73.8491 51.7379 74.911 47.6046 75.0673C47.2248 75.0673 46.845 75.0941 46.4598 75.0941C41.8722 75.0897 37.3533 73.9787 33.2859 71.8553C29.2185 69.7318 25.7225 66.6585 23.0942 62.8956C20.4659 59.1328 18.7827 54.7913 18.1873 50.2391C17.5918 45.687 18.1016 41.0582 19.6735 36.7451C22.8834 46.3819 30.2821 58.8294 47.0643 61.1368C50.1086 61.5672 53.1917 61.6534 56.2552 61.3938C62.4663 60.8577 68.4404 58.7562 73.6206 55.2852Z"
          fill="url(#paint8_linear_26_2766)"/>
    <path style="mix-blend-mode:multiply" opacity="0.45"
          d="M74.9796 46.5536C74.9862 51.808 73.5405 56.9617 70.8025 61.4451C68.0645 65.9284 64.1408 69.5665 59.4653 71.9572C55.7867 73.8496 51.738 74.9114 47.6048 75.0677C47.225 75.0677 46.8451 75.0945 46.46 75.0945C41.3559 75.095 36.3452 73.7246 31.9507 71.1265C27.5563 68.5283 23.9391 64.7976 21.4766 60.3235C27.1382 62.5947 33.1567 63.8453 39.2538 64.0176C46.0106 64.2853 51.6171 63.2413 56.2607 61.3996C66.2434 57.4485 71.8072 49.8034 74.8244 43.5127C74.9047 44.2462 74.9528 44.9903 74.9742 45.7399C74.9742 46.0075 74.9796 46.2806 74.9796 46.5536Z"
          fill="url(#paint9_linear_26_2766)"/>
    <path style="mix-blend-mode:hard-light"
          d="M74.5943 41.8793C74.5943 41.8793 70.5338 26.9958 51.8685 22.0704C40.6767 19.1312 32.9089 21.7813 28.4846 24.3778C31.8395 21.6548 35.7684 19.7295 39.975 18.7472C44.1816 17.7648 48.5561 17.751 52.7688 18.7067C56.9815 19.6625 60.9225 21.5629 64.2945 24.2646C67.6665 26.9664 70.3816 30.399 72.235 34.3037C73.3741 36.7051 74.1684 39.2555 74.5943 41.8793V41.8793Z"
          fill="url(#paint10_linear_26_2766)"/>
    <path opacity="0.78"
          d="M20.3487 56.6621C20.1939 56.3605 20.0635 56.0508 19.925 55.7412C8.18181 63.0348 3.03959 67.6962 2.47728 69.7743C2.43856 69.8963 2.43856 70.0272 2.47728 70.1492L2.51802 70.2225C2.51802 70.3121 2.75436 70.3855 2.83586 70.4099C4.31903 70.8989 11.9794 71.0211 48.1134 52.0414C69.864 40.6323 84.6957 29.6471 88.7133 25.1486C88.8103 25.0238 88.8688 24.8735 88.8818 24.7159C88.8948 24.5584 88.8617 24.4005 88.7866 24.2615C88.7114 24.1225 88.5975 24.0082 88.4586 23.9328C88.3197 23.8574 88.1619 23.8239 88.0044 23.8366C85.0136 24.3256 79.1297 26.1266 70.63 29.6389C70.7522 29.8589 70.8908 30.0708 71.013 30.299C78.0296 27.4467 82.6258 26.1836 83.1555 27.186C84.2149 29.1988 68.4867 39.5648 47.9831 50.3463C27.4794 61.1279 10.0399 68.2259 8.98045 66.2212C8.33665 65.1373 12.8188 61.4783 20.3487 56.6621Z"
          fill="url(#paint2_linear_26_755)"/>
  </g>
  <defs>
    <radialGradient id="paint0_radial_26_2766" cx="0" cy="0" r="1" gradientUnits="userSpaceOnUse"
                    gradientTransform="translate(46.5027 46.4944) scale(34.078 34.1034)">
      <stop stop-color="#90DD6F"/>
      <stop offset="1" stop-color="#B8FFA9" stop-opacity="0"/>
    </radialGradient>
    <radialGradient id="paint1_radial_26_2766" cx="0" cy="0" r="1" gradientUnits="userSpaceOnUse"
                    gradientTransform="translate(47.8723 35.3856) scale(34.6076 34.6334)">
      <stop stop-color="#C3E533"/>
      <stop offset="1" stop-color="#1CC61C"/>
    </radialGradient>
    <linearGradient id="paint2_linear_26_2766" x1="27.7195" y1="2.55082" x2="34.272" y2="84.6392"
                    gradientUnits="userSpaceOnUse">
      <stop stop-color="#F2F236"/>
      <stop offset="1" stop-color="#F2F236" stop-opacity="0"/>
    </linearGradient>
    <linearGradient id="paint3_linear_26_2766" x1="12098" y1="2865.56" x2="12341.1" y2="5975.16"
                    gradientUnits="userSpaceOnUse">
      <stop stop-color="#F2F236"/>
      <stop offset="1" stop-color="#F2F236" stop-opacity="0"/>
    </linearGradient>
    <linearGradient id="paint4_linear_26_2766" x1="9541.98" y1="4154.75" x2="10185.4" y2="8592.52"
                    gradientUnits="userSpaceOnUse">
      <stop stop-color="#F2F236"/>
      <stop offset="1" stop-color="#F2F236" stop-opacity="0"/>
    </linearGradient>
    <linearGradient id="paint5_linear_26_2766" x1="12866.1" y1="1595.61" x2="12927.4" y2="3257.44"
                    gradientUnits="userSpaceOnUse">
      <stop stop-color="#F2F236"/>
      <stop offset="1" stop-color="#F2F236" stop-opacity="0"/>
    </linearGradient>
    <linearGradient id="paint6_linear_26_2766" x1="4619.05" y1="1014.91" x2="4691.46" y2="2071.39"
                    gradientUnits="userSpaceOnUse">
      <stop stop-color="#F2F236"/>
      <stop offset="1" stop-color="#F2F236" stop-opacity="0"/>
    </linearGradient>
    <linearGradient id="paint7_linear_26_2766" x1="9367.16" y1="964.877" x2="9397.99" y2="1979.98"
                    gradientUnits="userSpaceOnUse">
      <stop stop-color="#F2F236"/>
      <stop offset="1" stop-color="#F2F236" stop-opacity="0"/>
    </linearGradient>
    <linearGradient id="paint8_linear_26_2766" x1="42.1265" y1="83.4995" x2="46.4073" y2="44.4713"
                    gradientUnits="userSpaceOnUse">
      <stop stop-color="#168E26"/>
      <stop offset="1" stop-color="#168E26" stop-opacity="0.3"/>
    </linearGradient>
    <linearGradient id="paint9_linear_26_2766" x1="44.9995" y1="81.8242" x2="49.7892" y2="41.0347"
                    gradientUnits="userSpaceOnUse">
      <stop stop-color="#166F38"/>
      <stop offset="1" stop-color="#16653B" stop-opacity="0.3"/>
    </linearGradient>
    <linearGradient id="paint10_linear_26_2766" x1="67.1688" y1="2.2936" x2="49.199" y2="37.7032"
                    gradientUnits="userSpaceOnUse">
      <stop stop-color="#E2FFB5"/>
      <stop offset="1" stop-color="#FFFFB3" stop-opacity="0"/>
    </linearGradient>
    <linearGradient id="paint2_linear_26_755" x1="1.80224" y1="68.9488" x2="89.6981" y2="26.231"
                    gradientUnits="userSpaceOnUse">
      <stop stop-color="#C3E533"/>
      <stop offset="0.16" stop-color="#FFFFB3"/>
      <stop offset="0.44" stop-color="#168E26"/>
      <stop offset="0.82" stop-color="#F2F236"/>
      <stop offset="0.99" stop-color="#16653B"/>
    </linearGradient>

  </defs>
</svg>
