<svg width="93" height="93" viewBox="0 0 93 93" fill="none" xmlns="http://www.w3.org/2000/svg">
<g clip-path="url(#clip0_26_2298)">
<path d="M46.6582 70.1777C60.7147 70.1777 72.1097 58.9052 72.1097 45C72.1097 31.0947 60.7147 19.8223 46.6582 19.8223C32.6018 19.8223 21.2068 31.0947 21.2068 45C21.2068 58.9052 32.6018 70.1777 46.6582 70.1777Z" fill="#E7A993"/>
<g style="mix-blend-mode:multiply" opacity="0.66">
<g style="mix-blend-mode:multiply" opacity="0.66">
<path d="M24.2137 38.6337C26.5032 38.5662 28.7537 38.0304 30.8235 37.0601C31.332 36.8445 31.0269 36.126 30.5621 36.1044C28.5573 36.0182 26.6398 35.8817 24.6132 35.9679C24.0685 35.9679 23.4801 35.9679 22.8918 35.9679C22.5539 36.8246 22.2677 37.7004 22.0347 38.5906C22.7755 38.6696 23.5382 38.6409 24.2137 38.6337Z" fill="#B2AFFF"/>
</g>
<g style="mix-blend-mode:multiply" opacity="0.66">
<path d="M53.9511 27.0652C50.9636 30.4568 47.4233 33.33 43.477 35.5655C39.6843 37.7665 35.5367 39.3051 31.2162 40.1139C28.456 40.6097 24.679 41.1773 21.6283 40.466C21.5266 41.0121 21.4467 41.5653 21.3813 42.1258C23.2066 42.4728 25.0665 42.6078 26.9234 42.5282C32.3022 42.3663 37.5851 41.0781 42.4238 38.7486C47.3467 36.3956 51.7601 33.1182 55.4183 29.0986C57.0426 27.3462 58.4856 25.4373 59.7256 23.4006C58.9687 22.9501 58.1879 22.5399 57.3867 22.1719C56.4378 23.9296 55.2848 25.5718 53.9511 27.0652V27.0652Z" fill="#B2AFFF"/>
</g>
<g style="mix-blend-mode:multiply" opacity="0.66">
<path d="M36.8745 26.7483C39.3005 25.7711 43.4552 23.0119 44.2542 19.9365C43.3767 20.0167 42.5039 20.1414 41.6393 20.3102C41.5687 20.4739 41.4862 20.6324 41.3924 20.7844C40.3267 22.3357 38.8827 23.5961 37.194 24.449C35.3055 25.5124 31.9498 26.8633 29.2042 26.7124C28.8119 27.0788 28.4342 27.4309 28.071 27.8405C30.8167 28.6668 34.5138 27.6609 36.8745 26.7483Z" fill="#B2AFFF"/>
</g>
<g style="mix-blend-mode:multiply" opacity="0.66">
<path d="M31.2668 50.6906C37.7313 50.0655 43.7455 47.6512 49.4256 44.6333C54.6773 41.9748 59.3261 38.2855 63.0884 33.7905C64.3143 32.3076 65.4056 30.7207 66.3497 29.0481C65.0908 27.526 63.6548 26.1561 62.0715 24.9668C60.7497 27.1903 59.1807 29.2606 57.3937 31.1391C53.9338 34.6405 49.914 37.5537 45.4961 39.7616C40.92 42.1543 36.0535 44.159 30.8746 44.9279C28.331 45.2965 25.756 45.4072 23.1897 45.2584C22.5215 45.2225 21.8605 45.1506 21.2068 45.0788C21.2134 46.8596 21.4106 48.6347 21.7951 50.3744C24.9219 50.9168 28.1101 51.0232 31.2668 50.6906V50.6906Z" fill="#B2AFFF"/>
</g>
<g style="mix-blend-mode:multiply" opacity="0.66">
<path d="M71.4995 50.4751C71.6158 49.9721 71.7102 49.4691 71.7974 48.959C67.6404 52.2896 63.1499 55.1908 58.3961 57.6174C53.7326 60.0152 48.873 62.0198 43.869 63.61C40.375 64.7623 36.8082 65.6865 33.1917 66.3764C33.7655 66.7357 34.3611 67.095 34.964 67.3752C43.2807 66.1249 51.5248 62.7478 58.6721 58.9395C63.2105 56.5283 67.5058 53.694 71.4995 50.4751V50.4751Z" fill="#B2AFFF"/>
</g>
<g style="mix-blend-mode:multiply" opacity="0.66">
<path d="M45.8881 23.0194C43.8591 25.3728 41.3089 27.2316 38.4357 28.4516C34.4044 30.2695 29.7194 31.6132 25.2596 31.3258C24.9328 31.8216 24.6277 32.3245 24.3372 32.8419C29.2473 33.467 35.0364 31.7569 38.9441 30.1402C42.3973 28.8109 45.4571 26.6439 47.842 23.8386C48.7856 22.6774 49.5809 21.4055 50.2099 20.0518C49.4327 19.9441 48.641 19.865 47.8492 19.8291C47.3537 20.9801 46.6932 22.0546 45.8881 23.0194V23.0194Z" fill="#B2AFFF"/>
</g>
<g style="mix-blend-mode:multiply" opacity="0.66">
<path d="M55.9411 57.3589C61.9943 54.2671 67.4619 50.1638 72.1025 45.2299C72.1025 45.1509 72.1025 45.079 72.1025 45C72.1025 44.1808 72.0589 43.3689 71.9862 42.5713C70.5205 44.3011 68.9589 45.9491 67.3085 47.5077C63.9931 50.6014 60.3188 53.2956 56.3624 55.5338C52.094 57.8425 47.5538 59.6211 42.8449 60.8294C38.4868 61.9935 33.6347 63.33 29.0442 63.1575C29.48 63.5671 29.9303 63.9695 30.3952 64.3503C33.9253 64.4006 37.7241 63.3012 40.9419 62.5755C46.1412 61.4597 51.1798 59.7073 55.9411 57.3589V57.3589Z" fill="#B2AFFF"/>
</g>
<g style="mix-blend-mode:multiply" opacity="0.66">
<path d="M34.2157 60.9508C41.4289 59.9419 48.3838 57.5917 54.7134 54.0241C60.5257 50.9096 65.7858 46.8783 70.2865 42.0891C70.7659 41.5645 71.238 41.0256 71.6956 40.4795C71.1153 37.3199 69.9267 34.3 68.1946 31.584C66.8768 33.6417 65.3587 35.5669 63.6621 37.3323C59.7334 41.3154 55.2085 44.6768 50.2464 47.2985C45.1221 50.1623 39.5205 52.0946 33.7073 53.0037C30.5798 53.4431 27.4123 53.5323 24.2647 53.2696C23.7199 53.2265 23.1606 53.1546 22.6013 53.0828C23.6286 56.0744 25.2154 58.8483 27.279 61.2598C29.5959 61.3473 31.9162 61.2439 34.2157 60.9508V60.9508Z" fill="#B2AFFF"/>
</g>
<g style="mix-blend-mode:multiply" opacity="0.66">
<path d="M47.4573 27.0433C45.7504 28.2935 44.501 29.9175 42.5834 30.945C40.6659 31.9725 38.3052 32.5832 36.591 34.0203C35.7485 34.7389 36.6782 35.9245 37.6007 35.7376C39.9613 35.249 42.489 33.6251 44.5737 32.418C46.2661 31.4336 48.1473 29.824 48.4742 27.8193C48.5541 27.3091 48.0021 26.6481 47.4573 27.0433Z" fill="#B2AFFF"/>
</g>
</g>
<path d="M68.1512 36.2838C68.1487 36.1571 68.1172 36.0326 68.0591 35.9196C68.001 35.8066 67.9179 35.7081 67.8159 35.6314C67.7139 35.5547 67.5957 35.5018 67.4701 35.4767C67.3446 35.4515 67.2149 35.4548 67.0908 35.4862C64.7011 36.0683 62.6527 39.6394 61.1492 41.4573C58.9701 44.1087 56.0647 45.9554 53.2101 47.8739C53.1273 47.9275 53.0661 48.0083 53.0375 48.1021C53.0089 48.1959 53.0146 48.2967 53.0536 48.3868C53.0926 48.4768 53.1624 48.5504 53.2508 48.5946C53.3392 48.6388 53.4406 48.6507 53.537 48.6283C56.9291 47.6583 59.5004 45.4237 62.1879 43.2608C64.2725 41.5795 67.8897 39.0861 68.1512 36.2838Z" fill="#E79174"/>
<path d="M43.7093 38.6408C40.5304 40.2264 37.1337 41.3425 33.6275 41.9533C31.8261 42.2838 29.9957 42.5138 28.2089 42.6719C26.9378 42.7796 26.255 42.7221 25.3035 43.491C25.2581 43.5362 25.2238 43.5911 25.2033 43.6514C25.1827 43.7118 25.1764 43.776 25.1848 43.8391C25.1932 43.9022 25.2161 43.9626 25.2518 44.0156C25.2875 44.0686 25.335 44.1128 25.3906 44.1449C27.6205 45.5819 32.5597 44.2598 35.0221 43.6419C38.3772 42.8941 41.4921 41.3337 44.087 39.1007C44.3194 38.8636 43.9926 38.4971 43.7093 38.6408Z" fill="#E79174"/>
<g style="mix-blend-mode:multiply" opacity="0.63">
<g style="mix-blend-mode:multiply" opacity="0.63">
<path d="M53.8131 64.0053C53.4142 64.2706 53.0485 64.5818 52.7235 64.9322C52.3749 65.2987 52.8252 65.9597 53.2901 65.6508C53.6224 65.4224 53.9839 65.2387 54.3651 65.1047C54.7441 64.9402 55.0985 64.725 55.4183 64.4652C55.4863 64.4183 55.5378 64.3516 55.5658 64.2745C55.5938 64.1973 55.5968 64.1134 55.5744 64.0345C55.5521 63.9555 55.5055 63.8854 55.4411 63.8338C55.3767 63.7823 55.2976 63.7518 55.2149 63.7466C54.7314 63.66 54.2325 63.752 53.8131 64.0053V64.0053Z" fill="#E79174"/>
</g>
<g style="mix-blend-mode:multiply" opacity="0.63">
<path d="M55.0841 36.2836C54.2845 36.5705 53.5456 37.0017 52.9051 37.5554C52.1787 38.0943 51.4524 38.6548 50.6752 39.2153C50.5046 39.3191 50.3719 39.474 50.2962 39.6574C50.2205 39.8408 50.2056 40.0433 50.2539 40.2356C50.3244 40.4594 50.4739 40.6507 50.6752 40.7745C50.8144 40.8575 50.9738 40.9014 51.1364 40.9014C51.2989 40.9014 51.4584 40.8575 51.5976 40.7745C53.0503 39.7254 54.9316 38.5111 55.6216 36.7938C55.7233 36.4992 55.3674 36.2118 55.0841 36.2836Z" fill="#E79174"/>
</g>
<g style="mix-blend-mode:multiply" opacity="0.63">
<path d="M40.9062 45.4165C44.0971 45.0333 47.0841 43.6627 49.4408 41.5004C49.547 41.3856 49.6127 41.2397 49.6279 41.0848C49.6431 40.9299 49.607 40.7742 49.5251 40.6413C49.4431 40.5085 49.3198 40.4054 49.1736 40.3479C49.0275 40.2903 48.8663 40.2812 48.7145 40.322C45.7726 41.3446 43.036 42.8721 40.6302 44.8344C40.5817 44.8848 40.5497 44.9484 40.5385 45.017C40.5272 45.0856 40.5371 45.1559 40.5669 45.2188C40.5968 45.2818 40.6451 45.3343 40.7057 45.3696C40.7662 45.4048 40.8361 45.4212 40.9062 45.4165V45.4165Z" fill="#E79174"/>
</g>
<g style="mix-blend-mode:multiply" opacity="0.63">
<path d="M62.0716 47.8239C62.3476 47.479 62.1079 46.7676 61.5631 46.9688C58.7376 48.0394 56.3189 50.0442 53.6749 51.4813C50.5743 53.1821 47.3642 54.6799 44.0653 55.965C43.9921 56.0095 43.9357 56.0765 43.9048 56.1557C43.8738 56.2349 43.87 56.322 43.8939 56.4036C43.9179 56.4852 43.9682 56.5568 44.0372 56.6073C44.1062 56.6579 44.19 56.6847 44.2759 56.6835C47.5478 55.9123 50.7277 54.7995 53.7621 53.3638C56.6602 51.9771 60.045 50.3963 62.0716 47.8239Z" fill="#E79174"/>
</g>
<g style="mix-blend-mode:multiply" opacity="0.63">
<path d="M53.152 20.8858C51.9463 22.7396 50.3338 24.2414 49.0482 26.0305C48.6269 26.6125 49.4476 27.3742 50.0287 27.0005C52.1547 25.5229 53.8505 23.5182 54.9461 21.1875C54.4014 21.0007 53.8421 20.8355 53.2828 20.6846L53.152 20.8858Z" fill="#E79174"/>
</g>
<g style="mix-blend-mode:multiply" opacity="0.63">
<path d="M60.83 30.2984C59.7332 31.7355 58.3386 32.9283 57.2999 34.3653C56.9077 34.9043 57.6486 35.5366 58.1715 35.2348C61.1351 33.5462 63.009 29.8457 64.1131 26.677L63.503 26.1309C62.7372 27.5949 61.8428 28.9894 60.83 30.2984V30.2984Z" fill="#E79174"/>
</g>
<g style="mix-blend-mode:multiply" opacity="0.63">
<path d="M66.7641 55.6126C64.4034 57.1646 61.4181 58.2281 59.4134 60.2184C59.3086 60.3295 59.2384 60.4681 59.2111 60.6176C59.1839 60.7671 59.2008 60.9212 59.2598 61.0614C59.3188 61.2017 59.4174 61.3221 59.5439 61.4084C59.6703 61.4946 59.8192 61.543 59.9726 61.5477C63.0233 61.2891 65.936 59.155 68.3911 57.488C68.6017 57.3515 68.7979 57.2078 69.0012 57.0641C69.7911 55.6402 70.4382 54.1433 70.9333 52.5947C69.5751 53.651 68.1877 54.6713 66.7641 55.6126Z" fill="#E79174"/>
</g>
<g style="mix-blend-mode:multiply" opacity="0.63">
<path d="M39.4674 27.3598C41.1811 26.7172 42.7304 25.7086 44.0047 24.4057C45.2791 23.1028 46.2472 21.5378 46.8399 19.8223H46.6583C46.1281 19.8223 45.6123 19.8223 45.0894 19.8726C44.5777 20.9491 43.8934 21.9367 43.0629 22.797C41.7772 24.1335 40.1574 25.0892 38.988 26.5478C38.7193 26.8855 38.9444 27.5466 39.4674 27.3598Z" fill="#E79174"/>
</g>
<g style="mix-blend-mode:multiply" opacity="0.63">
<path d="M35.6035 33.6042C36.1338 33.2306 36.0103 32.2318 35.2403 32.2821C32.8652 32.433 30.5917 33.403 28.1875 33.6402C26.7539 33.7793 25.3126 33.8249 23.8729 33.7767C23.5969 34.33 23.3354 34.8976 23.0957 35.4724C27.3449 36.0113 32.364 35.8604 35.6035 33.6042Z" fill="#E79174"/>
</g>
<g style="mix-blend-mode:multiply" opacity="0.63">
<path d="M50.247 66.5347C50.8934 65.9886 50.1671 65.1767 49.5206 65.2701C47.2181 65.615 45.0245 66.9084 42.7655 67.5622C41.2692 67.9934 39.773 68.3958 38.2549 68.755C39.4387 69.1696 40.6528 69.4939 41.8867 69.7251C44.9882 69.258 48.0679 68.3383 50.247 66.5347Z" fill="#E79174"/>
</g>
<g style="mix-blend-mode:multiply" opacity="0.63">
<path d="M33.6934 56.3024C36.6022 55.8326 39.4773 55.1774 42.3007 54.3408C44.5669 53.6222 47.6031 52.9037 48.9977 50.8918C49.0489 50.7862 49.0732 50.6698 49.0686 50.5527C49.0639 50.4357 49.0304 50.3216 48.971 50.2203C48.9115 50.119 48.828 50.0336 48.7276 49.9715C48.6271 49.9095 48.5129 49.8726 48.3948 49.8643C46.2157 49.9577 44.211 51.3373 42.1336 52.0199C39.6078 52.7945 37.0366 53.416 34.4343 53.8809C30.7097 54.6062 26.9054 54.8478 23.1177 54.5995C23.4696 55.4404 23.8648 56.263 24.3016 57.0641C27.4521 57.1975 30.607 56.9416 33.6934 56.3024V56.3024Z" fill="#E79174"/>
</g>
<g style="mix-blend-mode:multiply" opacity="0.63">
<path d="M38.5089 21.1445C36.1801 21.9191 33.9779 23.0253 31.9717 24.4283C33.3351 24.5097 34.6966 24.2399 35.9231 23.6451C37.0043 23.0671 37.9002 22.2008 38.5089 21.1445Z" fill="#E79174"/>
</g>
</g>
<g style="mix-blend-mode:multiply" opacity="0.36">
<path d="M46.6729 19.8224C47.618 20.2932 48.34 21.1105 48.685 22.1001C48.92 23.0322 48.8999 24.0093 48.6268 24.9312C47.7262 28.5239 45.0532 31.355 43.6295 34.7537C43.2373 35.7021 42.9613 36.859 43.5642 37.6925C44.167 38.526 45.1912 38.6194 46.1354 38.641C50.4936 38.7488 54.7137 37.1464 59.0573 36.9165C61.1419 36.8015 63.4154 37.0674 64.9916 38.3536C66.1348 39.4194 66.9911 40.7506 67.483 42.2265C68.5351 44.8163 69.3069 47.5091 69.7855 50.2598C69.9962 51.4885 70.1632 52.7316 70.4465 53.9387C71.9209 50.1278 72.4357 46.0192 71.9465 41.9675C71.4574 37.9158 69.979 34.0426 67.6389 30.6823C65.2988 27.322 62.1673 24.5755 58.5146 22.6797C54.8619 20.784 50.7978 19.7959 46.6729 19.8008V19.8224Z" fill="#E7A993"/>
</g>
<g style="mix-blend-mode:multiply" opacity="0.36">
<path d="M46.6582 70.1781C51.4314 70.1831 56.1092 68.8557 60.1539 66.3483C59.7108 66.2692 59.2677 66.183 58.8319 66.0752C57.8073 65.8913 56.85 65.4426 56.0572 64.7747C54.5174 63.2873 54.7425 60.7293 55.6795 58.818C56.6165 56.9066 58.1201 55.2827 58.9554 53.3211C59.2081 52.8267 59.2946 52.2653 59.2023 51.7188C58.8828 50.4542 57.2194 50.1667 55.9047 50.2242C53.2046 50.3459 50.5361 50.8492 47.9802 51.7188C46.9317 52.1488 45.834 52.4504 44.7116 52.617C44.1484 52.6925 43.5752 52.6326 43.0404 52.4425C42.5055 52.2524 42.0249 51.9376 41.6391 51.5248C40.8256 50.526 40.7312 48.8734 39.5254 48.3991C38.9561 48.2327 38.3479 48.2503 37.7894 48.4494C33.5548 49.52 29.1822 51.999 25.1 50.4398C23.463 49.7798 22.1148 48.5683 21.2939 47.0195C21.8003 53.3287 24.6928 59.2171 29.3942 63.5097C34.0956 67.8023 40.2603 70.1835 46.6582 70.1781V70.1781Z" fill="#E7A993"/>
</g>
<g style="mix-blend-mode:multiply" opacity="0.15">
<path d="M60.815 24.0693C61.8799 28.9721 61.4411 34.0777 59.5547 38.7321C57.6683 43.3866 54.4203 47.3781 50.2267 50.1952C46.033 53.0124 41.0848 54.5269 36.0156 54.5449C30.9465 54.5629 25.9874 53.0834 21.7734 50.2961C22.661 54.3129 24.5305 58.0531 27.2184 61.1893C29.9062 64.3254 33.3303 66.7618 37.1909 68.2851C41.0514 69.8084 45.2306 70.3721 49.3625 69.9268C53.4944 69.4816 57.4529 68.0409 60.8913 65.7311C64.3298 63.4213 67.1433 60.3127 69.0855 56.6776C71.0277 53.0425 72.0393 48.9918 72.0318 44.8802C72.0243 40.7686 70.9978 36.7215 69.0423 33.0934C67.0868 29.4653 64.2619 26.3668 60.815 24.0693V24.0693Z" fill="#E7A993"/>
</g>
<g style="mix-blend-mode:multiply" opacity="0.15">
<path d="M63.5683 26.2246C66.21 31.4645 66.9206 37.4521 65.5776 43.1548C64.2346 48.8574 60.9221 53.9178 56.2115 57.4633C51.5008 61.0087 45.6872 62.817 39.7731 62.5763C33.8591 62.3356 28.2153 60.061 23.8149 56.1447C25.4844 59.4562 27.872 62.3623 30.8074 64.656C33.7428 66.9496 37.1537 68.5742 40.7968 69.4138C44.4399 70.2534 48.2254 70.2874 51.8833 69.5132C55.5412 68.7391 58.9813 67.176 61.9583 64.9354C64.9353 62.6948 67.3757 59.8319 69.1056 56.551C70.8355 53.27 71.8121 49.6519 71.9659 45.9546C72.1197 42.2573 71.4468 38.572 69.9952 35.1615C68.5436 31.7511 66.3491 28.6996 63.5683 26.2246V26.2246Z" fill="#E7A993"/>
</g>
<g style="mix-blend-mode:screen" opacity="0.45">
<path d="M63.4079 26.0521C58.7772 22.028 52.8218 19.813 46.6582 19.8223C45.185 19.8243 43.7148 19.9517 42.2637 20.2031H42.1185C41.6342 20.2893 41.15 20.39 40.6658 20.5049H40.6076C39.1139 20.8524 37.6552 21.3334 36.2495 21.942L36.1115 22.0067C35.6902 22.2007 35.2689 22.4019 34.8549 22.6174L34.775 22.6534C33.4523 23.3429 32.1933 24.146 31.0125 25.0533L30.8818 25.1611C30.5258 25.4341 30.1554 25.7215 29.8358 26.0161L29.7487 26.088C28.9999 26.7472 28.2894 27.4477 27.6204 28.1861C27.3008 28.5454 26.9885 28.9047 26.6907 29.2783L26.5817 29.422C26.3057 29.7669 26.037 30.1406 25.7828 30.4855L25.7029 30.5932C21.8995 36.0048 20.3957 42.6772 21.515 49.1745C22.6343 55.6719 26.2874 61.4749 31.688 65.3347C27.3877 61.6209 24.476 56.5833 23.4219 51.0333C22.3679 45.4833 23.2327 39.7439 25.8772 34.7392C27.6481 36.0741 29.7608 36.893 31.9771 37.1035C34.1934 37.3139 36.425 36.9077 38.4203 35.9304C40.4156 34.9532 42.0952 33.444 43.2697 31.5729C44.4442 29.7017 45.0669 27.5432 45.0675 25.3407C45.0672 24.0393 44.8463 22.7471 44.4137 21.5181C47.716 20.9939 51.0904 21.1195 54.3436 21.8877C57.5967 22.6558 60.6646 24.0515 63.3716 25.9946L63.4079 26.0521Z" fill="#E7A993"/>
</g>
<g style="mix-blend-mode:screen" opacity="0.25">
<path d="M22.1367 38.2525C24.7936 41.4959 28.5588 43.6649 32.7215 44.3501C36.8843 45.0352 41.1566 44.1891 44.732 41.9715C48.3073 39.7539 50.9383 36.3182 52.1282 32.313C53.3182 28.3077 52.9847 24.0102 51.1909 20.2315C44.9482 19.1065 38.5058 20.3316 33.1297 23.6662C27.7536 27.0007 23.8325 32.2036 22.1367 38.2525V38.2525Z" fill="#E7A993"/>
</g>
<path style="mix-blend-mode:multiply" opacity="0.76" d="M46.6582 70.1777C60.7147 70.1777 72.1097 58.9052 72.1097 45C72.1097 31.0947 60.7147 19.8223 46.6582 19.8223C32.6018 19.8223 21.2068 31.0947 21.2068 45C21.2068 58.9052 32.6018 70.1777 46.6582 70.1777Z" fill="url(#paint0_linear_26_2298)"/>
<g opacity="0.72">
<path opacity="0.72" d="M23.9456 56.4033C23.8076 56.1375 23.6914 55.8644 23.5606 55.5914C13.1011 62.0151 8.51055 66.1252 7.98032 67.9575C7.9382 68.0637 7.9382 68.1818 7.98032 68.288V68.3599C8.0239 68.4389 8.19822 68.5036 8.26359 68.5251C9.59282 68.9562 16.4205 69.064 48.6198 52.322C68.0062 42.2624 81.2259 32.5837 84.814 28.6101C84.8987 28.4995 84.9491 28.367 84.9593 28.2286C84.9694 28.0902 84.9389 27.9519 84.8713 27.8303C84.8037 27.7087 84.702 27.6091 84.5784 27.5435C84.4548 27.4778 84.3146 27.449 84.1749 27.4605C81.5164 27.8916 76.2721 29.4796 68.689 32.5765C68.8052 32.7705 68.9287 32.9573 69.0304 33.1585C75.2843 30.6436 79.3882 29.5299 79.8603 30.4137C80.8046 32.1885 66.7859 41.3283 48.5109 50.8274C30.2358 60.3265 14.6918 66.5994 13.7476 64.8246C13.2391 63.8474 17.2268 60.6571 23.9456 56.4033Z" fill="url(#paint1_linear_26_2298)"/>
<path opacity="0.72" d="M67.2364 30.3059C67.3453 30.4568 67.447 30.6149 67.556 30.773C77.2165 26.7923 84.3783 24.6869 86.6228 25.4199C86.9657 25.5117 87.2717 25.7058 87.4992 25.9758C87.7266 26.2458 87.8644 26.5786 87.8939 26.9288C87.9592 27.6473 88.1481 29.8748 76.541 38.0375C67.9255 43.9874 58.9288 49.3782 49.6077 54.1759C45.4385 56.3315 40.9859 58.5877 36.5915 60.7074C23.8948 66.8079 11.6049 71.8089 7.61721 70.5084C7.29793 70.4186 7.00024 70.266 6.7419 70.0598C6.48357 69.8537 6.2699 69.5981 6.11366 69.3084C5.95866 69.0154 5.86466 68.6947 5.83721 68.3652C5.80976 68.0356 5.84943 67.704 5.95386 67.3899C6.91265 64.1133 14.3723 58.7674 22.7544 53.6585C22.7108 53.5364 22.66 53.4214 22.6164 53.2993C8.55421 62.0655 -0.249212 69.5455 1.14539 72.1682C3.14286 75.9118 25.2894 68.2665 50.6101 55.0813C75.9308 41.896 94.8524 28.1719 92.8622 24.4211C91.5329 21.9134 81.3422 24.4714 67.2364 30.3059Z" fill="url(#paint2_linear_26_2298)"/>
<path opacity="0.72" d="M73.8535 32.8427C74.0569 32.8427 72.9528 34.0858 72.9238 34.1217C72.4395 34.5442 71.9301 34.9377 71.3984 35.3001C70.0183 36.3205 68.5802 37.2833 67.1129 38.1743C65.0501 39.4677 62.7548 40.5167 60.9026 42.0688C60.692 42.2484 60.9026 42.5215 61.1568 42.4425C65.5658 40.9479 70.4832 37.621 73.8825 34.4594C74.3692 34.0139 75.1827 33.3673 74.805 32.6128C74.7691 32.5025 74.7068 32.4024 74.6234 32.3211C74.54 32.2397 74.4379 32.1795 74.3259 32.1457C74.2139 32.1118 74.0952 32.1052 73.9801 32.1265C73.865 32.1478 73.7567 32.1963 73.6646 32.2679C73.6041 32.3028 73.5576 32.3573 73.5329 32.4221C73.5082 32.487 73.5068 32.5583 73.5289 32.624C73.5511 32.6898 73.5954 32.746 73.6545 32.7832C73.7136 32.8204 73.7839 32.8363 73.8535 32.8284V32.8427Z" fill="url(#paint3_linear_26_2298)"/>
<path opacity="0.72" d="M90.4145 30.0324C83.9282 37.3112 75.0013 41.3495 67.4545 47.3277C67.4076 47.3645 67.3762 47.4173 67.3666 47.4757C67.357 47.5341 67.3699 47.594 67.4027 47.6436C67.4354 47.6931 67.4858 47.7287 67.5438 47.7434C67.6017 47.7581 67.6632 47.7508 67.716 47.7229C72.3283 45.3589 76.6574 42.1758 80.9429 39.2657C84.2623 37.0095 89.3904 34.279 90.9012 30.3486C90.9956 30.0899 90.6179 29.7953 90.4145 30.0324V30.0324Z" fill="url(#paint4_linear_26_2298)"/>
<path opacity="0.72" d="M63.0746 49.7499C59.8714 51.5031 56.058 53.0336 53.2107 55.3186C53.1788 55.3482 53.1574 55.3873 53.1497 55.43C53.142 55.4726 53.1484 55.5166 53.168 55.5553C53.1875 55.5941 53.2192 55.6255 53.2584 55.645C53.2975 55.6645 53.3419 55.671 53.3851 55.6635C56.8933 54.7438 60.358 52.2864 63.3579 50.3247C63.6847 50.1092 63.4451 49.5487 63.0746 49.7499Z" fill="url(#paint5_linear_26_2298)"/>
<path opacity="0.72" d="M40.8045 61.282C35.6183 64.0053 30.0545 66.125 24.9482 68.956C24.6722 69.1069 24.7957 69.5883 25.137 69.5093C30.7808 68.1872 36.0324 64.5585 41.0297 61.7419C41.3202 61.5766 41.1023 61.1239 40.8045 61.282Z" fill="url(#paint6_linear_26_2298)"/>
<path opacity="0.72" d="M18.2294 61.3689C17.3868 61.4552 16.29 62.9785 17.198 63.6395C17.6556 63.9773 18.3529 63.6755 18.8105 63.5318C19.7267 63.3287 20.5808 62.9124 21.3019 62.3174C21.3384 62.2838 21.363 62.2394 21.3721 62.1908C21.3812 62.1423 21.3742 62.0921 21.3522 62.0478C21.3302 62.0034 21.2943 61.9673 21.2499 61.9447C21.2056 61.9221 21.155 61.9142 21.1057 61.9222C20.3876 62.07 19.6884 62.2965 19.0211 62.5976C18.7524 62.6911 17.9461 63.1294 17.7427 62.7414C17.6192 62.4899 18.2149 61.8288 18.3892 61.6851C18.5635 61.5414 18.3892 61.3546 18.2294 61.3689Z" fill="url(#paint7_linear_26_2298)"/>
<path opacity="0.72" d="M1.78431 73.9718C3.11354 74.8987 5.49598 75.0568 6.78889 73.9718C6.81321 73.9453 6.82967 73.9127 6.83644 73.8776C6.84321 73.8424 6.84003 73.8062 6.82725 73.7727C6.81447 73.7392 6.7926 73.7099 6.76404 73.688C6.73548 73.6661 6.70134 73.6524 6.66541 73.6484C5.9308 73.7574 5.20321 73.9085 4.48635 74.1011C3.62037 74.2358 2.7335 74.0975 1.95137 73.7059C1.91304 73.6868 1.86894 73.6824 1.82753 73.6935C1.78611 73.7046 1.75028 73.7304 1.7269 73.766C1.70352 73.8016 1.69422 73.8445 1.70079 73.8864C1.70736 73.9283 1.72934 73.9664 1.76252 73.9933L1.78431 73.9718Z" fill="url(#paint8_linear_26_2298)"/>
<path opacity="0.72" d="M7.07238 68.7196C7.55938 69.3315 8.26339 69.7373 9.04166 69.8547C9.81992 69.9721 10.6142 69.7924 11.2634 69.3519C11.2913 69.3351 11.3126 69.3094 11.3239 69.2792C11.3352 69.2489 11.3359 69.2157 11.3258 69.185C11.3158 69.1543 11.2955 69.1278 11.2684 69.1099C11.2413 69.0919 11.2088 69.0835 11.1763 69.0861C9.72358 69.2801 8.39435 69.5747 7.16681 68.6118C7.09417 68.5543 7.0288 68.655 7.07238 68.7196V68.7196Z" fill="url(#paint9_linear_26_2298)"/>
<path opacity="0.72" d="M12.8396 69.3802C15.1712 68.906 18.0693 68.482 20.1031 67.2246C20.2847 67.1096 20.292 66.7576 20.016 66.7648C17.59 66.7648 14.9315 68.0078 12.6725 68.9204C12.382 69.0353 12.5418 69.5024 12.8469 69.4377L12.8396 69.3802Z" fill="url(#paint10_linear_26_2298)"/>
<path opacity="0.72" d="M21.2436 52.5739C18.9677 53.4367 16.8686 54.7002 15.0478 56.3031C14.8154 56.5043 15.0478 56.9067 15.3456 56.763C17.507 55.6692 19.5449 54.3517 21.4252 52.8325C21.5705 52.7104 21.4252 52.5164 21.2436 52.5739V52.5739Z" fill="url(#paint11_linear_26_2298)"/>
<path opacity="0.72" d="M80.1654 27.1659C81.2587 26.9503 82.3651 26.8063 83.4776 26.7348C83.969 26.6996 84.4627 26.7606 84.9303 26.9144C85.555 27.1731 85.6566 27.6976 85.9472 28.1934C85.9616 28.2227 85.9826 28.2483 86.0085 28.2684C86.0344 28.2884 86.0645 28.3025 86.0967 28.3094C86.1288 28.3163 86.1621 28.3159 86.1941 28.3083C86.2261 28.3006 86.2559 28.2859 86.2813 28.2653C87.2837 27.3815 85.7583 26.2174 84.923 26.0019C83.2379 25.5636 81.5527 26.1743 80.0274 26.821C79.8313 26.9 79.9402 27.1946 80.1436 27.1659H80.1654Z" fill="url(#paint12_linear_26_2298)"/>
<path opacity="0.72" d="M85.4607 29.1633C85.2354 29.2642 85.0457 29.4293 84.9159 29.6375C84.7677 29.8275 84.6657 30.0488 84.6181 30.2842C84.6167 30.3201 84.6232 30.356 84.6374 30.3891C84.6515 30.4222 84.6729 30.4519 84.6999 30.4759C84.727 30.4999 84.7591 30.5177 84.7939 30.5281C84.8287 30.5384 84.8654 30.541 84.9014 30.5357C85.1549 30.4459 85.3744 30.2813 85.5303 30.0642C85.6862 29.847 85.7709 29.5877 85.773 29.3214C85.773 29.1705 85.5769 29.1202 85.4607 29.1633V29.1633Z" fill="url(#paint13_linear_26_2298)"/>
</g>
</g>
<defs>
<linearGradient id="paint0_linear_26_2298" x1="28.6592" y1="27.1945" x2="64.268" y2="63.1905" gradientUnits="userSpaceOnUse">
<stop stop-color="#408814"/>
<stop offset="0.11" stop-color="#274F14"/>
<stop offset="0.3" stop-color="#99C124"/>
<stop offset="0.56" stop-color="#577B29"/>
<stop offset="0.87" stop-color="#184F21"/>
<stop offset="1" stop-color="#03061B"/>
</linearGradient>
<linearGradient id="paint1_linear_26_2298" x1="7.41142" y1="67.2334" x2="85.4276" y2="28.9049" gradientUnits="userSpaceOnUse">
<stop stop-color="#186311"/>
<stop offset="0.15" stop-color="#329C28"/>
<stop offset="0.42" stop-color="#41A438"/>
<stop offset="0.77" stop-color="#30CD6F"/>
<stop offset="0.99" stop-color="#748B6F"/>
</linearGradient>
<linearGradient id="paint2_linear_26_2298" x1="15950.1" y1="14029.5" x2="29070" y2="14029.5" gradientUnits="userSpaceOnUse">
<stop stop-color="#FFB6A0"/>
<stop offset="0.15" stop-color="#F3ACA1"/>
<stop offset="0.42" stop-color="#D293A5"/>
<stop offset="0.77" stop-color="#9E6BAB"/>
<stop offset="0.99" stop-color="#7A4FAF"/>
</linearGradient>
<linearGradient id="paint3_linear_26_2298" x1="3803.65" y1="2933" x2="4120.15" y2="2933" gradientUnits="userSpaceOnUse">
<stop stop-color="#FFB6A0"/>
<stop offset="0.15" stop-color="#F3ACA1"/>
<stop offset="0.42" stop-color="#D293A5"/>
<stop offset="0.77" stop-color="#9E6BAB"/>
<stop offset="0.99" stop-color="#7A4FAF"/>
</linearGradient>
<linearGradient id="paint4_linear_26_2298" x1="6441.39" y1="5180.36" x2="7360.89" y2="5180.36" gradientUnits="userSpaceOnUse">
<stop stop-color="#FFB6A0"/>
<stop offset="0.15" stop-color="#F3ACA1"/>
<stop offset="0.42" stop-color="#D293A5"/>
<stop offset="0.77" stop-color="#9E6BAB"/>
<stop offset="0.99" stop-color="#7A4FAF"/>
</linearGradient>
<linearGradient id="paint5_linear_26_2298" x1="2625.26" y1="1803.3" x2="2786.23" y2="1803.3" gradientUnits="userSpaceOnUse">
<stop stop-color="#FFB6A0"/>
<stop offset="0.15" stop-color="#F3ACA1"/>
<stop offset="0.42" stop-color="#D293A5"/>
<stop offset="0.77" stop-color="#9E6BAB"/>
<stop offset="0.99" stop-color="#7A4FAF"/>
</linearGradient>
<linearGradient id="paint6_linear_26_2298" x1="3376.39" y1="2501.34" x2="3774.34" y2="2501.34" gradientUnits="userSpaceOnUse">
<stop stop-color="#FFB6A0"/>
<stop offset="0.15" stop-color="#F3ACA1"/>
<stop offset="0.42" stop-color="#D293A5"/>
<stop offset="0.77" stop-color="#9E6BAB"/>
<stop offset="0.99" stop-color="#7A4FAF"/>
</linearGradient>
<linearGradient id="paint7_linear_26_2298" x1="915.018" y1="746.367" x2="939.785" y2="746.367" gradientUnits="userSpaceOnUse">
<stop stop-color="#FFB6A0"/>
<stop offset="0.15" stop-color="#F3ACA1"/>
<stop offset="0.42" stop-color="#D293A5"/>
<stop offset="0.77" stop-color="#9E6BAB"/>
<stop offset="0.99" stop-color="#7A4FAF"/>
</linearGradient>
<linearGradient id="paint8_linear_26_2298" x1="891.945" y1="384.474" x2="922.843" y2="384.474" gradientUnits="userSpaceOnUse">
<stop stop-color="#FFB6A0"/>
<stop offset="0.15" stop-color="#F3ACA1"/>
<stop offset="0.42" stop-color="#D293A5"/>
<stop offset="0.77" stop-color="#9E6BAB"/>
<stop offset="0.99" stop-color="#7A4FAF"/>
</linearGradient>
<linearGradient id="paint9_linear_26_2298" x1="788.405" y1="437.561" x2="808.923" y2="437.561" gradientUnits="userSpaceOnUse">
<stop stop-color="#FFB6A0"/>
<stop offset="0.15" stop-color="#F3ACA1"/>
<stop offset="0.42" stop-color="#D293A5"/>
<stop offset="0.77" stop-color="#9E6BAB"/>
<stop offset="0.99" stop-color="#7A4FAF"/>
</linearGradient>
<linearGradient id="paint10_linear_26_2298" x1="1474.97" y1="838.58" x2="1553.95" y2="838.58" gradientUnits="userSpaceOnUse">
<stop stop-color="#FFB6A0"/>
<stop offset="0.15" stop-color="#F3ACA1"/>
<stop offset="0.42" stop-color="#D293A5"/>
<stop offset="0.77" stop-color="#9E6BAB"/>
<stop offset="0.99" stop-color="#7A4FAF"/>
</linearGradient>
<linearGradient id="paint11_linear_26_2298" x1="1323.13" y1="1204.77" x2="1387.59" y2="1204.77" gradientUnits="userSpaceOnUse">
<stop stop-color="#FFB6A0"/>
<stop offset="0.15" stop-color="#F3ACA1"/>
<stop offset="0.42" stop-color="#D293A5"/>
<stop offset="0.77" stop-color="#9E6BAB"/>
<stop offset="0.99" stop-color="#7A4FAF"/>
</linearGradient>
<linearGradient id="paint12_linear_26_2298" x1="2076.63" y1="708.895" x2="2125.17" y2="708.895" gradientUnits="userSpaceOnUse">
<stop stop-color="#FFB6A0"/>
<stop offset="0.15" stop-color="#F3ACA1"/>
<stop offset="0.42" stop-color="#D293A5"/>
<stop offset="0.77" stop-color="#9E6BAB"/>
<stop offset="0.99" stop-color="#7A4FAF"/>
</linearGradient>
<linearGradient id="paint13_linear_26_2298" x1="433.945" y1="420.653" x2="435.701" y2="420.653" gradientUnits="userSpaceOnUse">
<stop stop-color="#FFB6A0"/>
<stop offset="0.15" stop-color="#F3ACA1"/>
<stop offset="0.42" stop-color="#D293A5"/>
<stop offset="0.77" stop-color="#9E6BAB"/>
<stop offset="0.99" stop-color="#7A4FAF"/>
</linearGradient>
<clipPath id="clip0_26_2298">
<rect width="92" height="82" fill="white" transform="translate(1 4)"/>
</clipPath>
</defs>
</svg>
