<svg width="93" height="93" viewBox="0 0 93 93" fill="none" xmlns="http://www.w3.org/2000/svg">
<path d="M72.4251 57.6752C78.2803 43.1172 71.2253 26.569 56.6674 20.7138C42.1094 14.8586 25.5613 21.9136 19.706 36.4715C13.8508 51.0295 20.9058 67.5776 35.4638 73.4329C50.0217 79.2881 66.5699 72.2331 72.4251 57.6752Z" fill="#EEE9FF"/>
<path opacity="0.71" d="M65.2288 42.2702C65.2854 42.3074 65.351 42.3285 65.4187 42.3313C68.268 42.5619 67.454 36.904 65.4594 36.1442C64.2044 35.6625 63.2139 36.7344 63.2614 37.9623C63.3292 39.5159 64.8014 40.5606 65.127 42.0328C65.131 42.1217 65.1672 42.2061 65.2288 42.2702V42.2702Z" fill="#C8C6D3"/>
<path opacity="0.71" d="M69.2645 49.2736C69.4109 49.394 69.5902 49.4674 69.779 49.4843C69.9678 49.5013 70.1573 49.4609 70.3228 49.3686C70.928 49.1155 71.4424 48.6852 71.7983 48.1342C72.1543 47.5833 72.3352 46.9375 72.3173 46.2818C72.2156 44.0227 69.2848 42.0418 67.5278 44.0499C67.2103 44.4095 67.0262 44.8674 67.0064 45.3467C66.9866 45.826 67.1324 46.2975 67.4192 46.6821C67.7584 47.0823 68.2605 47.3266 68.5793 47.7404C68.8104 48.1044 68.9821 48.5029 69.0881 48.9208C69.1233 49.0488 69.1832 49.1686 69.2645 49.2736V49.2736Z" fill="#C8C6D3"/>
<path opacity="0.71" d="M65.052 56.2934C65.3708 56.5105 65.8728 56.4019 66.1035 56.714C66.3342 57.0261 66.1713 57.4331 66.4359 57.6366C66.7005 57.8402 67.0126 57.6366 67.2296 57.4195C67.9287 56.7344 68.3369 55.8063 68.3694 54.828C68.3846 54.6599 68.3614 54.4906 68.3015 54.3328C68.0941 53.9824 67.8056 53.687 67.4603 53.4712C67.2231 53.3612 66.9606 53.3171 66.7004 53.3433C66.4402 53.3696 66.1919 53.4653 65.9814 53.6205C65.5627 53.9529 65.23 54.381 65.0113 54.8687C64.801 55.3097 64.6042 55.9949 65.052 56.2934Z" fill="#C8C6D3"/>
<path opacity="0.71" d="M58.2595 53.5136C58.602 53.6643 58.9735 53.7375 59.3476 53.7281C59.7216 53.7188 60.089 53.627 60.4236 53.4593C60.8516 53.1623 61.323 52.9335 61.8211 52.7809H61.9432C62.4724 52.7402 63.0219 52.9777 63.5375 52.8216C63.8658 52.6835 64.1266 52.4219 64.2637 52.0932C64.4008 51.7644 64.4031 51.395 64.2701 51.0646C63.5917 49.2532 60.8781 49.2125 59.4195 49.8366C58.2595 50.2505 56.2242 52.5842 58.2595 53.5136Z" fill="#C8C6D3"/>
<path opacity="0.71" d="M61.5306 54.8698C61.4541 54.9711 61.4016 55.0885 61.3769 55.213C61.3522 55.3376 61.356 55.4661 61.3881 55.5889C61.4276 55.6806 61.4852 55.7633 61.5575 55.8321C61.6298 55.9008 61.7152 55.9543 61.8087 55.9892C61.9352 56.0449 62.0715 56.0751 62.2096 56.0781C62.3478 56.0811 62.4853 56.0569 62.6141 56.0068C62.7429 55.9568 62.8606 55.8818 62.9605 55.7862C63.0603 55.6907 63.1404 55.5764 63.1961 55.4498C63.2517 55.3233 63.2819 55.1871 63.285 55.0489C63.288 54.9107 63.2638 54.7733 63.2137 54.6445C63.1636 54.5156 63.0887 54.3979 62.9931 54.2981C62.8975 54.1982 62.7832 54.1182 62.6567 54.0625C62.1919 54.1777 61.7889 54.4666 61.5306 54.8698V54.8698Z" fill="#C8C6D3"/>
<path opacity="0.71" d="M62.3726 53.9814C62.4729 53.9979 62.5694 54.0323 62.6575 54.0832C62.706 54.0656 62.756 54.052 62.8067 54.0425L62.3726 53.9814Z" fill="#C8C6D3"/>
<path opacity="0.71" d="M59.3746 59.1226C59.2036 59.0478 59.0121 59.0334 58.8319 59.0819C57.7624 59.3483 56.7507 59.8081 55.8468 60.4388L56.2471 60.3031C55.8848 60.4645 55.5797 60.7318 55.372 61.0697C55.2159 61.3279 55.1391 61.6264 55.1511 61.9279C55.1632 62.2294 55.2636 62.5207 55.4398 62.7657C55.6286 63.0022 55.8992 63.1593 56.1982 63.2058C56.4972 63.2522 56.8028 63.1848 57.0544 63.0167C57.321 62.736 57.5491 62.4212 57.7328 62.0805C58.11 61.6727 58.5258 61.3024 58.9743 60.9747C59.2023 60.8159 59.3849 60.6003 59.5039 60.3492C59.6229 60.0981 59.6742 59.8203 59.6527 59.5433C59.6378 59.4578 59.6053 59.3763 59.5575 59.304C59.5096 59.2316 59.4474 59.1699 59.3746 59.1226Z" fill="#C8C6D3"/>
<path opacity="0.71" d="M45.4056 24.8163C45.6003 24.7755 45.8012 24.7755 45.9958 24.8163C46.5318 24.9994 46.5589 25.7593 46.9253 26.1731C47.1351 26.3807 47.407 26.5143 47.6996 26.5535C47.9922 26.5926 48.2896 26.5353 48.5467 26.3902C51.145 25.0334 48.8859 21.7024 46.6675 21.5328C44.4491 21.3632 41.5048 25.2165 45.4056 24.8163Z" fill="#C8C6D3"/>
<path opacity="0.71" d="M41.1604 38.4796C41.8741 37.8406 42.5115 37.1212 43.0599 36.3358C43.546 35.733 43.8391 34.9978 43.9012 34.226C43.9012 32.9234 42.8428 31.8787 41.7709 31.1324C40.8873 30.4245 39.8073 30.0053 38.6774 29.9316C37.951 29.9914 37.2327 30.1255 36.5336 30.3319C35.3464 30.5761 34.1117 30.549 32.9177 30.7796C32.0776 30.9194 31.2864 31.2694 30.6179 31.7973C28.5761 32.8132 26.9348 34.4856 25.9573 36.5461C25.4728 37.4085 25.3439 38.4258 25.5977 39.3818C26.2219 41.0846 28.5692 41.5392 29.4375 43.1266C30.2041 44.5242 29.6546 46.478 30.7197 47.6652C31.7848 48.8524 33.6029 48.5064 35.0615 47.9976C37.0967 47.2785 39.3287 46.0302 39.7086 43.9272C39.9596 42.5025 39.3287 40.9015 40.0749 39.66C40.3736 39.2128 40.7397 38.8146 41.1604 38.4796V38.4796Z" fill="#C8C6D3"/>
<path opacity="0.71" d="M32.2729 26.7089C31.9498 26.8577 31.6759 27.0957 31.4836 27.395C31.2913 27.6943 31.1885 28.0424 31.1875 28.3981L33.6297 28.3031C33.8627 28.3119 34.0946 28.2678 34.3082 28.1742C34.4173 28.098 34.5095 27.9999 34.5788 27.8862C34.6481 27.7725 34.6931 27.6457 34.711 27.5137C34.7288 27.3818 34.7192 27.2476 34.6825 27.1195C34.6459 26.9915 34.5831 26.8725 34.4981 26.7699C34.3117 26.5733 34.0773 26.4287 33.818 26.3501C33.5586 26.2716 33.2834 26.262 33.0192 26.3222C32.4917 26.4435 31.9906 26.6596 31.5403 26.9599L32.2729 26.7089Z" fill="#C8C6D3"/>
<path opacity="0.71" d="M26.2813 31.4162C26.1592 31.8368 26.417 32.3863 26.8579 32.3931C27.0998 32.3645 27.3247 32.2544 27.4956 32.081L28.9542 30.9277C29.1186 30.8205 29.2446 30.6637 29.3138 30.48C29.3285 30.3494 29.2983 30.2176 29.2279 30.1066C29.1576 29.9955 29.0515 29.9119 28.9271 29.8694C28.6759 29.7971 28.4075 29.8139 28.1673 29.9169C27.4875 30.2258 26.8902 30.6906 26.4237 31.2737L27.1022 30.4257C26.7336 30.664 26.4471 31.0097 26.2813 31.4162V31.4162Z" fill="#C8C6D3"/>
<path opacity="0.71" d="M62.3641 46.3408C62.5559 46.3227 62.734 46.2338 62.8636 46.0914C62.9933 45.949 63.0652 45.7634 63.0652 45.5708C63.0652 45.3782 62.9933 45.1925 62.8636 45.0501C62.734 44.9077 62.5559 44.8188 62.3641 44.8008C62.1724 44.8188 61.9942 44.9077 61.8646 45.0501C61.7349 45.1925 61.6631 45.3782 61.6631 45.5708C61.6631 45.7634 61.7349 45.949 61.8646 46.0914C61.9942 46.2338 62.1724 46.3227 62.3641 46.3408V46.3408Z" fill="#C8C6D3"/>
<path opacity="0.71" d="M62.4817 43.1255C62.7444 43.1255 62.9963 43.0211 63.1821 42.8354C63.3678 42.6496 63.4722 42.3977 63.4722 42.135C63.4722 41.8723 63.3678 41.6204 63.1821 41.4346C62.9963 41.2489 62.7444 41.1445 62.4817 41.1445C62.219 41.1445 61.9671 41.2489 61.7813 41.4346C61.5956 41.6204 61.4912 41.8723 61.4912 42.135C61.4912 42.3977 61.5956 42.6496 61.7813 42.8354C61.9671 43.0211 62.219 43.1255 62.4817 43.1255V43.1255Z" fill="#C8C6D3"/>
<path opacity="0.71" d="M57.7001 47.8544C59.4097 46.8029 60.6783 45.1408 60.1423 42.9428C59.8371 41.7081 58.8262 40.5751 57.4762 41.1518C56.1262 41.7284 55.8209 43.248 55.7395 44.5438C55.6784 45.6428 55.2375 45.9006 54.5251 46.6197C54.0795 47.0195 53.7512 47.5331 53.5754 48.1054C53.4939 48.3588 53.4763 48.6283 53.5241 48.8901C53.572 49.1519 53.6838 49.3978 53.8496 49.606C54.0155 49.8141 54.2302 49.9781 54.4747 50.0832C54.7192 50.1883 54.9859 50.2313 55.251 50.2085C56.3161 50.0524 57.0759 48.8517 57.7001 47.8544Z" fill="#C8C6D3"/>
<path opacity="0.71" d="M60.0918 56.0297C59.3765 55.6841 58.5853 55.5254 57.792 55.5684C57.6994 55.5617 57.6065 55.5617 57.5139 55.5684C56.7202 55.6295 55.8043 56.0569 55.7636 56.9727C55.7559 57.1607 55.7873 57.3482 55.8559 57.5233C55.9245 57.6985 56.0288 57.8574 56.1622 57.9901C56.2955 58.1228 56.455 58.2263 56.6304 58.2941C56.8059 58.3619 56.9936 58.3924 57.1815 58.3838C57.5494 58.3446 57.9075 58.2413 58.2398 58.0785C58.6738 57.9114 59.132 57.8152 59.5966 57.7936C60.4582 57.7597 61.0212 56.43 60.0918 56.0297Z" fill="#C8C6D3"/>
<path opacity="0.71" d="M55.9279 54.678C56.1163 54.6408 56.2862 54.5403 56.4095 54.3931C56.4934 54.2982 56.5491 54.1818 56.5702 54.0569C56.5913 53.932 56.5771 53.8037 56.5291 53.6866C56.4811 53.5694 56.4012 53.468 56.2986 53.3938C56.1959 53.3196 56.0746 53.2757 55.9482 53.2669C55.7613 53.2561 55.5766 53.3124 55.4274 53.4255C55.2782 53.5387 55.1742 53.7013 55.1341 53.8843C55.1133 53.993 55.1195 54.1052 55.152 54.211C55.1846 54.3168 55.2425 54.4131 55.3208 54.4914C55.3991 54.5697 55.4953 54.6276 55.6011 54.6601C55.7069 54.6927 55.8191 54.6988 55.9279 54.678Z" fill="#C8C6D3"/>
<path opacity="0.71" d="M46.2537 42.0679C46.9932 41.1317 47.9768 40.1141 47.5087 38.8252C47.0406 37.5362 45.5346 37.3055 44.4491 37.8143C43.8954 38.0984 43.4046 38.4911 43.006 38.969C42.6074 39.4468 42.3091 40.0001 42.129 40.5958C42.0733 40.7989 42.0504 41.0096 42.0611 41.2199C42.0193 41.3276 41.9875 41.4388 41.9662 41.5523C41.8294 42.0363 41.8887 42.5546 42.1312 42.9952C42.3737 43.4357 42.7799 43.7631 43.2619 43.9064C44.6527 44.232 45.5142 43.0041 46.2537 42.0679Z" fill="#C8C6D3"/>
<path opacity="0.71" d="M41.9873 46.817C42.0714 46.7488 42.1426 46.6661 42.1976 46.5728V46.5117C42.3384 46.3816 42.4411 46.2156 42.4949 46.0316C42.5487 45.8476 42.5514 45.6525 42.5029 45.467C42.4723 45.3535 42.4195 45.2472 42.3476 45.1542C42.2756 45.0613 42.1859 44.9835 42.0837 44.9255C41.9815 44.8674 41.8688 44.8303 41.7521 44.8161C41.6354 44.8019 41.5171 44.811 41.4039 44.8429C41.0683 44.9268 40.7775 45.1358 40.5908 45.4271C40.4042 45.7184 40.3359 46.07 40.3999 46.41C40.4437 46.5706 40.5293 46.7167 40.648 46.8335C40.7666 46.9502 40.914 47.0335 41.0753 47.0749C41.2365 47.1162 41.4059 47.1142 41.5661 47.0689C41.7263 47.0236 41.8716 46.9367 41.9873 46.817V46.817Z" fill="#C8C6D3"/>
<path opacity="0.71" d="M49.1982 43.9049C49.1192 43.7504 49.0106 43.613 48.8784 43.5007C48.7462 43.3884 48.5931 43.3033 48.4279 43.2503C48.2627 43.1974 48.0887 43.1776 47.9159 43.1921C47.743 43.2067 47.5748 43.2552 47.4207 43.335C46.6541 43.7013 46.1792 44.5019 45.6297 45.1124C45.5483 45.2074 45.4601 45.282 45.3719 45.3702C45.3563 45.3667 45.3401 45.3667 45.3245 45.3702C44.0694 45.6077 42.4344 47.5954 44.2119 48.4095C45.1141 48.8165 45.8672 48.2195 46.5591 47.6904C47.3293 47.183 48.0515 46.6062 48.7165 45.9672C48.9917 45.7096 49.1843 45.3762 49.2701 45.0091C49.3558 44.642 49.3308 44.2577 49.1982 43.9049V43.9049Z" fill="#C8C6D3"/>
<path opacity="0.71" d="M28.3098 47.8334C28.2061 47.3687 28.1358 46.8971 28.0995 46.4223C28.1132 46.1472 28.0927 45.8715 28.0385 45.6015C27.8735 45.2038 27.5647 44.883 27.1735 44.7032C26.7824 44.5234 26.3378 44.4977 25.9286 44.6313C25.8221 44.6627 25.7178 44.7012 25.6165 44.7467C25.2299 44.6381 24.8839 45.0045 24.6532 45.364C24.3783 45.6039 24.1178 45.8599 23.8731 46.1306L24.4836 45.6557C24.1103 46.2312 23.8608 46.8781 23.7509 47.5553C23.6958 47.9299 23.7583 48.3125 23.9296 48.6502C24.1009 48.988 24.3726 49.2643 24.7075 49.4412L24.8703 49.4887C24.9413 49.969 25.118 50.4275 25.3879 50.8312C25.6577 51.2348 26.0139 51.5733 26.4306 51.8224C26.448 51.93 26.4883 52.0325 26.5488 52.1231C26.6093 52.2136 26.6886 52.2901 26.7812 52.3474C26.8739 52.4047 26.9778 52.4413 27.0858 52.4549C27.1939 52.4685 27.3036 52.4587 27.4075 52.4262C27.8433 52.2972 28.211 52.0025 28.4319 51.6054C28.8138 51.2691 29.0558 50.8019 29.1104 50.296C29.2121 49.3463 28.7304 48.7153 28.3505 47.8945L28.3098 47.8334Z" fill="#C8C6D3"/>
<path opacity="0.71" d="M45.317 34.0966C45.5748 34.8225 46.7281 35.1549 47.1283 34.3272C47.3733 33.8407 47.4382 33.2831 47.3115 32.7533C47.3115 32.7533 47.3115 32.6855 47.3115 32.6448C47.4092 32.2467 47.377 31.8278 47.2195 31.4494C47.062 31.071 46.7876 30.7529 46.4363 30.5417C46.2583 30.4451 46.0573 30.3986 45.8549 30.4073C45.6525 30.4159 45.4562 30.4793 45.287 30.5907C45.1178 30.7021 44.982 30.8574 44.8941 31.0399C44.8062 31.2224 44.7694 31.4254 44.7878 31.6272C44.8407 31.9927 44.9677 32.3436 45.1609 32.6583L45.3034 32.9094C45.2993 32.9703 45.2993 33.0315 45.3034 33.0925C45.2198 33.4226 45.2244 33.7689 45.317 34.0966V34.0966Z" fill="#C8C6D3"/>
<path opacity="0.71" d="M24.1735 51.4762C23.9776 51.3524 23.7557 51.2756 23.5252 51.252C23.2947 51.2283 23.0618 51.2584 22.8449 51.34C22.6279 51.4215 22.4329 51.5521 22.275 51.7217C22.1171 51.8913 22.0006 52.0952 21.9348 52.3174C21.5745 53.366 21.5745 54.5048 21.9348 55.5534C22.0704 57.2427 22.7624 58.8641 24.3974 59.3729C24.8662 59.52 25.373 59.4876 25.8194 59.282C26.2657 59.0764 26.6196 58.7122 26.8125 58.2603C27.2806 56.9035 25.8831 55.9876 25.2793 54.9564C24.6755 53.9253 25.3743 52.2971 24.1735 51.4762Z" fill="#C8C6D3"/>
<path opacity="0.71" d="M21.7493 50.575C22.1184 50.6174 22.4894 50.5132 22.7825 50.2848C23.0756 50.0564 23.2673 49.7222 23.3164 49.3539C23.3763 48.9877 23.2964 48.6124 23.0925 48.3024C22.8958 48.0039 22.5837 47.8139 22.5634 47.434C22.5295 46.8031 21.6882 46.3214 21.2066 46.8709C20.7986 47.3146 20.5032 47.8497 20.345 48.4313C20.2093 48.9808 20.25 49.7881 20.7927 50.1001C20.8309 50.1218 20.8721 50.1378 20.9149 50.1476C21.1365 50.3806 21.4307 50.5313 21.7493 50.575V50.575Z" fill="#C8C6D3"/>
<path opacity="0.71" d="M23.1271 43.913C22.8421 43.9537 22.72 44.1707 22.625 44.415C22.5885 44.55 22.6028 44.6937 22.6654 44.8188C22.7279 44.9439 22.8343 45.0416 22.9642 45.0934C23.0934 45.1491 23.2385 45.1558 23.3721 45.1121C23.5058 45.0683 23.6189 44.9772 23.6901 44.8559C23.7497 44.7528 23.781 44.6358 23.781 44.5167C23.781 44.3976 23.7497 44.2807 23.6901 44.1775C23.6355 44.0803 23.5519 44.0026 23.4509 43.9552C23.35 43.9078 23.2368 43.893 23.1271 43.913V43.913Z" fill="#C8C6D3"/>
<path opacity="0.71" d="M24.3421 30.4463C24.2679 30.4951 24.1976 30.5495 24.1318 30.6091H24.0504C23.8733 30.7256 23.7472 30.905 23.6976 31.1111C23.619 31.2829 23.5886 31.4728 23.6094 31.6606C23.6185 31.7379 23.6391 31.8133 23.6704 31.8845C23.6672 31.9319 23.6672 31.9795 23.6704 32.027C23.713 32.1657 23.8069 32.2829 23.933 32.3548C24.0591 32.4266 24.2078 32.4477 24.3489 32.4137C24.544 32.37 24.7264 32.2817 24.8818 32.1558C25.0371 32.0298 25.1612 31.8697 25.2444 31.6878C25.3272 31.4692 25.3272 31.2279 25.2444 31.0094C25.2451 30.9027 25.2185 30.7976 25.1671 30.7042C25.1157 30.6107 25.0412 30.532 24.9507 30.4755C24.8602 30.419 24.7567 30.3867 24.6502 30.3816C24.5436 30.3765 24.4376 30.3987 24.3421 30.4463V30.4463Z" fill="#C8C6D3"/>
<path opacity="0.71" d="M25.3593 42.7798C25.4948 42.7297 25.6181 42.6513 25.7209 42.5499C25.8237 42.4485 25.9038 42.3263 25.9558 42.1916C26.0078 42.0568 26.0305 41.9125 26.0224 41.7683C26.0143 41.6241 25.9756 41.4832 25.9088 41.3551C25.583 40.7368 25.177 40.1643 24.7013 39.6523C24.6293 39.4823 24.4927 39.3478 24.3216 39.2785C24.1505 39.2092 23.9589 39.2106 23.7888 39.2826C23.6188 39.3546 23.4843 39.4911 23.415 39.6623C23.3456 39.8334 23.3471 40.025 23.4191 40.1951C23.4617 40.4589 23.5963 40.6992 23.799 40.8735C23.7379 41.8775 24.2874 43.0919 25.3593 42.7798Z" fill="#C8C6D3"/>
<path opacity="0.71" d="M69.0628 50.5684C69.0374 50.2658 68.9253 49.9769 68.7401 49.7363C68.5548 49.4956 68.3041 49.3135 68.018 49.2116C67.4494 48.9536 66.9599 48.5484 66.6002 48.0379C66.5076 47.8938 66.3715 47.7828 66.2116 47.7211C66.0518 47.6594 65.8764 47.6502 65.711 47.6948C65.5455 47.7394 65.3985 47.8354 65.2913 47.9691C65.1841 48.1027 65.1221 48.267 65.1145 48.4382C65.104 48.8314 65.1807 49.2221 65.3391 49.5821C65.4974 49.9422 65.7335 50.2628 66.0303 50.5209C66.2516 50.7766 66.529 50.9777 66.8409 51.1083C67.1528 51.239 67.4906 51.2956 67.8281 51.2739C67.9977 51.3085 68.1708 51.3221 68.3437 51.3146C68.4399 51.3129 68.5348 51.2922 68.6231 51.2537C68.7113 51.2153 68.7911 51.1598 68.8578 51.0905C68.9246 51.0212 68.9771 50.9394 69.0123 50.8498C69.0474 50.7603 69.0646 50.6646 69.0628 50.5684V50.5684Z" fill="#C8C6D3"/>
<path opacity="0.71" d="M47.84 62.9495C47.3651 61.9861 46.9852 60.8329 45.954 60.324C45.5974 60.1383 45.1904 60.0723 44.7933 60.1358C44.3962 60.1994 44.0301 60.389 43.7492 60.6768C43.5182 60.956 43.357 61.2863 43.2791 61.6403C43.2013 61.9942 43.2089 62.3616 43.3015 62.712C43.1229 63.4488 43.1726 64.2225 43.4439 64.9304C43.7499 65.6819 44.2506 66.3382 44.8945 66.8318C45.5384 67.3255 46.3022 67.6386 47.1073 67.739C48.2335 68.6481 49.9634 69.1433 50.9539 68.0036C51.6323 67.2302 51.076 66.0566 50.4654 65.4189C49.5835 64.503 48.437 64.1638 47.84 62.9495Z" fill="#C8C6D3"/>
<path opacity="0.71" d="M48.5658 60.7583C47.6363 61.0161 47.7449 62.2508 48.3351 62.7936C48.4819 62.9388 48.6614 63.0467 48.8586 63.1081C49.0557 63.1695 49.2647 63.1826 49.468 63.1463C49.6799 63.0709 49.8628 62.9308 49.9906 62.7457C50.1184 62.5606 50.1848 62.34 50.1804 62.1152C50.1773 61.8373 50.0864 61.5676 49.9207 61.3446C49.7549 61.1216 49.5229 60.9567 49.2577 60.8737C49.1589 60.8027 49.0451 60.7554 48.9252 60.7354C48.8052 60.7154 48.6822 60.7233 48.5658 60.7583Z" fill="#C8C6D3"/>
<path opacity="0.71" d="M41.2822 61.9724C41.0836 62.0215 40.9053 62.1317 40.7726 62.2875C40.6399 62.4433 40.5595 62.6368 40.5428 62.8408C40.5249 63.1193 40.6035 63.3954 40.7654 63.6228C40.9273 63.8501 41.1625 64.0148 41.4315 64.089C41.5505 64.1234 41.6767 64.1244 41.7963 64.0921C41.9158 64.0599 42.0243 63.9954 42.1099 63.9059C42.2982 63.6897 42.4317 63.4313 42.4991 63.1527C42.5664 62.874 42.5655 62.5831 42.4966 62.3048C42.4581 62.1861 42.3906 62.0787 42.3003 61.9925C42.2099 61.9063 42.0996 61.8439 41.9791 61.8109C41.8587 61.7779 41.7319 61.7754 41.6103 61.8036C41.4886 61.8318 41.3759 61.8898 41.2822 61.9724V61.9724Z" fill="#C8C6D3"/>
<g style="mix-blend-mode:multiply" opacity="0.43">
<g style="mix-blend-mode:multiply" opacity="0.43">
<path d="M51.7964 39.9449C55.5887 33.4593 51.0638 22.8829 43.296 22.4081C40.06 22.2045 37.3871 23.7174 34.9109 25.5491C33.2263 26.4554 31.6798 27.5976 30.3181 28.9411C26.519 32.6927 22.5096 39.1172 23.7172 44.7073C25.1826 51.4913 33.0182 53.3366 38.5811 50.4262C40.9691 49.1712 42.7465 47.102 44.8428 45.4671C47.1629 43.6083 50.2361 42.5839 51.7964 39.9449Z" fill="#E2E0E2"/>
</g>
<g style="mix-blend-mode:multiply" opacity="0.43">
<path d="M64.3744 40.623C59.6255 40.623 57.7599 44.3882 56.4167 48.2008C55.1882 49.408 53.8556 50.5045 52.4344 51.4775C49.1034 53.7027 45.0126 55.5955 44.0832 59.8898C42.8417 65.5952 47.984 69.0076 53.0924 68.5123C57.6106 68.0782 61.5657 65.3238 64.9239 62.4406C68.2825 59.6673 70.5531 55.7964 71.3348 51.5115C72.115 46.6541 70.2629 40.623 64.3744 40.623Z" fill="#E2E0E2"/>
</g>
</g>
<g style="mix-blend-mode:multiply" opacity="0.46">
<path d="M61.0067 57.3114C60.0436 58.5797 59.1687 59.9125 58.388 61.3005C56.8819 64.1498 55.9729 67.2772 54.4193 70.1197C53.358 72.1488 51.8305 73.8972 49.9622 75.2214C53.7854 74.6954 57.4614 73.3961 60.7659 71.4027C64.0705 69.4093 66.9343 66.7635 69.1826 63.6269C71.4309 60.4902 73.0166 56.9284 73.843 53.1587C74.6694 49.389 74.7191 45.4904 73.9892 41.7008C73.2592 37.9113 71.7649 34.3101 69.5973 31.1171C67.4298 27.9241 64.6344 25.2062 61.3818 23.1291C58.1292 21.052 54.4876 19.6594 50.679 19.0361C46.8705 18.4128 42.9748 18.5719 39.2298 19.5038C38.8542 20.7546 38.6891 22.0591 38.7414 23.364C38.8601 25.1725 39.4555 26.9173 40.4672 28.4211C41.4788 29.9249 42.8706 31.134 44.501 31.9255C47.1739 33.2823 49.8265 32.7599 52.6419 33.2212C55.2384 33.5521 57.6937 34.5919 59.738 36.2266C64.7447 40.5073 65.8437 47.3253 63.3946 53.2817C62.7559 54.7121 61.9546 56.0642 61.0067 57.3114V57.3114Z" fill="#E2E0E2"/>
</g>
<g style="mix-blend-mode:multiply" opacity="0.46">
<path d="M37.5345 70.6094C34.5291 67.2173 32.6703 62.4685 33.8507 58.0995C34.8887 54.253 38.1111 51.1662 38.6606 47.245C38.852 45.7789 38.6644 44.2883 38.1157 42.9153C37.567 41.5424 36.6755 40.333 35.5264 39.4027C33.9118 38.1272 31.8562 37.4556 30.3366 36.0649C27.8943 33.8329 27.3041 30.0678 28.2403 26.8928C28.5532 25.8773 28.986 24.9025 29.5293 23.9893C24.8339 27.3444 21.2718 32.0502 19.3173 37.4802C17.3628 42.9101 17.1086 48.8066 18.5886 54.3846C20.0685 59.9626 23.2124 64.9574 27.6017 68.7042C31.9909 72.4511 37.4173 74.772 43.1585 75.3582C41.0846 74.0274 39.1939 72.4309 37.5345 70.6094V70.6094Z" fill="#E2E0E2"/>
</g>
<g style="mix-blend-mode:multiply" opacity="0.14">
<path d="M61.3569 23.1406C62.4592 28.6084 61.9276 34.2797 59.8284 39.4474C57.7293 44.6151 54.1555 49.0507 49.5526 52.201C44.9497 55.3514 39.5213 57.0772 33.9441 57.1633C28.367 57.2494 22.8879 55.692 18.1899 52.6852C19.1173 57.2856 21.1698 61.5847 24.1641 65.1983C27.1583 68.8119 31.001 71.6276 35.349 73.3937C39.6969 75.1599 44.4146 75.8215 49.0806 75.3195C53.7467 74.8175 58.2157 73.1674 62.0884 70.5168C65.9612 67.8662 69.117 64.2976 71.274 60.1298C73.4311 55.9619 74.5221 51.3246 74.4496 46.6322C74.3772 41.9399 73.1435 37.3385 70.8589 33.2392C68.5742 29.1399 65.3097 25.6704 61.3569 23.1406V23.1406Z" fill="#E2E0E2"/>
</g>
<g style="mix-blend-mode:multiply" opacity="0.67">
<path d="M67.1198 28.0186C70.0667 34.1758 70.6984 41.1882 68.8992 47.773C67.1 54.3577 62.9902 60.0746 57.3217 63.8778C51.6532 67.681 44.8049 69.3162 38.0296 68.4842C31.2544 67.6523 25.0051 64.4089 20.425 59.3474C22.1851 63.0248 24.7161 66.2804 27.8459 68.893C30.9758 71.5056 34.6312 73.414 38.564 74.4886C42.4968 75.5631 46.6148 75.7787 50.6383 75.1207C54.6618 74.4627 58.4966 72.9464 61.8821 70.675C65.2677 68.4035 68.1247 65.43 70.2592 61.9565C72.3937 58.4829 73.7556 54.5907 74.2525 50.5441C74.7494 46.4976 74.3695 42.3915 73.1388 38.5047C71.9081 34.618 69.8552 31.0416 67.1198 28.0186V28.0186Z" fill="#E2E0E2"/>
</g>
<g style="mix-blend-mode:overlay" opacity="0.65">
<path d="M46.0471 18.6564C44.4556 18.6582 42.867 18.7943 41.2983 19.0634L41.0337 19.1109C40.5521 19.1991 40.0772 19.2941 39.6023 19.4026L39.3648 19.4569C37.7378 19.8525 36.1487 20.3905 34.616 21.0647L34.3786 21.1733C33.9444 21.37 33.5238 21.5735 33.1031 21.7906L32.8793 21.906C31.8965 22.419 30.9451 22.9898 30.03 23.6155C29.589 23.9208 29.1616 24.2329 28.741 24.5585L28.5239 24.7281C28.1643 25.0131 27.8116 25.3048 27.4588 25.6033L27.2621 25.7797C26.4381 26.5098 25.6545 27.2844 24.9148 28.0998C24.562 28.5001 24.2364 28.9071 23.8904 29.3209C23.8293 29.3888 23.7751 29.4634 23.7208 29.5313C23.4359 29.8976 23.1577 30.2639 22.8931 30.6371L22.7371 30.8609C22.1051 31.7679 21.5253 32.7102 21.0004 33.6831C18.2458 38.8584 17.1583 44.7586 17.887 50.5759C18.6157 56.3931 21.1248 61.8428 25.0708 66.1788C21.6584 61.7994 19.6045 56.5158 19.1632 50.9814C18.7219 45.4471 19.9125 39.9047 22.5878 35.0399C24.8433 36.7246 27.5698 37.6606 30.3844 37.7162C33.199 37.7719 35.9604 36.9445 38.2807 35.3502C40.6009 33.756 42.3635 31.475 43.3209 28.8276C44.2783 26.1802 44.3823 23.2994 43.6184 20.5899C44.9045 20.4135 46.2009 20.3228 47.4989 20.3185C51.4598 20.3125 55.3779 21.1372 59.0004 22.7392C62.6228 24.3413 65.869 26.6851 68.5295 29.6194C65.8701 26.1944 62.4604 23.425 58.5627 21.5245C54.6651 19.6239 50.3834 18.6427 46.0471 18.6564V18.6564Z" fill="#F0DDF1"/>
</g>
<g style="mix-blend-mode:screen" opacity="0.22">
<path d="M18.105 41.9812C21.266 46.0344 25.8539 48.7293 30.9333 49.5166C36.0127 50.3038 41.2012 49.124 45.4407 46.2177C49.6803 43.3114 52.6517 38.8976 53.7492 33.876C54.8467 28.8545 53.9875 23.6034 51.3469 19.1935C47.6664 18.4896 43.8829 18.5218 40.2149 19.2883C36.5469 20.0547 33.0671 21.5401 29.9764 23.6589C26.8857 25.7776 24.2453 28.4876 22.2077 31.6324C20.1701 34.7772 18.7757 38.2945 18.105 41.9812V41.9812Z" fill="#F0DDF1"/>
</g>
<path style="mix-blend-mode:multiply" d="M46.0484 75.3429C61.7397 75.3429 74.46 62.6225 74.46 46.9312C74.46 31.2399 61.7397 18.5195 46.0484 18.5195C30.3571 18.5195 17.6367 31.2399 17.6367 46.9312C17.6367 62.6225 30.3571 75.3429 46.0484 75.3429Z" fill="url(#paint0_linear_26_1528)"/>
<path style="mix-blend-mode:multiply" opacity="0.81" d="M46.4117 75.8233C62.103 75.8233 74.8233 63.103 74.8233 47.4117C74.8233 31.7203 62.103 19 46.4117 19C30.7203 19 18 31.7203 18 47.4117C18 63.103 30.7203 75.8233 46.4117 75.8233Z" fill="url(#paint1_linear_26_1528)"/>
<defs>
<linearGradient id="paint0_linear_26_1528" x1="25.9608" y1="26.8436" x2="66.136" y2="67.0188" gradientUnits="userSpaceOnUse">
<stop stop-color="white"/>
<stop offset="0.03" stop-color="#F9FAFA"/>
<stop offset="0.25" stop-color="#CDD2D2"/>
<stop offset="0.46" stop-color="#ABB3B3"/>
<stop offset="0.66" stop-color="#929D9D"/>
<stop offset="0.85" stop-color="#839090"/>
<stop offset="1" stop-color="#7E8B8B"/>
</linearGradient>
<linearGradient id="paint1_linear_26_1528" x1="26.324" y1="27.324" x2="66.4993" y2="67.4993" gradientUnits="userSpaceOnUse">
<stop stop-color="white"/>
<stop offset="0.03" stop-color="#F9FAFA"/>
<stop offset="0.25" stop-color="#CDD2D2"/>
<stop offset="0.46" stop-color="#ABB3B3"/>
<stop offset="0.66" stop-color="#929D9D"/>
<stop offset="0.85" stop-color="#839090"/>
<stop offset="1" stop-color="#7E8B8B"/>
</linearGradient>
</defs>
</svg>
