<svg width="93" height="93" viewBox="0 0 93 93" fill="none" xmlns="http://www.w3.org/2000/svg">
<g clip-path="url(#clip0_26_1107)">
<path d="M44.6807 69.9498C57.8204 69.9498 68.4723 59.2273 68.4723 46.0003C68.4723 32.7733 57.8204 22.0508 44.6807 22.0508C31.541 22.0508 20.8892 32.7733 20.8892 46.0003C20.8892 59.2273 31.541 69.9498 44.6807 69.9498Z" fill="#E7A993"/>
<g style="mix-blend-mode:multiply" opacity="0.66">
<g style="mix-blend-mode:multiply" opacity="0.66">
<path d="M23.7 39.9447C25.8402 39.8805 27.9439 39.3708 29.8788 38.4479C30.3541 38.2428 30.0689 37.5593 29.6343 37.5388C27.7603 37.4568 25.9678 37.3269 24.0735 37.409C23.5642 37.409 23.0143 37.409 22.4643 37.409C22.1485 38.2239 21.8809 39.0569 21.6631 39.9037C22.3556 39.9789 23.0686 39.9515 23.7 39.9447Z" fill="#B2AFFF"/>
</g>
<g style="mix-blend-mode:multiply" opacity="0.66">
<path d="M51.4976 28.9407C48.7049 32.1669 45.3956 34.8999 41.7067 37.0264C38.1612 39.1201 34.2842 40.5836 30.2454 41.3529C27.6653 41.8245 24.1346 42.3645 21.2829 41.6878C21.1878 42.2073 21.1131 42.7336 21.052 43.2667C22.7582 43.5968 24.4969 43.7252 26.2326 43.6494C31.2606 43.4954 36.199 42.2701 40.7221 40.0543C45.324 37.8161 49.4495 34.6985 52.8691 30.875C54.3875 29.208 55.7364 27.3923 56.8955 25.4549C56.188 25.0264 55.4581 24.6362 54.7092 24.2861C53.8222 25.9581 52.7443 27.5202 51.4976 28.9407V28.9407Z" fill="#B2AFFF"/>
</g>
<g style="mix-blend-mode:multiply" opacity="0.66">
<path d="M35.5349 28.6397C37.8027 27.7101 41.6865 25.0855 42.4334 22.1602C41.6131 22.2364 40.7973 22.3551 39.9891 22.5156C39.923 22.6713 39.8459 22.8221 39.7582 22.9667C38.7621 24.4423 37.4123 25.6413 35.8337 26.4525C34.0683 27.464 30.9314 28.749 28.3649 28.6055C27.9982 28.9541 27.6452 29.289 27.3057 29.6786C29.8722 30.4646 33.3282 29.5077 35.5349 28.6397Z" fill="#B2AFFF"/>
</g>
<g style="mix-blend-mode:multiply" opacity="0.66">
<path d="M30.2931 51.4133C36.336 50.8187 41.958 48.5222 47.2676 45.6515C52.1768 43.1227 56.5224 39.6134 60.0393 35.3376C61.1853 33.9271 62.2055 32.4175 63.088 30.8266C61.9112 29.3787 60.5688 28.0756 59.0887 26.9443C57.8532 29.0594 56.3865 31.0287 54.7161 32.8155C51.4818 36.1462 47.7242 38.9173 43.5944 41.0174C39.3168 43.2934 34.7676 45.2004 29.9264 45.9317C27.5487 46.2823 25.1417 46.3877 22.7428 46.2461C22.1181 46.2119 21.5002 46.1436 20.8892 46.0752C20.8954 47.7692 21.0797 49.4577 21.4391 51.1126C24.362 51.6285 27.3423 51.7297 30.2931 51.4133V51.4133Z" fill="#B2AFFF"/>
</g>
<g style="mix-blend-mode:multiply" opacity="0.66">
<path d="M67.9018 51.2088C68.0105 50.7303 68.0987 50.2519 68.1802 49.7666C64.2944 52.9347 60.0968 55.6944 55.653 58.0027C51.2936 60.2835 46.751 62.1903 42.0733 63.703C38.8071 64.7991 35.4729 65.6781 32.0923 66.3344C32.6287 66.6762 33.1854 67.0179 33.749 67.2845C41.5234 66.0952 49.2298 62.8828 55.911 59.2603C60.1534 56.9667 64.1685 54.2706 67.9018 51.2088V51.2088Z" fill="#B2AFFF"/>
</g>
<g style="mix-blend-mode:multiply" opacity="0.66">
<path d="M43.9611 25.0923C42.0644 27.3309 39.6806 29.0991 36.9947 30.2595C33.2264 31.9887 28.8469 33.2669 24.678 32.9935C24.3724 33.4651 24.0873 33.9435 23.8157 34.4356C28.4056 35.0303 33.8171 33.4036 37.47 31.8657C40.698 30.6013 43.5582 28.54 45.7876 25.8715C46.6696 24.7669 47.4131 23.5572 48.001 22.2695C47.2745 22.167 46.5344 22.0918 45.7944 22.0576C45.3311 23.1525 44.7137 24.1746 43.9611 25.0923V25.0923Z" fill="#B2AFFF"/>
</g>
<g style="mix-blend-mode:multiply" opacity="0.66">
<path d="M53.3581 57.7567C59.0165 54.8157 64.1275 50.9125 68.4654 46.2194C68.4654 46.1442 68.4654 46.0758 68.4654 46.0006C68.4654 45.2215 68.4247 44.4491 68.3568 43.6904C66.9867 45.3358 65.5269 46.9034 63.9842 48.386C60.885 51.3288 57.4503 53.8916 53.7519 56.0206C49.7619 58.2167 45.5178 59.9086 41.116 61.0579C37.0421 62.1652 32.5065 63.4365 28.2153 63.2724C28.6227 63.662 29.0437 64.0448 29.4782 64.407C32.7781 64.4549 36.3292 63.4091 39.3371 62.7188C44.1974 61.6574 48.9073 59.9905 53.3581 57.7567V57.7567Z" fill="#B2AFFF"/>
</g>
<g style="mix-blend-mode:multiply" opacity="0.66">
<path d="M33.0498 61.1735C39.7925 60.2139 46.2939 57.9783 52.2107 54.5847C57.644 51.6221 62.5609 47.7876 66.7681 43.2319C67.2162 42.7329 67.6576 42.2203 68.0853 41.7009C67.5429 38.6954 66.4318 35.8228 64.8126 33.2393C63.5808 35.1966 62.1618 37.0279 60.5758 38.7072C56.9033 42.496 52.6735 45.6934 48.035 48.1872C43.2449 50.9113 38.0087 52.7494 32.5745 53.6141C29.651 54.0321 26.6901 54.1169 23.7477 53.867C23.2385 53.826 22.7157 53.7577 22.1929 53.6893C23.1531 56.535 24.6365 59.1736 26.5655 61.4675C28.7313 61.5507 30.9002 61.4524 33.0498 61.1735V61.1735Z" fill="#B2AFFF"/>
</g>
<g style="mix-blend-mode:multiply" opacity="0.66">
<path d="M45.4275 28.9202C43.8319 30.1095 42.6641 31.6542 40.8716 32.6316C39.079 33.609 36.8723 34.1899 35.2699 35.5569C34.4823 36.2404 35.3514 37.3682 36.2137 37.1905C38.4204 36.7257 40.7833 35.181 42.732 34.0327C44.314 33.0963 46.0726 31.5653 46.3781 29.6584C46.4528 29.1731 45.9368 28.5443 45.4275 28.9202Z" fill="#B2AFFF"/>
</g>
</g>
<path d="M64.7718 37.7094C64.7694 37.5889 64.74 37.4705 64.6857 37.363C64.6314 37.2555 64.5537 37.1618 64.4583 37.0889C64.363 37.0159 64.2525 36.9656 64.1351 36.9417C64.0177 36.9178 63.8965 36.9209 63.7805 36.9508C61.5466 37.5044 59.6319 40.9014 58.2264 42.6306C56.1894 45.1527 53.4735 46.9092 50.8051 48.7342C50.7276 48.7852 50.6705 48.8621 50.6438 48.9513C50.617 49.0405 50.6223 49.1364 50.6588 49.222C50.6953 49.3077 50.7605 49.3777 50.8432 49.4197C50.9258 49.4617 51.0205 49.4731 51.1107 49.4518C54.2815 48.5291 56.6851 46.4034 59.1974 44.3461C61.146 42.7468 64.5274 40.3751 64.7718 37.7094Z" fill="#E79174"/>
<path d="M41.924 39.9518C38.9524 41.46 35.7772 42.5216 32.4997 43.1027C30.8159 43.4171 29.1048 43.6358 27.4345 43.7861C26.2463 43.8887 25.6081 43.834 24.7186 44.5653C24.6762 44.6083 24.6441 44.6605 24.6249 44.7179C24.6057 44.7753 24.5998 44.8364 24.6076 44.8964C24.6155 44.9565 24.6369 45.0139 24.6703 45.0643C24.7036 45.1148 24.748 45.1568 24.8001 45.1873C26.8845 46.5543 31.5016 45.2966 33.8034 44.7088C36.9397 43.9975 39.8514 42.5132 42.2771 40.3892C42.4944 40.1636 42.1888 39.8151 41.924 39.9518Z" fill="#E79174"/>
<g style="mix-blend-mode:multiply" opacity="0.63">
<g style="mix-blend-mode:multiply" opacity="0.63">
<path d="M51.3687 64.079C50.9958 64.3314 50.6539 64.6274 50.3502 64.9607C50.0243 65.3093 50.4453 65.9381 50.8798 65.6442C51.1904 65.427 51.5284 65.2523 51.8847 65.1247C52.239 64.9683 52.5703 64.7637 52.8693 64.5164C52.9328 64.4718 52.981 64.4084 53.0071 64.335C53.0333 64.2616 53.0361 64.1819 53.0152 64.1068C52.9943 64.0317 52.9508 63.965 52.8905 63.9159C52.8303 63.8669 52.7564 63.8379 52.6791 63.833C52.2271 63.7505 51.7608 63.8381 51.3687 64.079V64.079Z" fill="#E79174"/>
</g>
<g style="mix-blend-mode:multiply" opacity="0.63">
<path d="M52.5569 37.7098C51.8093 37.9827 51.1186 38.3929 50.5199 38.9196C49.8409 39.4322 49.1619 39.9653 48.4354 40.4985C48.276 40.5973 48.152 40.7446 48.0812 40.9191C48.0104 41.0935 47.9965 41.2861 48.0416 41.469C48.1075 41.6819 48.2473 41.8639 48.4354 41.9816C48.5656 42.0606 48.7146 42.1023 48.8666 42.1023C49.0185 42.1023 49.1676 42.0606 49.2977 41.9816C50.6557 40.9838 52.4143 39.8286 53.0593 38.1951C53.1544 37.9149 52.8217 37.6415 52.5569 37.7098Z" fill="#E79174"/>
</g>
<g style="mix-blend-mode:multiply" opacity="0.63">
<path d="M39.3033 46.3972C42.2861 46.0327 45.0783 44.729 47.2813 42.6722C47.3806 42.5629 47.442 42.4242 47.4562 42.2768C47.4704 42.1294 47.4366 41.9814 47.3601 41.855C47.2835 41.7286 47.1682 41.6306 47.0316 41.5758C46.8949 41.5211 46.7443 41.5124 46.6024 41.5513C43.8523 42.5239 41.2942 43.9769 39.0453 45.8436C39 45.8914 38.9701 45.9519 38.9596 46.0172C38.949 46.0824 38.9583 46.1494 38.9862 46.2092C39.0141 46.2691 39.0593 46.319 39.1158 46.3526C39.1724 46.3861 39.2378 46.4017 39.3033 46.3972V46.3972Z" fill="#E79174"/>
</g>
<g style="mix-blend-mode:multiply" opacity="0.63">
<path d="M59.0887 48.6867C59.3467 48.3586 59.1226 47.682 58.6134 47.8733C55.9722 48.8917 53.7111 50.7987 51.2396 52.1657C48.3412 53.7835 45.3404 55.2083 42.2567 56.4307C42.1883 56.473 42.1356 56.5367 42.1067 56.6121C42.0777 56.6874 42.0742 56.7703 42.0965 56.8479C42.1189 56.9255 42.1659 56.9936 42.2304 57.0417C42.2949 57.0898 42.3733 57.1152 42.4536 57.1142C45.5121 56.3805 48.4846 55.322 51.3211 53.9564C54.0303 52.6373 57.1943 51.1336 59.0887 48.6867Z" fill="#E79174"/>
</g>
<g style="mix-blend-mode:multiply" opacity="0.63">
<path d="M50.7509 23.0625C49.6238 24.8259 48.1164 26.2544 46.9146 27.9563C46.5208 28.5099 47.2881 29.2344 47.8313 28.879C49.8186 27.4734 51.4038 25.5665 52.428 23.3495C51.9187 23.1718 51.3959 23.0146 50.8731 22.8711L50.7509 23.0625Z" fill="#E79174"/>
</g>
<g style="mix-blend-mode:multiply" opacity="0.63">
<path d="M57.9278 32.016C56.9025 33.383 55.5989 34.5176 54.6279 35.8846C54.2613 36.3972 54.9538 36.9987 55.4427 36.7116C58.213 35.1054 59.9647 31.5854 60.9968 28.5712L60.4264 28.0518C59.7106 29.4443 58.8745 30.7709 57.9278 32.016V32.016Z" fill="#E79174"/>
</g>
<g style="mix-blend-mode:multiply" opacity="0.63">
<path d="M63.475 56.0953C61.2683 57.5716 58.4777 58.5832 56.6037 60.4764C56.5057 60.5821 56.4401 60.7139 56.4147 60.8561C56.3892 60.9983 56.405 61.1449 56.4602 61.2783C56.5153 61.4117 56.6075 61.5263 56.7257 61.6083C56.8439 61.6904 56.983 61.7364 57.1265 61.7409C59.9782 61.4948 62.701 59.4649 64.9959 57.8792C65.1928 57.7493 65.3762 57.6126 65.5663 57.4759C66.3046 56.1215 66.9095 54.6976 67.3724 53.2246C66.1027 54.2293 64.8058 55.1999 63.475 56.0953Z" fill="#E79174"/>
</g>
<g style="mix-blend-mode:multiply" opacity="0.63">
<path d="M37.9587 29.2206C39.5607 28.6094 41.0089 27.6499 42.2001 26.4106C43.3914 25.1713 44.2963 23.6826 44.8504 22.0508H44.6806C44.185 22.0508 43.7029 22.0508 43.214 22.0986C42.7358 23.1227 42.096 24.0621 41.3197 24.8804C40.1179 26.1517 38.6038 27.0608 37.5106 28.4483C37.2594 28.7695 37.4699 29.3983 37.9587 29.2206Z" fill="#E79174"/>
</g>
<g style="mix-blend-mode:multiply" opacity="0.63">
<path d="M34.3466 35.1598C34.8423 34.8043 34.7269 33.8543 34.0071 33.9021C31.7869 34.0457 29.6617 34.9684 27.4142 35.1939C26.0741 35.3263 24.7268 35.3697 23.3811 35.3238C23.123 35.8501 22.8786 36.39 22.6545 36.9368C26.6266 37.4495 31.3184 37.3059 34.3466 35.1598Z" fill="#E79174"/>
</g>
<g style="mix-blend-mode:multiply" opacity="0.63">
<path d="M48.035 66.4844C48.6393 65.9649 47.9603 65.1926 47.356 65.2815C45.2036 65.6095 43.1531 66.8398 41.0414 67.4618C39.6427 67.8719 38.244 68.2546 36.825 68.5964C37.9315 68.9908 39.0665 69.2992 40.2199 69.5191C43.1191 69.0748 45.998 68.2 48.035 66.4844Z" fill="#E79174"/>
</g>
<g style="mix-blend-mode:multiply" opacity="0.63">
<path d="M32.5608 56.752C35.2799 56.3052 37.9675 55.6819 40.6068 54.8861C42.7252 54.2026 45.5633 53.5191 46.867 51.6053C46.9149 51.5049 46.9376 51.3942 46.9333 51.2828C46.9289 51.1715 46.8976 51.0629 46.842 50.9666C46.7865 50.8702 46.7084 50.789 46.6145 50.7299C46.5206 50.6709 46.4138 50.6359 46.3034 50.6279C44.2665 50.7168 42.3925 52.0291 40.4506 52.6784C38.0895 53.4153 35.686 54.0064 33.2534 54.4486C29.7717 55.1386 26.2155 55.3683 22.6748 55.1321C23.0038 55.9321 23.3732 56.7146 23.7816 57.4765C26.7265 57.6035 29.6757 57.3601 32.5608 56.752V56.752Z" fill="#E79174"/>
</g>
<g style="mix-blend-mode:multiply" opacity="0.63">
<path d="M37.0625 23.3086C34.8856 24.0454 32.827 25.0976 30.9517 26.4322C32.2262 26.5096 33.4989 26.2529 34.6453 25.6872C35.6561 25.1374 36.4935 24.3133 37.0625 23.3086Z" fill="#E79174"/>
</g>
</g>
<g style="mix-blend-mode:multiply" opacity="0.36">
<path d="M44.6944 22.0508C45.5778 22.4987 46.2527 23.2761 46.5752 24.2175C46.7949 25.1041 46.7761 26.0335 46.5208 26.9104C45.6789 30.3279 43.1802 33.0208 41.8494 36.2537C41.4828 37.1559 41.2248 38.2564 41.7883 39.0492C42.3519 39.8421 43.3093 39.9309 44.1919 39.9514C48.2658 40.0539 52.2107 38.5298 56.271 38.3111C58.2197 38.2017 60.3449 38.4546 61.8183 39.678C62.887 40.6919 63.6875 41.9581 64.1472 43.362C65.1308 45.8255 65.8522 48.387 66.2996 51.0035C66.4965 52.1723 66.6527 53.3547 66.9175 54.503C68.2957 50.8779 68.7769 46.9697 68.3197 43.1157C67.8624 39.2616 66.4805 35.5774 64.293 32.381C62.1055 29.1846 59.1782 26.5721 55.7638 24.7688C52.3493 22.9655 48.5502 22.0256 44.6944 22.0303V22.0508Z" fill="#E7A993"/>
</g>
<g style="mix-blend-mode:multiply" opacity="0.36">
<path d="M44.6808 69.9498C49.1427 69.9546 53.5154 68.6919 57.2963 66.3068C56.8821 66.2316 56.4679 66.1496 56.0606 66.0471C55.1027 65.8721 54.2079 65.4453 53.4668 64.81C52.0274 63.3951 52.2379 60.9619 53.1138 59.1438C53.9896 57.3257 55.3952 55.781 56.176 53.9151C56.4122 53.4448 56.4931 52.9108 56.4068 52.3909C56.1081 51.188 54.5532 50.9146 53.3242 50.9693C50.8003 51.085 48.3058 51.5637 45.9165 52.3909C44.9364 52.8 43.9104 53.0869 42.8611 53.2453C42.3347 53.3171 41.7988 53.2602 41.2989 53.0793C40.7989 52.8985 40.3496 52.5991 39.989 52.2064C39.2286 51.2563 39.1403 49.6843 38.0132 49.2332C37.481 49.0749 36.9125 49.0917 36.3904 49.281C32.4319 50.2994 28.3445 52.6575 24.5286 51.1743C22.9983 50.5466 21.738 49.3941 20.9707 47.9209C21.444 53.9224 24.1479 59.5235 28.5427 63.6067C32.9375 67.6899 38.7002 69.9549 44.6808 69.9498V69.9498Z" fill="#E7A993"/>
</g>
<g style="mix-blend-mode:multiply" opacity="0.15">
<path d="M57.9143 26.0898C58.9098 30.7534 58.4996 35.61 56.7362 40.0374C54.9729 44.4648 51.9367 48.2616 48.0165 50.9413C44.0964 53.621 39.4708 55.0617 34.7323 55.0788C29.9938 55.0959 25.3581 53.6886 21.4189 51.0373C22.2486 54.8581 23.9962 58.4159 26.5088 61.3991C29.0213 64.3822 32.2221 66.6998 35.8309 68.1488C39.4397 69.5977 43.3463 70.1339 47.2087 69.7104C51.0711 69.2869 54.7715 67.9165 57.9857 65.7193C61.1999 63.5222 63.8299 60.5652 65.6454 57.1075C67.461 53.6497 68.4066 49.7966 68.3996 45.8855C68.3925 41.9745 67.433 38.1248 65.605 34.6737C63.777 31.2226 61.1364 28.2753 57.9143 26.0898V26.0898Z" fill="#E7A993"/>
</g>
<g style="mix-blend-mode:multiply" opacity="0.15">
<path d="M60.4874 28.1406C62.9568 33.1249 63.6211 38.8204 62.3656 44.2449C61.1102 49.6694 58.0138 54.483 53.6104 57.8555C49.2069 61.228 43.7725 62.948 38.2441 62.719C32.7157 62.4901 27.44 60.3264 23.3267 56.6012C24.8872 59.7511 27.1191 62.5155 29.8631 64.6973C32.6071 66.879 35.7955 68.4244 39.201 69.223C42.6065 70.0217 46.1451 70.054 49.5645 69.3176C52.9838 68.5813 56.1996 67.0944 58.9824 64.9631C61.7652 62.8318 64.0465 60.1086 65.6636 56.9877C67.2807 53.8668 68.1936 50.4251 68.3374 46.9082C68.4811 43.3912 67.8521 39.8857 66.4952 36.6416C65.1383 33.3975 63.0869 30.4948 60.4874 28.1406V28.1406Z" fill="#E7A993"/>
</g>
<g style="mix-blend-mode:screen" opacity="0.45">
<path d="M60.3382 27.9767C56.0095 24.1489 50.4425 22.0419 44.6809 22.0508C43.3038 22.0527 41.9294 22.1739 40.573 22.4131H40.4372C39.9846 22.4951 39.5319 22.5908 39.0792 22.7001H39.0249C37.6286 23.0306 36.2651 23.4882 34.951 24.0671L34.822 24.1286C34.4282 24.3132 34.0344 24.5046 33.6474 24.7096L33.5727 24.7438C32.3362 25.3997 31.1594 26.1636 30.0556 27.0266L29.9333 27.1291C29.6006 27.3889 29.2544 27.6623 28.9556 27.9425L28.8741 28.0109C28.1742 28.6379 27.51 29.3043 26.8847 30.0067C26.586 30.3484 26.294 30.6901 26.0156 31.0456L25.9138 31.1823C25.6558 31.5103 25.4045 31.8657 25.1669 32.1938L25.0922 32.2963C21.5369 37.444 20.1311 43.7908 21.1775 49.9712C22.2238 56.1516 25.6386 61.6715 30.687 65.3431C26.6671 61.8105 23.9454 57.0186 22.96 51.7394C21.9747 46.4601 22.7831 41.0006 25.2552 36.2401C26.9106 37.5099 28.8855 38.2888 30.9572 38.489C33.029 38.6892 35.1151 38.3027 36.9802 37.3732C38.8454 36.4436 40.4155 35.008 41.5134 33.2282C42.6113 31.4483 43.1933 29.3951 43.1939 27.3C43.1937 26.0621 42.9871 24.833 42.5828 23.6639C45.6697 23.1653 48.824 23.2848 51.865 24.0155C54.906 24.7461 57.7738 26.0737 60.3043 27.922L60.3382 27.9767Z" fill="#E7A993"/>
</g>
<g style="mix-blend-mode:screen" opacity="0.25">
<path d="M21.7583 39.5821C24.2419 42.6673 27.7615 44.7305 31.6528 45.3822C35.5441 46.0339 39.5378 45.2291 42.8799 43.1197C46.2221 41.0102 48.6815 37.7421 49.7938 33.9323C50.9061 30.1224 50.5945 26.0345 48.9176 22.4402C43.082 21.37 37.0598 22.5354 32.0344 25.7073C27.0089 28.8792 23.3434 33.8283 21.7583 39.5821V39.5821Z" fill="#E7A993"/>
</g>
<path style="mix-blend-mode:multiply" opacity="0.76" d="M44.6807 69.9498C57.8204 69.9498 68.4723 59.2273 68.4723 46.0003C68.4723 32.7733 57.8204 22.0508 44.6807 22.0508C31.541 22.0508 20.8892 32.7733 20.8892 46.0003C20.8892 59.2273 31.541 69.9498 44.6807 69.9498Z" fill="url(#paint0_linear_26_1107)"/>
<g opacity="0.72">
<path opacity="0.72" d="M23.4489 56.8468C23.3199 56.5939 23.2113 56.3342 23.0891 56.0745C13.3117 62.1849 9.02054 66.0944 8.52489 67.8373C8.48552 67.9384 8.48552 68.0507 8.52489 68.1518V68.2201C8.56563 68.2953 8.72858 68.3568 8.78969 68.3773C10.0322 68.7874 16.4147 68.8899 46.514 52.9646C64.636 43.3957 76.9935 34.1891 80.3477 30.4094C80.4268 30.3042 80.474 30.1781 80.4835 30.0465C80.493 29.9148 80.4644 29.7832 80.4012 29.6676C80.338 29.5519 80.2429 29.4572 80.1274 29.3948C80.0119 29.3323 79.8809 29.3049 79.7502 29.3158C77.2651 29.7259 72.3629 31.2364 65.2743 34.1823C65.3829 34.3668 65.4984 34.5445 65.5934 34.7359C71.4395 32.3437 75.2757 31.2843 75.717 32.1249C76.5997 33.8132 63.4954 42.5072 46.4121 51.5429C29.3289 60.5787 14.7987 66.5456 13.916 64.8573C13.4407 63.9278 17.1683 60.8931 23.4489 56.8468Z" fill="url(#paint1_linear_26_1107)"/>
<path opacity="0.72" d="M63.9164 32.0228C64.0182 32.1663 64.1133 32.3167 64.2151 32.4671C73.2456 28.6805 79.9404 26.6779 82.0384 27.3751C82.359 27.4624 82.6451 27.6471 82.8577 27.9039C83.0703 28.1607 83.1991 28.4773 83.2267 28.8104C83.2878 29.4939 83.4643 31.6127 72.6142 39.3772C64.5605 45.0369 56.1506 50.1647 47.4375 54.7284C43.5401 56.7789 39.3779 58.925 35.2701 60.9413C23.4015 66.7442 11.9131 71.5013 8.18545 70.2641C7.887 70.1787 7.60872 70.0336 7.36723 69.8375C7.12575 69.6414 6.92601 69.3983 6.77996 69.1227C6.63507 68.844 6.5472 68.539 6.52154 68.2255C6.49588 67.912 6.53296 67.5966 6.63058 67.2978C7.52684 64.1811 14.5 59.0959 22.3355 54.2363C22.2947 54.1201 22.2472 54.0107 22.2065 53.8945C9.06134 62.2331 0.832062 69.3483 2.13571 71.843C4.00291 75.404 24.7051 68.1317 48.3745 55.5896C72.0438 43.0475 89.7313 29.9928 87.8709 26.425C86.6284 24.0396 77.1022 26.4729 63.9164 32.0228Z" fill="url(#paint2_linear_26_1107)"/>
<path opacity="0.72" d="M70.1019 34.4351C70.292 34.4351 69.2599 35.6176 69.2328 35.6517C68.7801 36.0536 68.3039 36.4279 67.8069 36.7727C66.5168 37.7432 65.1725 38.6591 63.8009 39.5066C61.8726 40.7369 59.727 41.7348 57.9956 43.2111C57.7987 43.382 57.9956 43.6417 58.2333 43.5666C62.3547 42.1449 66.9514 38.9803 70.129 35.973C70.584 35.5492 71.3444 34.9341 70.9913 34.2164C70.9578 34.1115 70.8996 34.0163 70.8216 33.9389C70.7436 33.8615 70.6482 33.8043 70.5435 33.7721C70.4388 33.7398 70.3279 33.7336 70.2202 33.7538C70.1126 33.7741 70.0114 33.8202 69.9253 33.8883C69.8688 33.9216 69.8253 33.9733 69.8022 34.035C69.7791 34.0967 69.7778 34.1645 69.7985 34.2271C69.8192 34.2896 69.8607 34.3431 69.9159 34.3785C69.9712 34.4139 70.0368 34.4291 70.1019 34.4215V34.4351Z" fill="url(#paint3_linear_26_1107)"/>
<path opacity="0.72" d="M85.5826 31.7635C79.5193 38.6873 71.1746 42.5285 64.12 48.2151C64.0761 48.2501 64.0468 48.3003 64.0378 48.3559C64.0288 48.4115 64.0409 48.4685 64.0715 48.5156C64.1021 48.5627 64.1492 48.5966 64.2034 48.6105C64.2576 48.6245 64.315 48.6176 64.3644 48.5911C68.6759 46.3424 72.7227 43.3145 76.7287 40.5464C79.8316 38.4002 84.6252 35.8029 86.0375 32.0643C86.1258 31.8182 85.7727 31.538 85.5826 31.7635V31.7635Z" fill="url(#paint4_linear_26_1107)"/>
<path opacity="0.72" d="M60.0258 50.5183C57.0314 52.186 53.4668 53.6419 50.8052 55.8154C50.7753 55.8436 50.7553 55.8807 50.7481 55.9213C50.7409 55.9619 50.7469 56.0037 50.7652 56.0405C50.7835 56.0774 50.8131 56.1073 50.8497 56.1259C50.8863 56.1444 50.9278 56.1506 50.9681 56.1434C54.2476 55.2686 57.4864 52.931 60.2906 51.0651C60.5961 50.8601 60.372 50.3269 60.0258 50.5183Z" fill="url(#paint5_linear_26_1107)"/>
<path opacity="0.72" d="M39.2083 61.4884C34.3603 64.0788 29.1593 66.0951 24.3861 68.7881C24.1281 68.9316 24.2435 69.3896 24.5626 69.3144C29.8383 68.0567 34.7473 64.6051 39.4187 61.9258C39.6903 61.7686 39.4866 61.338 39.2083 61.4884Z" fill="url(#paint6_linear_26_1107)"/>
<path opacity="0.72" d="M18.1054 61.5701C17.3178 61.6521 16.2925 63.1011 17.1413 63.7299C17.569 64.0511 18.2208 63.7641 18.6486 63.6274C19.5051 63.4342 20.3035 63.0382 20.9775 62.4723C21.0117 62.4403 21.0347 62.3981 21.0432 62.3519C21.0516 62.3057 21.0451 62.258 21.0245 62.2158C21.004 62.1736 20.9705 62.1392 20.929 62.1177C20.8875 62.0962 20.8402 62.0887 20.7942 62.0964C20.1229 62.2369 19.4693 62.4524 18.8455 62.7388C18.5943 62.8277 17.8406 63.2446 17.6505 62.8755C17.5351 62.6363 18.0918 62.0075 18.2548 61.8708C18.4178 61.7341 18.2548 61.5564 18.1054 61.5701Z" fill="url(#paint7_linear_26_1107)"/>
<path opacity="0.72" d="M2.73332 73.5586C3.97586 74.4403 6.20292 74.5906 7.41151 73.5586C7.43425 73.5334 7.44963 73.5024 7.45596 73.4689C7.46229 73.4355 7.45931 73.401 7.44737 73.3692C7.43543 73.3374 7.41498 73.3095 7.38828 73.2886C7.36159 73.2677 7.32968 73.2547 7.29609 73.251C6.60938 73.3546 5.92925 73.4984 5.25914 73.6816C4.44964 73.8097 3.6206 73.6782 2.88948 73.3056C2.85365 73.2875 2.81243 73.2833 2.77372 73.2939C2.735 73.3044 2.70151 73.329 2.67965 73.3628C2.65779 73.3967 2.6491 73.4374 2.65524 73.4773C2.66139 73.5172 2.68194 73.5535 2.71295 73.5791L2.73332 73.5586Z" fill="url(#paint8_linear_26_1107)"/>
<path opacity="0.72" d="M7.6762 68.5622C8.13144 69.1442 8.78954 69.5302 9.51705 69.6419C10.2446 69.7536 10.987 69.5826 11.5939 69.1636C11.62 69.1476 11.6399 69.1232 11.6504 69.0944C11.661 69.0656 11.6617 69.0341 11.6522 69.0048C11.6428 68.9756 11.6239 68.9505 11.5986 68.9334C11.5732 68.9163 11.5429 68.9083 11.5125 68.9107C10.1545 69.0953 8.91195 69.3755 7.76447 68.4596C7.69657 68.4049 7.63546 68.5006 7.6762 68.5622V68.5622Z" fill="url(#paint9_linear_26_1107)"/>
<path opacity="0.72" d="M13.0673 69.1911C15.2468 68.74 17.9559 68.3368 19.8571 67.1407C20.0268 67.0313 20.0336 66.6964 19.7756 66.7032C17.5078 66.7032 15.0227 67.8857 12.9111 68.7537C12.6395 68.8631 12.7889 69.3073 13.074 69.2458L13.0673 69.1911Z" fill="url(#paint10_linear_26_1107)"/>
<path opacity="0.72" d="M20.9232 53.2042C18.7957 54.025 16.8335 55.2268 15.1315 56.7515C14.9142 56.9429 15.1315 57.3257 15.4099 57.189C17.4303 56.1486 19.3353 54.8953 21.093 53.4503C21.2288 53.3341 21.093 53.1495 20.9232 53.2042V53.2042Z" fill="url(#paint11_linear_26_1107)"/>
<path opacity="0.72" d="M76.0022 29.0355C77.0242 28.8304 78.0585 28.6934 79.0984 28.6254C79.5578 28.5919 80.0192 28.65 80.4563 28.7963C81.0403 29.0423 81.1353 29.5413 81.4069 30.0129C81.4204 30.0407 81.44 30.0651 81.4642 30.0842C81.4884 30.1033 81.5166 30.1166 81.5466 30.1232C81.5767 30.1298 81.6078 30.1294 81.6377 30.1221C81.6676 30.1149 81.6955 30.1009 81.7192 30.0812C82.6562 29.2405 81.2304 28.1333 80.4495 27.9282C78.8743 27.5113 77.2991 28.0923 75.8732 28.7074C75.6899 28.7826 75.7917 29.0628 75.9818 29.0355H76.0022Z" fill="url(#paint12_linear_26_1107)"/>
<path opacity="0.72" d="M80.9521 30.936C80.7416 31.032 80.5642 31.1891 80.4429 31.3871C80.3043 31.5678 80.209 31.7784 80.1645 32.0022C80.1631 32.0364 80.1693 32.0705 80.1825 32.102C80.1957 32.1335 80.2157 32.1617 80.241 32.1846C80.2663 32.2074 80.2963 32.2244 80.3288 32.2342C80.3614 32.2441 80.3957 32.2465 80.4293 32.2415C80.6663 32.1561 80.8715 31.9995 81.0172 31.7929C81.1629 31.5864 81.2421 31.3397 81.2441 31.0864C81.2441 30.9428 81.0608 30.895 80.9521 30.936V30.936Z" fill="url(#paint13_linear_26_1107)"/>
</g>
</g>
<defs>
<linearGradient id="paint0_linear_26_1107" x1="27.8555" y1="29.0634" x2="61.7286" y2="62.7131" gradientUnits="userSpaceOnUse">
<stop stop-color="#FF0000"/>
<stop offset="0.11" stop-color="#F30007"/>
<stop offset="0.3" stop-color="#D20119"/>
<stop offset="0.56" stop-color="#9D0236"/>
<stop offset="0.87" stop-color="#55045E"/>
<stop offset="1" stop-color="#340570"/>
</linearGradient>
<linearGradient id="paint1_linear_26_1107" x1="7.99309" y1="67.1486" x2="81.4104" y2="31.7028" gradientUnits="userSpaceOnUse">
<stop stop-color="#FFB6A0"/>
<stop offset="0.15" stop-color="#F3ACA1"/>
<stop offset="0.42" stop-color="#D293A5"/>
<stop offset="0.77" stop-color="#9E6BAB"/>
<stop offset="0.99" stop-color="#7A4FAF"/>
</linearGradient>
<linearGradient id="paint2_linear_26_1107" x1="14910.9" y1="13348.3" x2="27175.2" y2="13348.3" gradientUnits="userSpaceOnUse">
<stop stop-color="#FFB6A0"/>
<stop offset="0.15" stop-color="#F3ACA1"/>
<stop offset="0.42" stop-color="#D293A5"/>
<stop offset="0.77" stop-color="#9E6BAB"/>
<stop offset="0.99" stop-color="#7A4FAF"/>
</linearGradient>
<linearGradient id="paint3_linear_26_1107" x1="3556.65" y1="2793.12" x2="3852.51" y2="2793.12" gradientUnits="userSpaceOnUse">
<stop stop-color="#FFB6A0"/>
<stop offset="0.15" stop-color="#F3ACA1"/>
<stop offset="0.42" stop-color="#D293A5"/>
<stop offset="0.77" stop-color="#9E6BAB"/>
<stop offset="0.99" stop-color="#7A4FAF"/>
</linearGradient>
<linearGradient id="paint4_linear_26_1107" x1="6022.37" y1="4930.86" x2="6881.9" y2="4930.86" gradientUnits="userSpaceOnUse">
<stop stop-color="#FFB6A0"/>
<stop offset="0.15" stop-color="#F3ACA1"/>
<stop offset="0.42" stop-color="#D293A5"/>
<stop offset="0.77" stop-color="#9E6BAB"/>
<stop offset="0.99" stop-color="#7A4FAF"/>
</linearGradient>
<linearGradient id="paint5_linear_26_1107" x1="2455.11" y1="1718.52" x2="2605.59" y2="1718.52" gradientUnits="userSpaceOnUse">
<stop stop-color="#FFB6A0"/>
<stop offset="0.15" stop-color="#F3ACA1"/>
<stop offset="0.42" stop-color="#D293A5"/>
<stop offset="0.77" stop-color="#9E6BAB"/>
<stop offset="0.99" stop-color="#7A4FAF"/>
</linearGradient>
<linearGradient id="paint6_linear_26_1107" x1="3157.25" y1="2382.52" x2="3529.25" y2="2382.52" gradientUnits="userSpaceOnUse">
<stop stop-color="#FFB6A0"/>
<stop offset="0.15" stop-color="#F3ACA1"/>
<stop offset="0.42" stop-color="#D293A5"/>
<stop offset="0.77" stop-color="#9E6BAB"/>
<stop offset="0.99" stop-color="#7A4FAF"/>
</linearGradient>
<linearGradient id="paint7_linear_26_1107" x1="856.408" y1="713.153" x2="879.56" y2="713.153" gradientUnits="userSpaceOnUse">
<stop stop-color="#FFB6A0"/>
<stop offset="0.15" stop-color="#F3ACA1"/>
<stop offset="0.42" stop-color="#D293A5"/>
<stop offset="0.77" stop-color="#9E6BAB"/>
<stop offset="0.99" stop-color="#7A4FAF"/>
</linearGradient>
<linearGradient id="paint8_linear_26_1107" x1="834.84" y1="368.922" x2="863.723" y2="368.922" gradientUnits="userSpaceOnUse">
<stop stop-color="#FFB6A0"/>
<stop offset="0.15" stop-color="#F3ACA1"/>
<stop offset="0.42" stop-color="#D293A5"/>
<stop offset="0.77" stop-color="#9E6BAB"/>
<stop offset="0.99" stop-color="#7A4FAF"/>
</linearGradient>
<linearGradient id="paint9_linear_26_1107" x1="738.052" y1="419.415" x2="757.232" y2="419.415" gradientUnits="userSpaceOnUse">
<stop stop-color="#FFB6A0"/>
<stop offset="0.15" stop-color="#F3ACA1"/>
<stop offset="0.42" stop-color="#D293A5"/>
<stop offset="0.77" stop-color="#9E6BAB"/>
<stop offset="0.99" stop-color="#7A4FAF"/>
</linearGradient>
<linearGradient id="paint10_linear_26_1107" x1="1379.84" y1="800.875" x2="1453.67" y2="800.875" gradientUnits="userSpaceOnUse">
<stop stop-color="#FFB6A0"/>
<stop offset="0.15" stop-color="#F3ACA1"/>
<stop offset="0.42" stop-color="#D293A5"/>
<stop offset="0.77" stop-color="#9E6BAB"/>
<stop offset="0.99" stop-color="#7A4FAF"/>
</linearGradient>
<linearGradient id="paint11_linear_26_1107" x1="1237.9" y1="1149.2" x2="1298.16" y2="1149.2" gradientUnits="userSpaceOnUse">
<stop stop-color="#FFB6A0"/>
<stop offset="0.15" stop-color="#F3ACA1"/>
<stop offset="0.42" stop-color="#D293A5"/>
<stop offset="0.77" stop-color="#9E6BAB"/>
<stop offset="0.99" stop-color="#7A4FAF"/>
</linearGradient>
<linearGradient id="paint12_linear_26_1107" x1="1942.26" y1="677.51" x2="1987.64" y2="677.51" gradientUnits="userSpaceOnUse">
<stop stop-color="#FFB6A0"/>
<stop offset="0.15" stop-color="#F3ACA1"/>
<stop offset="0.42" stop-color="#D293A5"/>
<stop offset="0.77" stop-color="#9E6BAB"/>
<stop offset="0.99" stop-color="#7A4FAF"/>
</linearGradient>
<linearGradient id="paint13_linear_26_1107" x1="406.722" y1="403.33" x2="408.364" y2="403.33" gradientUnits="userSpaceOnUse">
<stop stop-color="#FFB6A0"/>
<stop offset="0.15" stop-color="#F3ACA1"/>
<stop offset="0.42" stop-color="#D293A5"/>
<stop offset="0.77" stop-color="#9E6BAB"/>
<stop offset="0.99" stop-color="#7A4FAF"/>
</linearGradient>
<clipPath id="clip0_26_1107">
<rect width="86" height="78" fill="white" transform="translate(2 7)"/>
</clipPath>
</defs>
</svg>
