<svg width="93" height="93" viewBox="0 0 93 93" fill="none" xmlns="http://www.w3.org/2000/svg">
<g clip-path="url(#clip0_26_2646)">
<path d="M42.4778 9.18816C13.8095 11.9089 -1.61708 46.0531 17.3632 69.3772C20.8094 73.6105 25.1498 77.0274 30.0725 79.3822C34.9953 81.7371 40.3781 82.9715 45.8342 82.9967C51.2904 83.0219 56.6843 81.8374 61.6286 79.5282C66.5728 77.2189 70.9446 73.8424 74.4298 69.6411C95.2434 44.6079 75.6227 6.02131 42.4778 9.18816Z" fill="url(#paint0_radial_26_2646)"/>
<path d="M74.5866 46.0339C74.5866 46.3166 74.5866 46.6056 74.5866 46.8884C74.5348 48.6547 74.3246 50.4127 73.9587 52.1414C73.5744 53.9154 73.0172 55.6475 72.2949 57.3126C71.8381 58.3929 71.3117 59.4424 70.719 60.4543C67.9845 65.1427 63.9739 68.956 59.1553 71.4489C54.3366 73.9418 48.9088 75.0116 43.5055 74.5333C38.1022 74.055 32.9463 72.0484 28.6397 68.7477C24.3331 65.447 21.0536 60.9885 19.1839 55.8926V55.8926C19.0144 55.4276 18.8574 54.9626 18.713 54.4914C17.9062 51.8577 17.4833 49.1214 17.4573 46.3669C17.4573 46.2601 17.4573 46.147 17.4573 46.0401C17.4577 44.4123 17.5963 42.7874 17.8717 41.183C17.9972 40.4416 18.1542 39.7064 18.3363 38.9901C19.734 33.47 22.7478 28.4937 26.991 24.6995C31.2342 20.9054 36.5133 18.4664 42.1512 17.6956C43.4415 17.5218 44.7419 17.4336 46.0439 17.4317C52.4998 17.4239 58.767 19.6106 63.8187 23.6334C66.1698 25.5078 68.214 27.7381 69.8776 30.2436C72.9459 34.8698 74.5958 40.2929 74.6243 45.8453C74.5866 45.8705 74.5866 45.9396 74.5866 46.0339Z" fill="url(#paint1_radial_26_2646)"/>
<path d="M51.8832 61.9875C50.8786 64.1741 47.8523 64.1741 44.6564 67.0143C41.4606 69.8544 36.9212 67.6866 36.0798 66.0026C35.2385 64.3187 40.117 62.974 41.4606 62.132C42.8042 61.2901 43.8151 56.7471 37.0656 58.2614C30.316 59.7757 28.8217 59.9454 24.4518 56.9168C22.1726 55.3396 20.3518 55.4025 19.1338 55.8297C18.0178 52.7766 17.4317 49.5549 17.4009 46.3041C19.1715 45.9082 21.6641 45.9082 24.9352 47.1586C32.5073 50.0176 33.6814 47.1586 41.4167 47.1586C49.1519 47.1586 50.3261 51.0229 50.1628 55.5721C49.9996 60.1213 52.894 59.8009 51.8832 61.9875Z" fill="url(#paint2_linear_26_2646)"/>
<path d="M74.5803 45.8077C70.7504 44.8903 66.5437 47.5356 66.6818 52.7195C66.8514 59.116 64.1704 58.4437 62.8142 62.1446C62.1047 64.0925 63.8627 65.6194 65.74 66.6813C63.5685 68.7596 61.0857 70.4853 58.3815 71.796C54.8026 68.7799 55.7507 64.9722 59.1161 60.1402C62.9837 54.5856 58.6138 52.2294 61.301 44.1489C63.1846 38.4938 69.6893 37.79 73.4125 37.8654C74.1778 40.4437 74.571 43.1181 74.5803 45.8077V45.8077Z" fill="url(#paint3_linear_26_2646)"/>
<path d="M73.9337 52.1104C73.2969 55.0325 72.2035 57.8358 70.694 60.417C69.6517 55.6291 72.182 53.1911 73.9337 52.1104Z" fill="url(#paint4_linear_26_2646)"/>
<path d="M69.8339 30.2062C66.142 32.0535 61.546 32.4683 57.9358 30.0177C53.2331 26.8195 51.72 24.2935 43.1434 24.1301C38.1707 24.0296 35.5713 21.7801 34.2654 19.9077C36.7587 18.787 39.3995 18.0295 42.1074 17.6582C42.9173 19.361 44.5184 21.0324 47.6828 20.5926C53.7354 19.7506 53.7354 19.7506 58.4444 23.1059C59.2151 23.6417 60.1119 23.9675 61.0465 24.0512C61.9811 24.1349 62.9215 23.9737 63.775 23.5835C66.127 25.4617 68.1713 27.6963 69.8339 30.2062V30.2062Z" fill="url(#paint5_linear_26_2646)"/>
<path d="M28.6835 29.0058C29.1607 35.4024 26.6492 37.2371 21.6263 39.1221C20.2818 39.6242 19.0138 40.3115 17.8591 41.1643C18.1707 39.3226 18.665 37.5166 19.3346 35.7731C19.8495 35.5343 20.402 35.2955 20.9796 35.0819C24.1692 33.9069 25.1612 32.468 24.8473 28.3523C24.8096 27.8832 24.7845 27.3994 24.7719 26.9009C26.0552 25.4709 27.4792 24.1742 29.0225 23.0303C28.6225 24.9954 28.5083 27.008 28.6835 29.0058V29.0058Z" fill="url(#paint6_linear_26_2646)"/>
<path d="M42.1323 39.1224C40.4434 37.4322 33.3862 39.1224 32.0425 36.2634C30.6989 33.4045 32.8839 30.3696 36.7515 30.5392C40.6192 30.7089 43.9845 28.6919 46 31.7205C48.0154 34.7491 54.068 34.2339 55.4179 37.2688C56.5292 39.7822 55.2484 43.9858 49.3653 43.3323C44.8572 42.8045 44.3173 41.2902 42.1323 39.1224Z" fill="url(#paint7_linear_26_2646)"/>
<g opacity="0.5">
<path opacity="0.5" d="M56.9311 46.1727C56.5732 45.0354 55.9202 46.1727 53.5657 46.5057C51.2112 46.8387 51.8831 48.862 53.233 49.7039C54.5829 50.5459 57.7724 48.862 56.9311 46.1727Z" fill="#146072"/>
<path opacity="0.5" d="M33.0536 41.9624C33.8509 40.0774 31.3709 40.2848 29.6882 39.6061C28.0055 38.9275 27.1768 40.1151 26.1596 41.9624C25.1425 43.8098 26.8314 44.8277 29.0164 43.8475C31.2013 42.8672 32.5513 43.1437 33.0536 41.9624Z" fill="#146072"/>
<path opacity="0.5" d="M34.7362 42.3018C34.4223 41.6734 32.7145 43.1438 33.2231 43.3134C33.7316 43.4831 35.2385 43.3134 34.7362 42.3018Z" fill="#146072"/>
<path opacity="0.5" d="M61.6402 34.3911C60.5163 34.5294 59.7566 34.9001 59.9575 35.7358C60.1584 36.5715 63.6556 36.4144 64.1579 36.0751C64.6602 35.7358 62.9838 34.2215 61.6402 34.3911Z" fill="#146072"/>
<path opacity="0.5" d="M50.0372 28.5027C49.5036 27.4408 48.1851 28.8358 47.5258 29.0054C46.8665 29.1751 46.854 30.3501 48.6999 30.6894C50.5458 31.0287 50.37 29.1751 50.0372 28.5027Z" fill="#146072"/>
<path opacity="0.5" d="M32.0427 22.4459C30.8686 22.7978 30.1968 23.2879 31.2014 23.7906C32.2059 24.2933 32.884 25.3049 33.2231 24.1299C33.5621 22.9549 33.7254 21.937 32.0427 22.4459Z" fill="#146072"/>
<path opacity="0.5" d="M52.3918 50.2124C51.8895 50.1622 52.0527 51.3874 52.7245 51.5571C53.3963 51.7268 54.2377 50.3758 52.3918 50.2124Z" fill="#146072"/>
<path opacity="0.5" d="M56.0899 55.7607C55.3616 55.9429 54.2377 57.275 54.7463 57.7839C55.2549 58.2929 56.0899 57.7839 56.7617 57.7839C57.4335 57.7839 56.7869 55.5973 56.0899 55.7607Z" fill="#146072"/>
<path opacity="0.5" d="M50.0374 68.3846C48.8821 68.6736 47.1743 69.3962 47.1743 70.2319C47.1743 71.0676 48.6875 70.5712 50.7092 71.0739C52.7309 71.5765 54.9096 70.5712 54.0683 68.3846C53.2269 66.1979 51.381 68.0264 50.0374 68.3846Z" fill="#115560"/>
<path opacity="0.5" d="M29.5187 64.3442C28.8908 64.9726 28.175 65.5255 28.8469 66.2293C29.5187 66.933 30.699 66.0596 31.7099 66.2293C32.7208 66.3989 33.5558 65.3873 33.0535 64.0426C32.5513 62.698 30.5295 63.3326 29.5187 64.3442Z" fill="#115560"/>
<path opacity="0.5" d="M33.0535 62.3271C32.7898 62.0569 32.2122 62.4968 32.7144 62.8298C33.2167 63.1628 33.8948 63.1691 33.0535 62.3271Z" fill="#146072"/>
<path opacity="0.5" d="M58.6139 40.2845C58.0551 39.8635 57.264 41.1202 57.9358 41.4595C58.0889 41.5218 58.2594 41.5266 58.4157 41.473C58.5721 41.4193 58.7037 41.3109 58.7864 41.1676C58.869 41.0244 58.8971 40.8561 58.8654 40.6938C58.8337 40.5314 58.7444 40.3861 58.6139 40.2845V40.2845Z" fill="#146072"/>
<path opacity="0.5" d="M39.9474 25.9768C39.5393 25.1662 38.6037 25.8072 38.4342 26.6491C38.2647 27.4911 40.2801 26.6491 39.9474 25.9768Z" fill="#146072"/>
<path opacity="0.5" d="M41.1216 25.6445C40.7888 25.6445 41.1216 26.8195 41.4606 26.6499C41.5697 26.5879 41.6537 26.4898 41.6984 26.3726C41.7431 26.2553 41.7456 26.1261 41.7055 26.0072C41.6654 25.8883 41.5852 25.7871 41.4786 25.7209C41.3721 25.6547 41.2458 25.6277 41.1216 25.6445V25.6445Z" fill="#146072"/>
<path opacity="0.5" d="M39.7781 71.0737C39.4453 71.0737 39.7781 72.2549 40.1171 72.0853C40.2308 72.0256 40.3194 71.9274 40.3673 71.8082C40.4151 71.689 40.419 71.5567 40.3782 71.4349C40.3374 71.3132 40.2545 71.2099 40.1446 71.1437C40.0346 71.0775 39.9047 71.0527 39.7781 71.0737V71.0737Z" fill="#115560"/>
</g>
<path style="mix-blend-mode:multiply" opacity="0.35" d="M72.27 57.2815C71.8132 58.3618 71.2868 59.4112 70.694 60.4232C67.9596 65.1116 63.949 68.9248 59.1303 71.4177C54.3117 73.9107 48.8839 74.9804 43.4806 74.5022C38.0773 74.0239 32.9214 72.0173 28.6148 68.7166C24.3082 65.4159 21.0287 60.9573 19.159 55.8614V55.8614C18.9895 55.3964 18.8325 54.9315 18.6881 54.4602C17.8813 51.8266 17.4584 49.0902 17.4324 46.3357C17.4324 46.2289 17.4324 46.1158 17.4324 46.009C17.4328 44.3811 17.5714 42.7563 17.8468 41.1519C17.9723 40.4105 18.1293 39.6753 18.3114 38.959C22.0409 48.0134 30.6677 62.0129 48.6246 63.257C50.1081 63.3618 51.5961 63.3891 53.0825 63.3387C59.9177 63.1505 66.564 61.0524 72.27 57.2815V57.2815Z" fill="url(#paint8_linear_26_2646)"/>
<path style="mix-blend-mode:multiply" opacity="0.5" d="M74.574 46.8574C74.5222 48.6237 74.3121 50.3817 73.9462 52.1104C73.5619 53.8844 73.0046 55.6165 72.2823 57.2816C71.8256 58.3619 71.2991 59.4114 70.7064 60.4234C67.972 65.1117 63.9613 68.925 59.1427 71.4179C54.3241 73.9108 48.8963 74.9806 43.4929 74.5023C38.0896 74.024 32.9337 72.0174 28.6271 68.7167C24.3205 65.4161 21.041 60.9575 19.1713 55.8616V55.8616C19.0018 55.3966 18.8448 54.9316 18.7004 54.4604C31.9672 65.5129 43.6517 66.468 53.0823 63.3389C63.0088 60.0338 70.4427 52.1921 74.574 46.8574Z" fill="url(#paint9_linear_26_2646)"/>
</g>
<defs>
<radialGradient id="paint0_radial_26_2646" cx="0" cy="0" r="1" gradientUnits="userSpaceOnUse" gradientTransform="translate(46.0001 46.0028) scale(34.2374 34.2636)">
<stop stop-color="#EAEF6A"/>
<stop offset="1" stop-color="#DDF160" stop-opacity="0"/>
</radialGradient>
<radialGradient id="paint1_radial_26_2646" cx="0" cy="0" r="1" gradientUnits="userSpaceOnUse" gradientTransform="translate(44.4868 29.3451) scale(39.8819 39.9124)">
<stop stop-color="#83EF65"/>
<stop offset="1" stop-color="#0C7293"/>
</radialGradient>
<linearGradient id="paint2_linear_26_2646" x1="32.0678" y1="12.4678" x2="36.6393" y2="82.936" gradientUnits="userSpaceOnUse">
<stop stop-color="#DBED4F"/>
<stop offset="1" stop-color="#B9ED29" stop-opacity="0"/>
</linearGradient>
<linearGradient id="paint3_linear_26_2646" x1="8995.57" y1="1478.43" x2="9444.32" y2="5247.2" gradientUnits="userSpaceOnUse">
<stop stop-color="#DBED4F"/>
<stop offset="1" stop-color="#B9ED29" stop-opacity="0"/>
</linearGradient>
<linearGradient id="paint4_linear_26_2646" x1="1794.35" y1="398.832" x2="1935.39" y2="1312.64" gradientUnits="userSpaceOnUse">
<stop stop-color="#DBED4F"/>
<stop offset="1" stop-color="#B9ED29" stop-opacity="0"/>
</linearGradient>
<linearGradient id="paint5_linear_26_2646" x1="16610.2" y1="631.102" x2="16650.8" y2="2214.4" gradientUnits="userSpaceOnUse">
<stop stop-color="#DBED4F"/>
<stop offset="1" stop-color="#B9ED29" stop-opacity="0"/>
</linearGradient>
<linearGradient id="paint6_linear_26_2646" x1="4705.15" y1="868.074" x2="4917.85" y2="2887.95" gradientUnits="userSpaceOnUse">
<stop stop-color="#DBED4F"/>
<stop offset="1" stop-color="#B9ED29" stop-opacity="0"/>
</linearGradient>
<linearGradient id="paint7_linear_26_2646" x1="10931.7" y1="625.371" x2="10985.6" y2="2128.41" gradientUnits="userSpaceOnUse">
<stop stop-color="#DBED4F"/>
<stop offset="1" stop-color="#B9ED29" stop-opacity="0"/>
</linearGradient>
<linearGradient id="paint8_linear_26_2646" x1="29.1985" y1="72.456" x2="46.0555" y2="47.4536" gradientUnits="userSpaceOnUse">
<stop stop-color="#CC622E"/>
<stop offset="1" stop-color="#CC622E" stop-opacity="0.2"/>
</linearGradient>
<linearGradient id="paint9_linear_26_2646" x1="59.0721" y1="79.946" x2="46.0585" y2="49.5602" gradientUnits="userSpaceOnUse">
<stop stop-color="#11727F"/>
<stop offset="1" stop-color="#11727F" stop-opacity="0.2"/>
</linearGradient>
<clipPath id="clip0_26_2646">
<rect width="74" height="74" fill="white" transform="translate(9 9)"/>
</clipPath>
</defs>
</svg>
