<svg width="93" height="93" viewBox="0 0 93 93" fill="none" xmlns="http://www.w3.org/2000/svg">
<path d="M66.3652 66.3851C77.3485 55.4018 77.3485 37.5943 66.3652 26.611C55.3819 15.6277 37.5744 15.6277 26.5911 26.611C15.6078 37.5943 15.6078 55.4018 26.5912 66.3851C37.5745 77.3684 55.3819 77.3684 66.3652 66.3851Z" fill="#4FB3FF"/>
<path d="M74.6008 46.4997C74.5998 40.5406 72.7066 34.7357 69.194 29.9219C65.6814 25.1081 60.731 21.534 55.0564 19.7148C55.5588 23.957 55.7422 30.4719 54.1872 34.0203C51.795 39.4666 49.4028 44.9049 43.6455 43.3739C37.8882 41.8429 34.2919 40.3118 29.6989 43.3739C27.0435 45.1441 22.1155 44.578 18.6309 42.5765C18.0886 46.397 18.3384 50.2882 19.3646 54.008C20.3908 57.7279 22.1715 61.1967 24.5959 64.1988C27.0203 67.2009 30.0366 69.672 33.457 71.4583C36.8774 73.2446 40.6289 74.3079 44.4779 74.5821C48.327 74.8562 52.1912 74.3354 55.8304 73.052C59.4695 71.7686 62.8055 69.7501 65.631 67.122C68.4565 64.4939 70.711 61.3125 72.2541 57.7756C73.7972 54.2388 74.596 50.4223 74.6008 46.5635V46.4997Z" fill="#41AAF9"/>
<path d="M64.7686 25.1455C62.3764 28.4547 58.6605 33.917 56.9141 38.6137C54.187 45.9259 48.9401 51.3722 42.2817 49.4983C35.9663 47.7121 23.7022 47.6324 18.9895 52.4886C19.9391 56.848 21.9121 60.9189 24.7458 64.3651C27.5794 67.8114 31.1923 70.534 35.286 72.3082C39.3797 74.0823 43.8367 74.8571 48.289 74.5685C52.7412 74.2799 57.061 72.9362 60.8914 70.6484C64.7217 68.3605 67.9529 65.1943 70.3179 61.411C72.6829 57.6278 74.1139 53.3362 74.4927 48.8907C74.8715 44.4452 74.1872 39.9734 72.4963 35.8445C70.8055 31.7157 68.1567 28.0484 64.7686 25.1455V25.1455Z" fill="#2BA1F9"/>
<path d="M46.4762 74.6246C51.896 74.6266 57.2008 73.0621 61.7521 70.1194C66.3034 67.1768 69.9073 62.9814 72.1299 58.0383C74.3525 53.0953 75.099 47.6151 74.2797 42.2577C73.4604 36.9002 71.1101 31.8937 67.5118 27.8408C63.8677 36.9313 66.3635 44.5864 59.9763 50.5191C52.3212 57.6957 41.2612 50.8619 33.949 52.9113C29.8423 54.0516 24.9463 56.5076 20.4409 57.1614C22.5572 62.3276 26.1633 66.7471 30.7997 69.857C35.4362 72.9669 40.8933 74.6266 46.4762 74.6246V74.6246Z" fill="#41AAF9"/>
<path d="M42.9676 67.6951C38.4064 69.1863 33.7177 69.0507 29.8662 69.1942C34.9528 72.9152 41.1417 74.8198 47.4402 74.6026C53.7388 74.3855 59.7818 72.0591 64.6001 67.9967C69.4183 63.9343 72.7325 58.3713 74.0109 52.2001C75.2894 46.0289 74.4581 39.6071 71.6503 33.9648C70.3742 36.8009 69.4787 39.7931 68.9869 42.8639C66.9456 55.2795 51.8108 64.8085 42.9676 67.6951Z" fill="#4FB3FF"/>
<path d="M21.0388 34.4911C21.2364 34.6867 21.4727 34.8388 21.7326 34.9376C22.2586 35.0714 22.812 35.0521 23.3274 34.8818C24.8424 34.507 26.2858 33.8611 27.8168 33.5422C28.5709 33.3346 29.3599 33.2855 30.1339 33.398C30.908 33.5106 31.6503 33.7823 32.3141 34.196C33.2152 34.8499 33.7973 35.8786 34.7063 36.4766C35.8885 37.0978 37.248 37.2948 38.5578 37.0348C40.684 36.8846 42.7255 36.1415 44.4507 34.8898C45.8283 33.6783 46.9181 32.1745 47.6403 30.4881C49.4344 26.7642 50.4551 22.2748 48.653 18.527C48.65 18.4978 48.65 18.4685 48.653 18.4393C47.9274 18.3835 47.2097 18.3516 46.4761 18.3516C41.142 18.3527 35.9183 19.8706 31.4143 22.7283C26.9103 25.586 23.3119 29.6656 21.0388 34.4911V34.4911Z" fill="#2BA1F9"/>
<path d="M46.6039 58.1897L39.4272 58.1179C34.7544 58.078 25.9909 57.0653 22.3069 60.7254V60.7733C23.9621 63.577 26.0877 66.0748 28.5905 68.1573L47.178 61.5468C48.1747 61.1879 49.3868 60.4942 49.1954 59.4575C49.004 58.4209 47.6405 58.2056 46.6039 58.1897Z" fill="#4FB3FF"/>
<path d="M25.9509 27.2587C26.3448 27.3701 26.7543 27.4159 27.163 27.3943C28.1358 27.3385 29.0768 27.0435 30.0416 26.9717C30.5206 26.897 31.0103 26.9299 31.475 27.0678C31.9398 27.2057 32.3681 27.4453 32.7289 27.7691C33.0753 28.2498 33.3846 28.7563 33.6539 29.2842C34.0957 29.8848 34.6857 30.3607 35.3663 30.6654C36.047 30.97 36.7949 31.0931 37.5372 31.0225C39.0233 30.8631 40.4335 30.2852 41.604 29.3559C42.848 28.4628 43.9962 26.9159 43.3743 25.5284C43.135 25.026 42.6566 24.5476 42.7921 24.0053C42.9277 23.4631 43.3503 23.3355 43.7251 23.0883C44.4641 22.561 45.04 21.8365 45.3868 20.9975C45.7337 20.1586 45.8376 19.239 45.6867 18.3438C41.9705 18.4483 38.3122 19.2902 34.9242 20.8207C31.5361 22.3511 28.486 24.5395 25.9509 27.2587V27.2587Z" fill="#41AAF9"/>
<path d="M46.4761 74.6248C50.8541 74.6234 55.1714 73.6002 59.0844 71.6367C62.9974 69.6732 66.3982 66.8235 69.016 63.3144C71.6339 59.8053 73.3967 55.7337 74.164 51.4234C74.9314 47.1132 74.6823 42.6833 73.4364 38.4863C71.8415 39.5055 70.6191 41.0133 69.9517 42.7844C68.939 45.5753 69.4175 48.6373 69.4494 51.6037C69.4813 54.57 68.8274 57.8872 66.3714 59.5777C65.7255 60.0163 64.9839 60.3114 64.338 60.7579C61.6188 62.6318 60.9729 66.866 57.9587 68.1578C56.5473 68.7479 54.8967 68.5565 53.4773 69.1386C51.9224 69.7766 50.7582 71.2996 49.0996 71.6026C47.4409 71.9056 46.0614 71.0285 44.5464 70.5979C41.7794 69.8005 38.7971 70.4384 36.0939 71.3953C35.5915 71.5787 35.0971 71.7781 34.5947 71.9854C38.3146 73.7233 42.3703 74.6243 46.4761 74.6248V74.6248Z" fill="#41AAF9"/>
<path d="M34.5629 60.2157C32.3301 59.4901 26.9078 61.1168 23.6863 62.9827C24.2869 63.8136 24.931 64.6121 25.616 65.3749C32.4418 62.8232 44.2354 60.7978 43.9563 60.0403C43.6453 59.0116 37.1863 61.061 34.5629 60.2157Z" fill="#2BA1F9"/>
<path d="M68.5484 47.4805C68.1816 50.3511 68.1338 53.3335 67.1291 56.0765C66.0366 59.0668 63.3414 61.6584 60.7897 63.4765C56.3721 66.6023 51.0215 67.7585 45.9819 69.449C43.1193 70.2998 40.4112 71.6028 37.96 73.3085C39.0504 73.6442 40.161 73.9106 41.2851 74.1059C48.079 70.8206 56.2524 70.2465 62.3047 65.4142C66.2918 62.2245 69.0747 58.1259 69.7924 53.0384C70.4383 48.4613 70.0954 42.4489 73.612 39.0838C73.5004 38.6691 73.3807 38.2864 73.2452 37.8398C70.1672 39.8972 69.0269 43.7486 68.5484 47.4805Z" fill="#70C1FF"/>
<path d="M37.609 49.5859C38.7288 50.0593 39.8227 50.5917 40.8863 51.1807C42.0181 51.923 43.2104 52.5685 44.4507 53.1104C48.5334 54.5936 52.4806 53.0147 55.4549 50.1042C59.0512 46.5956 59.7768 42.4013 61.1643 37.7683C62.3597 33.8919 64.2512 30.2657 66.7462 27.0671C66.5628 26.8678 66.3794 26.6764 66.188 26.493C64.4355 28.5754 62.9858 30.8948 61.882 33.3826C59.8566 37.7922 59.5775 43.2146 56.5553 47.082C53.6927 50.7421 48.4856 53.3576 44.0839 50.9415C44.4427 50.9415 44.8016 50.9415 45.1684 50.9415C47.785 50.7113 50.2704 49.6938 52.2972 48.023C54.9526 45.8461 56.1805 42.6963 57.584 39.6582C59.107 36.3489 60.5105 32.968 62.1372 29.7066C62.8759 28.1453 63.8111 26.6848 64.9201 25.3607C64.5533 25.0417 64.1786 24.7307 63.7878 24.4277C61.3557 26.82 59.8486 30.2887 58.3814 33.3746C55.4788 39.4907 53.2381 47.9113 45.3518 48.8124C39.1878 49.5141 33.7256 44.6021 27.5776 47.4489C24.986 48.6529 22.9207 50.7182 20.4886 52.1775C20.0312 52.4539 19.5542 52.6964 19.0613 52.9031C19.2287 53.6208 19.4122 54.3305 19.6275 55.0242C21.7725 53.9876 23.6145 52.4326 25.5442 51.0372C28.8534 48.645 31.8357 48.0389 35.8307 49.1234L37.609 49.5859Z" fill="#70C1FF"/>
<path d="M23.8696 36.0301C25.6398 35.2326 27.3543 34.0764 29.3637 34.0206C31.3732 33.9648 32.4816 35.1768 33.8451 36.349C35.5596 37.8322 37.3059 38.7412 39.6263 38.3027C44.2035 37.5053 48.1506 33.8053 49.7773 29.5312C50.6621 27.1697 50.8935 24.6133 50.4471 22.1313C50.2345 20.898 49.8786 19.6937 49.3866 18.5429C48.4297 18.4473 47.4569 18.3994 46.4761 18.3994C47.0541 19.3367 47.5223 20.3374 47.8715 21.3817C48.4707 23.4467 48.4928 25.6364 47.9353 27.7131C47.4116 29.5631 46.4497 31.2596 45.131 32.6588C43.8123 34.058 42.1757 35.1187 40.36 35.751C36.046 37.1464 34.2997 32.5613 30.3525 32.1068C28.8491 31.9944 27.342 32.2689 25.9747 32.9042C25.2571 33.1993 23.9414 34.2359 23.1998 34.2678C22.2269 34.2678 21.6927 34.0684 21.4455 33.7016C21.0787 34.4033 20.7438 35.121 20.4487 35.8546C21.3578 36.6361 22.6416 36.5643 23.8696 36.0301Z" fill="#70C1FF"/>
<path d="M38.9886 70.4701C45.2801 67.6553 51.6355 65.1036 57.1296 60.8295C61.934 57.2558 65.6255 52.3918 67.775 46.8031C69.1864 42.8639 70.1273 38.534 72.0889 34.8819C71.9454 34.5709 71.8018 34.2679 71.6503 33.9648C69.8832 36.8488 68.5405 39.9721 67.6633 43.2387C65.51 50.5612 60.7837 56.8592 54.3546 60.973C48.1029 65.1195 40.9502 66.9376 34.3238 70.2787C33.8294 70.5339 33.327 70.805 32.8167 71.0761C33.5937 71.5071 34.3921 71.8983 35.2089 72.2483C36.4528 71.6184 37.7287 71.0363 38.9886 70.4701Z" fill="#70C1FF"/>
<path d="M24.3801 46.2847C30.1772 45.3358 36.7319 39.108 42.4891 43.4698C42.6167 43.5735 42.8161 43.3742 42.7204 43.2386C38.9726 38.0076 32.4976 41.3567 27.8328 43.127C24.8559 44.3097 21.5602 44.4197 18.5111 43.438C18.4314 44.2354 18.3835 45.0328 18.3596 45.8302C20.3094 46.4182 22.3641 46.5733 24.3801 46.2847V46.2847Z" fill="#70C1FF"/>
<path d="M52.1139 32.2898C54.235 28.2071 53.8602 23.1595 52.1139 18.9412L51.3564 18.8057C52.8954 23.1515 52.4967 27.4097 51.3564 31.9868C51.2766 32.4094 51.8986 32.7124 52.1139 32.2898Z" fill="#70C1FF"/>
<path d="M49.6579 34.2918C47.7999 36.2933 45.615 37.4256 43.3504 38.837C43.2792 38.8773 43.2252 38.9423 43.1986 39.0196C43.172 39.097 43.1747 39.1814 43.2061 39.257C43.2375 39.3325 43.2954 39.394 43.369 39.4297C43.4426 39.4655 43.5268 39.473 43.6055 39.451C46.1971 38.829 48.4857 36.7717 50.1283 34.7702C50.3995 34.4353 49.9529 33.9728 49.6579 34.2918V34.2918Z" fill="#70C1FF"/>
<g style="mix-blend-mode:multiply" opacity="0.42">
<path d="M64.9998 25.3447C68.0649 31.1556 68.999 37.8561 67.6401 44.2837C66.2812 50.7113 62.715 56.4604 57.5602 60.5334C52.4055 64.6064 45.9875 66.7464 39.4199 66.5819C32.8523 66.4175 26.5494 63.9591 21.605 59.6332C23.5308 63.2841 26.2366 66.4664 29.5303 68.9541C32.8241 71.4419 36.6251 73.1741 40.6635 74.028C44.7019 74.8818 48.8787 74.8362 52.8976 73.8944C56.9164 72.9527 60.6787 71.1379 63.9173 68.5789C67.156 66.0198 69.7918 62.7792 71.6374 59.0872C73.483 55.3951 74.4933 51.342 74.5967 47.2156C74.7 43.0892 73.8937 38.9907 72.2352 35.2109C70.5766 31.431 68.1064 28.0626 64.9998 25.3447V25.3447Z" fill="#4FB3FF"/>
</g>
<g style="mix-blend-mode:multiply" opacity="0.26">
<path d="M62.4483 23.3516C64.3728 28.9518 64.4806 35.0165 62.7562 40.6816C61.0319 46.3466 57.5634 51.3228 52.8452 54.9011C48.1269 58.4793 42.3996 60.477 36.4794 60.6094C30.5592 60.7419 24.7483 59.0022 19.8748 55.6385C21.32 59.8442 23.742 63.6472 26.942 66.7354C30.1419 69.8235 34.0286 72.1089 38.2829 73.4039C42.5373 74.6988 47.0381 74.9664 51.4159 74.1848C55.7938 73.4031 59.9238 71.5945 63.4672 68.9073C67.0105 66.22 69.8662 62.7309 71.7997 58.7261C73.7332 54.7214 74.6894 50.3152 74.59 45.8692C74.4905 41.4233 73.3383 37.0643 71.2276 33.15C69.117 29.2357 66.1082 25.8777 62.4483 23.3516Z" fill="#4398D8"/>
</g>
<g style="mix-blend-mode:overlay" opacity="0.35">
<path d="M19.2686 39.2197C20.5267 41.4867 22.2372 43.4711 24.2938 45.0498C26.3505 46.6285 28.7095 47.768 31.2247 48.3974C33.7398 49.0269 36.3575 49.133 38.9153 48.7092C41.4732 48.2853 43.9167 47.3406 46.0944 45.9335C48.2721 44.5264 50.1375 42.6869 51.575 40.5292C53.0126 38.3715 53.9915 35.9415 54.4512 33.3898C54.9109 30.8382 54.8415 28.2193 54.2474 25.6955C53.6533 23.1718 52.5471 20.797 50.9974 18.7184C49.4945 18.4749 47.9746 18.3522 46.4521 18.3516C40.2557 18.3518 34.2325 20.3972 29.3174 24.1705C24.4022 27.9437 20.8699 33.2337 19.2686 39.2197Z" fill="#9DBEFF"/>
</g>
<g style="mix-blend-mode:multiply" opacity="0.26">
<path d="M65.8292 26.1025C69.8002 31.8193 71.5102 38.8056 70.6284 45.7102C69.7466 52.6147 66.3357 58.947 61.0554 63.4824C55.7751 68.0177 49.0006 70.4338 42.042 70.2634C35.0835 70.093 28.4353 67.3483 23.3833 62.56C25.6289 65.7928 28.528 68.5182 31.8932 70.56C35.2584 72.6018 39.0147 73.9145 42.9192 74.4132C46.8237 74.9118 50.7894 74.5853 54.5597 73.4548C58.33 72.3243 61.8211 70.415 64.8071 67.8503C67.793 65.2856 70.2074 62.1227 71.894 58.5661C73.5806 55.0096 74.5018 51.1386 74.5982 47.2036C74.6945 43.2686 73.9638 39.3572 72.4533 35.7224C70.9428 32.0876 68.6861 28.8103 65.8292 26.1025V26.1025Z" fill="#6399C3"/>
</g>
<g style="mix-blend-mode:lighten" opacity="0.28">
<path d="M66.1722 26.461C63.5152 23.8433 60.3618 21.7831 56.8973 20.4014C53.4327 19.0197 49.727 18.3444 45.9978 18.4152C45.7107 18.4152 45.4317 18.4152 45.1446 18.4152H44.9692C44.4429 18.4152 43.9166 18.487 43.3744 18.5428H43.2388C42.9597 18.5428 42.6726 18.6066 42.3935 18.6544C41.8619 18.7342 41.3303 18.8299 40.7987 18.9415L40.6233 18.9813C39.8157 19.1473 39.0172 19.3549 38.2311 19.6033L38.0317 19.6591C37.2556 19.909 36.4901 20.1881 35.7352 20.4964L35.5518 20.5762C35.0654 20.7835 34.579 21.0068 34.1005 21.238L33.351 21.6287L33.1994 21.7085C32.7609 21.9397 32.3303 22.1869 31.8997 22.4501L31.7641 22.5298C31.5329 22.6733 31.3016 22.8169 31.0783 22.9684H31.0305C30.5919 23.2554 30.1693 23.5505 29.7467 23.8615L29.5872 23.9891C28.9413 24.4675 28.3193 24.9858 27.7213 25.5201L27.5618 25.6636C26.9717 26.2059 26.3896 26.772 25.8474 27.3701C25.8008 27.4113 25.7581 27.4567 25.7198 27.5056C25.353 27.8964 25.0101 28.303 24.6672 28.7177C24.4758 28.9489 24.3084 29.1722 24.1409 29.3875L24.0612 29.4991C23.7502 29.9058 23.4552 30.2966 23.1681 30.7511C23.1344 30.7904 23.105 30.8331 23.0804 30.8787C19.2344 36.6586 17.6628 43.6572 18.6684 50.5266C19.6739 57.396 23.1854 63.6505 28.5266 68.0856C23.9727 63.6225 21.0721 57.7433 20.3011 51.4138C19.5302 45.0842 20.9349 38.6806 24.2845 33.2549C26.161 34.8549 28.4359 35.9168 30.8675 36.3276C33.2991 36.7385 35.7965 36.483 38.0946 35.5883C40.3926 34.6936 42.4054 33.1932 43.9191 31.2463C45.4328 29.2995 46.3909 26.979 46.6916 24.5313C46.8776 23.0017 46.8048 21.4517 46.4763 19.9462C48.205 19.8381 49.9399 19.8888 51.6594 20.0977C57.0088 20.7769 62.0484 22.9866 66.1722 26.461V26.461Z" fill="white"/>
</g>
<path style="mix-blend-mode:multiply" d="M66.3652 66.3851C77.3485 55.4018 77.3485 37.5943 66.3652 26.611C55.3819 15.6277 37.5744 15.6277 26.5911 26.611C15.6078 37.5943 15.6078 55.4018 26.5911 66.3851C37.5745 77.3684 55.3819 77.3684 66.3652 66.3851Z" fill="url(#paint0_linear_26_1588)"/>
<path style="mix-blend-mode:overlay" opacity="0.6" d="M66.3652 66.3851C77.3485 55.4018 77.3485 37.5943 66.3652 26.611C55.3819 15.6277 37.5744 15.6277 26.5911 26.611C15.6078 37.5943 15.6078 55.4018 26.5911 66.3851C37.5745 77.3684 55.3819 77.3684 66.3652 66.3851Z" fill="url(#paint1_linear_26_1588)"/>
<path opacity="0.48" d="M39.0124 41.2528C44.6274 41.2528 49.1793 36.7009 49.1793 31.0859C49.1793 25.4708 44.6274 20.9189 39.0124 20.9189C33.3973 20.9189 28.8455 25.4708 28.8455 31.0859C28.8455 36.7009 33.3973 41.2528 39.0124 41.2528Z" fill="url(#paint2_radial_26_1588)"/>
<defs>
<linearGradient id="paint0_linear_26_1588" x1="26.5859" y1="26.6105" x2="66.3685" y2="66.3851" gradientUnits="userSpaceOnUse">
<stop stop-color="white"/>
<stop offset="1" stop-color="#003EE7"/>
</linearGradient>
<linearGradient id="paint1_linear_26_1588" x1="70.459" y1="60.9949" x2="22.6371" y2="31.1765" gradientUnits="userSpaceOnUse">
<stop stop-color="white"/>
<stop offset="1" stop-color="#ECECEC"/>
</linearGradient>
<radialGradient id="paint2_radial_26_1588" cx="0" cy="0" r="1" gradientUnits="userSpaceOnUse" gradientTransform="translate(39.0124 31.0859) scale(10.1669)">
<stop stop-color="#ECECEC"/>
<stop offset="0.55" stop-color="#EEEEEE"/>
<stop offset="0.84" stop-color="#F6F6F6"/>
<stop offset="1" stop-color="white"/>
</radialGradient>
</defs>
</svg>
