<svg width="93" height="93" viewBox="0 0 93 93" fill="none" xmlns="http://www.w3.org/2000/svg">
<path d="M73.6798 56.9439C79.5311 42.6206 72.1019 26.4845 57.0862 20.9029C42.0704 15.3214 25.1543 22.408 19.3029 36.7313C13.4515 51.0547 20.8807 67.1908 35.8965 72.7723C50.9122 78.3539 67.8284 71.2673 73.6798 56.9439Z" fill="#F1AC5E"/>
<path d="M75.6789 46.8167C75.6908 43.1381 74.9361 39.4938 73.4588 36.0957C72.52 38.3603 70.8358 40.2728 68.6594 41.5458C66.5291 42.7448 63.9825 43.3365 62.1297 44.9482C60.2768 46.5598 59.5831 48.7321 57.9506 50.3593C53.0533 55.241 44.0259 52.4459 38.0349 55.9962C35.7413 57.351 34.1007 59.5388 31.8235 60.9246C29.1054 62.5752 25.7508 62.9256 22.5186 62.6998C26.0646 67.5686 31.1477 71.2302 37.0274 73.1512C42.9071 75.0723 49.2763 75.1524 55.2071 73.3799C61.1378 71.6074 66.3204 68.0748 69.9997 63.2969C73.6791 58.5189 75.663 52.7452 75.6626 46.8167H75.6789Z" fill="#F19B3A"/>
<path d="M47.9767 52.3056C50.0907 52.8662 54.5065 52.3445 56.9551 49.6662C59.4038 46.9879 57.902 45.2283 55.5349 46.3728C53.1679 47.5174 45.7076 51.7061 47.9767 52.3056Z" fill="#F19B3A"/>
<path d="M66.2925 44.2942C65.7293 43.9283 64.7825 44.4888 64.3091 44.8081C63.8357 45.1273 62.8726 45.8202 63.248 46.5443C63.6235 47.2684 64.3744 46.9803 64.8805 46.7C65.6778 46.2531 66.4415 45.7536 67.1659 45.2051C67.2435 45.1288 67.2991 45.0346 67.3272 44.9317C67.3553 44.8288 67.355 44.7207 67.3262 44.6179C67.2974 44.5152 67.2412 44.4213 67.163 44.3454C67.0849 44.2696 66.9874 44.2144 66.8802 44.1852C65.5824 43.8893 63.5174 44.4266 63.4847 45.9837C63.4891 46.0991 63.5284 46.2107 63.5977 46.3053C63.667 46.3999 63.7635 46.4734 63.8755 46.517C63.9876 46.5606 64.1104 46.5724 64.2293 46.551C64.3482 46.5296 64.4581 46.4759 64.5458 46.3964C65.1416 45.8981 65.5987 45.1506 66.5374 45.3609L66.2599 44.3409C65.8436 44.6523 65.4436 44.9404 64.9784 45.2207L64.2438 45.6567L64.0234 45.7735C64.203 46.2484 64.3826 46.373 64.554 46.1628C64.7254 45.9526 64.8805 45.8436 65.0355 45.7268C65.1906 45.61 65.4192 45.4621 65.6151 45.3375C65.9497 45.1351 66.3007 45.0183 66.4313 44.6446C66.4504 44.5789 66.4463 44.509 66.4198 44.4457C66.3932 44.3825 66.3457 44.3292 66.2844 44.2942H66.2925Z" fill="#F1AC5E"/>
<path d="M63.2071 47.7426C63.0246 47.731 62.8418 47.7601 62.6732 47.8277C62.5045 47.8952 62.3548 47.9994 62.2358 48.1319C62.1585 48.2091 62.1063 48.3059 62.0855 48.4107C62.0647 48.5156 62.0761 48.6239 62.1184 48.7227C62.1606 48.8215 62.232 48.9065 62.3238 48.9674C62.4156 49.0284 62.5239 49.0627 62.6357 49.0662C62.8862 49.0683 63.1276 48.9765 63.3077 48.8105C63.4879 48.6444 63.5925 48.4175 63.5989 48.1786C63.5981 48.0563 63.5554 47.9377 63.4773 47.8407C63.3992 47.7437 63.29 47.6737 63.1663 47.6414C62.5541 47.4546 61.6155 48.0463 61.8685 48.7003C61.9039 48.8096 61.9739 48.9057 62.0689 48.9754C62.1639 49.0451 62.2793 49.085 62.399 49.0896C62.5169 49.0896 62.6334 49.0652 62.7405 49.0182C62.8476 48.9711 62.9427 48.9025 63.0194 48.8171C63.1418 48.7003 62.9459 48.8638 63.0928 48.7704C63.2397 48.6769 63.1663 48.7704 63.0928 48.7704C63.1652 48.7509 63.2321 48.7163 63.2887 48.6691L62.4154 48.1942C62.4153 48.1419 62.4366 48.0915 62.4746 48.0537C62.5127 48.016 62.5646 47.9938 62.6194 47.9918L63.1744 48.6769C63.212 48.5611 63.2762 48.4548 63.3622 48.3655C63.4261 48.3289 63.4757 48.2734 63.5036 48.2075C63.5315 48.1416 63.5361 48.0688 63.5167 48.0002C63.4973 47.9315 63.455 47.8708 63.3962 47.8271C63.3374 47.7835 63.2653 47.7593 63.1908 47.7582L63.2071 47.7426Z" fill="#F1AC5E"/>
<path d="M65.8922 28.2707C65.4025 28.769 65.4515 29.1583 65.2882 29.8278C65.0314 30.8467 64.6042 31.8194 64.0231 32.7086C62.8424 34.3058 61.4235 35.7301 59.8114 36.9363C59.5828 37.1231 59.8685 37.4423 60.1215 37.3178C62.1695 36.3357 63.9074 34.8526 65.1576 33.02C65.9249 31.8443 67.2063 29.4775 66.0636 28.2629C66.0407 28.2415 66.01 28.2295 65.9779 28.2295C65.9459 28.2295 65.9151 28.2415 65.8922 28.2629V28.2707Z" fill="#F1AC5E"/>
<path d="M57.1343 40.4006C54.6285 41.3505 53.1511 43.1568 51.3146 44.9631C48.7599 47.4545 45.6011 48.3343 42.3362 49.7591C41.9852 49.9148 42.2383 50.3976 42.5811 50.3275C45.4871 49.7665 48.227 48.5993 50.6045 46.9095C53.0532 45.0643 54.6856 42.347 57.4199 40.8911C57.6893 40.7432 57.5016 40.2916 57.1996 40.4006H57.1343Z" fill="#F1AC5E"/>
<path d="M28.7056 66.4839C31.0971 65.8766 33.2274 64.6387 35.6842 64.1482C38.2227 63.6828 40.7917 63.3836 43.373 63.2528C47.8377 62.918 53.1676 62.7467 56.71 59.8348C57.1834 59.4533 56.71 58.6903 56.1142 58.8616C53.6385 59.6634 51.1076 60.3007 48.5397 60.7691C45.7809 61.1896 42.9975 61.2752 40.2224 61.5477C36.3617 61.9136 30.5339 62.4119 28.0689 65.6975C27.7751 66.1024 28.2648 66.6007 28.7056 66.4761V66.4839Z" fill="#F1AC5E"/>
<path d="M65.9336 52.2045C64.5542 52.843 63.6401 53.9797 62.4973 54.914C61.3546 55.8483 59.6487 56.4712 59.0203 57.6157C58.9689 57.6923 58.9402 57.7807 58.9371 57.8715C58.9339 57.9624 58.9565 58.0524 59.0024 58.1321C59.0484 58.2117 59.116 58.2781 59.1981 58.3243C59.2802 58.3704 59.3739 58.3946 59.4692 58.3943C60.8159 58.55 62.2362 57.2965 63.2075 56.5179C64.3936 55.4113 65.4853 54.2163 66.4723 52.9442C66.5517 52.8664 66.599 52.7639 66.6056 52.6555C66.6122 52.5471 66.5777 52.44 66.5082 52.354C66.4388 52.2679 66.3393 52.2086 66.2277 52.1869C66.1162 52.1651 66.0002 52.1825 65.901 52.2357L65.9336 52.2045Z" fill="#F1AC5E"/>
<path d="M19.8654 38.4078C21.7019 39.3888 23.3017 38.0107 24.7628 37.0141C27.2114 35.4025 29.758 33.8998 32.7943 33.7986C35.6674 33.6896 38.5079 34.3514 41.3891 34.2113C43.9258 34.1749 46.4186 33.5751 48.6698 32.4595C49.1024 32.2259 48.9473 31.4551 48.4005 31.5096C45.7967 31.8054 43.2256 32.3894 40.5974 32.4439C37.9692 32.4984 35.3981 31.9378 32.7943 32.0702C30.7778 32.2007 28.8212 32.7793 27.0808 33.7597C24.975 34.912 22.5345 37.8239 20.0368 37.8317C19.9659 37.8318 19.8969 37.8539 19.8404 37.8948C19.7838 37.9356 19.7427 37.993 19.7233 38.0581C19.704 38.1232 19.7074 38.1925 19.733 38.2556C19.7586 38.3187 19.8051 38.3721 19.8654 38.4078V38.4078Z" fill="#F1AC5E"/>
<path d="M58.8506 23.2157H58.8098C58.5683 23.0863 58.2837 23.0513 58.0157 23.1181C57.7478 23.1849 57.5174 23.3483 57.3732 23.5738C56.557 24.8273 56.4835 26.5947 55.7408 27.9572C54.8904 29.4855 53.7881 30.8735 52.4759 32.0681C52.3908 32.1538 52.3371 32.2636 52.3231 32.3809C52.309 32.4982 52.3352 32.6167 52.3978 32.7186C52.4604 32.8204 52.556 32.9001 52.6702 32.9457C52.7843 32.9913 52.9109 33.0003 53.0309 32.9713C54.2289 32.6922 55.3472 32.1634 56.3054 31.423C57.2637 30.6826 58.0381 29.749 58.5731 28.6891C59.1281 27.6069 60.3932 24.0799 58.7853 23.239L58.8506 23.2157Z" fill="#F18913"/>
<path d="M19.3197 44.9635V45.0414C19.3208 45.1148 19.3394 45.187 19.3742 45.2525C19.409 45.318 19.459 45.3751 19.5204 45.4194C19.5818 45.4637 19.653 45.494 19.7285 45.5081C19.804 45.5222 19.882 45.5197 19.9563 45.5007C21.548 45.236 22.9437 43.9436 24.1109 42.9314C24.9207 42.218 25.8265 41.6105 26.8044 41.1251C27.8818 40.6034 28.9674 40.3465 29.8979 39.6302C30.608 39.0619 29.9795 38.0731 29.1959 38.0108C26.8371 37.8784 24.2986 39.6847 22.8049 41.312C22.1077 42.2439 21.3498 43.1333 20.5358 43.9747C20.5358 43.9747 19.2707 44.6365 19.3115 44.9635H19.3197Z" fill="#F18913"/>
<path d="M32.3214 49.0127C32.9907 48.818 33.6681 48.7324 34.3211 48.4832C34.9741 48.2341 35.725 48.1173 36.1005 47.5489C36.1943 47.3775 36.2178 47.1789 36.1665 46.9918C36.1152 46.8047 35.9927 46.6425 35.8229 46.5368C35.1373 46.1319 34.1007 46.5368 33.4314 46.8326C32.7415 47.191 32.1747 47.7317 31.799 48.3898C31.7586 48.46 31.7405 48.5398 31.7469 48.6197C31.7532 48.6995 31.7838 48.7758 31.8348 48.8393C31.8859 48.9029 31.9552 48.9509 32.0343 48.9775C32.1135 49.0042 32.199 49.0082 32.2806 48.9893L32.3214 49.0127Z" fill="#F19B3A"/>
<path d="M49.5757 20.6522C49.2166 22.2094 48.2616 23.7665 48.5064 25.3237C48.5573 25.5046 48.6701 25.6641 48.8268 25.777C48.9836 25.8898 49.1753 25.9495 49.3716 25.9465C51.9835 25.6351 52.5549 22.6843 52.2039 20.6366C51.9917 19.3598 49.845 19.4298 49.5757 20.6366V20.6522Z" fill="#F18913"/>
<path d="M47.7881 25.6081C47.633 25.7015 47.4616 25.7794 47.3065 25.8728C47.1338 25.9999 46.9776 26.1463 46.8413 26.3088C46.5187 26.6139 46.3242 27.021 46.2944 27.4533C46.2985 27.5843 46.3549 27.7088 46.452 27.8014C46.5491 27.894 46.6796 27.9477 46.8168 27.9516C47.05 27.9575 47.2799 27.898 47.4779 27.7804C47.7495 27.6841 47.9852 27.5135 48.1554 27.2899C48.3106 27.1215 48.4299 26.9257 48.5064 26.7137C48.551 26.5027 48.5837 26.2896 48.6043 26.0753C48.6062 25.9837 48.5819 25.8934 48.5341 25.8139C48.4864 25.7344 48.4169 25.6688 48.3331 25.6241C48.2493 25.5793 48.1544 25.5571 48.0584 25.5598C47.9624 25.5625 47.869 25.5899 47.7881 25.6393V25.6081Z" fill="#F18913"/>
<path d="M45.1774 28.5431C44.7528 28.8605 44.2962 29.137 43.8143 29.3684C43.6054 29.4965 43.4111 29.6453 43.2348 29.8122C42.9981 29.9835 42.7614 30.0691 42.6308 30.3494C42.5948 30.4116 42.5738 30.4806 42.5695 30.5516C42.5651 30.6225 42.5775 30.6934 42.6057 30.7592C42.6339 30.8249 42.6772 30.8838 42.7324 30.9314C42.7876 30.9791 42.8533 31.0143 42.9247 31.0346C43.2499 31.082 43.5818 31.0643 43.8995 30.9825C44.2171 30.9008 44.5133 30.7568 44.7693 30.5597C45.2623 30.1613 45.6985 29.7033 46.0671 29.1971C46.4752 28.6677 45.6345 28.1694 45.1774 28.5431V28.5431Z" fill="#F18913"/>
<path d="M31.4154 38.8515C31.7089 38.8971 32.0091 38.8839 32.2969 38.8126C32.4558 38.809 32.6141 38.7934 32.7704 38.7659C32.9173 38.7269 33.0805 38.6413 33.2274 38.5946C33.4044 38.5345 33.5542 38.4181 33.6516 38.2649C33.7491 38.1117 33.7881 37.9312 33.7622 37.7537C33.7363 37.5763 33.6471 37.4128 33.5095 37.2908C33.3719 37.1688 33.1945 37.0958 33.0071 37.0841C32.6115 37.0313 32.2083 37.0909 31.848 37.2554C31.5002 37.3585 31.1986 37.5695 30.991 37.8549C30.9389 37.9452 30.9087 38.0455 30.9024 38.1483C30.8961 38.2512 30.9139 38.3541 30.9545 38.4496C30.9952 38.5451 31.0577 38.6307 31.1374 38.7002C31.2171 38.7697 31.3121 38.8214 31.4154 38.8515V38.8515Z" fill="#F18913"/>
<path d="M35.1783 38.05C35.4058 38.0529 35.6285 37.9875 35.8149 37.8631C35.8963 37.8161 35.9618 37.7479 36.0037 37.6665C36.0457 37.5851 36.0623 37.4939 36.0517 37.4038C35.9864 36.9522 35.3905 36.9366 35.0314 37.0223C34.9108 37.0627 34.8085 37.1416 34.7419 37.2456C34.6752 37.3497 34.6482 37.4725 34.6655 37.5933C34.6828 37.7141 34.7432 37.8255 34.8367 37.9087C34.9301 37.9919 35.0508 38.0418 35.1783 38.05V38.05Z" fill="#F18913"/>
<path d="M62.2194 29.5713C61.9707 29.5891 61.738 29.6946 61.5664 29.8672C61.444 29.9917 61.3297 30.1319 61.2154 30.2642C60.9701 30.4782 60.8112 30.7675 60.7665 31.0817C60.7621 31.2242 60.7958 31.3654 60.8643 31.4921C60.9328 31.6187 61.034 31.7267 61.1583 31.8058C61.2955 31.8788 61.4501 31.9171 61.6072 31.9171C61.7643 31.9171 61.9189 31.8788 62.0561 31.8058C62.2711 31.6523 62.4445 31.4521 62.5622 31.2219C62.652 31.0817 62.7662 30.9338 62.8479 30.7859C62.9654 30.5421 62.9913 30.2672 62.9213 30.0073C62.8794 29.8691 62.7826 29.7519 62.6515 29.6806C62.5204 29.6094 62.3654 29.5897 62.2194 29.6258V29.5713Z" fill="#F18913"/>
<path d="M59.5095 31.9617C59.2644 32.0114 59.0385 32.1245 58.8565 32.2887C58.7487 32.4586 58.6663 32.642 58.6116 32.8337C58.602 32.874 58.6018 32.9159 58.6111 32.9563C58.6204 32.9968 58.639 33.0347 58.6656 33.0675C58.6921 33.1002 58.7259 33.127 58.7646 33.1458C58.8032 33.1646 58.8458 33.175 58.8891 33.1762C59.0964 33.1686 59.3019 33.1373 59.5013 33.0828C59.7217 32.9894 59.8523 32.7402 59.991 32.5612C60.1298 32.3821 59.8441 31.8293 59.5095 31.9617Z" fill="#F18913"/>
<path d="M59.6969 44.6517C59.5419 44.6517 59.9173 44.5972 59.7622 44.6517C59.6072 44.7062 59.9663 44.6517 60.0398 44.6517C60.3079 44.6184 60.5631 44.5221 60.7825 44.3715H60.856L61.1825 44.2469C61.3642 44.1902 61.5268 44.0881 61.6531 43.9512C61.7794 43.8143 61.8649 43.6475 61.9007 43.4683L61.46 44.0055L61.7293 43.8187C61.9094 43.7442 62.0554 43.6103 62.1404 43.4416C62.2254 43.2728 62.2438 43.0805 62.1923 42.8998C62.1407 42.7191 62.0226 42.5623 61.8596 42.4579C61.6967 42.3535 61.4997 42.3087 61.3049 42.3316H60.9866L61.46 42.4562C60.8233 42.0124 60.0969 42.5029 59.6153 42.9311C59.4768 43.0316 59.3612 43.1581 59.2756 43.3026C59.19 43.4472 59.1362 43.6069 59.1174 43.772C59.1174 43.8343 59.1174 44.1768 59.1174 44.0289V44.2391C59.1177 44.3045 59.1336 44.369 59.164 44.4276C59.1944 44.4862 59.2385 44.5374 59.2929 44.5772C59.3473 44.6171 59.4105 44.6445 59.4777 44.6574C59.5449 44.6703 59.6143 44.6684 59.6806 44.6517H59.6969Z" fill="#F19B3A"/>
<path d="M45.4214 51.7763C44.679 51.7853 43.9431 51.9089 43.2421 52.1422C42.918 52.2432 42.6017 52.3655 42.2953 52.5081C41.8463 52.7106 41.8055 52.8429 41.4791 53.1933C41.4339 53.2403 41.4037 53.2988 41.3922 53.3616C41.3807 53.4245 41.3882 53.4892 41.414 53.5481C41.4397 53.607 41.4825 53.6577 41.5375 53.6941C41.5924 53.7306 41.6571 53.7513 41.7239 53.7538C42.043 53.8278 42.3761 53.8278 42.6952 53.7538C43.0522 53.6663 43.4037 53.5597 43.7481 53.4346C44.4122 53.2206 45.0478 52.9332 45.6418 52.5782C45.7273 52.5266 45.7933 52.4502 45.8301 52.3603C45.8668 52.2703 45.8723 52.1715 45.8458 52.0783C45.8194 51.9851 45.7623 51.9025 45.6829 51.8425C45.6036 51.7825 45.5062 51.7484 45.4051 51.7451L45.4214 51.7763Z" fill="#F19B3A"/>
<g style="mix-blend-mode:multiply" opacity="0.61">
<path d="M67.8113 27.8193C69.4867 33.8154 69.0135 40.1735 66.467 45.8837C63.9204 51.5939 59.4465 56.3286 53.756 59.3357C48.0655 62.3427 41.4848 63.4497 35.0592 62.4807C28.6336 61.5117 22.7318 58.5223 18.2913 53.9874C19.4298 58.0805 21.5322 61.8719 24.4384 65.0732C27.3446 68.2744 30.9781 70.8011 35.0623 72.461C39.1465 74.1208 43.5738 74.8701 48.0073 74.6519C52.4409 74.4336 56.7638 73.2535 60.6472 71.2014C64.5306 69.1493 67.872 66.2793 70.4173 62.8097C72.9626 59.3401 74.6447 55.3623 75.3355 51.1792C76.0263 46.9961 75.7076 42.7177 74.4038 38.6698C73.0999 34.6218 70.8452 30.9108 67.8113 27.8193V27.8193Z" fill="#F1AC5E"/>
</g>
<g style="mix-blend-mode:multiply" opacity="0.82">
<path d="M65.9017 26.0361C69.4663 31.746 70.7716 38.484 69.5816 45.0319C68.3916 51.5798 64.7848 57.5055 59.4134 61.7377C54.042 65.9699 47.2604 68.2292 40.2947 68.1071C33.329 67.9851 26.639 65.4897 21.4341 61.0723C23.5875 64.5216 26.4976 67.4857 29.9648 69.7614C33.432 72.037 37.3742 73.5703 41.521 74.256C45.6678 74.9417 49.9211 74.7637 53.989 73.7341C58.0569 72.7044 61.8431 70.8476 65.088 68.291C68.3329 65.7343 70.9596 62.5384 72.7879 58.9224C74.6162 55.3064 75.6028 51.3559 75.6801 47.342C75.7574 43.3281 74.9235 39.3457 73.2357 35.6681C71.5478 31.9905 69.0459 28.7047 65.9017 26.0361V26.0361Z" fill="#F1AC5E"/>
</g>
<g style="mix-blend-mode:screen" opacity="0.25">
<path d="M69.7456 29.999C73.9859 36.0159 75.5984 43.3732 74.2403 50.5066C72.8822 57.6399 68.6607 63.9866 62.4733 68.1972C56.2859 72.4077 48.6208 74.15 41.1077 73.0535C33.5946 71.957 26.8262 68.1083 22.2417 62.3257C24.4074 65.4361 27.207 68.0991 30.4737 70.1564C33.7404 72.2137 37.4076 73.6232 41.257 74.301C45.1064 74.9788 49.0594 74.9111 52.8809 74.1019C56.7023 73.2927 60.3141 71.7586 63.5012 69.5907C66.6884 67.4229 69.3859 64.6656 71.4332 61.4831C73.4805 58.3005 74.8357 54.7577 75.4183 51.0653C76.0009 47.3729 75.7989 43.6065 74.8244 39.9901C73.8499 36.3737 72.1227 32.9813 69.7456 30.0146V29.999Z" fill="#F1AC5E"/>
</g>
<g style="mix-blend-mode:screen" opacity="0.58">
<path d="M67.4525 27.4612C64.7394 24.7803 61.4882 22.648 57.8927 21.1913C54.2972 19.7346 50.431 18.9834 46.5246 18.9825C45.5186 18.9807 44.5132 19.03 43.5128 19.1304C42.9904 19.1771 42.468 19.2472 41.9619 19.325L41.5212 19.3951C41.1539 19.4574 40.7947 19.5197 40.4275 19.5976L39.9051 19.7143L38.9256 19.9401L38.3787 20.0881C38.0604 20.1815 37.7503 20.2671 37.4401 20.3683L36.9014 20.5396L35.9872 20.8589L35.473 21.0535C35.1547 21.1781 34.8445 21.3104 34.5425 21.4428L34.0854 21.6374L33.0733 22.1201L32.7387 22.2837C31.841 22.7434 30.9692 23.2476 30.1268 23.7941L29.9635 23.9031C29.6044 24.1367 29.2534 24.378 28.9106 24.6272L28.6004 24.8608C28.3066 25.0788 28.0209 25.3045 27.7352 25.5303L27.3924 25.8106C27.1231 26.0364 26.8619 26.2544 26.5762 26.488L26.2252 26.7994L25.4906 27.5079C25.3845 27.6092 25.2703 27.7182 25.1723 27.8272C24.9193 28.0763 24.6826 28.3332 24.4459 28.6057C24.3561 28.7147 24.2582 28.8082 24.1684 28.9172C23.9153 29.2052 23.6705 29.4933 23.4256 29.7892L23.2297 30.0305C22.9277 30.412 22.6339 30.8091 22.3564 31.1906C18.3645 36.7919 16.652 43.5899 17.5401 50.3098C18.4282 57.0296 21.8559 63.2095 27.1802 67.6905C22.5422 63.1294 19.6815 57.1908 19.0742 50.8631C18.4668 44.5353 20.1494 38.2 23.8419 32.9113C25.8105 34.8007 28.3939 35.9958 31.1682 36.3006C33.9424 36.6055 36.743 36.002 39.1104 34.5891C41.4779 33.1762 43.2717 31.0378 44.1977 28.5246C45.1236 26.0115 45.1268 23.2727 44.2065 20.7576C45.5099 20.5826 46.8245 20.4942 48.1407 20.4929C55.2555 20.4808 62.1274 22.9604 67.4525 27.4612V27.4612Z" fill="#F1AC5E"/>
</g>
<g style="mix-blend-mode:screen" opacity="0.25">
<path d="M44.6221 19.0449C37.5045 19.4814 30.801 22.3894 25.778 27.2194C20.7551 32.0495 17.7606 38.4671 17.3604 45.2597C21.0333 48.5705 25.9178 50.3802 30.9705 50.3023C36.0233 50.2244 40.8439 48.2651 44.4028 44.8429C47.9617 41.4207 49.9769 36.8067 50.0178 31.9865C50.0588 27.1662 48.1223 22.5217 44.6221 19.0449V19.0449Z" fill="#F1AC5E"/>
</g>
<g style="mix-blend-mode:screen" opacity="0.5">
<path d="M46.6475 26.0599C46.6459 26.5514 46.7972 27.0324 47.0823 27.4418C47.3674 27.8513 47.7735 28.1709 48.2491 28.36C48.7248 28.5492 49.2485 28.5995 49.7542 28.5045C50.2598 28.4096 50.7245 28.1737 51.0894 27.8266C51.4544 27.4796 51.7032 27.0371 51.8043 26.5551C51.9054 26.0731 51.8544 25.5733 51.6575 25.119C51.4607 24.6647 51.127 24.2764 50.6986 24.0031C50.2703 23.7299 49.7665 23.584 49.2512 23.584C48.5621 23.584 47.901 23.8446 47.413 24.3087C46.9249 24.7728 46.6496 25.4025 46.6475 26.0599V26.0599Z" fill="#F1AC5E"/>
</g>
<g style="mix-blend-mode:screen" opacity="0.5">
<path d="M45.21 31.7827C45.21 32.0907 45.3057 32.3918 45.4851 32.6479C45.6644 32.9039 45.9194 33.1035 46.2177 33.2214C46.516 33.3392 46.8442 33.3701 47.1609 33.31C47.4775 33.2499 47.7684 33.1016 47.9967 32.8838C48.225 32.6661 48.3805 32.3886 48.4435 32.0865C48.5065 31.7845 48.4741 31.4714 48.3506 31.1869C48.227 30.9023 48.0178 30.6591 47.7493 30.488C47.4809 30.3169 47.1653 30.2256 46.8424 30.2256C46.4127 30.2355 46.0035 30.4027 45.6996 30.6926C45.3956 30.9825 45.2203 31.3729 45.21 31.7827V31.7827Z" fill="#F1AC5E"/>
</g>
<path style="mix-blend-mode:multiply" opacity="0.51" d="M73.681 56.9439C79.5324 42.6206 72.1032 26.4845 57.0874 20.9029C42.0716 15.3214 25.1555 22.408 19.3041 36.7313C13.4527 51.0547 20.8819 67.1908 35.8977 72.7723C50.9134 78.3539 67.8296 71.2673 73.681 56.9439Z" fill="url(#paint0_linear_26_987)"/>
<defs>
<linearGradient id="paint0_linear_26_987" x1="25.8852" y1="27.1464" x2="65.2064" y2="68.3685" gradientUnits="userSpaceOnUse">
<stop stop-color="#FFF100"/>
<stop offset="1" stop-color="#EC8D66"/>
</linearGradient>
</defs>
</svg>
